<svg width="330" height="276" viewBox="0 0 330 276" fill="none" xmlns="http://www.w3.org/2000/svg">
<mask id="path-1-inside-1_507_257" fill="white">
<path fill-rule="evenodd" clip-rule="evenodd" d="M300.009 0C305.528 0 310.004 4.47234 310.009 9.99209L310.05 62.5598C310.052 64.686 310.731 66.7564 311.99 68.4702L328.061 90.3586C329.321 92.0746 330 94.148 330 96.2769L330 240.073C330 242.84 328.854 245.483 326.834 247.374L299.138 273.3C297.286 275.035 294.842 276 292.304 276L132.831 276C129.762 276 126.864 274.591 124.968 272.178L111.625 255.197C109.729 252.784 106.83 251.375 103.762 251.375L9.99999 251.375C4.47715 251.375 -3.37246e-06 246.898 -3.37246e-06 241.375L-3.37246e-06 10C-3.37246e-06 4.47715 4.47715 0 9.99999 0L300.009 0ZM329.733 276C329.88 276 330 275.88 330 275.733V275.733C330 275.499 329.721 275.377 329.55 275.537V275.537C329.373 275.703 329.49 276 329.733 276V276Z"/>
</mask>
<path d="M111.625 255.197L110.838 255.815L111.625 255.197ZM124.968 272.178L125.754 271.561L124.968 272.178ZM299.138 273.3L298.455 272.57L299.138 273.3ZM326.834 247.374L327.517 248.104L326.834 247.374ZM328.061 90.3586L327.255 90.9504L328.061 90.3586ZM310.009 9.99209L311.009 9.9913L310.009 9.99209ZM310.05 62.5598L311.05 62.559L310.05 62.5598ZM309.05 62.5606L309.009 9.99288L311.009 9.9913L311.05 62.559L309.05 62.5606ZM327.255 90.9504L311.184 69.0621L312.796 67.8784L328.867 89.7668L327.255 90.9504ZM329 240.073L329 96.2769L331 96.2769L331 240.073L329 240.073ZM298.455 272.57L326.151 246.644L327.517 248.104L299.822 274.03L298.455 272.57ZM132.831 275L292.304 275V277L132.831 277V275ZM124.181 272.796L110.838 255.815L112.411 254.579L125.754 271.561L124.181 272.796ZM103.762 252.375L9.99999 252.375V250.375L103.762 250.375V252.375ZM0.999997 10L0.999997 241.375H-1L-1 10H0.999997ZM300.009 1L9.99999 1V-1L300.009 -1V1ZM330.233 276.267C330.718 275.813 330.397 275 329.733 275V277C328.583 277 328.027 275.593 328.866 274.807L330.233 276.267ZM331 275.733C331 276.433 330.433 277 329.733 277V275C329.328 275 329 275.328 329 275.733H331ZM329 275.733C329 276.374 329.765 276.705 330.233 276.267L328.866 274.807C329.676 274.049 331 274.623 331 275.733H329ZM-1 10C-1 3.92487 3.92486 -1 9.99999 -1V1C5.02943 1 0.999997 5.02944 0.999997 10H-1ZM9.99999 252.375C3.92486 252.375 -1 247.451 -1 241.375H0.999997C0.999997 246.346 5.02943 250.375 9.99999 250.375V252.375ZM110.838 255.815C109.132 253.643 106.523 252.375 103.762 252.375V250.375C107.137 250.375 110.325 251.925 112.411 254.579L110.838 255.815ZM132.831 277C129.455 277 126.267 275.45 124.181 272.796L125.754 271.561C127.46 273.732 130.069 275 132.831 275V277ZM299.822 274.03C297.784 275.938 295.096 277 292.304 277V275C294.589 275 296.787 274.131 298.455 272.57L299.822 274.03ZM331 240.073C331 243.117 329.739 246.024 327.517 248.104L326.151 246.644C327.968 244.942 329 242.563 329 240.073L331 240.073ZM328.867 89.7668C330.253 91.6544 331 93.9351 331 96.2769L329 96.2769C329 94.3609 328.389 92.4949 327.255 90.9504L328.867 89.7668ZM309.009 9.99288C309.005 5.0251 304.976 1 300.009 1V-1C306.08 -1 311.004 3.91957 311.009 9.9913L309.009 9.99288ZM311.05 62.559C311.052 64.4726 311.663 66.3359 312.796 67.8784L311.184 69.0621C309.799 67.1768 309.052 64.8995 309.05 62.5606L311.05 62.559Z" fill="#404040" mask="url(#path-1-inside-1_507_257)"/>
</svg>
