<svg width="670" height="600" viewBox="0 0 670 600" fill="none" xmlns="http://www.w3.org/2000/svg">
<mask id="path-1-inside-1_414_63" fill="white">
<path fill-rule="evenodd" clip-rule="evenodd" d="M670 8C670 3.58172 666.418 0 662 0H48C43.5817 0 40 3.58173 40 8.00001L40 216.686C40 218.808 39.1571 220.843 37.6569 222.343L2.34315 257.657C0.842855 259.157 0 261.192 0 263.314V544.496C0 547.008 1.17957 549.374 3.18548 550.885L66.2254 598.389C67.6127 599.435 69.3027 600 71.0399 600H406.686C408.808 600 410.843 599.157 412.343 597.657L447.657 562.343C449.157 560.843 451.192 560 453.314 560H662C666.418 560 670 556.418 670 552V8ZM0.475722 600C0.932351 600 1.1267 599.419 0.762018 599.144V599.144C0.448542 598.908 0 599.132 0 599.524V599.524C0 599.787 0.212988 600 0.475722 600V600Z"/>
</mask>
<path d="M447.657 562.343L448.364 563.05L447.657 562.343ZM412.343 597.657L411.636 596.95L412.343 597.657ZM66.2254 598.389L65.6236 599.188L66.2254 598.389ZM3.18548 550.885L2.58366 551.684L3.18548 550.885ZM40 216.686L39 216.686L40 216.686ZM37.6569 222.343L36.9497 221.636L37.6569 222.343ZM48 1H662V-1H48V1ZM41 216.686L41 8.00001L39 8.00001L39 216.686L41 216.686ZM3.05025 258.364L38.364 223.05L36.9497 221.636L1.63604 256.95L3.05025 258.364ZM1 544.496V263.314H-1V544.496H1ZM2.58366 551.684L65.6236 599.188L66.8272 597.59L3.78729 550.086L2.58366 551.684ZM406.686 599H71.0399V601H406.686V599ZM446.95 561.636L411.636 596.95L413.05 598.364L448.364 563.05L446.95 561.636ZM662 559H453.314V561H662V559ZM669 8V552H671V8H669ZM-1 599.524C-1 600.339 -0.339296 601 0.475722 601V599C0.765273 599 1 599.235 1 599.524H-1ZM1.36383 598.346C0.391408 597.613 -1 598.307 -1 599.524H1C1 599.957 0.505677 600.203 0.160205 599.943L1.36383 598.346ZM0.160205 599.943C-0.241698 599.64 -0.0275128 599 0.475722 599V601C1.89221 601 2.49509 599.198 1.36383 598.346L0.160205 599.943ZM662 561C666.971 561 671 556.971 671 552H669C669 555.866 665.866 559 662 559V561ZM448.364 563.05C449.677 561.737 451.457 561 453.314 561V559C450.927 559 448.638 559.948 446.95 561.636L448.364 563.05ZM406.686 601C409.073 601 411.362 600.052 413.05 598.364L411.636 596.95C410.323 598.263 408.543 599 406.686 599V601ZM65.6236 599.188C67.1844 600.364 69.0856 601 71.0399 601V599C69.5199 599 68.0411 598.505 66.8272 597.59L65.6236 599.188ZM-1 544.496C-1 547.322 0.32702 549.983 2.58366 551.684L3.78729 550.086C2.03213 548.764 1 546.694 1 544.496H-1ZM1.63604 256.95C-0.0517897 258.638 -1 260.927 -1 263.314H1C1 261.457 1.7375 259.677 3.05025 258.364L1.63604 256.95ZM39 216.686C39 218.543 38.2625 220.323 36.9497 221.636L38.364 223.05C40.0518 221.362 41 219.073 41 216.686L39 216.686ZM662 1C665.866 1 669 4.13401 669 8H671C671 3.02944 666.971 -1 662 -1V1ZM48 -1C43.0294 -1 39 3.02944 39 8.00001L41 8.00001C41 4.13401 44.134 1 48 1V-1Z" fill="#707070" mask="url(#path-1-inside-1_414_63)"/>
</svg>
