<svg width="678" height="608" viewBox="0 0 678 608" fill="none" xmlns="http://www.w3.org/2000/svg">
<g filter="url(#filter0_d_403_51)">
<mask id="path-1-inside-1_403_51" fill="white">
<path fill-rule="evenodd" clip-rule="evenodd" d="M674 8C674 3.58172 670.418 0 666 0H52C47.5817 0 44 3.58173 44 8.00001L44 216.686C44 218.808 43.1571 220.843 41.6569 222.343L6.34315 257.657C4.84285 259.157 4 261.192 4 263.314V544.496C4 547.008 5.17957 549.374 7.18548 550.885L70.2254 598.389C71.6127 599.435 73.3027 600 75.0399 600H410.686C412.808 600 414.843 599.157 416.343 597.657L451.657 562.343C453.157 560.843 455.192 560 457.314 560H666C670.418 560 674 556.418 674 552V8ZM4.47572 600C4.93235 600 5.1267 599.419 4.76202 599.144V599.144C4.44854 598.908 4 599.132 4 599.524V599.524C4 599.787 4.21299 600 4.47572 600V600Z"/>
</mask>
<path fill-rule="evenodd" clip-rule="evenodd" d="M674 8C674 3.58172 670.418 0 666 0H52C47.5817 0 44 3.58173 44 8.00001L44 216.686C44 218.808 43.1571 220.843 41.6569 222.343L6.34315 257.657C4.84285 259.157 4 261.192 4 263.314V544.496C4 547.008 5.17957 549.374 7.18548 550.885L70.2254 598.389C71.6127 599.435 73.3027 600 75.0399 600H410.686C412.808 600 414.843 599.157 416.343 597.657L451.657 562.343C453.157 560.843 455.192 560 457.314 560H666C670.418 560 674 556.418 674 552V8ZM4.47572 600C4.93235 600 5.1267 599.419 4.76202 599.144V599.144C4.44854 598.908 4 599.132 4 599.524V599.524C4 599.787 4.21299 600 4.47572 600V600Z" fill="white"/>
<path d="M451.657 562.343L453.071 563.757L451.657 562.343ZM416.343 597.657L414.929 596.243L416.343 597.657ZM70.2254 598.389L69.0217 599.986L70.2254 598.389ZM7.18548 550.885L5.98185 552.482L7.18548 550.885ZM44 216.686L42 216.686L44 216.686ZM41.6569 222.343L40.2426 220.929L41.6569 222.343ZM52 2H666V-2H52V2ZM46 216.686L46 8.00001L42 8.00001L42 216.686L46 216.686ZM7.75736 259.071L43.0711 223.757L40.2426 220.929L4.92893 256.243L7.75736 259.071ZM6 544.496V263.314H2V544.496H6ZM5.98185 552.482L69.0217 599.986L71.429 596.792L8.38911 549.288L5.98185 552.482ZM410.686 598H75.0399V602H410.686V598ZM450.243 560.929L414.929 596.243L417.757 599.071L453.071 563.757L450.243 560.929ZM666 558H457.314V562H666V558ZM672 8V552H676V8H672ZM2 599.524C2 600.892 3.10842 602 4.47572 602V598C5.31756 598 6 598.682 6 599.524H2ZM5.96564 597.547C4.33427 596.318 2 597.482 2 599.524H6C6 600.782 4.56281 601.499 3.55839 600.742L5.96564 597.547ZM3.55839 600.742C2.38991 599.861 3.01262 598 4.47572 598V602C6.85208 602 7.86349 598.977 5.96564 597.547L3.55839 600.742ZM666 562C671.523 562 676 557.523 676 552H672C672 555.314 669.314 558 666 558V562ZM453.071 563.757C454.196 562.632 455.722 562 457.314 562V558C454.662 558 452.118 559.054 450.243 560.929L453.071 563.757ZM410.686 602C413.338 602 415.882 600.946 417.757 599.071L414.929 596.243C413.804 597.368 412.278 598 410.686 598V602ZM69.0217 599.986C70.756 601.293 72.8684 602 75.0399 602V598C73.737 598 72.4695 597.576 71.429 596.792L69.0217 599.986ZM2 544.496C2 547.636 3.47447 550.593 5.98185 552.482L8.38911 549.288C6.88468 548.154 6 546.38 6 544.496H2ZM4.92893 256.243C3.05357 258.118 2 260.662 2 263.314H6C6 261.722 6.63214 260.196 7.75736 259.071L4.92893 256.243ZM42 216.686C42 218.278 41.3679 219.804 40.2426 220.929L43.0711 223.757C44.9464 221.882 46 219.338 46 216.686L42 216.686ZM666 2C669.314 2 672 4.68629 672 8H676C676 2.47715 671.523 -2 666 -2V2ZM52 -2C46.4772 -2 42 2.47716 42 8.00001L46 8.00001C46 4.6863 48.6863 2 52 2V-2Z" fill="#707070" mask="url(#path-1-inside-1_403_51)"/>
</g>
<defs>
<filter id="filter0_d_403_51" x="0" y="0" width="678" height="608" filterUnits="userSpaceOnUse" color-interpolation-filters="sRGB">
<feFlood flood-opacity="0" result="BackgroundImageFix"/>
<feColorMatrix in="SourceAlpha" type="matrix" values="0 0 0 0 0 0 0 0 0 0 0 0 0 0 0 0 0 0 127 0" result="hardAlpha"/>
<feOffset dy="4"/>
<feGaussianBlur stdDeviation="2"/>
<feComposite in2="hardAlpha" operator="out"/>
<feColorMatrix type="matrix" values="0 0 0 0 0 0 0 0 0 0 0 0 0 0 0 0 0 0 0.25 0"/>
<feBlend mode="normal" in2="BackgroundImageFix" result="effect1_dropShadow_403_51"/>
<feBlend mode="normal" in="SourceGraphic" in2="effect1_dropShadow_403_51" result="shape"/>
</filter>
</defs>
</svg>
