<svg width="66" height="36" viewBox="0 0 66 36" fill="none" xmlns="http://www.w3.org/2000/svg">
<mask id="path-1-inside-1_238_2928" fill="white">
<path fill-rule="evenodd" clip-rule="evenodd" d="M15.0177 0.624703C15.6592 0.216698 16.4038 0 17.1641 0H62C64.2091 0 66 1.79086 66 4V24.6284C66 25.9965 65.3009 27.2696 64.1465 28.0037L52.5548 35.3753C51.9132 35.7833 51.1687 36 50.4083 36H4C1.79086 36 0 34.2091 0 32V12.3716C0 11.0035 0.699142 9.73039 1.85352 8.99628L15.0177 0.624703Z"/>
</mask>
<path fill-rule="evenodd" clip-rule="evenodd" d="M15.0177 0.624703C15.6592 0.216698 16.4038 0 17.1641 0H62C64.2091 0 66 1.79086 66 4V24.6284C66 25.9965 65.3009 27.2696 64.1465 28.0037L52.5548 35.3753C51.9132 35.7833 51.1687 36 50.4083 36H4C1.79086 36 0 34.2091 0 32V12.3716C0 11.0035 0.699142 9.73039 1.85352 8.99628L15.0177 0.624703Z" fill="#FEFEFE"/>
<path d="M1.85352 8.99628L1.3169 8.15245L1.85352 8.99628ZM52.5548 35.3753L53.0914 36.2191L52.5548 35.3753ZM64.1465 28.0037L63.6099 27.1599L64.1465 28.0037ZM62 -1H17.1641V1H62V-1ZM67 24.6284V4H65V24.6284H67ZM53.0914 36.2191L64.6831 28.8475L63.6099 27.1599L52.0182 34.5315L53.0914 36.2191ZM4 37H50.4083V35H4V37ZM-1 12.3716V32H1V12.3716H-1ZM14.481 -0.219122L1.3169 8.15245L2.39014 9.8401L15.5543 1.46853L14.481 -0.219122ZM1 12.3716C1 11.3455 1.52436 10.3907 2.39014 9.8401L1.3169 8.15245C-0.126072 9.07009 -1 10.6615 -1 12.3716H1ZM4 35C2.34315 35 1 33.6569 1 32H-1C-1 34.7614 1.23858 37 4 37V35ZM52.0182 34.5315C51.537 34.8375 50.9786 35 50.4083 35V37C51.3587 37 52.2895 36.7291 53.0914 36.2191L52.0182 34.5315ZM65 24.6284C65 25.6545 64.4756 26.6093 63.6099 27.1599L64.6831 28.8475C66.1261 27.9299 67 26.3385 67 24.6284H65ZM17.1641 -1C16.2137 -1 15.283 -0.729127 14.481 -0.219122L15.5543 1.46853C16.0355 1.16252 16.5939 1 17.1641 1V-1ZM62 1C63.6569 1 65 2.34314 65 4H67C67 1.23857 64.7614 -1 62 -1V1Z" fill="#FEFEFE" mask="url(#path-1-inside-1_238_2928)"/>
</svg>
