<svg width="385" height="50" viewBox="0 0 385 50" fill="none" xmlns="http://www.w3.org/2000/svg">
<mask id="path-1-inside-1_618_18" fill="white">
<path fill-rule="evenodd" clip-rule="evenodd" d="M4.85059 50C2.64145 50 0.850586 48.2091 0.850586 46V26.1139C0.850586 24.8628 1.43601 23.6837 2.43271 22.9274L31.5766 0.813484C32.2722 0.285697 33.1214 0 33.9945 0H381.001C383.21 0 385.001 1.79086 385.001 4V23.2071C385.001 24.4583 384.415 25.6374 383.418 26.3936L353.38 49.1865C352.684 49.7143 351.835 50 350.962 50H4.85059Z"/>
</mask>
<path d="M353.38 49.1865L353.984 49.9831L353.38 49.1865ZM383.418 26.3936L384.023 27.1903L383.418 26.3936ZM31.5766 0.813484L30.9722 0.0168554L31.5766 0.813484ZM2.43271 22.9274L1.82824 22.1308L2.43271 22.9274ZM-0.149414 26.1139V46H1.85059V26.1139H-0.149414ZM30.9722 0.0168554L1.82824 22.1308L3.03718 23.724L32.1811 1.61011L30.9722 0.0168554ZM381.001 -1H33.9945V1H381.001V-1ZM386.001 23.2071V4H384.001V23.2071H386.001ZM353.984 49.9831L384.023 27.1903L382.814 25.597L352.775 48.3899L353.984 49.9831ZM4.85059 51H350.962V49H4.85059V51ZM352.775 48.3899C352.254 48.7857 351.617 49 350.962 49V51C352.053 51 353.115 50.6429 353.984 49.9831L352.775 48.3899ZM384.001 23.2071C384.001 24.1455 383.562 25.0298 382.814 25.597L384.023 27.1903C385.269 26.2449 386.001 24.7711 386.001 23.2071H384.001ZM381.001 1C382.657 1 384.001 2.34314 384.001 4H386.001C386.001 1.23857 383.762 -1 381.001 -1V1ZM32.1811 1.61011C32.7028 1.21427 33.3397 1 33.9945 1V-1C32.9031 -1 31.8416 -0.642881 30.9722 0.0168554L32.1811 1.61011ZM-0.149414 46C-0.149414 48.7614 2.08916 51 4.85059 51V49C3.19373 49 1.85059 47.6569 1.85059 46H-0.149414ZM1.85059 26.1139C1.85059 25.1756 2.28965 24.2912 3.03718 23.724L1.82824 22.1308C0.582363 23.0761 -0.149414 24.55 -0.149414 26.1139H1.85059Z" fill="#FEFEFE" mask="url(#path-1-inside-1_618_18)"/>
</svg>
