<svg width="473" height="424" viewBox="0 0 473 424" fill="none" xmlns="http://www.w3.org/2000/svg">
<mask id="path-1-inside-1_439_2876" fill="white">
<path fill-rule="evenodd" clip-rule="evenodd" d="M25.9498 157.961C27.4501 156.46 28.293 154.426 28.293 152.304L28.293 8C28.293 3.58172 31.8747 0 36.293 0H465C469.418 0 473 3.58173 473 8.00001V388C473 392.418 469.418 396 465 396H321.678C319.523 396 317.459 396.87 315.953 398.412L293.33 421.588C291.825 423.13 289.761 424 287.606 424H50.4875C48.7504 424 47.0604 423.435 45.673 422.389L3.18548 390.372C1.17957 388.861 0 386.495 0 383.983V187.224C0 185.102 0.842853 183.068 2.34314 181.567L25.9498 157.961ZM0.319727 423.641C0.188199 423.542 0 423.636 0 423.8V423.8C0 423.911 0.0893653 424 0.199603 424V424C0.391194 424 0.472738 423.756 0.319727 423.641V423.641Z"/>
</mask>
<path d="M2.34314 181.567L1.63604 180.86L2.34314 181.567ZM3.18548 390.372L3.78729 389.574L3.18548 390.372ZM45.673 422.389L45.0712 423.188L45.673 422.389ZM293.33 421.588L294.046 422.287L293.33 421.588ZM315.953 398.412L315.238 397.713L315.953 398.412ZM25.9498 157.961L26.6569 158.668L25.9498 157.961ZM28.293 8L27.293 8L28.293 8ZM27.293 8L27.293 152.304L29.293 152.304L29.293 8L27.293 8ZM465 -1H36.293V1H465V-1ZM474 388V8.00001H472V388H474ZM321.678 397H465V395H321.678V397ZM294.046 422.287L316.669 399.11L315.238 397.713L292.615 420.89L294.046 422.287ZM50.4875 425H287.606V423H50.4875V425ZM2.58366 391.171L45.0712 423.188L46.2748 421.59L3.78729 389.574L2.58366 391.171ZM-1 187.224V383.983H1V187.224H-1ZM25.2427 157.254L1.63604 180.86L3.05025 182.274L26.6569 158.668L25.2427 157.254ZM0.199603 425C1.35106 425 1.84113 423.535 0.921544 422.842L-0.28209 424.44C-0.895657 423.977 -0.568668 423 0.199603 423V425ZM-1 423.8C-1 424.463 -0.462919 425 0.199603 425V423C0.64165 423 1 423.358 1 423.8H-1ZM1 423.8C1 424.461 0.24533 424.837 -0.28209 424.44L0.921544 422.842C0.131069 422.247 -1 422.811 -1 423.8H1ZM1 187.224C1 185.368 1.7375 183.587 3.05025 182.274L1.63604 180.86C-0.0517899 182.548 -1 184.837 -1 187.224H1ZM3.78729 389.574C2.03213 388.251 1 386.181 1 383.983H-1C-1 386.809 0.327021 389.471 2.58366 391.171L3.78729 389.574ZM50.4875 423C48.9675 423 47.4888 422.505 46.2748 421.59L45.0712 423.188C46.632 424.364 48.5332 425 50.4875 425V423ZM292.615 420.89C291.298 422.239 289.492 423 287.606 423V425C290.03 425 292.352 424.022 294.046 422.287L292.615 420.89ZM321.678 395C319.253 395 316.931 395.978 315.238 397.713L316.669 399.11C317.986 397.761 319.792 397 321.678 397V395ZM472 388C472 391.866 468.866 395 465 395V397C469.971 397 474 392.971 474 388H472ZM465 1C468.866 1 472 4.13401 472 8.00001H474C474 3.02945 469.971 -1 465 -1V1ZM27.293 152.304C27.293 154.16 26.5555 155.941 25.2427 157.254L26.6569 158.668C28.3448 156.98 29.293 154.691 29.293 152.304L27.293 152.304ZM29.293 8C29.293 4.13401 32.427 1 36.293 1V-1C31.3224 -1 27.293 3.02943 27.293 8L29.293 8Z" fill="#707070" mask="url(#path-1-inside-1_439_2876)"/>
</svg>
