<svg width="704" height="309" viewBox="0 0 704 309" fill="none" xmlns="http://www.w3.org/2000/svg">
<mask id="path-1-inside-1_2373_6002" fill="white">
<path fill-rule="evenodd" clip-rule="evenodd" d="M651.898 0C657.417 0 661.893 4.47164 661.898 9.99095L661.997 119.362C661.999 121.712 662.828 123.986 664.34 125.785L701.657 170.21C703.17 172.011 704 174.289 704 176.642V257.007C704 260.146 702.526 263.104 700.018 264.993L644.291 306.986C642.557 308.293 640.444 309 638.273 309L277.915 309C275.22 309 272.64 307.913 270.759 305.985L234.671 269.015C232.789 267.087 230.209 266 227.515 266L9.99988 266C4.47705 266 -0.00012207 261.523 -0.00012207 256L0 10C0 4.47715 4.47717 0 10 0L651.898 0Z"/>
</mask>
<path d="M0 10L1 10L0 10ZM-0.00012207 256H-1.00012H-0.00012207ZM234.671 269.015L235.386 268.316L234.671 269.015ZM270.759 305.985L270.043 306.684L270.759 305.985ZM644.291 306.986L643.689 306.188L644.291 306.986ZM661.898 9.99095L662.898 9.99005L661.898 9.99095ZM661.997 119.362L662.997 119.361L661.997 119.362ZM664.34 125.785L663.574 126.429L664.34 125.785ZM660.997 119.363L660.898 9.99186L662.898 9.99005L662.997 119.361L660.997 119.363ZM700.891 170.853L663.574 126.429L665.105 125.142L702.423 169.567L700.891 170.853ZM703 257.007V176.642H705V257.007H703ZM643.689 306.188L699.416 264.194L700.62 265.792L644.893 307.785L643.689 306.188ZM277.915 308L638.273 308V310L277.915 310V308ZM270.043 306.684L233.955 269.713L235.386 268.316L271.474 305.287L270.043 306.684ZM227.515 267L9.99988 267V265L227.515 265V267ZM1 10L0.999878 256H-1.00012L-1 10L1 10ZM651.898 1L10 1V-1L651.898 -1V1ZM-1 10C-1 3.92486 3.92487 -1 10 -1V1C5.02942 1 1 5.02944 1 10L-1 10ZM9.99988 267C3.92474 267 -1.00012 262.075 -1.00012 256H0.999878C0.999878 260.971 5.0293 265 9.99988 265V267ZM233.955 269.713C232.262 267.978 229.94 267 227.515 267V265C230.478 265 233.316 266.196 235.386 268.316L233.955 269.713ZM277.915 310C274.951 310 272.113 308.804 270.043 306.684L271.474 305.287C273.168 307.022 275.49 308 277.915 308V310ZM644.893 307.785C642.985 309.223 640.662 310 638.273 310V308C640.227 308 642.129 307.364 643.689 306.188L644.893 307.785ZM705 257.007C705 260.46 703.378 263.713 700.62 265.792L699.416 264.194C701.673 262.494 703 259.832 703 257.007H705ZM702.423 169.567C704.087 171.548 705 174.054 705 176.642H703C703 174.524 702.253 172.474 700.891 170.853L702.423 169.567ZM660.898 9.99186C660.893 5.02448 656.865 1 651.898 1V-1C657.969 -1 662.892 3.9188 662.898 9.99005L660.898 9.99186ZM662.997 119.361C662.999 121.476 663.745 123.523 665.105 125.142L663.574 126.429C661.912 124.449 660.999 121.948 660.997 119.363L662.997 119.361Z" fill="#404040" mask="url(#path-1-inside-1_2373_6002)"/>
</svg>
