<svg width="906" height="810" viewBox="0 0 906 810" fill="none" xmlns="http://www.w3.org/2000/svg">
<path fill-rule="evenodd" clip-rule="evenodd" d="M51.5292 299.44C53.0907 297.933 53.9727 295.855 53.9727 293.685L53.9727 8C53.9727 3.58172 57.5544 0 61.9727 0H898C902.418 0 906 3.58174 906 8.00001L906 748C906 752.418 902.418 756 898 756H611.817C609.698 756 607.665 756.841 606.165 758.338L556.76 807.662C555.26 809.159 553.228 810 551.108 810H95.1158C93.3808 810 91.6928 809.436 90.3064 808.393L3.19057 742.855C1.18167 741.344 0 738.976 0 736.462V352.585C0 350.414 0.881947 348.337 2.44349 346.829L51.5292 299.44ZM1.02875 808.844C0.605318 808.526 0 808.828 0 809.357C0 809.712 0.287655 810 0.642496 810C1.25946 810 1.52178 809.215 1.02875 808.844Z" fill="#353535"/>
</svg>
