<svg width="670" height="600" viewBox="0 0 670 600" fill="none" xmlns="http://www.w3.org/2000/svg">
<path fill-rule="evenodd" clip-rule="evenodd" d="M670 8C670 3.58172 666.418 0 662 0H48C43.5817 0 40 3.58173 40 8.00001L40 216.686C40 218.808 39.1571 220.843 37.6569 222.343L2.34315 257.657C0.842855 259.157 0 261.192 0 263.314V544.496C0 547.008 1.17957 549.374 3.18548 550.885L66.2254 598.389C67.6127 599.435 69.3027 600 71.0399 600H406.686C408.808 600 410.843 599.157 412.343 597.657L447.657 562.343C449.157 560.843 451.192 560 453.314 560H662C666.418 560 670 556.418 670 552V8ZM0.475722 600C0.932351 600 1.1267 599.419 0.762018 599.144V599.144C0.448542 598.908 0 599.132 0 599.524V599.524C0 599.787 0.212988 600 0.475722 600V600Z" fill="#353535"/>
</svg>
