<svg width="400" height="269" viewBox="0 0 400 269" fill="none" xmlns="http://www.w3.org/2000/svg">
<mask id="path-1-inside-1_507_257" fill="white">
<path fill-rule="evenodd" clip-rule="evenodd" d="M366.01 0C371.529 0 376.005 4.47167 376.01 9.99099L376.06 65.7611C376.062 68.1039 376.887 70.3716 378.39 72.1686L397.67 95.2148C399.175 97.0141 400 99.2854 400 101.631L400 233.222C400 236.364 398.524 239.322 396.014 241.212L361.767 266.99C360.034 268.294 357.923 269 355.754 269L159.326 269C156.633 269 154.055 267.915 152.174 265.989L134.605 248.011C132.723 246.085 130.145 245 127.453 245H10C4.47716 245 -3.54033e-06 240.523 -3.54033e-06 235L-3.54033e-06 10C-3.54033e-06 4.47715 4.47714 0 9.99999 0L366.01 0ZM399.713 269C399.872 269 400 268.872 400 268.713V268.713C400 268.477 399.73 268.342 399.541 268.484V268.484C399.321 268.65 399.438 269 399.713 269V269Z"/>
</mask>
<path d="M134.605 248.011L133.89 248.71L134.605 248.011ZM152.174 265.989L152.889 265.29L152.174 265.989ZM361.767 266.99L361.166 266.191L361.767 266.99ZM396.014 241.212L396.615 242.011L396.014 241.212ZM397.67 95.2148L396.903 95.8565L397.67 95.2148ZM376.06 65.7611L377.06 65.7602L376.06 65.7611ZM378.39 72.1686L379.157 71.5269L378.39 72.1686ZM375.06 65.762L375.01 9.99189L377.01 9.99009L377.06 65.7602L375.06 65.762ZM396.903 95.8565L377.623 72.8102L379.157 71.5269L398.437 94.5732L396.903 95.8565ZM399 233.222L399 101.631L401 101.631L401 233.222L399 233.222ZM361.166 266.191L395.412 240.413L396.615 242.011L362.369 267.789L361.166 266.191ZM159.326 268L355.754 268V270L159.326 270V268ZM151.458 266.688L133.89 248.71L135.32 247.312L152.889 265.29L151.458 266.688ZM127.453 246H10V244H127.453V246ZM0.999996 10L0.999996 235H-1L-1 10H0.999996ZM366.01 1L9.99999 1V-1L366.01 -1V1ZM400.142 269.283C400.689 268.871 400.398 268 399.713 268V270C398.478 270 397.952 268.428 398.939 267.685L400.142 269.283ZM401 268.713C401 269.424 400.424 270 399.713 270V268C399.319 268 399 268.319 399 268.713H401ZM399 268.713C399 269.301 399.672 269.637 400.142 269.283L398.939 267.685C399.787 267.047 401 267.652 401 268.713H399ZM-1 10C-1 3.92487 3.92485 -1 9.99999 -1V1C5.02942 1 0.999996 5.02944 0.999996 10H-1ZM10 246C3.92487 246 -1 241.075 -1 235H0.999996C0.999996 239.971 5.02944 244 10 244V246ZM133.89 248.71C132.196 246.977 129.876 246 127.453 246V244C130.414 244 133.25 245.194 135.32 247.312L133.89 248.71ZM159.326 270C156.364 270 153.528 268.806 151.458 266.688L152.889 265.29C154.582 267.023 156.903 268 159.326 268V270ZM362.369 267.789C360.462 269.224 358.14 270 355.754 270V268C357.706 268 359.606 267.365 361.166 266.191L362.369 267.789ZM401 233.222C401 236.678 399.376 239.932 396.615 242.011L395.412 240.413C397.671 238.712 399 236.049 399 233.222L401 233.222ZM398.437 94.5732C400.093 96.5524 401 99.0508 401 101.631L399 101.631C399 99.52 398.258 97.4758 396.903 95.8565L398.437 94.5732ZM375.01 9.99189C375.005 5.0245 370.977 1 366.01 1V-1C372.081 -1 377.004 3.91883 377.01 9.99009L375.01 9.99189ZM377.06 65.7602C377.062 67.8687 377.804 69.9097 379.157 71.5269L377.623 72.8102C375.97 70.8336 375.062 68.3391 375.06 65.762L377.06 65.7602Z" fill="#404040" mask="url(#path-1-inside-1_507_257)"/>
</svg>
