<svg width="704" height="632" viewBox="0 0 704 632" fill="none" xmlns="http://www.w3.org/2000/svg">
<path fill-rule="evenodd" clip-rule="evenodd" d="M664.818 396.525C662.942 398.4 661.889 400.944 661.889 403.596L661.889 621.07C661.889 626.593 657.412 631.07 651.889 631.07L10 631.07C4.47715 631.07 0 626.593 0 621.07L0 51.6749C0 46.1521 4.47716 41.6749 10 41.6749H226.027C228.721 41.6749 231.301 40.5879 233.183 38.6601L267.976 3.01541C269.858 1.08756 272.438 0.000549316 275.132 0.000549316L632.84 0.000549316C635.012 0.000549316 637.124 0.70737 638.858 2.01419L700.018 48.1013C702.526 49.9908 704 52.9481 704 56.0877L704 353.2C704 355.852 702.946 358.396 701.071 360.271L664.818 396.525Z" fill="#353535"/>
</svg>
