<svg width="86" height="12" viewBox="0 0 86 12" fill="none" xmlns="http://www.w3.org/2000/svg">
<path d="M20.292 11.8074H18.1916L17.0988 8.90243H12.4013L11.2801 11.8074H9.17969L13.6218 0.1875H15.8641L20.292 11.8074ZM16.6021 7.14873L14.7571 2.08845L12.8838 7.14873H16.6021V7.14873Z" fill="white"/>
<path d="M31.8948 11.8074H29.9297L23.4391 3.29328V11.8074H21.2656V0.1875H23.3944L29.7213 8.47405V0.1875H31.8948V11.8074Z" fill="white"/>
<path d="M38.0252 11.8074C36.7892 11.8074 35.6683 11.5403 34.6623 11.006C33.6563 10.4718 33.0528 9.65706 32.8516 8.54849H35.036C35.1941 9.12281 35.5533 9.55021 36.0994 9.83069C36.6455 10.1112 37.2922 10.2581 38.0108 10.2581C38.7868 10.2581 39.4623 10.1245 40.0084 9.84404C40.5545 9.56356 40.8275 9.16288 40.8275 8.62863C40.8275 8.18787 40.6407 7.84061 40.2671 7.58684C39.8934 7.33307 39.3617 7.13273 38.6575 6.99917L36.315 6.54506C35.3665 6.38478 34.6192 6.05088 34.0587 5.5567C33.4983 5.06252 33.2252 4.38135 33.2252 3.52655C33.2252 2.83203 33.4408 2.231 33.8575 1.73682C34.2743 1.24264 34.8491 0.855311 35.5677 0.588186C36.2863 0.321062 37.0767 0.1875 37.9533 0.1875C38.9305 0.1875 39.7784 0.347775 40.4826 0.668324C41.1868 0.988873 41.7473 1.40292 42.1353 1.8971C42.5377 2.40463 42.7676 2.95224 42.8395 3.53991H40.6982C40.5832 2.91217 40.2814 2.45806 39.8072 2.17758C39.3329 1.8971 38.715 1.76353 37.9821 1.76353C37.2922 1.76353 36.703 1.8971 36.2144 2.19093C35.7258 2.48477 35.4815 2.8721 35.4815 3.39299C35.4815 4.19436 36.1282 4.7019 37.4359 4.90224L39.7066 5.35635C41.9054 5.75704 42.9976 6.85225 42.9976 8.65534C42.9976 9.59027 42.5233 10.3516 41.5892 10.9393C40.6551 11.5269 39.4623 11.8074 38.0108 11.8074H38.0252Z" fill="white"/>
<path d="M49.8985 11.8074H47.8289V1.95458H43.9609V0.1875H53.6238V1.95458H49.9128V11.8074H49.8985Z" fill="white"/>
<path d="M60.3991 11.7941C59.25 11.7941 58.2352 11.5806 57.3696 11.1404C56.5041 10.7001 55.8027 10.0598 55.3251 9.20593C54.8326 8.35212 54.5939 7.29819 54.5939 6.0308C54.5939 4.16308 55.1311 2.72227 56.1907 1.70836C57.2502 0.694453 58.668 0.1875 60.414 0.1875C62.16 0.1875 63.6225 0.707794 64.6522 1.76172C65.6819 2.81565 66.1893 4.22979 66.1893 6.01746C66.1893 7.80514 65.667 9.27264 64.6373 10.2865C63.5927 11.3005 62.1899 11.8074 60.4289 11.8074L60.3991 11.7941ZM60.3991 10.1665C62.6376 10.1665 63.7717 8.79237 63.8016 6.04415C63.8016 4.58999 63.5031 3.52272 62.9062 2.84233C62.3092 2.16195 61.4735 1.81509 60.3991 1.81509C59.3246 1.81509 58.4889 2.14861 57.877 2.84233C57.2801 3.52272 56.9667 4.58999 56.9667 6.04415C56.9667 7.4983 57.2652 8.51221 57.877 9.16591C58.4739 9.83296 59.3246 10.1531 60.3991 10.1531V10.1665Z" fill="white"/>
<path d="M85.9884 11.794H77.7891V0.1875H85.8757V1.85895H79.8741V5.12161H85.1713V6.77969H79.86V10.1092H86.0025V11.8074L85.9884 11.794Z" fill="white"/>
<path d="M76.8158 11.8097H74.7174L71.9844 7.10558L73.2667 5.51562L76.8158 11.8097Z" fill="white"/>
<path d="M73.1037 4.42267L71.5629 6.17839L71.0156 6.8083L69.3452 8.71144V11.8074H67.1562V0.1875H69.3452V5.82992L74.371 0.1875H76.8191L73.5502 3.91338L73.1037 4.42267Z" fill="white"/>
<path d="M5.25283 5.18661L6.28087 6.87531L6.26678 6.88871V11.8074H4.19663V6.88871L0 0.1875H2.22506L4.91485 4.63711L5.25283 5.18661Z" fill="white"/>
<path d="M10.6283 0.1875L6.85778 5.99745L5.79688 4.33185L8.34879 0.1875H10.6283Z" fill="white"/>
</svg>
