<svg width="1210" height="50" viewBox="0 0 1210 50" fill="none" xmlns="http://www.w3.org/2000/svg">
<mask id="path-1-inside-1_598_4" fill="white">
<path fill-rule="evenodd" clip-rule="evenodd" d="M3.55793 22.3509C1.71291 23.4257 0.578125 25.4001 0.578125 27.5353V44C0.578125 47.3137 3.26442 50 6.57813 50H1166.2C1167.26 50 1168.3 49.7186 1169.22 49.1844L1206.6 27.4086C1208.44 26.3338 1209.58 24.3594 1209.58 22.2242V6C1209.58 2.68629 1206.89 0 1203.58 0H43.5455C42.4844 0 41.4422 0.281419 40.5253 0.815559L3.55793 22.3509Z"/>
</mask>
<path d="M40.5253 0.815559L40.0219 -0.0485143L40.5253 0.815559ZM1206.6 27.4086L1206.09 26.5445L1206.6 27.4086ZM1169.22 49.1844L1169.72 50.0485L1169.22 49.1844ZM3.55793 22.3509L3.05457 21.4868L3.55793 22.3509ZM-0.421875 27.5353V44H1.57812V27.5353H-0.421875ZM6.57813 51H1166.2V49H6.57813V51ZM1169.72 50.0485L1207.1 28.2727L1206.09 26.5445L1168.71 48.3204L1169.72 50.0485ZM1210.58 22.2242V6H1208.58V22.2242H1210.58ZM1203.58 -1H43.5455V1H1203.58V-1ZM40.0219 -0.0485143L3.05457 21.4868L4.0613 23.215L41.0287 1.67963L40.0219 -0.0485143ZM43.5455 -1C42.3075 -1 41.0917 -0.671679 40.0219 -0.0485143L41.0287 1.67963C41.7928 1.23452 42.6612 1 43.5455 1V-1ZM1210.58 6C1210.58 2.134 1207.44 -1 1203.58 -1V1C1206.34 1 1208.58 3.23857 1208.58 6H1210.58ZM1207.1 28.2727C1209.25 27.0187 1210.58 24.7153 1210.58 22.2242H1208.58C1208.58 24.0035 1207.63 25.6489 1206.09 26.5445L1207.1 28.2727ZM1166.2 51C1167.44 51 1168.65 50.6717 1169.72 50.0485L1168.71 48.3204C1167.95 48.7655 1167.08 49 1166.2 49V51ZM-0.421875 44C-0.421875 47.866 2.71213 51 6.57813 51V49C3.8167 49 1.57812 46.7614 1.57812 44H-0.421875ZM1.57812 27.5353C1.57812 25.756 2.52378 24.1106 4.0613 23.215L3.05457 21.4868C0.902046 22.7408 -0.421875 25.0442 -0.421875 27.5353H1.57812Z" fill="#FEFEFE" mask="url(#path-1-inside-1_598_4)"/>
</svg>
