<svg width="100%" preserveAspectRatio="xMidYMid meet"  height="269" viewBox="0 0 820 269" fill="none" xmlns="http://www.w3.org/2000/svg">
<mask id="path-1-inside-1_506_250" fill="white">
<path fill-rule="evenodd" clip-rule="evenodd" d="M760.82 0C766.336 0 770.81 4.46589 770.82 9.98152L770.92 63.6547C770.926 67.2054 772.815 70.4863 775.882 72.2749L815.037 95.1062C818.11 96.898 820 100.188 820 103.745V231.23C820 235.424 817.383 239.172 813.447 240.617L737.817 268.387C736.713 268.793 735.546 269 734.37 269L320.345 269C318.795 269 317.266 268.64 315.879 267.947L272.018 246.053C270.631 245.36 269.102 245 267.552 245L9.99999 245C4.47715 245 0 240.523 0 235V10C0 4.47715 4.47714 0 9.99999 0L760.82 0ZM819.646 269C819.841 269 820 268.841 820 268.646V268.646C820 268.399 819.755 268.228 819.524 268.313V268.313C819.152 268.45 819.25 269 819.646 269V269Z"/>
</mask>
<path d="M272.018 246.053L272.464 245.158L272.018 246.053ZM315.879 267.947L315.432 268.842L315.879 267.947ZM737.817 268.387L737.472 267.448L737.817 268.387ZM813.447 240.617L813.791 241.556L813.447 240.617ZM815.037 95.1062L815.541 94.2423L815.037 95.1062ZM770.92 63.6547L771.92 63.6529L770.92 63.6547ZM769.92 63.6566L769.82 9.98336L771.82 9.97967L771.92 63.6529L769.92 63.6566ZM814.533 95.97L775.379 73.1388L776.386 71.411L815.541 94.2423L814.533 95.97ZM819 231.23V103.745H821V231.23H819ZM737.472 267.448L813.102 239.679L813.791 241.556L738.161 269.326L737.472 267.448ZM320.345 268L734.37 268V270L320.345 270V268ZM315.432 268.842L271.571 246.948L272.464 245.158L316.325 267.052L315.432 268.842ZM267.552 246L9.99999 246V244L267.552 244V246ZM1 10V235H-1V10H1ZM760.82 1L9.99999 1V-1L760.82 -1V1ZM819.868 269.252C820.545 269.003 820.367 268 819.646 268V270C818.133 270 817.759 267.896 819.179 267.374L819.868 269.252ZM821 268.646C821 269.394 820.394 270 819.646 270V268C819.289 268 819 268.289 819 268.646H821ZM819 268.646C819 269.095 819.447 269.407 819.868 269.252L819.179 267.374C820.063 267.05 821 267.704 821 268.646H819ZM-1 10C-1 3.92487 3.92486 -1 9.99999 -1V1C5.02943 1 1 5.02944 1 10H-1ZM9.99999 246C3.92486 246 -1 241.075 -1 235H1C1 239.971 5.02943 244 9.99999 244V246ZM271.571 246.948C270.323 246.324 268.947 246 267.552 246V244C269.257 244 270.939 244.396 272.464 245.158L271.571 246.948ZM320.345 270C318.64 270 316.958 269.604 315.432 268.842L316.325 267.052C317.574 267.676 318.95 268 320.345 268V270ZM738.161 269.326C736.947 269.772 735.663 270 734.37 270V268C735.428 268 736.478 267.813 737.472 267.448L738.161 269.326ZM821 231.23C821 235.843 818.122 239.966 813.791 241.556L813.102 239.679C816.645 238.378 819 235.004 819 231.23H821ZM815.541 94.2423C818.921 96.2134 821 99.8318 821 103.745H819C819 100.543 817.299 97.5827 814.533 95.97L815.541 94.2423ZM769.82 9.98336C769.811 5.0193 765.784 1 760.82 1V-1C766.888 -1 771.809 3.91248 771.82 9.97967L769.82 9.98336ZM771.92 63.6529C771.925 66.8485 773.625 69.8013 776.386 71.411L775.379 73.1388C772.005 71.1714 769.927 67.5623 769.92 63.6566L771.92 63.6529Z" fill="#404040" mask="url(#path-1-inside-1_506_250)"/>
</svg>
