<svg width="16" height="16" viewBox="0 0 16 16" fill="none" xmlns="http://www.w3.org/2000/svg">
<g clip-path="url(#clip0_2483_8567)">
<path d="M6.00065 0H5.33398V0.666667H6.00065V0Z" fill="#FEFEFE"/>
<path d="M6.66667 0H6V0.666667H6.66667V0Z" fill="#FEFEFE"/>
<path d="M7.33268 0H6.66602V0.666667H7.33268V0Z" fill="#FEFEFE"/>
<path d="M8.00065 0H7.33398V0.666667H8.00065V0Z" fill="#FEFEFE"/>
<path d="M8.66667 0H8V0.666667H8.66667V0Z" fill="#FEFEFE"/>
<path d="M9.33268 0H8.66602V0.666667H9.33268V0Z" fill="#FEFEFE"/>
<path d="M10.0007 0H9.33398V0.666667H10.0007V0Z" fill="#FEFEFE"/>
<path d="M10.6667 0H10V0.666667H10.6667V0Z" fill="#FEFEFE"/>
<path d="M6.00065 0.666504H5.33398V1.33317H6.00065V0.666504Z" fill="#FEFEFE"/>
<path d="M6.66667 0.666504H6V1.33317H6.66667V0.666504Z" fill="#FEFEFE"/>
<path d="M7.33268 0.666504H6.66602V1.33317H7.33268V0.666504Z" fill="#FEFEFE"/>
<path d="M8.00065 0.666504H7.33398V1.33317H8.00065V0.666504Z" fill="#FEFEFE"/>
<path d="M8.66667 0.666504H8V1.33317H8.66667V0.666504Z" fill="#FEFEFE"/>
<path d="M9.33268 0.666504H8.66602V1.33317H9.33268V0.666504Z" fill="#FEFEFE"/>
<path d="M10.0007 0.666504H9.33398V1.33317H10.0007V0.666504Z" fill="#FEFEFE"/>
<path d="M10.6667 0.666504H10V1.33317H10.6667V0.666504Z" fill="#FEFEFE"/>
<path d="M3.33268 1.3335H2.66602V2.00016H3.33268V1.3335Z" fill="#FEFEFE"/>
<path d="M4.00065 1.3335H3.33398V2.00016H4.00065V1.3335Z" fill="#FEFEFE"/>
<path d="M4.66667 1.3335H4V2.00016H4.66667V1.3335Z" fill="#FEFEFE"/>
<path d="M5.33268 1.3335H4.66602V2.00016H5.33268V1.3335Z" fill="#FEFEFE"/>
<path d="M6.00065 1.3335H5.33398V2.00016H6.00065V1.3335Z" fill="#FEFEFE"/>
<path d="M6.66667 1.3335H6V2.00016H6.66667V1.3335Z" fill="#FEFEFE"/>
<path d="M7.33268 1.3335H6.66602V2.00016H7.33268V1.3335Z" fill="#FEFEFE"/>
<path d="M8.00065 1.3335H7.33398V2.00016H8.00065V1.3335Z" fill="#FEFEFE"/>
<path d="M8.66667 1.3335H8V2.00016H8.66667V1.3335Z" fill="#FEFEFE"/>
<path d="M9.33268 1.3335H8.66602V2.00016H9.33268V1.3335Z" fill="#FEFEFE"/>
<path d="M10.0007 1.3335H9.33398V2.00016H10.0007V1.3335Z" fill="#FEFEFE"/>
<path d="M10.6667 1.3335H10V2.00016H10.6667V1.3335Z" fill="#FEFEFE"/>
<path d="M11.3327 1.3335H10.666V2.00016H11.3327V1.3335Z" fill="#FEFEFE"/>
<path d="M12.0007 1.3335H11.334V2.00016H12.0007V1.3335Z" fill="#FEFEFE"/>
<path d="M12.6667 1.3335H12V2.00016H12.6667V1.3335Z" fill="#FEFEFE"/>
<path d="M13.3327 1.3335H12.666V2.00016H13.3327V1.3335Z" fill="#FEFEFE"/>
<path d="M3.33268 2H2.66602V2.66667H3.33268V2Z" fill="#FEFEFE"/>
<path d="M4.00065 2H3.33398V2.66667H4.00065V2Z" fill="#FEFEFE"/>
<path d="M4.66667 2H4V2.66667H4.66667V2Z" fill="#FEFEFE"/>
<path d="M5.33268 2H4.66602V2.66667H5.33268V2Z" fill="#FEFEFE"/>
<path d="M6.00065 2H5.33398V2.66667H6.00065V2Z" fill="#FEFEFE"/>
<path d="M6.66667 2H6V2.66667H6.66667V2Z" fill="#FEFEFE"/>
<path d="M7.33268 2H6.66602V2.66667H7.33268V2Z" fill="#FEFEFE"/>
<path d="M8.00065 2H7.33398V2.66667H8.00065V2Z" fill="#FEFEFE"/>
<path d="M8.66667 2H8V2.66667H8.66667V2Z" fill="#FEFEFE"/>
<path d="M9.33268 2H8.66602V2.66667H9.33268V2Z" fill="#FEFEFE"/>
<path d="M10.0007 2H9.33398V2.66667H10.0007V2Z" fill="#FEFEFE"/>
<path d="M10.6667 2H10V2.66667H10.6667V2Z" fill="#FEFEFE"/>
<path d="M11.3327 2H10.666V2.66667H11.3327V2Z" fill="#FEFEFE"/>
<path d="M12.0007 2H11.334V2.66667H12.0007V2Z" fill="#FEFEFE"/>
<path d="M12.6667 2H12V2.66667H12.6667V2Z" fill="#FEFEFE"/>
<path d="M13.3327 2H12.666V2.66667H13.3327V2Z" fill="#FEFEFE"/>
<path d="M2.00065 2.6665H1.33398V3.33317H2.00065V2.6665Z" fill="#FEFEFE"/>
<path d="M2.66667 2.6665H2V3.33317H2.66667V2.6665Z" fill="#FEFEFE"/>
<path d="M3.33268 2.6665H2.66602V3.33317H3.33268V2.6665Z" fill="#FEFEFE"/>
<path d="M4.00065 2.6665H3.33398V3.33317H4.00065V2.6665Z" fill="#FEFEFE"/>
<path d="M4.66667 2.6665H4V3.33317H4.66667V2.6665Z" fill="#FEFEFE"/>
<path d="M5.33268 2.6665H4.66602V3.33317H5.33268V2.6665Z" fill="#FEFEFE"/>
<path d="M6.00065 2.6665H5.33398V3.33317H6.00065V2.6665Z" fill="#FEFEFE"/>
<path d="M6.66667 2.6665H6V3.33317H6.66667V2.6665Z" fill="#FEFEFE"/>
<path d="M7.33268 2.6665H6.66602V3.33317H7.33268V2.6665Z" fill="#FEFEFE"/>
<path d="M8.00065 2.6665H7.33398V3.33317H8.00065V2.6665Z" fill="#FEFEFE"/>
<path d="M8.66667 2.6665H8V3.33317H8.66667V2.6665Z" fill="#FEFEFE"/>
<path d="M9.33268 2.6665H8.66602V3.33317H9.33268V2.6665Z" fill="#FEFEFE"/>
<path d="M10.0007 2.6665H9.33398V3.33317H10.0007V2.6665Z" fill="#FEFEFE"/>
<path d="M10.6667 2.6665H10V3.33317H10.6667V2.6665Z" fill="#FEFEFE"/>
<path d="M11.3327 2.6665H10.666V3.33317H11.3327V2.6665Z" fill="#FEFEFE"/>
<path d="M12.0007 2.6665H11.334V3.33317H12.0007V2.6665Z" fill="#FEFEFE"/>
<path d="M12.6667 2.6665H12V3.33317H12.6667V2.6665Z" fill="#FEFEFE"/>
<path d="M13.3327 2.6665H12.666V3.33317H13.3327V2.6665Z" fill="#FEFEFE"/>
<path d="M14.0007 2.6665H13.334V3.33317H14.0007V2.6665Z" fill="#FEFEFE"/>
<path d="M14.6667 2.6665H14V3.33317H14.6667V2.6665Z" fill="#FEFEFE"/>
<path d="M2.00065 3.3335H1.33398V4.00016H2.00065V3.3335Z" fill="#FEFEFE"/>
<path d="M2.66667 3.3335H2V4.00016H2.66667V3.3335Z" fill="#FEFEFE"/>
<path d="M3.33268 3.3335H2.66602V4.00016H3.33268V3.3335Z" fill="#FEFEFE"/>
<path d="M4.00065 3.3335H3.33398V4.00016H4.00065V3.3335Z" fill="#FEFEFE"/>
<path d="M4.66667 3.3335H4V4.00016H4.66667V3.3335Z" fill="#FEFEFE"/>
<path d="M5.33268 3.3335H4.66602V4.00016H5.33268V3.3335Z" fill="#FEFEFE"/>
<path d="M6.00065 3.3335H5.33398V4.00016H6.00065V3.3335Z" fill="#FEFEFE"/>
<path d="M6.66667 3.3335H6V4.00016H6.66667V3.3335Z" fill="#FEFEFE"/>
<path d="M7.33268 3.3335H6.66602V4.00016H7.33268V3.3335Z" fill="#FEFEFE"/>
<path d="M8.00065 3.3335H7.33398V4.00016H8.00065V3.3335Z" fill="#FEFEFE"/>
<path d="M8.66667 3.3335H8V4.00016H8.66667V3.3335Z" fill="#FEFEFE"/>
<path d="M9.33268 3.3335H8.66602V4.00016H9.33268V3.3335Z" fill="#FEFEFE"/>
<path d="M10.0007 3.3335H9.33398V4.00016H10.0007V3.3335Z" fill="#FEFEFE"/>
<path d="M10.6667 3.3335H10V4.00016H10.6667V3.3335Z" fill="#FEFEFE"/>
<path d="M11.3327 3.3335H10.666V4.00016H11.3327V3.3335Z" fill="#FEFEFE"/>
<path d="M12.0007 3.3335H11.334V4.00016H12.0007V3.3335Z" fill="#FEFEFE"/>
<path d="M12.6667 3.3335H12V4.00016H12.6667V3.3335Z" fill="#FEFEFE"/>
<path d="M13.3327 3.3335H12.666V4.00016H13.3327V3.3335Z" fill="#FEFEFE"/>
<path d="M14.0007 3.3335H13.334V4.00016H14.0007V3.3335Z" fill="#FEFEFE"/>
<path d="M14.6667 3.3335H14V4.00016H14.6667V3.3335Z" fill="#FEFEFE"/>
<path d="M2.00065 4H1.33398V4.66667H2.00065V4Z" fill="#FEFEFE"/>
<path d="M2.66667 4H2V4.66667H2.66667V4Z" fill="#FEFEFE"/>
<path d="M3.33268 4H2.66602V4.66667H3.33268V4Z" fill="#FEFEFE"/>
<path d="M4.00065 4H3.33398V4.66667H4.00065V4Z" fill="#FEFEFE"/>
<path d="M4.66667 4H4V4.66667H4.66667V4Z" fill="#FEFEFE"/>
<path d="M5.33268 4H4.66602V4.66667H5.33268V4Z" fill="#FEFEFE"/>
<path d="M6.00065 4H5.33398V4.66667H6.00065V4Z" fill="#FEFEFE"/>
<path d="M10.6667 4H10V4.66667H10.6667V4Z" fill="#FEFEFE"/>
<path d="M11.3327 4H10.666V4.66667H11.3327V4Z" fill="#FEFEFE"/>
<path d="M12.0007 4H11.334V4.66667H12.0007V4Z" fill="#FEFEFE"/>
<path d="M12.6667 4H12V4.66667H12.6667V4Z" fill="#FEFEFE"/>
<path d="M13.3327 4H12.666V4.66667H13.3327V4Z" fill="#FEFEFE"/>
<path d="M14.0007 4H13.334V4.66667H14.0007V4Z" fill="#FEFEFE"/>
<path d="M14.6667 4H14V4.66667H14.6667V4Z" fill="#FEFEFE"/>
<path d="M2.00065 4.6665H1.33398V5.33317H2.00065V4.6665Z" fill="#FEFEFE"/>
<path d="M2.66667 4.6665H2V5.33317H2.66667V4.6665Z" fill="#FEFEFE"/>
<path d="M3.33268 4.6665H2.66602V5.33317H3.33268V4.6665Z" fill="#FEFEFE"/>
<path d="M4.00065 4.6665H3.33398V5.33317H4.00065V4.6665Z" fill="#FEFEFE"/>
<path d="M4.66667 4.6665H4V5.33317H4.66667V4.6665Z" fill="#FEFEFE"/>
<path d="M5.33268 4.6665H4.66602V5.33317H5.33268V4.6665Z" fill="#FEFEFE"/>
<path d="M6.00065 4.6665H5.33398V5.33317H6.00065V4.6665Z" fill="#FEFEFE"/>
<path d="M10.6667 4.6665H10V5.33317H10.6667V4.6665Z" fill="#FEFEFE"/>
<path d="M11.3327 4.6665H10.666V5.33317H11.3327V4.6665Z" fill="#FEFEFE"/>
<path d="M12.0007 4.6665H11.334V5.33317H12.0007V4.6665Z" fill="#FEFEFE"/>
<path d="M12.6667 4.6665H12V5.33317H12.6667V4.6665Z" fill="#FEFEFE"/>
<path d="M13.3327 4.6665H12.666V5.33317H13.3327V4.6665Z" fill="#FEFEFE"/>
<path d="M14.0007 4.6665H13.334V5.33317H14.0007V4.6665Z" fill="#FEFEFE"/>
<path d="M14.6667 4.6665H14V5.33317H14.6667V4.6665Z" fill="#FEFEFE"/>
<path d="M0.666667 5.3335H0V6.00016H0.666667V5.3335Z" fill="#FEFEFE"/>
<path d="M1.33268 5.3335H0.666016V6.00016H1.33268V5.3335Z" fill="#FEFEFE"/>
<path d="M2.00065 5.3335H1.33398V6.00016H2.00065V5.3335Z" fill="#FEFEFE"/>
<path d="M2.66667 5.3335H2V6.00016H2.66667V5.3335Z" fill="#FEFEFE"/>
<path d="M3.33268 5.3335H2.66602V6.00016H3.33268V5.3335Z" fill="#FEFEFE"/>
<path d="M4.00065 5.3335H3.33398V6.00016H4.00065V5.3335Z" fill="#FEFEFE"/>
<path d="M4.66667 5.3335H4V6.00016H4.66667V5.3335Z" fill="#FEFEFE"/>
<path d="M5.33268 5.3335H4.66602V6.00016H5.33268V5.3335Z" fill="#FEFEFE"/>
<path d="M6.00065 5.3335H5.33398V6.00016H6.00065V5.3335Z" fill="#FEFEFE"/>
<path d="M8.00065 5.3335H7.33398V6.00016H8.00065V5.3335Z" fill="#FEFEFE"/>
<path d="M8.66667 5.3335H8V6.00016H8.66667V5.3335Z" fill="#FEFEFE"/>
<path d="M9.33268 5.3335H8.66602V6.00016H9.33268V5.3335Z" fill="#FEFEFE"/>
<path d="M10.0007 5.3335H9.33398V6.00016H10.0007V5.3335Z" fill="#FEFEFE"/>
<path d="M12.0007 5.3335H11.334V6.00016H12.0007V5.3335Z" fill="#FEFEFE"/>
<path d="M12.6667 5.3335H12V6.00016H12.6667V5.3335Z" fill="#FEFEFE"/>
<path d="M13.3327 5.3335H12.666V6.00016H13.3327V5.3335Z" fill="#FEFEFE"/>
<path d="M14.0007 5.3335H13.334V6.00016H14.0007V5.3335Z" fill="#FEFEFE"/>
<path d="M14.6667 5.3335H14V6.00016H14.6667V5.3335Z" fill="#FEFEFE"/>
<path d="M15.3327 5.3335H14.666V6.00016H15.3327V5.3335Z" fill="#FEFEFE"/>
<path d="M16.0007 5.3335H15.334V6.00016H16.0007V5.3335Z" fill="#FEFEFE"/>
<path d="M0.666667 6H0V6.66667H0.666667V6Z" fill="#FEFEFE"/>
<path d="M1.33268 6H0.666016V6.66667H1.33268V6Z" fill="#FEFEFE"/>
<path d="M2.00065 6H1.33398V6.66667H2.00065V6Z" fill="#FEFEFE"/>
<path d="M2.66667 6H2V6.66667H2.66667V6Z" fill="#FEFEFE"/>
<path d="M3.33268 6H2.66602V6.66667H3.33268V6Z" fill="#FEFEFE"/>
<path d="M4.00065 6H3.33398V6.66667H4.00065V6Z" fill="#FEFEFE"/>
<path d="M4.66667 6H4V6.66667H4.66667V6Z" fill="#FEFEFE"/>
<path d="M5.33268 6H4.66602V6.66667H5.33268V6Z" fill="#FEFEFE"/>
<path d="M6.00065 6H5.33398V6.66667H6.00065V6Z" fill="#FEFEFE"/>
<path d="M8.00065 6H7.33398V6.66667H8.00065V6Z" fill="#FEFEFE"/>
<path d="M8.66667 6H8V6.66667H8.66667V6Z" fill="#FEFEFE"/>
<path d="M9.33268 6H8.66602V6.66667H9.33268V6Z" fill="#FEFEFE"/>
<path d="M10.0007 6H9.33398V6.66667H10.0007V6Z" fill="#FEFEFE"/>
<path d="M12.0007 6H11.334V6.66667H12.0007V6Z" fill="#FEFEFE"/>
<path d="M12.6667 6H12V6.66667H12.6667V6Z" fill="#FEFEFE"/>
<path d="M13.3327 6H12.666V6.66667H13.3327V6Z" fill="#FEFEFE"/>
<path d="M14.0007 6H13.334V6.66667H14.0007V6Z" fill="#FEFEFE"/>
<path d="M14.6667 6H14V6.66667H14.6667V6Z" fill="#FEFEFE"/>
<path d="M15.3327 6H14.666V6.66667H15.3327V6Z" fill="#FEFEFE"/>
<path d="M16.0007 6H15.334V6.66667H16.0007V6Z" fill="#FEFEFE"/>
<path d="M0.666667 6.6665H0V7.33317H0.666667V6.6665Z" fill="#FEFEFE"/>
<path d="M1.33268 6.6665H0.666016V7.33317H1.33268V6.6665Z" fill="#FEFEFE"/>
<path d="M2.00065 6.6665H1.33398V7.33317H2.00065V6.6665Z" fill="#FEFEFE"/>
<path d="M2.66667 6.6665H2V7.33317H2.66667V6.6665Z" fill="#FEFEFE"/>
<path d="M3.33268 6.6665H2.66602V7.33317H3.33268V6.6665Z" fill="#FEFEFE"/>
<path d="M4.00065 6.6665H3.33398V7.33317H4.00065V6.6665Z" fill="#FEFEFE"/>
<path d="M4.66667 6.6665H4V7.33317H4.66667V6.6665Z" fill="#FEFEFE"/>
<path d="M5.33268 6.6665H4.66602V7.33317H5.33268V6.6665Z" fill="#FEFEFE"/>
<path d="M6.00065 6.6665H5.33398V7.33317H6.00065V6.6665Z" fill="#FEFEFE"/>
<path d="M8.00065 6.6665H7.33398V7.33317H8.00065V6.6665Z" fill="#FEFEFE"/>
<path d="M8.66667 6.6665H8V7.33317H8.66667V6.6665Z" fill="#FEFEFE"/>
<path d="M9.33268 6.6665H8.66602V7.33317H9.33268V6.6665Z" fill="#FEFEFE"/>
<path d="M10.0007 6.6665H9.33398V7.33317H10.0007V6.6665Z" fill="#FEFEFE"/>
<path d="M12.0007 6.6665H11.334V7.33317H12.0007V6.6665Z" fill="#FEFEFE"/>
<path d="M12.6667 6.6665H12V7.33317H12.6667V6.6665Z" fill="#FEFEFE"/>
<path d="M13.3327 6.6665H12.666V7.33317H13.3327V6.6665Z" fill="#FEFEFE"/>
<path d="M14.0007 6.6665H13.334V7.33317H14.0007V6.6665Z" fill="#FEFEFE"/>
<path d="M14.6667 6.6665H14V7.33317H14.6667V6.6665Z" fill="#FEFEFE"/>
<path d="M15.3327 6.6665H14.666V7.33317H15.3327V6.6665Z" fill="#FEFEFE"/>
<path d="M16.0007 6.6665H15.334V7.33317H16.0007V6.6665Z" fill="#FEFEFE"/>
<path d="M0.666667 7.3335H0V8.00016H0.666667V7.3335Z" fill="#FEFEFE"/>
<path d="M1.33268 7.3335H0.666016V8.00016H1.33268V7.3335Z" fill="#FEFEFE"/>
<path d="M2.00065 7.3335H1.33398V8.00016H2.00065V7.3335Z" fill="#FEFEFE"/>
<path d="M2.66667 7.3335H2V8.00016H2.66667V7.3335Z" fill="#FEFEFE"/>
<path d="M3.33268 7.3335H2.66602V8.00016H3.33268V7.3335Z" fill="#FEFEFE"/>
<path d="M4.00065 7.3335H3.33398V8.00016H4.00065V7.3335Z" fill="#FEFEFE"/>
<path d="M4.66667 7.3335H4V8.00016H4.66667V7.3335Z" fill="#FEFEFE"/>
<path d="M5.33268 7.3335H4.66602V8.00016H5.33268V7.3335Z" fill="#FEFEFE"/>
<path d="M6.00065 7.3335H5.33398V8.00016H6.00065V7.3335Z" fill="#FEFEFE"/>
<path d="M8.00065 7.3335H7.33398V8.00016H8.00065V7.3335Z" fill="#FEFEFE"/>
<path d="M8.66667 7.3335H8V8.00016H8.66667V7.3335Z" fill="#FEFEFE"/>
<path d="M9.33268 7.3335H8.66602V8.00016H9.33268V7.3335Z" fill="#FEFEFE"/>
<path d="M10.0007 7.3335H9.33398V8.00016H10.0007V7.3335Z" fill="#FEFEFE"/>
<path d="M12.0007 7.3335H11.334V8.00016H12.0007V7.3335Z" fill="#FEFEFE"/>
<path d="M12.6667 7.3335H12V8.00016H12.6667V7.3335Z" fill="#FEFEFE"/>
<path d="M13.3327 7.3335H12.666V8.00016H13.3327V7.3335Z" fill="#FEFEFE"/>
<path d="M14.0007 7.3335H13.334V8.00016H14.0007V7.3335Z" fill="#FEFEFE"/>
<path d="M14.6667 7.3335H14V8.00016H14.6667V7.3335Z" fill="#FEFEFE"/>
<path d="M15.3327 7.3335H14.666V8.00016H15.3327V7.3335Z" fill="#FEFEFE"/>
<path d="M16.0007 7.3335H15.334V8.00016H16.0007V7.3335Z" fill="#FEFEFE"/>
<path d="M0.666667 8H0V8.66667H0.666667V8Z" fill="#FEFEFE"/>
<path d="M1.33268 8H0.666016V8.66667H1.33268V8Z" fill="#FEFEFE"/>
<path d="M2.00065 8H1.33398V8.66667H2.00065V8Z" fill="#FEFEFE"/>
<path d="M2.66667 8H2V8.66667H2.66667V8Z" fill="#FEFEFE"/>
<path d="M3.33268 8H2.66602V8.66667H3.33268V8Z" fill="#FEFEFE"/>
<path d="M4.00065 8H3.33398V8.66667H4.00065V8Z" fill="#FEFEFE"/>
<path d="M4.66667 8H4V8.66667H4.66667V8Z" fill="#FEFEFE"/>
<path d="M5.33268 8H4.66602V8.66667H5.33268V8Z" fill="#FEFEFE"/>
<path d="M6.00065 8H5.33398V8.66667H6.00065V8Z" fill="#FEFEFE"/>
<path d="M10.6667 8H10V8.66667H10.6667V8Z" fill="#FEFEFE"/>
<path d="M11.3327 8H10.666V8.66667H11.3327V8Z" fill="#FEFEFE"/>
<path d="M12.0007 8H11.334V8.66667H12.0007V8Z" fill="#FEFEFE"/>
<path d="M12.6667 8H12V8.66667H12.6667V8Z" fill="#FEFEFE"/>
<path d="M13.3327 8H12.666V8.66667H13.3327V8Z" fill="#FEFEFE"/>
<path d="M14.0007 8H13.334V8.66667H14.0007V8Z" fill="#FEFEFE"/>
<path d="M14.6667 8H14V8.66667H14.6667V8Z" fill="#FEFEFE"/>
<path d="M15.3327 8H14.666V8.66667H15.3327V8Z" fill="#FEFEFE"/>
<path d="M16.0007 8H15.334V8.66667H16.0007V8Z" fill="#FEFEFE"/>
<path d="M0.666667 8.6665H0V9.33317H0.666667V8.6665Z" fill="#FEFEFE"/>
<path d="M1.33268 8.6665H0.666016V9.33317H1.33268V8.6665Z" fill="#FEFEFE"/>
<path d="M2.00065 8.6665H1.33398V9.33317H2.00065V8.6665Z" fill="#FEFEFE"/>
<path d="M2.66667 8.6665H2V9.33317H2.66667V8.6665Z" fill="#FEFEFE"/>
<path d="M3.33268 8.6665H2.66602V9.33317H3.33268V8.6665Z" fill="#FEFEFE"/>
<path d="M4.00065 8.6665H3.33398V9.33317H4.00065V8.6665Z" fill="#FEFEFE"/>
<path d="M4.66667 8.6665H4V9.33317H4.66667V8.6665Z" fill="#FEFEFE"/>
<path d="M5.33268 8.6665H4.66602V9.33317H5.33268V8.6665Z" fill="#FEFEFE"/>
<path d="M6.00065 8.6665H5.33398V9.33317H6.00065V8.6665Z" fill="#FEFEFE"/>
<path d="M10.6667 8.6665H10V9.33317H10.6667V8.6665Z" fill="#FEFEFE"/>
<path d="M11.3327 8.6665H10.666V9.33317H11.3327V8.6665Z" fill="#FEFEFE"/>
<path d="M12.0007 8.6665H11.334V9.33317H12.0007V8.6665Z" fill="#FEFEFE"/>
<path d="M12.6667 8.6665H12V9.33317H12.6667V8.6665Z" fill="#FEFEFE"/>
<path d="M13.3327 8.6665H12.666V9.33317H13.3327V8.6665Z" fill="#FEFEFE"/>
<path d="M14.0007 8.6665H13.334V9.33317H14.0007V8.6665Z" fill="#FEFEFE"/>
<path d="M14.6667 8.6665H14V9.33317H14.6667V8.6665Z" fill="#FEFEFE"/>
<path d="M15.3327 8.6665H14.666V9.33317H15.3327V8.6665Z" fill="#FEFEFE"/>
<path d="M16.0007 8.6665H15.334V9.33317H16.0007V8.6665Z" fill="#FEFEFE"/>
<path d="M0.666667 9.3335H0V10.0002H0.666667V9.3335Z" fill="#FEFEFE"/>
<path d="M1.33268 9.3335H0.666016V10.0002H1.33268V9.3335Z" fill="#FEFEFE"/>
<path d="M2.00065 9.3335H1.33398V10.0002H2.00065V9.3335Z" fill="#FEFEFE"/>
<path d="M2.66667 9.3335H2V10.0002H2.66667V9.3335Z" fill="#FEFEFE"/>
<path d="M3.33268 9.3335H2.66602V10.0002H3.33268V9.3335Z" fill="#FEFEFE"/>
<path d="M4.00065 9.3335H3.33398V10.0002H4.00065V9.3335Z" fill="#FEFEFE"/>
<path d="M4.66667 9.3335H4V10.0002H4.66667V9.3335Z" fill="#FEFEFE"/>
<path d="M5.33268 9.3335H4.66602V10.0002H5.33268V9.3335Z" fill="#FEFEFE"/>
<path d="M6.00065 9.3335H5.33398V10.0002H6.00065V9.3335Z" fill="#FEFEFE"/>
<path d="M8.00065 9.3335H7.33398V10.0002H8.00065V9.3335Z" fill="#FEFEFE"/>
<path d="M8.66667 9.3335H8V10.0002H8.66667V9.3335Z" fill="#FEFEFE"/>
<path d="M9.33268 9.3335H8.66602V10.0002H9.33268V9.3335Z" fill="#FEFEFE"/>
<path d="M10.0007 9.3335H9.33398V10.0002H10.0007V9.3335Z" fill="#FEFEFE"/>
<path d="M10.6667 9.3335H10V10.0002H10.6667V9.3335Z" fill="#FEFEFE"/>
<path d="M11.3327 9.3335H10.666V10.0002H11.3327V9.3335Z" fill="#FEFEFE"/>
<path d="M12.0007 9.3335H11.334V10.0002H12.0007V9.3335Z" fill="#FEFEFE"/>
<path d="M12.6667 9.3335H12V10.0002H12.6667V9.3335Z" fill="#FEFEFE"/>
<path d="M13.3327 9.3335H12.666V10.0002H13.3327V9.3335Z" fill="#FEFEFE"/>
<path d="M14.0007 9.3335H13.334V10.0002H14.0007V9.3335Z" fill="#FEFEFE"/>
<path d="M14.6667 9.3335H14V10.0002H14.6667V9.3335Z" fill="#FEFEFE"/>
<path d="M15.3327 9.3335H14.666V10.0002H15.3327V9.3335Z" fill="#FEFEFE"/>
<path d="M16.0007 9.3335H15.334V10.0002H16.0007V9.3335Z" fill="#FEFEFE"/>
<path d="M0.666667 10H0V10.6667H0.666667V10Z" fill="#FEFEFE"/>
<path d="M1.33268 10H0.666016V10.6667H1.33268V10Z" fill="#FEFEFE"/>
<path d="M2.00065 10H1.33398V10.6667H2.00065V10Z" fill="#FEFEFE"/>
<path d="M2.66667 10H2V10.6667H2.66667V10Z" fill="#FEFEFE"/>
<path d="M3.33268 10H2.66602V10.6667H3.33268V10Z" fill="#FEFEFE"/>
<path d="M4.00065 10H3.33398V10.6667H4.00065V10Z" fill="#FEFEFE"/>
<path d="M4.66667 10H4V10.6667H4.66667V10Z" fill="#FEFEFE"/>
<path d="M5.33268 10H4.66602V10.6667H5.33268V10Z" fill="#FEFEFE"/>
<path d="M6.00065 10H5.33398V10.6667H6.00065V10Z" fill="#FEFEFE"/>
<path d="M8.00065 10H7.33398V10.6667H8.00065V10Z" fill="#FEFEFE"/>
<path d="M8.66667 10H8V10.6667H8.66667V10Z" fill="#FEFEFE"/>
<path d="M9.33268 10H8.66602V10.6667H9.33268V10Z" fill="#FEFEFE"/>
<path d="M10.0007 10H9.33398V10.6667H10.0007V10Z" fill="#FEFEFE"/>
<path d="M10.6667 10H10V10.6667H10.6667V10Z" fill="#FEFEFE"/>
<path d="M11.3327 10H10.666V10.6667H11.3327V10Z" fill="#FEFEFE"/>
<path d="M12.0007 10H11.334V10.6667H12.0007V10Z" fill="#FEFEFE"/>
<path d="M12.6667 10H12V10.6667H12.6667V10Z" fill="#FEFEFE"/>
<path d="M13.3327 10H12.666V10.6667H13.3327V10Z" fill="#FEFEFE"/>
<path d="M14.0007 10H13.334V10.6667H14.0007V10Z" fill="#FEFEFE"/>
<path d="M14.6667 10H14V10.6667H14.6667V10Z" fill="#FEFEFE"/>
<path d="M15.3327 10H14.666V10.6667H15.3327V10Z" fill="#FEFEFE"/>
<path d="M16.0007 10H15.334V10.6667H16.0007V10Z" fill="#FEFEFE"/>
<path d="M2.00065 10.6665H1.33398V11.3332H2.00065V10.6665Z" fill="#FEFEFE"/>
<path d="M2.66667 10.6665H2V11.3332H2.66667V10.6665Z" fill="#FEFEFE"/>
<path d="M3.33268 10.6665H2.66602V11.3332H3.33268V10.6665Z" fill="#FEFEFE"/>
<path d="M4.00065 10.6665H3.33398V11.3332H4.00065V10.6665Z" fill="#FEFEFE"/>
<path d="M4.66667 10.6665H4V11.3332H4.66667V10.6665Z" fill="#FEFEFE"/>
<path d="M5.33268 10.6665H4.66602V11.3332H5.33268V10.6665Z" fill="#FEFEFE"/>
<path d="M6.00065 10.6665H5.33398V11.3332H6.00065V10.6665Z" fill="#FEFEFE"/>
<path d="M8.00065 10.6665H7.33398V11.3332H8.00065V10.6665Z" fill="#FEFEFE"/>
<path d="M8.66667 10.6665H8V11.3332H8.66667V10.6665Z" fill="#FEFEFE"/>
<path d="M9.33268 10.6665H8.66602V11.3332H9.33268V10.6665Z" fill="#FEFEFE"/>
<path d="M10.0007 10.6665H9.33398V11.3332H10.0007V10.6665Z" fill="#FEFEFE"/>
<path d="M10.6667 10.6665H10V11.3332H10.6667V10.6665Z" fill="#FEFEFE"/>
<path d="M11.3327 10.6665H10.666V11.3332H11.3327V10.6665Z" fill="#FEFEFE"/>
<path d="M12.0007 10.6665H11.334V11.3332H12.0007V10.6665Z" fill="#FEFEFE"/>
<path d="M12.6667 10.6665H12V11.3332H12.6667V10.6665Z" fill="#FEFEFE"/>
<path d="M13.3327 10.6665H12.666V11.3332H13.3327V10.6665Z" fill="#FEFEFE"/>
<path d="M14.0007 10.6665H13.334V11.3332H14.0007V10.6665Z" fill="#FEFEFE"/>
<path d="M14.6667 10.6665H14V11.3332H14.6667V10.6665Z" fill="#FEFEFE"/>
<path d="M2.00065 11.3335H1.33398V12.0002H2.00065V11.3335Z" fill="#FEFEFE"/>
<path d="M2.66667 11.3335H2V12.0002H2.66667V11.3335Z" fill="#FEFEFE"/>
<path d="M3.33268 11.3335H2.66602V12.0002H3.33268V11.3335Z" fill="#FEFEFE"/>
<path d="M4.00065 11.3335H3.33398V12.0002H4.00065V11.3335Z" fill="#FEFEFE"/>
<path d="M4.66667 11.3335H4V12.0002H4.66667V11.3335Z" fill="#FEFEFE"/>
<path d="M5.33268 11.3335H4.66602V12.0002H5.33268V11.3335Z" fill="#FEFEFE"/>
<path d="M6.00065 11.3335H5.33398V12.0002H6.00065V11.3335Z" fill="#FEFEFE"/>
<path d="M8.00065 11.3335H7.33398V12.0002H8.00065V11.3335Z" fill="#FEFEFE"/>
<path d="M8.66667 11.3335H8V12.0002H8.66667V11.3335Z" fill="#FEFEFE"/>
<path d="M9.33268 11.3335H8.66602V12.0002H9.33268V11.3335Z" fill="#FEFEFE"/>
<path d="M10.0007 11.3335H9.33398V12.0002H10.0007V11.3335Z" fill="#FEFEFE"/>
<path d="M10.6667 11.3335H10V12.0002H10.6667V11.3335Z" fill="#FEFEFE"/>
<path d="M11.3327 11.3335H10.666V12.0002H11.3327V11.3335Z" fill="#FEFEFE"/>
<path d="M12.0007 11.3335H11.334V12.0002H12.0007V11.3335Z" fill="#FEFEFE"/>
<path d="M12.6667 11.3335H12V12.0002H12.6667V11.3335Z" fill="#FEFEFE"/>
<path d="M13.3327 11.3335H12.666V12.0002H13.3327V11.3335Z" fill="#FEFEFE"/>
<path d="M14.0007 11.3335H13.334V12.0002H14.0007V11.3335Z" fill="#FEFEFE"/>
<path d="M14.6667 11.3335H14V12.0002H14.6667V11.3335Z" fill="#FEFEFE"/>
<path d="M2.00065 12H1.33398V12.6667H2.00065V12Z" fill="#FEFEFE"/>
<path d="M2.66667 12H2V12.6667H2.66667V12Z" fill="#FEFEFE"/>
<path d="M3.33268 12H2.66602V12.6667H3.33268V12Z" fill="#FEFEFE"/>
<path d="M4.00065 12H3.33398V12.6667H4.00065V12Z" fill="#FEFEFE"/>
<path d="M4.66667 12H4V12.6667H4.66667V12Z" fill="#FEFEFE"/>
<path d="M5.33268 12H4.66602V12.6667H5.33268V12Z" fill="#FEFEFE"/>
<path d="M6.00065 12H5.33398V12.6667H6.00065V12Z" fill="#FEFEFE"/>
<path d="M6.66667 12H6V12.6667H6.66667V12Z" fill="#FEFEFE"/>
<path d="M7.33268 12H6.66602V12.6667H7.33268V12Z" fill="#FEFEFE"/>
<path d="M8.00065 12H7.33398V12.6667H8.00065V12Z" fill="#FEFEFE"/>
<path d="M8.66667 12H8V12.6667H8.66667V12Z" fill="#FEFEFE"/>
<path d="M9.33268 12H8.66602V12.6667H9.33268V12Z" fill="#FEFEFE"/>
<path d="M10.0007 12H9.33398V12.6667H10.0007V12Z" fill="#FEFEFE"/>
<path d="M10.6667 12H10V12.6667H10.6667V12Z" fill="#FEFEFE"/>
<path d="M11.3327 12H10.666V12.6667H11.3327V12Z" fill="#FEFEFE"/>
<path d="M12.0007 12H11.334V12.6667H12.0007V12Z" fill="#FEFEFE"/>
<path d="M12.6667 12H12V12.6667H12.6667V12Z" fill="#FEFEFE"/>
<path d="M13.3327 12H12.666V12.6667H13.3327V12Z" fill="#FEFEFE"/>
<path d="M14.0007 12H13.334V12.6667H14.0007V12Z" fill="#FEFEFE"/>
<path d="M14.6667 12H14V12.6667H14.6667V12Z" fill="#FEFEFE"/>
<path d="M2.00065 12.6665H1.33398V13.3332H2.00065V12.6665Z" fill="#FEFEFE"/>
<path d="M2.66667 12.6665H2V13.3332H2.66667V12.6665Z" fill="#FEFEFE"/>
<path d="M3.33268 12.6665H2.66602V13.3332H3.33268V12.6665Z" fill="#FEFEFE"/>
<path d="M4.00065 12.6665H3.33398V13.3332H4.00065V12.6665Z" fill="#FEFEFE"/>
<path d="M4.66667 12.6665H4V13.3332H4.66667V12.6665Z" fill="#FEFEFE"/>
<path d="M5.33268 12.6665H4.66602V13.3332H5.33268V12.6665Z" fill="#FEFEFE"/>
<path d="M6.00065 12.6665H5.33398V13.3332H6.00065V12.6665Z" fill="#FEFEFE"/>
<path d="M6.66667 12.6665H6V13.3332H6.66667V12.6665Z" fill="#FEFEFE"/>
<path d="M7.33268 12.6665H6.66602V13.3332H7.33268V12.6665Z" fill="#FEFEFE"/>
<path d="M8.00065 12.6665H7.33398V13.3332H8.00065V12.6665Z" fill="#FEFEFE"/>
<path d="M8.66667 12.6665H8V13.3332H8.66667V12.6665Z" fill="#FEFEFE"/>
<path d="M9.33268 12.6665H8.66602V13.3332H9.33268V12.6665Z" fill="#FEFEFE"/>
<path d="M10.0007 12.6665H9.33398V13.3332H10.0007V12.6665Z" fill="#FEFEFE"/>
<path d="M10.6667 12.6665H10V13.3332H10.6667V12.6665Z" fill="#FEFEFE"/>
<path d="M11.3327 12.6665H10.666V13.3332H11.3327V12.6665Z" fill="#FEFEFE"/>
<path d="M12.0007 12.6665H11.334V13.3332H12.0007V12.6665Z" fill="#FEFEFE"/>
<path d="M12.6667 12.6665H12V13.3332H12.6667V12.6665Z" fill="#FEFEFE"/>
<path d="M13.3327 12.6665H12.666V13.3332H13.3327V12.6665Z" fill="#FEFEFE"/>
<path d="M14.0007 12.6665H13.334V13.3332H14.0007V12.6665Z" fill="#FEFEFE"/>
<path d="M14.6667 12.6665H14V13.3332H14.6667V12.6665Z" fill="#FEFEFE"/>
<path d="M3.33268 13.3335H2.66602V14.0002H3.33268V13.3335Z" fill="#FEFEFE"/>
<path d="M4.00065 13.3335H3.33398V14.0002H4.00065V13.3335Z" fill="#FEFEFE"/>
<path d="M4.66667 13.3335H4V14.0002H4.66667V13.3335Z" fill="#FEFEFE"/>
<path d="M5.33268 13.3335H4.66602V14.0002H5.33268V13.3335Z" fill="#FEFEFE"/>
<path d="M6.00065 13.3335H5.33398V14.0002H6.00065V13.3335Z" fill="#FEFEFE"/>
<path d="M6.66667 13.3335H6V14.0002H6.66667V13.3335Z" fill="#FEFEFE"/>
<path d="M7.33268 13.3335H6.66602V14.0002H7.33268V13.3335Z" fill="#FEFEFE"/>
<path d="M8.00065 13.3335H7.33398V14.0002H8.00065V13.3335Z" fill="#FEFEFE"/>
<path d="M8.66667 13.3335H8V14.0002H8.66667V13.3335Z" fill="#FEFEFE"/>
<path d="M9.33268 13.3335H8.66602V14.0002H9.33268V13.3335Z" fill="#FEFEFE"/>
<path d="M10.0007 13.3335H9.33398V14.0002H10.0007V13.3335Z" fill="#FEFEFE"/>
<path d="M10.6667 13.3335H10V14.0002H10.6667V13.3335Z" fill="#FEFEFE"/>
<path d="M11.3327 13.3335H10.666V14.0002H11.3327V13.3335Z" fill="#FEFEFE"/>
<path d="M12.0007 13.3335H11.334V14.0002H12.0007V13.3335Z" fill="#FEFEFE"/>
<path d="M12.6667 13.3335H12V14.0002H12.6667V13.3335Z" fill="#FEFEFE"/>
<path d="M13.3327 13.3335H12.666V14.0002H13.3327V13.3335Z" fill="#FEFEFE"/>
<path d="M3.33268 14H2.66602V14.6667H3.33268V14Z" fill="#FEFEFE"/>
<path d="M4.00065 14H3.33398V14.6667H4.00065V14Z" fill="#FEFEFE"/>
<path d="M4.66667 14H4V14.6667H4.66667V14Z" fill="#FEFEFE"/>
<path d="M5.33268 14H4.66602V14.6667H5.33268V14Z" fill="#FEFEFE"/>
<path d="M6.00065 14H5.33398V14.6667H6.00065V14Z" fill="#FEFEFE"/>
<path d="M6.66667 14H6V14.6667H6.66667V14Z" fill="#FEFEFE"/>
<path d="M7.33268 14H6.66602V14.6667H7.33268V14Z" fill="#FEFEFE"/>
<path d="M8.00065 14H7.33398V14.6667H8.00065V14Z" fill="#FEFEFE"/>
<path d="M8.66667 14H8V14.6667H8.66667V14Z" fill="#FEFEFE"/>
<path d="M9.33268 14H8.66602V14.6667H9.33268V14Z" fill="#FEFEFE"/>
<path d="M10.0007 14H9.33398V14.6667H10.0007V14Z" fill="#FEFEFE"/>
<path d="M10.6667 14H10V14.6667H10.6667V14Z" fill="#FEFEFE"/>
<path d="M11.3327 14H10.666V14.6667H11.3327V14Z" fill="#FEFEFE"/>
<path d="M12.0007 14H11.334V14.6667H12.0007V14Z" fill="#FEFEFE"/>
<path d="M12.6667 14H12V14.6667H12.6667V14Z" fill="#FEFEFE"/>
<path d="M13.3327 14H12.666V14.6667H13.3327V14Z" fill="#FEFEFE"/>
<path d="M6.00065 14.6665H5.33398V15.3332H6.00065V14.6665Z" fill="#FEFEFE"/>
<path d="M6.66667 14.6665H6V15.3332H6.66667V14.6665Z" fill="#FEFEFE"/>
<path d="M7.33268 14.6665H6.66602V15.3332H7.33268V14.6665Z" fill="#FEFEFE"/>
<path d="M8.00065 14.6665H7.33398V15.3332H8.00065V14.6665Z" fill="#FEFEFE"/>
<path d="M8.66667 14.6665H8V15.3332H8.66667V14.6665Z" fill="#FEFEFE"/>
<path d="M9.33268 14.6665H8.66602V15.3332H9.33268V14.6665Z" fill="#FEFEFE"/>
<path d="M10.0007 14.6665H9.33398V15.3332H10.0007V14.6665Z" fill="#FEFEFE"/>
<path d="M10.6667 14.6665H10V15.3332H10.6667V14.6665Z" fill="#FEFEFE"/>
<path d="M6.00065 15.3335H5.33398V16.0002H6.00065V15.3335Z" fill="#FEFEFE"/>
<path d="M6.66667 15.3335H6V16.0002H6.66667V15.3335Z" fill="#FEFEFE"/>
<path d="M7.33268 15.3335H6.66602V16.0002H7.33268V15.3335Z" fill="#FEFEFE"/>
<path d="M8.00065 15.3335H7.33398V16.0002H8.00065V15.3335Z" fill="#FEFEFE"/>
<path d="M8.66667 15.3335H8V16.0002H8.66667V15.3335Z" fill="#FEFEFE"/>
<path d="M9.33268 15.3335H8.66602V16.0002H9.33268V15.3335Z" fill="#FEFEFE"/>
<path d="M10.0007 15.3335H9.33398V16.0002H10.0007V15.3335Z" fill="#FEFEFE"/>
<path d="M10.6667 15.3335H10V16.0002H10.6667V15.3335Z" fill="#FEFEFE"/>
</g>
<defs>
<clipPath id="clip0_2483_8567">
<rect width="16" height="16" fill="white"/>
</clipPath>
</defs>
</svg>
