<svg width="16" height="16" viewBox="0 0 16 16" fill="none" xmlns="http://www.w3.org/2000/svg">
<path d="M0.470588 1H0V1.5H0.470588V1Z" fill="#FEFEFE"/>
<path d="M0.941291 1H0.470703V1.5H0.941291V1Z" fill="#FEFEFE"/>
<path d="M1.41199 1H0.941406V1.5H1.41199V1Z" fill="#FEFEFE"/>
<path d="M1.8827 1H1.41211V1.5H1.8827V1Z" fill="#FEFEFE"/>
<path d="M2.3534 1H1.88281V1.5H2.3534V1Z" fill="#FEFEFE"/>
<path d="M2.8241 1H2.35352V1.5H2.8241V1Z" fill="#FEFEFE"/>
<path d="M3.29481 1H2.82422V1.5H3.29481V1Z" fill="#FEFEFE"/>
<path d="M3.76551 1H3.29492V1.5H3.76551V1Z" fill="#FEFEFE"/>
<path d="M4.23621 1H3.76562V1.5H4.23621V1Z" fill="#FEFEFE"/>
<path d="M4.70496 1H4.23438V1.5H4.70496V1Z" fill="#FEFEFE"/>
<path d="M5.17567 1H4.70508V1.5H5.17567V1Z" fill="#FEFEFE"/>
<path d="M5.64637 1H5.17578V1.5H5.64637V1Z" fill="#FEFEFE"/>
<path d="M6.11707 1H5.64648V1.5H6.11707V1Z" fill="#FEFEFE"/>
<path d="M6.58778 1H6.11719V1.5H6.58778V1Z" fill="#FEFEFE"/>
<path d="M7.05848 1H6.58789V1.5H7.05848V1Z" fill="#FEFEFE"/>
<path d="M7.52918 1H7.05859V1.5H7.52918V1Z" fill="#FEFEFE"/>
<path d="M7.99989 1H7.5293V1.5H7.99989V1Z" fill="#FEFEFE"/>
<path d="M8.47059 1H8V1.5H8.47059V1Z" fill="#FEFEFE"/>
<path d="M8.94129 1H8.4707V1.5H8.94129V1Z" fill="#FEFEFE"/>
<path d="M9.41199 1H8.94141V1.5H9.41199V1Z" fill="#FEFEFE"/>
<path d="M9.8827 1H9.41211V1.5H9.8827V1Z" fill="#FEFEFE"/>
<path d="M10.3534 1H9.88281V1.5H10.3534V1Z" fill="#FEFEFE"/>
<path d="M10.8241 1H10.3535V1.5H10.8241V1Z" fill="#FEFEFE"/>
<path d="M11.2948 1H10.8242V1.5H11.2948V1Z" fill="#FEFEFE"/>
<path d="M11.7655 1H11.2949V1.5H11.7655V1Z" fill="#FEFEFE"/>
<path d="M12.2362 1H11.7656V1.5H12.2362V1Z" fill="#FEFEFE"/>
<path d="M12.705 1H12.2344V1.5H12.705V1Z" fill="#FEFEFE"/>
<path d="M13.1757 1H12.7051V1.5H13.1757V1Z" fill="#FEFEFE"/>
<path d="M13.6464 1H13.1758V1.5H13.6464V1Z" fill="#FEFEFE"/>
<path d="M14.1171 1H13.6465V1.5H14.1171V1Z" fill="#FEFEFE"/>
<path d="M14.5878 1H14.1172V1.5H14.5878V1Z" fill="#FEFEFE"/>
<path d="M15.0585 1H14.5879V1.5H15.0585V1Z" fill="#FEFEFE"/>
<path d="M15.5292 1H15.0586V1.5H15.5292V1Z" fill="#FEFEFE"/>
<path d="M15.9999 1H15.5293V1.5H15.9999V1Z" fill="#FEFEFE"/>
<path d="M0.470588 1.5H0V2H0.470588V1.5Z" fill="#FEFEFE"/>
<path d="M0.941291 1.5H0.470703V2H0.941291V1.5Z" fill="#FEFEFE"/>
<path d="M1.41199 1.5H0.941406V2H1.41199V1.5Z" fill="#FEFEFE"/>
<path d="M1.8827 1.5H1.41211V2H1.8827V1.5Z" fill="#FEFEFE"/>
<path d="M2.3534 1.5H1.88281V2H2.3534V1.5Z" fill="#FEFEFE"/>
<path d="M2.8241 1.5H2.35352V2H2.8241V1.5Z" fill="#FEFEFE"/>
<path d="M3.29481 1.5H2.82422V2H3.29481V1.5Z" fill="#FEFEFE"/>
<path d="M3.76551 1.5H3.29492V2H3.76551V1.5Z" fill="#FEFEFE"/>
<path d="M4.23621 1.5H3.76562V2H4.23621V1.5Z" fill="#FEFEFE"/>
<path d="M4.70496 1.5H4.23438V2H4.70496V1.5Z" fill="#FEFEFE"/>
<path d="M5.17567 1.5H4.70508V2H5.17567V1.5Z" fill="#FEFEFE"/>
<path d="M5.64637 1.5H5.17578V2H5.64637V1.5Z" fill="#FEFEFE"/>
<path d="M6.11707 1.5H5.64648V2H6.11707V1.5Z" fill="#FEFEFE"/>
<path d="M6.58778 1.5H6.11719V2H6.58778V1.5Z" fill="#FEFEFE"/>
<path d="M7.05848 1.5H6.58789V2H7.05848V1.5Z" fill="#FEFEFE"/>
<path d="M7.52918 1.5H7.05859V2H7.52918V1.5Z" fill="#FEFEFE"/>
<path d="M7.99989 1.5H7.5293V2H7.99989V1.5Z" fill="#FEFEFE"/>
<path d="M8.47059 1.5H8V2H8.47059V1.5Z" fill="#FEFEFE"/>
<path d="M8.94129 1.5H8.4707V2H8.94129V1.5Z" fill="#FEFEFE"/>
<path d="M9.41199 1.5H8.94141V2H9.41199V1.5Z" fill="#FEFEFE"/>
<path d="M9.8827 1.5H9.41211V2H9.8827V1.5Z" fill="#FEFEFE"/>
<path d="M10.3534 1.5H9.88281V2H10.3534V1.5Z" fill="#FEFEFE"/>
<path d="M10.8241 1.5H10.3535V2H10.8241V1.5Z" fill="#FEFEFE"/>
<path d="M11.2948 1.5H10.8242V2H11.2948V1.5Z" fill="#FEFEFE"/>
<path d="M11.7655 1.5H11.2949V2H11.7655V1.5Z" fill="#FEFEFE"/>
<path d="M12.2362 1.5H11.7656V2H12.2362V1.5Z" fill="#FEFEFE"/>
<path d="M12.705 1.5H12.2344V2H12.705V1.5Z" fill="#FEFEFE"/>
<path d="M13.1757 1.5H12.7051V2H13.1757V1.5Z" fill="#FEFEFE"/>
<path d="M13.6464 1.5H13.1758V2H13.6464V1.5Z" fill="#FEFEFE"/>
<path d="M14.1171 1.5H13.6465V2H14.1171V1.5Z" fill="#FEFEFE"/>
<path d="M14.5878 1.5H14.1172V2H14.5878V1.5Z" fill="#FEFEFE"/>
<path d="M15.0585 1.5H14.5879V2H15.0585V1.5Z" fill="#FEFEFE"/>
<path d="M15.5292 1.5H15.0586V2H15.5292V1.5Z" fill="#FEFEFE"/>
<path d="M15.9999 1.5H15.5293V2H15.9999V1.5Z" fill="#FEFEFE"/>
<path d="M0.470588 2H0V2.5H0.470588V2Z" fill="#FEFEFE"/>
<path d="M0.941291 2H0.470703V2.5H0.941291V2Z" fill="#FEFEFE"/>
<path d="M1.41199 2H0.941406V2.5H1.41199V2Z" fill="#FEFEFE"/>
<path d="M1.8827 2H1.41211V2.5H1.8827V2Z" fill="#FEFEFE"/>
<path d="M2.3534 2H1.88281V2.5H2.3534V2Z" fill="#FEFEFE"/>
<path d="M2.8241 2H2.35352V2.5H2.8241V2Z" fill="#FEFEFE"/>
<path d="M3.29481 2H2.82422V2.5H3.29481V2Z" fill="#FEFEFE"/>
<path d="M3.76551 2H3.29492V2.5H3.76551V2Z" fill="#FEFEFE"/>
<path d="M4.23621 2H3.76562V2.5H4.23621V2Z" fill="#FEFEFE"/>
<path d="M4.70496 2H4.23438V2.5H4.70496V2Z" fill="#FEFEFE"/>
<path d="M5.17567 2H4.70508V2.5H5.17567V2Z" fill="#FEFEFE"/>
<path d="M5.64637 2H5.17578V2.5H5.64637V2Z" fill="#FEFEFE"/>
<path d="M6.11707 2H5.64648V2.5H6.11707V2Z" fill="#FEFEFE"/>
<path d="M6.58778 2H6.11719V2.5H6.58778V2Z" fill="#FEFEFE"/>
<path d="M7.05848 2H6.58789V2.5H7.05848V2Z" fill="#FEFEFE"/>
<path d="M7.52918 2H7.05859V2.5H7.52918V2Z" fill="#FEFEFE"/>
<path d="M7.99989 2H7.5293V2.5H7.99989V2Z" fill="#FEFEFE"/>
<path d="M8.47059 2H8V2.5H8.47059V2Z" fill="#FEFEFE"/>
<path d="M8.94129 2H8.4707V2.5H8.94129V2Z" fill="#FEFEFE"/>
<path d="M9.41199 2H8.94141V2.5H9.41199V2Z" fill="#FEFEFE"/>
<path d="M9.8827 2H9.41211V2.5H9.8827V2Z" fill="#FEFEFE"/>
<path d="M10.3534 2H9.88281V2.5H10.3534V2Z" fill="#FEFEFE"/>
<path d="M10.8241 2H10.3535V2.5H10.8241V2Z" fill="#FEFEFE"/>
<path d="M11.2948 2H10.8242V2.5H11.2948V2Z" fill="#FEFEFE"/>
<path d="M11.7655 2H11.2949V2.5H11.7655V2Z" fill="#FEFEFE"/>
<path d="M12.2362 2H11.7656V2.5H12.2362V2Z" fill="#FEFEFE"/>
<path d="M12.705 2H12.2344V2.5H12.705V2Z" fill="#FEFEFE"/>
<path d="M13.1757 2H12.7051V2.5H13.1757V2Z" fill="#FEFEFE"/>
<path d="M13.6464 2H13.1758V2.5H13.6464V2Z" fill="#FEFEFE"/>
<path d="M14.1171 2H13.6465V2.5H14.1171V2Z" fill="#FEFEFE"/>
<path d="M14.5878 2H14.1172V2.5H14.5878V2Z" fill="#FEFEFE"/>
<path d="M15.0585 2H14.5879V2.5H15.0585V2Z" fill="#FEFEFE"/>
<path d="M15.5292 2H15.0586V2.5H15.5292V2Z" fill="#FEFEFE"/>
<path d="M15.9999 2H15.5293V2.5H15.9999V2Z" fill="#FEFEFE"/>
<path d="M0.470588 2.5H0V3H0.470588V2.5Z" fill="#FEFEFE"/>
<path d="M0.941291 2.5H0.470703V3H0.941291V2.5Z" fill="#FEFEFE"/>
<path d="M1.41199 2.5H0.941406V3H1.41199V2.5Z" fill="#FEFEFE"/>
<path d="M1.8827 2.5H1.41211V3H1.8827V2.5Z" fill="#FEFEFE"/>
<path d="M2.3534 2.5H1.88281V3H2.3534V2.5Z" fill="#FEFEFE"/>
<path d="M2.8241 2.5H2.35352V3H2.8241V2.5Z" fill="#FEFEFE"/>
<path d="M3.29481 2.5H2.82422V3H3.29481V2.5Z" fill="#FEFEFE"/>
<path d="M3.76551 2.5H3.29492V3H3.76551V2.5Z" fill="#FEFEFE"/>
<path d="M4.23621 2.5H3.76562V3H4.23621V2.5Z" fill="#FEFEFE"/>
<path d="M4.70496 2.5H4.23438V3H4.70496V2.5Z" fill="#FEFEFE"/>
<path d="M5.17567 2.5H4.70508V3H5.17567V2.5Z" fill="#FEFEFE"/>
<path d="M5.64637 2.5H5.17578V3H5.64637V2.5Z" fill="#FEFEFE"/>
<path d="M6.11707 2.5H5.64648V3H6.11707V2.5Z" fill="#FEFEFE"/>
<path d="M6.58778 2.5H6.11719V3H6.58778V2.5Z" fill="#FEFEFE"/>
<path d="M7.05848 2.5H6.58789V3H7.05848V2.5Z" fill="#FEFEFE"/>
<path d="M7.52918 2.5H7.05859V3H7.52918V2.5Z" fill="#FEFEFE"/>
<path d="M7.99989 2.5H7.5293V3H7.99989V2.5Z" fill="#FEFEFE"/>
<path d="M8.47059 2.5H8V3H8.47059V2.5Z" fill="#FEFEFE"/>
<path d="M8.94129 2.5H8.4707V3H8.94129V2.5Z" fill="#FEFEFE"/>
<path d="M9.41199 2.5H8.94141V3H9.41199V2.5Z" fill="#FEFEFE"/>
<path d="M9.8827 2.5H9.41211V3H9.8827V2.5Z" fill="#FEFEFE"/>
<path d="M10.3534 2.5H9.88281V3H10.3534V2.5Z" fill="#FEFEFE"/>
<path d="M10.8241 2.5H10.3535V3H10.8241V2.5Z" fill="#FEFEFE"/>
<path d="M11.2948 2.5H10.8242V3H11.2948V2.5Z" fill="#FEFEFE"/>
<path d="M11.7655 2.5H11.2949V3H11.7655V2.5Z" fill="#FEFEFE"/>
<path d="M12.2362 2.5H11.7656V3H12.2362V2.5Z" fill="#FEFEFE"/>
<path d="M12.705 2.5H12.2344V3H12.705V2.5Z" fill="#FEFEFE"/>
<path d="M13.1757 2.5H12.7051V3H13.1757V2.5Z" fill="#FEFEFE"/>
<path d="M13.6464 2.5H13.1758V3H13.6464V2.5Z" fill="#FEFEFE"/>
<path d="M14.1171 2.5H13.6465V3H14.1171V2.5Z" fill="#FEFEFE"/>
<path d="M14.5878 2.5H14.1172V3H14.5878V2.5Z" fill="#FEFEFE"/>
<path d="M15.0585 2.5H14.5879V3H15.0585V2.5Z" fill="#FEFEFE"/>
<path d="M15.5292 2.5H15.0586V3H15.5292V2.5Z" fill="#FEFEFE"/>
<path d="M15.9999 2.5H15.5293V3H15.9999V2.5Z" fill="#FEFEFE"/>
<path d="M0.470588 3H0V3.5H0.470588V3Z" fill="#FEFEFE"/>
<path d="M0.941291 3H0.470703V3.5H0.941291V3Z" fill="#FEFEFE"/>
<path d="M1.41199 3H0.941406V3.5H1.41199V3Z" fill="#FEFEFE"/>
<path d="M1.8827 3H1.41211V3.5H1.8827V3Z" fill="#FEFEFE"/>
<path d="M2.3534 3H1.88281V3.5H2.3534V3Z" fill="#FEFEFE"/>
<path d="M2.8241 3H2.35352V3.5H2.8241V3Z" fill="#FEFEFE"/>
<path d="M3.29481 3H2.82422V3.5H3.29481V3Z" fill="#FEFEFE"/>
<path d="M3.76551 3H3.29492V3.5H3.76551V3Z" fill="#FEFEFE"/>
<path d="M4.23621 3H3.76562V3.5H4.23621V3Z" fill="#FEFEFE"/>
<path d="M4.70496 3H4.23438V3.5H4.70496V3Z" fill="#FEFEFE"/>
<path d="M5.17567 3H4.70508V3.5H5.17567V3Z" fill="#FEFEFE"/>
<path d="M5.64637 3H5.17578V3.5H5.64637V3Z" fill="#FEFEFE"/>
<path d="M6.11707 3H5.64648V3.5H6.11707V3Z" fill="#FEFEFE"/>
<path d="M6.58778 3H6.11719V3.5H6.58778V3Z" fill="#FEFEFE"/>
<path d="M7.05848 3H6.58789V3.5H7.05848V3Z" fill="#FEFEFE"/>
<path d="M7.52918 3H7.05859V3.5H7.52918V3Z" fill="#FEFEFE"/>
<path d="M7.99989 3H7.5293V3.5H7.99989V3Z" fill="#FEFEFE"/>
<path d="M8.47059 3H8V3.5H8.47059V3Z" fill="#FEFEFE"/>
<path d="M8.94129 3H8.4707V3.5H8.94129V3Z" fill="#FEFEFE"/>
<path d="M9.41199 3H8.94141V3.5H9.41199V3Z" fill="#FEFEFE"/>
<path d="M9.8827 3H9.41211V3.5H9.8827V3Z" fill="#FEFEFE"/>
<path d="M10.3534 3H9.88281V3.5H10.3534V3Z" fill="#FEFEFE"/>
<path d="M10.8241 3H10.3535V3.5H10.8241V3Z" fill="#FEFEFE"/>
<path d="M11.2948 3H10.8242V3.5H11.2948V3Z" fill="#FEFEFE"/>
<path d="M11.7655 3H11.2949V3.5H11.7655V3Z" fill="#FEFEFE"/>
<path d="M12.2362 3H11.7656V3.5H12.2362V3Z" fill="#FEFEFE"/>
<path d="M12.705 3H12.2344V3.5H12.705V3Z" fill="#FEFEFE"/>
<path d="M13.1757 3H12.7051V3.5H13.1757V3Z" fill="#FEFEFE"/>
<path d="M13.6464 3H13.1758V3.5H13.6464V3Z" fill="#FEFEFE"/>
<path d="M14.1171 3H13.6465V3.5H14.1171V3Z" fill="#FEFEFE"/>
<path d="M14.5878 3H14.1172V3.5H14.5878V3Z" fill="#FEFEFE"/>
<path d="M15.0585 3H14.5879V3.5H15.0585V3Z" fill="#FEFEFE"/>
<path d="M15.5292 3H15.0586V3.5H15.5292V3Z" fill="#FEFEFE"/>
<path d="M15.9999 3H15.5293V3.5H15.9999V3Z" fill="#FEFEFE"/>
<path d="M0.470588 3.5H0V4H0.470588V3.5Z" fill="#FEFEFE"/>
<path d="M0.941291 3.5H0.470703V4H0.941291V3.5Z" fill="#FEFEFE"/>
<path d="M1.41199 3.5H0.941406V4H1.41199V3.5Z" fill="#FEFEFE"/>
<path d="M1.8827 3.5H1.41211V4H1.8827V3.5Z" fill="#FEFEFE"/>
<path d="M2.3534 3.5H1.88281V4H2.3534V3.5Z" fill="#FEFEFE"/>
<path d="M2.8241 3.5H2.35352V4H2.8241V3.5Z" fill="#FEFEFE"/>
<path d="M3.29481 3.5H2.82422V4H3.29481V3.5Z" fill="#FEFEFE"/>
<path d="M3.76551 3.5H3.29492V4H3.76551V3.5Z" fill="#FEFEFE"/>
<path d="M4.23621 3.5H3.76562V4H4.23621V3.5Z" fill="#FEFEFE"/>
<path d="M4.70496 3.5H4.23438V4H4.70496V3.5Z" fill="#FEFEFE"/>
<path d="M5.17567 3.5H4.70508V4H5.17567V3.5Z" fill="#FEFEFE"/>
<path d="M5.64637 3.5H5.17578V4H5.64637V3.5Z" fill="#FEFEFE"/>
<path d="M6.11707 3.5H5.64648V4H6.11707V3.5Z" fill="#FEFEFE"/>
<path d="M6.58778 3.5H6.11719V4H6.58778V3.5Z" fill="#FEFEFE"/>
<path d="M7.05848 3.5H6.58789V4H7.05848V3.5Z" fill="#FEFEFE"/>
<path d="M7.52918 3.5H7.05859V4H7.52918V3.5Z" fill="#FEFEFE"/>
<path d="M7.99989 3.5H7.5293V4H7.99989V3.5Z" fill="#FEFEFE"/>
<path d="M8.47059 3.5H8V4H8.47059V3.5Z" fill="#FEFEFE"/>
<path d="M8.94129 3.5H8.4707V4H8.94129V3.5Z" fill="#FEFEFE"/>
<path d="M9.41199 3.5H8.94141V4H9.41199V3.5Z" fill="#FEFEFE"/>
<path d="M9.8827 3.5H9.41211V4H9.8827V3.5Z" fill="#FEFEFE"/>
<path d="M10.3534 3.5H9.88281V4H10.3534V3.5Z" fill="#FEFEFE"/>
<path d="M10.8241 3.5H10.3535V4H10.8241V3.5Z" fill="#FEFEFE"/>
<path d="M11.2948 3.5H10.8242V4H11.2948V3.5Z" fill="#FEFEFE"/>
<path d="M11.7655 3.5H11.2949V4H11.7655V3.5Z" fill="#FEFEFE"/>
<path d="M12.2362 3.5H11.7656V4H12.2362V3.5Z" fill="#FEFEFE"/>
<path d="M12.705 3.5H12.2344V4H12.705V3.5Z" fill="#FEFEFE"/>
<path d="M13.1757 3.5H12.7051V4H13.1757V3.5Z" fill="#FEFEFE"/>
<path d="M13.6464 3.5H13.1758V4H13.6464V3.5Z" fill="#FEFEFE"/>
<path d="M14.1171 3.5H13.6465V4H14.1171V3.5Z" fill="#FEFEFE"/>
<path d="M14.5878 3.5H14.1172V4H14.5878V3.5Z" fill="#FEFEFE"/>
<path d="M15.0585 3.5H14.5879V4H15.0585V3.5Z" fill="#FEFEFE"/>
<path d="M15.5292 3.5H15.0586V4H15.5292V3.5Z" fill="#FEFEFE"/>
<path d="M15.9999 3.5H15.5293V4H15.9999V3.5Z" fill="#FEFEFE"/>
<path d="M0.470588 4H0V4.5H0.470588V4Z" fill="#FEFEFE"/>
<path d="M0.941291 4H0.470703V4.5H0.941291V4Z" fill="#FEFEFE"/>
<path d="M1.41199 4H0.941406V4.5H1.41199V4Z" fill="#FEFEFE"/>
<path d="M1.8827 4H1.41211V4.5H1.8827V4Z" fill="#FEFEFE"/>
<path d="M2.3534 4H1.88281V4.5H2.3534V4Z" fill="#FEFEFE"/>
<path d="M2.8241 4H2.35352V4.5H2.8241V4Z" fill="#FEFEFE"/>
<path d="M3.29481 4H2.82422V4.5H3.29481V4Z" fill="#FEFEFE"/>
<path d="M3.76551 4H3.29492V4.5H3.76551V4Z" fill="#FEFEFE"/>
<path d="M4.23621 4H3.76562V4.5H4.23621V4Z" fill="#FEFEFE"/>
<path d="M4.70496 4H4.23438V4.5H4.70496V4Z" fill="#FEFEFE"/>
<path d="M5.17567 4H4.70508V4.5H5.17567V4Z" fill="#FEFEFE"/>
<path d="M5.64637 4H5.17578V4.5H5.64637V4Z" fill="#FEFEFE"/>
<path d="M6.11707 4H5.64648V4.5H6.11707V4Z" fill="#FEFEFE"/>
<path d="M6.58778 4H6.11719V4.5H6.58778V4Z" fill="#FEFEFE"/>
<path d="M7.05848 4H6.58789V4.5H7.05848V4Z" fill="#FEFEFE"/>
<path d="M7.52918 4H7.05859V4.5H7.52918V4Z" fill="#FEFEFE"/>
<path d="M7.99989 4H7.5293V4.5H7.99989V4Z" fill="#FEFEFE"/>
<path d="M8.47059 4H8V4.5H8.47059V4Z" fill="#FEFEFE"/>
<path d="M8.94129 4H8.4707V4.5H8.94129V4Z" fill="#FEFEFE"/>
<path d="M9.41199 4H8.94141V4.5H9.41199V4Z" fill="#FEFEFE"/>
<path d="M9.8827 4H9.41211V4.5H9.8827V4Z" fill="#FEFEFE"/>
<path d="M10.3534 4H9.88281V4.5H10.3534V4Z" fill="#FEFEFE"/>
<path d="M10.8241 4H10.3535V4.5H10.8241V4Z" fill="#FEFEFE"/>
<path d="M11.2948 4H10.8242V4.5H11.2948V4Z" fill="#FEFEFE"/>
<path d="M11.7655 4H11.2949V4.5H11.7655V4Z" fill="#FEFEFE"/>
<path d="M12.2362 4H11.7656V4.5H12.2362V4Z" fill="#FEFEFE"/>
<path d="M12.705 4H12.2344V4.5H12.705V4Z" fill="#FEFEFE"/>
<path d="M13.1757 4H12.7051V4.5H13.1757V4Z" fill="#FEFEFE"/>
<path d="M13.6464 4H13.1758V4.5H13.6464V4Z" fill="#FEFEFE"/>
<path d="M14.1171 4H13.6465V4.5H14.1171V4Z" fill="#FEFEFE"/>
<path d="M14.5878 4H14.1172V4.5H14.5878V4Z" fill="#FEFEFE"/>
<path d="M15.0585 4H14.5879V4.5H15.0585V4Z" fill="#FEFEFE"/>
<path d="M15.5292 4H15.0586V4.5H15.5292V4Z" fill="#FEFEFE"/>
<path d="M15.9999 4H15.5293V4.5H15.9999V4Z" fill="#FEFEFE"/>
<path d="M0.470588 4.5H0V5H0.470588V4.5Z" fill="#FEFEFE"/>
<path d="M0.941291 4.5H0.470703V5H0.941291V4.5Z" fill="#FEFEFE"/>
<path d="M1.41199 4.5H0.941406V5H1.41199V4.5Z" fill="#FEFEFE"/>
<path d="M1.8827 4.5H1.41211V5H1.8827V4.5Z" fill="#FEFEFE"/>
<path d="M2.3534 4.5H1.88281V5H2.3534V4.5Z" fill="#FEFEFE"/>
<path d="M2.8241 4.5H2.35352V5H2.8241V4.5Z" fill="#FEFEFE"/>
<path d="M3.29481 4.5H2.82422V5H3.29481V4.5Z" fill="#FEFEFE"/>
<path d="M3.76551 4.5H3.29492V5H3.76551V4.5Z" fill="#FEFEFE"/>
<path d="M4.23621 4.5H3.76562V5H4.23621V4.5Z" fill="#FEFEFE"/>
<path d="M4.70496 4.5H4.23438V5H4.70496V4.5Z" fill="#FEFEFE"/>
<path d="M5.17567 4.5H4.70508V5H5.17567V4.5Z" fill="#FEFEFE"/>
<path d="M5.64637 4.5H5.17578V5H5.64637V4.5Z" fill="#FEFEFE"/>
<path d="M6.11707 4.5H5.64648V5H6.11707V4.5Z" fill="#FEFEFE"/>
<path d="M6.58778 4.5H6.11719V5H6.58778V4.5Z" fill="#FEFEFE"/>
<path d="M7.05848 4.5H6.58789V5H7.05848V4.5Z" fill="#FEFEFE"/>
<path d="M7.52918 4.5H7.05859V5H7.52918V4.5Z" fill="#FEFEFE"/>
<path d="M7.99989 4.5H7.5293V5H7.99989V4.5Z" fill="#FEFEFE"/>
<path d="M8.47059 4.5H8V5H8.47059V4.5Z" fill="#FEFEFE"/>
<path d="M8.94129 4.5H8.4707V5H8.94129V4.5Z" fill="#FEFEFE"/>
<path d="M9.41199 4.5H8.94141V5H9.41199V4.5Z" fill="#FEFEFE"/>
<path d="M9.8827 4.5H9.41211V5H9.8827V4.5Z" fill="#FEFEFE"/>
<path d="M10.3534 4.5H9.88281V5H10.3534V4.5Z" fill="#FEFEFE"/>
<path d="M10.8241 4.5H10.3535V5H10.8241V4.5Z" fill="#FEFEFE"/>
<path d="M11.2948 4.5H10.8242V5H11.2948V4.5Z" fill="#FEFEFE"/>
<path d="M11.7655 4.5H11.2949V5H11.7655V4.5Z" fill="#FEFEFE"/>
<path d="M12.2362 4.5H11.7656V5H12.2362V4.5Z" fill="#FEFEFE"/>
<path d="M12.705 4.5H12.2344V5H12.705V4.5Z" fill="#FEFEFE"/>
<path d="M13.1757 4.5H12.7051V5H13.1757V4.5Z" fill="#FEFEFE"/>
<path d="M13.6464 4.5H13.1758V5H13.6464V4.5Z" fill="#FEFEFE"/>
<path d="M14.1171 4.5H13.6465V5H14.1171V4.5Z" fill="#FEFEFE"/>
<path d="M14.5878 4.5H14.1172V5H14.5878V4.5Z" fill="#FEFEFE"/>
<path d="M15.0585 4.5H14.5879V5H15.0585V4.5Z" fill="#FEFEFE"/>
<path d="M15.5292 4.5H15.0586V5H15.5292V4.5Z" fill="#FEFEFE"/>
<path d="M15.9999 4.5H15.5293V5H15.9999V4.5Z" fill="#FEFEFE"/>
<path d="M0.470588 5H0V5.5H0.470588V5Z" fill="#FEFEFE"/>
<path d="M0.941291 5H0.470703V5.5H0.941291V5Z" fill="#FEFEFE"/>
<path d="M1.41199 5H0.941406V5.5H1.41199V5Z" fill="#FEFEFE"/>
<path d="M1.8827 5H1.41211V5.5H1.8827V5Z" fill="#FEFEFE"/>
<path d="M2.3534 5H1.88281V5.5H2.3534V5Z" fill="#FEFEFE"/>
<path d="M4.70496 5H4.23438V5.5H4.70496V5Z" fill="#FEFEFE"/>
<path d="M5.17567 5H4.70508V5.5H5.17567V5Z" fill="#FEFEFE"/>
<path d="M5.64637 5H5.17578V5.5H5.64637V5Z" fill="#FEFEFE"/>
<path d="M6.11707 5H5.64648V5.5H6.11707V5Z" fill="#FEFEFE"/>
<path d="M6.58778 5H6.11719V5.5H6.58778V5Z" fill="#FEFEFE"/>
<path d="M7.05848 5H6.58789V5.5H7.05848V5Z" fill="#FEFEFE"/>
<path d="M9.41199 5H8.94141V5.5H9.41199V5Z" fill="#FEFEFE"/>
<path d="M9.8827 5H9.41211V5.5H9.8827V5Z" fill="#FEFEFE"/>
<path d="M10.3534 5H9.88281V5.5H10.3534V5Z" fill="#FEFEFE"/>
<path d="M10.8241 5H10.3535V5.5H10.8241V5Z" fill="#FEFEFE"/>
<path d="M11.2948 5H10.8242V5.5H11.2948V5Z" fill="#FEFEFE"/>
<path d="M11.7655 5H11.2949V5.5H11.7655V5Z" fill="#FEFEFE"/>
<path d="M14.1171 5H13.6465V5.5H14.1171V5Z" fill="#FEFEFE"/>
<path d="M14.5878 5H14.1172V5.5H14.5878V5Z" fill="#FEFEFE"/>
<path d="M15.0585 5H14.5879V5.5H15.0585V5Z" fill="#FEFEFE"/>
<path d="M15.5292 5H15.0586V5.5H15.5292V5Z" fill="#FEFEFE"/>
<path d="M15.9999 5H15.5293V5.5H15.9999V5Z" fill="#FEFEFE"/>
<path d="M0.470588 5.5H0V6H0.470588V5.5Z" fill="#FEFEFE"/>
<path d="M0.941291 5.5H0.470703V6H0.941291V5.5Z" fill="#FEFEFE"/>
<path d="M1.41199 5.5H0.941406V6H1.41199V5.5Z" fill="#FEFEFE"/>
<path d="M1.8827 5.5H1.41211V6H1.8827V5.5Z" fill="#FEFEFE"/>
<path d="M2.3534 5.5H1.88281V6H2.3534V5.5Z" fill="#FEFEFE"/>
<path d="M4.70496 5.5H4.23438V6H4.70496V5.5Z" fill="#FEFEFE"/>
<path d="M5.17567 5.5H4.70508V6H5.17567V5.5Z" fill="#FEFEFE"/>
<path d="M5.64637 5.5H5.17578V6H5.64637V5.5Z" fill="#FEFEFE"/>
<path d="M6.11707 5.5H5.64648V6H6.11707V5.5Z" fill="#FEFEFE"/>
<path d="M6.58778 5.5H6.11719V6H6.58778V5.5Z" fill="#FEFEFE"/>
<path d="M7.05848 5.5H6.58789V6H7.05848V5.5Z" fill="#FEFEFE"/>
<path d="M9.41199 5.5H8.94141V6H9.41199V5.5Z" fill="#FEFEFE"/>
<path d="M9.8827 5.5H9.41211V6H9.8827V5.5Z" fill="#FEFEFE"/>
<path d="M10.3534 5.5H9.88281V6H10.3534V5.5Z" fill="#FEFEFE"/>
<path d="M10.8241 5.5H10.3535V6H10.8241V5.5Z" fill="#FEFEFE"/>
<path d="M11.2948 5.5H10.8242V6H11.2948V5.5Z" fill="#FEFEFE"/>
<path d="M11.7655 5.5H11.2949V6H11.7655V5.5Z" fill="#FEFEFE"/>
<path d="M14.1171 5.5H13.6465V6H14.1171V5.5Z" fill="#FEFEFE"/>
<path d="M14.5878 5.5H14.1172V6H14.5878V5.5Z" fill="#FEFEFE"/>
<path d="M15.0585 5.5H14.5879V6H15.0585V5.5Z" fill="#FEFEFE"/>
<path d="M15.5292 5.5H15.0586V6H15.5292V5.5Z" fill="#FEFEFE"/>
<path d="M15.9999 5.5H15.5293V6H15.9999V5.5Z" fill="#FEFEFE"/>
<path d="M0.470588 6H0V6.5H0.470588V6Z" fill="#FEFEFE"/>
<path d="M0.941291 6H0.470703V6.5H0.941291V6Z" fill="#FEFEFE"/>
<path d="M1.41199 6H0.941406V6.5H1.41199V6Z" fill="#FEFEFE"/>
<path d="M1.8827 6H1.41211V6.5H1.8827V6Z" fill="#FEFEFE"/>
<path d="M2.3534 6H1.88281V6.5H2.3534V6Z" fill="#FEFEFE"/>
<path d="M4.70496 6H4.23438V6.5H4.70496V6Z" fill="#FEFEFE"/>
<path d="M5.17567 6H4.70508V6.5H5.17567V6Z" fill="#FEFEFE"/>
<path d="M5.64637 6H5.17578V6.5H5.64637V6Z" fill="#FEFEFE"/>
<path d="M6.11707 6H5.64648V6.5H6.11707V6Z" fill="#FEFEFE"/>
<path d="M6.58778 6H6.11719V6.5H6.58778V6Z" fill="#FEFEFE"/>
<path d="M7.05848 6H6.58789V6.5H7.05848V6Z" fill="#FEFEFE"/>
<path d="M9.41199 6H8.94141V6.5H9.41199V6Z" fill="#FEFEFE"/>
<path d="M9.8827 6H9.41211V6.5H9.8827V6Z" fill="#FEFEFE"/>
<path d="M10.3534 6H9.88281V6.5H10.3534V6Z" fill="#FEFEFE"/>
<path d="M10.8241 6H10.3535V6.5H10.8241V6Z" fill="#FEFEFE"/>
<path d="M11.2948 6H10.8242V6.5H11.2948V6Z" fill="#FEFEFE"/>
<path d="M11.7655 6H11.2949V6.5H11.7655V6Z" fill="#FEFEFE"/>
<path d="M14.1171 6H13.6465V6.5H14.1171V6Z" fill="#FEFEFE"/>
<path d="M14.5878 6H14.1172V6.5H14.5878V6Z" fill="#FEFEFE"/>
<path d="M15.0585 6H14.5879V6.5H15.0585V6Z" fill="#FEFEFE"/>
<path d="M15.5292 6H15.0586V6.5H15.5292V6Z" fill="#FEFEFE"/>
<path d="M15.9999 6H15.5293V6.5H15.9999V6Z" fill="#FEFEFE"/>
<path d="M0.470588 6.5H0V7H0.470588V6.5Z" fill="#FEFEFE"/>
<path d="M0.941291 6.5H0.470703V7H0.941291V6.5Z" fill="#FEFEFE"/>
<path d="M1.41199 6.5H0.941406V7H1.41199V6.5Z" fill="#FEFEFE"/>
<path d="M1.8827 6.5H1.41211V7H1.8827V6.5Z" fill="#FEFEFE"/>
<path d="M2.3534 6.5H1.88281V7H2.3534V6.5Z" fill="#FEFEFE"/>
<path d="M4.70496 6.5H4.23438V7H4.70496V6.5Z" fill="#FEFEFE"/>
<path d="M5.17567 6.5H4.70508V7H5.17567V6.5Z" fill="#FEFEFE"/>
<path d="M5.64637 6.5H5.17578V7H5.64637V6.5Z" fill="#FEFEFE"/>
<path d="M6.11707 6.5H5.64648V7H6.11707V6.5Z" fill="#FEFEFE"/>
<path d="M6.58778 6.5H6.11719V7H6.58778V6.5Z" fill="#FEFEFE"/>
<path d="M7.05848 6.5H6.58789V7H7.05848V6.5Z" fill="#FEFEFE"/>
<path d="M9.41199 6.5H8.94141V7H9.41199V6.5Z" fill="#FEFEFE"/>
<path d="M9.8827 6.5H9.41211V7H9.8827V6.5Z" fill="#FEFEFE"/>
<path d="M10.3534 6.5H9.88281V7H10.3534V6.5Z" fill="#FEFEFE"/>
<path d="M10.8241 6.5H10.3535V7H10.8241V6.5Z" fill="#FEFEFE"/>
<path d="M11.2948 6.5H10.8242V7H11.2948V6.5Z" fill="#FEFEFE"/>
<path d="M11.7655 6.5H11.2949V7H11.7655V6.5Z" fill="#FEFEFE"/>
<path d="M14.1171 6.5H13.6465V7H14.1171V6.5Z" fill="#FEFEFE"/>
<path d="M14.5878 6.5H14.1172V7H14.5878V6.5Z" fill="#FEFEFE"/>
<path d="M15.0585 6.5H14.5879V7H15.0585V6.5Z" fill="#FEFEFE"/>
<path d="M15.5292 6.5H15.0586V7H15.5292V6.5Z" fill="#FEFEFE"/>
<path d="M15.9999 6.5H15.5293V7H15.9999V6.5Z" fill="#FEFEFE"/>
<path d="M0.470588 7H0V7.5H0.470588V7Z" fill="#FEFEFE"/>
<path d="M0.941291 7H0.470703V7.5H0.941291V7Z" fill="#FEFEFE"/>
<path d="M1.41199 7H0.941406V7.5H1.41199V7Z" fill="#FEFEFE"/>
<path d="M1.8827 7H1.41211V7.5H1.8827V7Z" fill="#FEFEFE"/>
<path d="M2.3534 7H1.88281V7.5H2.3534V7Z" fill="#FEFEFE"/>
<path d="M2.8241 7H2.35352V7.5H2.8241V7Z" fill="#FEFEFE"/>
<path d="M3.29481 7H2.82422V7.5H3.29481V7Z" fill="#FEFEFE"/>
<path d="M3.76551 7H3.29492V7.5H3.76551V7Z" fill="#FEFEFE"/>
<path d="M4.23621 7H3.76562V7.5H4.23621V7Z" fill="#FEFEFE"/>
<path d="M4.70496 7H4.23438V7.5H4.70496V7Z" fill="#FEFEFE"/>
<path d="M5.17567 7H4.70508V7.5H5.17567V7Z" fill="#FEFEFE"/>
<path d="M5.64637 7H5.17578V7.5H5.64637V7Z" fill="#FEFEFE"/>
<path d="M6.11707 7H5.64648V7.5H6.11707V7Z" fill="#FEFEFE"/>
<path d="M6.58778 7H6.11719V7.5H6.58778V7Z" fill="#FEFEFE"/>
<path d="M7.05848 7H6.58789V7.5H7.05848V7Z" fill="#FEFEFE"/>
<path d="M7.52918 7H7.05859V7.5H7.52918V7Z" fill="#FEFEFE"/>
<path d="M7.99989 7H7.5293V7.5H7.99989V7Z" fill="#FEFEFE"/>
<path d="M8.47059 7H8V7.5H8.47059V7Z" fill="#FEFEFE"/>
<path d="M8.94129 7H8.4707V7.5H8.94129V7Z" fill="#FEFEFE"/>
<path d="M9.41199 7H8.94141V7.5H9.41199V7Z" fill="#FEFEFE"/>
<path d="M9.8827 7H9.41211V7.5H9.8827V7Z" fill="#FEFEFE"/>
<path d="M10.3534 7H9.88281V7.5H10.3534V7Z" fill="#FEFEFE"/>
<path d="M10.8241 7H10.3535V7.5H10.8241V7Z" fill="#FEFEFE"/>
<path d="M11.2948 7H10.8242V7.5H11.2948V7Z" fill="#FEFEFE"/>
<path d="M11.7655 7H11.2949V7.5H11.7655V7Z" fill="#FEFEFE"/>
<path d="M12.2362 7H11.7656V7.5H12.2362V7Z" fill="#FEFEFE"/>
<path d="M12.705 7H12.2344V7.5H12.705V7Z" fill="#FEFEFE"/>
<path d="M13.1757 7H12.7051V7.5H13.1757V7Z" fill="#FEFEFE"/>
<path d="M13.6464 7H13.1758V7.5H13.6464V7Z" fill="#FEFEFE"/>
<path d="M14.1171 7H13.6465V7.5H14.1171V7Z" fill="#FEFEFE"/>
<path d="M14.5878 7H14.1172V7.5H14.5878V7Z" fill="#FEFEFE"/>
<path d="M15.0585 7H14.5879V7.5H15.0585V7Z" fill="#FEFEFE"/>
<path d="M15.5292 7H15.0586V7.5H15.5292V7Z" fill="#FEFEFE"/>
<path d="M15.9999 7H15.5293V7.5H15.9999V7Z" fill="#FEFEFE"/>
<path d="M0.470588 7.5H0V8H0.470588V7.5Z" fill="#FEFEFE"/>
<path d="M0.941291 7.5H0.470703V8H0.941291V7.5Z" fill="#FEFEFE"/>
<path d="M1.41199 7.5H0.941406V8H1.41199V7.5Z" fill="#FEFEFE"/>
<path d="M1.8827 7.5H1.41211V8H1.8827V7.5Z" fill="#FEFEFE"/>
<path d="M2.3534 7.5H1.88281V8H2.3534V7.5Z" fill="#FEFEFE"/>
<path d="M2.8241 7.5H2.35352V8H2.8241V7.5Z" fill="#FEFEFE"/>
<path d="M3.29481 7.5H2.82422V8H3.29481V7.5Z" fill="#FEFEFE"/>
<path d="M3.76551 7.5H3.29492V8H3.76551V7.5Z" fill="#FEFEFE"/>
<path d="M4.23621 7.5H3.76562V8H4.23621V7.5Z" fill="#FEFEFE"/>
<path d="M4.70496 7.5H4.23438V8H4.70496V7.5Z" fill="#FEFEFE"/>
<path d="M5.17567 7.5H4.70508V8H5.17567V7.5Z" fill="#FEFEFE"/>
<path d="M5.64637 7.5H5.17578V8H5.64637V7.5Z" fill="#FEFEFE"/>
<path d="M6.11707 7.5H5.64648V8H6.11707V7.5Z" fill="#FEFEFE"/>
<path d="M6.58778 7.5H6.11719V8H6.58778V7.5Z" fill="#FEFEFE"/>
<path d="M7.05848 7.5H6.58789V8H7.05848V7.5Z" fill="#FEFEFE"/>
<path d="M7.52918 7.5H7.05859V8H7.52918V7.5Z" fill="#FEFEFE"/>
<path d="M7.99989 7.5H7.5293V8H7.99989V7.5Z" fill="#FEFEFE"/>
<path d="M8.47059 7.5H8V8H8.47059V7.5Z" fill="#FEFEFE"/>
<path d="M8.94129 7.5H8.4707V8H8.94129V7.5Z" fill="#FEFEFE"/>
<path d="M9.41199 7.5H8.94141V8H9.41199V7.5Z" fill="#FEFEFE"/>
<path d="M9.8827 7.5H9.41211V8H9.8827V7.5Z" fill="#FEFEFE"/>
<path d="M10.3534 7.5H9.88281V8H10.3534V7.5Z" fill="#FEFEFE"/>
<path d="M10.8241 7.5H10.3535V8H10.8241V7.5Z" fill="#FEFEFE"/>
<path d="M11.2948 7.5H10.8242V8H11.2948V7.5Z" fill="#FEFEFE"/>
<path d="M11.7655 7.5H11.2949V8H11.7655V7.5Z" fill="#FEFEFE"/>
<path d="M12.2362 7.5H11.7656V8H12.2362V7.5Z" fill="#FEFEFE"/>
<path d="M12.705 7.5H12.2344V8H12.705V7.5Z" fill="#FEFEFE"/>
<path d="M13.1757 7.5H12.7051V8H13.1757V7.5Z" fill="#FEFEFE"/>
<path d="M13.6464 7.5H13.1758V8H13.6464V7.5Z" fill="#FEFEFE"/>
<path d="M14.1171 7.5H13.6465V8H14.1171V7.5Z" fill="#FEFEFE"/>
<path d="M14.5878 7.5H14.1172V8H14.5878V7.5Z" fill="#FEFEFE"/>
<path d="M15.0585 7.5H14.5879V8H15.0585V7.5Z" fill="#FEFEFE"/>
<path d="M15.5292 7.5H15.0586V8H15.5292V7.5Z" fill="#FEFEFE"/>
<path d="M15.9999 7.5H15.5293V8H15.9999V7.5Z" fill="#FEFEFE"/>
<path d="M0.470588 8H0V8.5H0.470588V8Z" fill="#FEFEFE"/>
<path d="M0.941291 8H0.470703V8.5H0.941291V8Z" fill="#FEFEFE"/>
<path d="M1.41199 8H0.941406V8.5H1.41199V8Z" fill="#FEFEFE"/>
<path d="M1.8827 8H1.41211V8.5H1.8827V8Z" fill="#FEFEFE"/>
<path d="M2.3534 8H1.88281V8.5H2.3534V8Z" fill="#FEFEFE"/>
<path d="M2.8241 8H2.35352V8.5H2.8241V8Z" fill="#FEFEFE"/>
<path d="M3.29481 8H2.82422V8.5H3.29481V8Z" fill="#FEFEFE"/>
<path d="M3.76551 8H3.29492V8.5H3.76551V8Z" fill="#FEFEFE"/>
<path d="M4.23621 8H3.76562V8.5H4.23621V8Z" fill="#FEFEFE"/>
<path d="M4.70496 8H4.23438V8.5H4.70496V8Z" fill="#FEFEFE"/>
<path d="M5.17567 8H4.70508V8.5H5.17567V8Z" fill="#FEFEFE"/>
<path d="M5.64637 8H5.17578V8.5H5.64637V8Z" fill="#FEFEFE"/>
<path d="M6.11707 8H5.64648V8.5H6.11707V8Z" fill="#FEFEFE"/>
<path d="M6.58778 8H6.11719V8.5H6.58778V8Z" fill="#FEFEFE"/>
<path d="M7.05848 8H6.58789V8.5H7.05848V8Z" fill="#FEFEFE"/>
<path d="M7.52918 8H7.05859V8.5H7.52918V8Z" fill="#FEFEFE"/>
<path d="M7.99989 8H7.5293V8.5H7.99989V8Z" fill="#FEFEFE"/>
<path d="M8.47059 8H8V8.5H8.47059V8Z" fill="#FEFEFE"/>
<path d="M8.94129 8H8.4707V8.5H8.94129V8Z" fill="#FEFEFE"/>
<path d="M9.41199 8H8.94141V8.5H9.41199V8Z" fill="#FEFEFE"/>
<path d="M9.8827 8H9.41211V8.5H9.8827V8Z" fill="#FEFEFE"/>
<path d="M10.3534 8H9.88281V8.5H10.3534V8Z" fill="#FEFEFE"/>
<path d="M10.8241 8H10.3535V8.5H10.8241V8Z" fill="#FEFEFE"/>
<path d="M11.2948 8H10.8242V8.5H11.2948V8Z" fill="#FEFEFE"/>
<path d="M11.7655 8H11.2949V8.5H11.7655V8Z" fill="#FEFEFE"/>
<path d="M12.2362 8H11.7656V8.5H12.2362V8Z" fill="#FEFEFE"/>
<path d="M12.705 8H12.2344V8.5H12.705V8Z" fill="#FEFEFE"/>
<path d="M13.1757 8H12.7051V8.5H13.1757V8Z" fill="#FEFEFE"/>
<path d="M13.6464 8H13.1758V8.5H13.6464V8Z" fill="#FEFEFE"/>
<path d="M14.1171 8H13.6465V8.5H14.1171V8Z" fill="#FEFEFE"/>
<path d="M14.5878 8H14.1172V8.5H14.5878V8Z" fill="#FEFEFE"/>
<path d="M15.0585 8H14.5879V8.5H15.0585V8Z" fill="#FEFEFE"/>
<path d="M15.5292 8H15.0586V8.5H15.5292V8Z" fill="#FEFEFE"/>
<path d="M15.9999 8H15.5293V8.5H15.9999V8Z" fill="#FEFEFE"/>
<path d="M0.470588 8.5H0V9H0.470588V8.5Z" fill="#FEFEFE"/>
<path d="M0.941291 8.5H0.470703V9H0.941291V8.5Z" fill="#FEFEFE"/>
<path d="M1.41199 8.5H0.941406V9H1.41199V8.5Z" fill="#FEFEFE"/>
<path d="M1.8827 8.5H1.41211V9H1.8827V8.5Z" fill="#FEFEFE"/>
<path d="M2.3534 8.5H1.88281V9H2.3534V8.5Z" fill="#FEFEFE"/>
<path d="M2.8241 8.5H2.35352V9H2.8241V8.5Z" fill="#FEFEFE"/>
<path d="M3.29481 8.5H2.82422V9H3.29481V8.5Z" fill="#FEFEFE"/>
<path d="M3.76551 8.5H3.29492V9H3.76551V8.5Z" fill="#FEFEFE"/>
<path d="M4.23621 8.5H3.76562V9H4.23621V8.5Z" fill="#FEFEFE"/>
<path d="M4.70496 8.5H4.23438V9H4.70496V8.5Z" fill="#FEFEFE"/>
<path d="M5.17567 8.5H4.70508V9H5.17567V8.5Z" fill="#FEFEFE"/>
<path d="M5.64637 8.5H5.17578V9H5.64637V8.5Z" fill="#FEFEFE"/>
<path d="M6.11707 8.5H5.64648V9H6.11707V8.5Z" fill="#FEFEFE"/>
<path d="M6.58778 8.5H6.11719V9H6.58778V8.5Z" fill="#FEFEFE"/>
<path d="M7.05848 8.5H6.58789V9H7.05848V8.5Z" fill="#FEFEFE"/>
<path d="M7.52918 8.5H7.05859V9H7.52918V8.5Z" fill="#FEFEFE"/>
<path d="M7.99989 8.5H7.5293V9H7.99989V8.5Z" fill="#FEFEFE"/>
<path d="M8.47059 8.5H8V9H8.47059V8.5Z" fill="#FEFEFE"/>
<path d="M8.94129 8.5H8.4707V9H8.94129V8.5Z" fill="#FEFEFE"/>
<path d="M9.41199 8.5H8.94141V9H9.41199V8.5Z" fill="#FEFEFE"/>
<path d="M9.8827 8.5H9.41211V9H9.8827V8.5Z" fill="#FEFEFE"/>
<path d="M10.3534 8.5H9.88281V9H10.3534V8.5Z" fill="#FEFEFE"/>
<path d="M10.8241 8.5H10.3535V9H10.8241V8.5Z" fill="#FEFEFE"/>
<path d="M11.2948 8.5H10.8242V9H11.2948V8.5Z" fill="#FEFEFE"/>
<path d="M11.7655 8.5H11.2949V9H11.7655V8.5Z" fill="#FEFEFE"/>
<path d="M12.2362 8.5H11.7656V9H12.2362V8.5Z" fill="#FEFEFE"/>
<path d="M12.705 8.5H12.2344V9H12.705V8.5Z" fill="#FEFEFE"/>
<path d="M13.1757 8.5H12.7051V9H13.1757V8.5Z" fill="#FEFEFE"/>
<path d="M13.6464 8.5H13.1758V9H13.6464V8.5Z" fill="#FEFEFE"/>
<path d="M14.1171 8.5H13.6465V9H14.1171V8.5Z" fill="#FEFEFE"/>
<path d="M14.5878 8.5H14.1172V9H14.5878V8.5Z" fill="#FEFEFE"/>
<path d="M15.0585 8.5H14.5879V9H15.0585V8.5Z" fill="#FEFEFE"/>
<path d="M15.5292 8.5H15.0586V9H15.5292V8.5Z" fill="#FEFEFE"/>
<path d="M15.9999 8.5H15.5293V9H15.9999V8.5Z" fill="#FEFEFE"/>
<path d="M0.470588 9H0V9.5H0.470588V9Z" fill="#FEFEFE"/>
<path d="M0.941291 9H0.470703V9.5H0.941291V9Z" fill="#FEFEFE"/>
<path d="M1.41199 9H0.941406V9.5H1.41199V9Z" fill="#FEFEFE"/>
<path d="M1.8827 9H1.41211V9.5H1.8827V9Z" fill="#FEFEFE"/>
<path d="M2.3534 9H1.88281V9.5H2.3534V9Z" fill="#FEFEFE"/>
<path d="M2.8241 9H2.35352V9.5H2.8241V9Z" fill="#FEFEFE"/>
<path d="M3.29481 9H2.82422V9.5H3.29481V9Z" fill="#FEFEFE"/>
<path d="M3.76551 9H3.29492V9.5H3.76551V9Z" fill="#FEFEFE"/>
<path d="M4.23621 9H3.76562V9.5H4.23621V9Z" fill="#FEFEFE"/>
<path d="M4.70496 9H4.23438V9.5H4.70496V9Z" fill="#FEFEFE"/>
<path d="M5.17567 9H4.70508V9.5H5.17567V9Z" fill="#FEFEFE"/>
<path d="M5.64637 9H5.17578V9.5H5.64637V9Z" fill="#FEFEFE"/>
<path d="M6.11707 9H5.64648V9.5H6.11707V9Z" fill="#FEFEFE"/>
<path d="M6.58778 9H6.11719V9.5H6.58778V9Z" fill="#FEFEFE"/>
<path d="M7.05848 9H6.58789V9.5H7.05848V9Z" fill="#FEFEFE"/>
<path d="M7.52918 9H7.05859V9.5H7.52918V9Z" fill="#FEFEFE"/>
<path d="M7.99989 9H7.5293V9.5H7.99989V9Z" fill="#FEFEFE"/>
<path d="M8.47059 9H8V9.5H8.47059V9Z" fill="#FEFEFE"/>
<path d="M8.94129 9H8.4707V9.5H8.94129V9Z" fill="#FEFEFE"/>
<path d="M9.41199 9H8.94141V9.5H9.41199V9Z" fill="#FEFEFE"/>
<path d="M9.8827 9H9.41211V9.5H9.8827V9Z" fill="#FEFEFE"/>
<path d="M10.3534 9H9.88281V9.5H10.3534V9Z" fill="#FEFEFE"/>
<path d="M10.8241 9H10.3535V9.5H10.8241V9Z" fill="#FEFEFE"/>
<path d="M11.2948 9H10.8242V9.5H11.2948V9Z" fill="#FEFEFE"/>
<path d="M11.7655 9H11.2949V9.5H11.7655V9Z" fill="#FEFEFE"/>
<path d="M12.2362 9H11.7656V9.5H12.2362V9Z" fill="#FEFEFE"/>
<path d="M12.705 9H12.2344V9.5H12.705V9Z" fill="#FEFEFE"/>
<path d="M13.1757 9H12.7051V9.5H13.1757V9Z" fill="#FEFEFE"/>
<path d="M13.6464 9H13.1758V9.5H13.6464V9Z" fill="#FEFEFE"/>
<path d="M14.1171 9H13.6465V9.5H14.1171V9Z" fill="#FEFEFE"/>
<path d="M14.5878 9H14.1172V9.5H14.5878V9Z" fill="#FEFEFE"/>
<path d="M15.0585 9H14.5879V9.5H15.0585V9Z" fill="#FEFEFE"/>
<path d="M15.5292 9H15.0586V9.5H15.5292V9Z" fill="#FEFEFE"/>
<path d="M15.9999 9H15.5293V9.5H15.9999V9Z" fill="#FEFEFE"/>
<path d="M0.470588 9.5H0V10H0.470588V9.5Z" fill="#FEFEFE"/>
<path d="M0.941291 9.5H0.470703V10H0.941291V9.5Z" fill="#FEFEFE"/>
<path d="M1.41199 9.5H0.941406V10H1.41199V9.5Z" fill="#FEFEFE"/>
<path d="M1.8827 9.5H1.41211V10H1.8827V9.5Z" fill="#FEFEFE"/>
<path d="M2.3534 9.5H1.88281V10H2.3534V9.5Z" fill="#FEFEFE"/>
<path d="M2.8241 9.5H2.35352V10H2.8241V9.5Z" fill="#FEFEFE"/>
<path d="M3.29481 9.5H2.82422V10H3.29481V9.5Z" fill="#FEFEFE"/>
<path d="M3.76551 9.5H3.29492V10H3.76551V9.5Z" fill="#FEFEFE"/>
<path d="M4.23621 9.5H3.76562V10H4.23621V9.5Z" fill="#FEFEFE"/>
<path d="M4.70496 9.5H4.23438V10H4.70496V9.5Z" fill="#FEFEFE"/>
<path d="M5.17567 9.5H4.70508V10H5.17567V9.5Z" fill="#FEFEFE"/>
<path d="M5.64637 9.5H5.17578V10H5.64637V9.5Z" fill="#FEFEFE"/>
<path d="M6.11707 9.5H5.64648V10H6.11707V9.5Z" fill="#FEFEFE"/>
<path d="M6.58778 9.5H6.11719V10H6.58778V9.5Z" fill="#FEFEFE"/>
<path d="M7.05848 9.5H6.58789V10H7.05848V9.5Z" fill="#FEFEFE"/>
<path d="M7.52918 9.5H7.05859V10H7.52918V9.5Z" fill="#FEFEFE"/>
<path d="M7.99989 9.5H7.5293V10H7.99989V9.5Z" fill="#FEFEFE"/>
<path d="M8.47059 9.5H8V10H8.47059V9.5Z" fill="#FEFEFE"/>
<path d="M8.94129 9.5H8.4707V10H8.94129V9.5Z" fill="#FEFEFE"/>
<path d="M9.41199 9.5H8.94141V10H9.41199V9.5Z" fill="#FEFEFE"/>
<path d="M9.8827 9.5H9.41211V10H9.8827V9.5Z" fill="#FEFEFE"/>
<path d="M10.3534 9.5H9.88281V10H10.3534V9.5Z" fill="#FEFEFE"/>
<path d="M10.8241 9.5H10.3535V10H10.8241V9.5Z" fill="#FEFEFE"/>
<path d="M11.2948 9.5H10.8242V10H11.2948V9.5Z" fill="#FEFEFE"/>
<path d="M11.7655 9.5H11.2949V10H11.7655V9.5Z" fill="#FEFEFE"/>
<path d="M12.2362 9.5H11.7656V10H12.2362V9.5Z" fill="#FEFEFE"/>
<path d="M12.705 9.5H12.2344V10H12.705V9.5Z" fill="#FEFEFE"/>
<path d="M13.1757 9.5H12.7051V10H13.1757V9.5Z" fill="#FEFEFE"/>
<path d="M13.6464 9.5H13.1758V10H13.6464V9.5Z" fill="#FEFEFE"/>
<path d="M14.1171 9.5H13.6465V10H14.1171V9.5Z" fill="#FEFEFE"/>
<path d="M14.5878 9.5H14.1172V10H14.5878V9.5Z" fill="#FEFEFE"/>
<path d="M15.0585 9.5H14.5879V10H15.0585V9.5Z" fill="#FEFEFE"/>
<path d="M15.5292 9.5H15.0586V10H15.5292V9.5Z" fill="#FEFEFE"/>
<path d="M15.9999 9.5H15.5293V10H15.9999V9.5Z" fill="#FEFEFE"/>
<path d="M0.470588 10H0V10.5H0.470588V10Z" fill="#FEFEFE"/>
<path d="M0.941291 10H0.470703V10.5H0.941291V10Z" fill="#FEFEFE"/>
<path d="M1.41199 10H0.941406V10.5H1.41199V10Z" fill="#FEFEFE"/>
<path d="M1.8827 10H1.41211V10.5H1.8827V10Z" fill="#FEFEFE"/>
<path d="M2.3534 10H1.88281V10.5H2.3534V10Z" fill="#FEFEFE"/>
<path d="M2.8241 10H2.35352V10.5H2.8241V10Z" fill="#FEFEFE"/>
<path d="M3.29481 10H2.82422V10.5H3.29481V10Z" fill="#FEFEFE"/>
<path d="M3.76551 10H3.29492V10.5H3.76551V10Z" fill="#FEFEFE"/>
<path d="M4.23621 10H3.76562V10.5H4.23621V10Z" fill="#FEFEFE"/>
<path d="M4.70496 10H4.23438V10.5H4.70496V10Z" fill="#FEFEFE"/>
<path d="M5.17567 10H4.70508V10.5H5.17567V10Z" fill="#FEFEFE"/>
<path d="M5.64637 10H5.17578V10.5H5.64637V10Z" fill="#FEFEFE"/>
<path d="M6.11707 10H5.64648V10.5H6.11707V10Z" fill="#FEFEFE"/>
<path d="M6.58778 10H6.11719V10.5H6.58778V10Z" fill="#FEFEFE"/>
<path d="M7.05848 10H6.58789V10.5H7.05848V10Z" fill="#FEFEFE"/>
<path d="M7.52918 10H7.05859V10.5H7.52918V10Z" fill="#FEFEFE"/>
<path d="M7.99989 10H7.5293V10.5H7.99989V10Z" fill="#FEFEFE"/>
<path d="M8.47059 10H8V10.5H8.47059V10Z" fill="#FEFEFE"/>
<path d="M8.94129 10H8.4707V10.5H8.94129V10Z" fill="#FEFEFE"/>
<path d="M9.41199 10H8.94141V10.5H9.41199V10Z" fill="#FEFEFE"/>
<path d="M9.8827 10H9.41211V10.5H9.8827V10Z" fill="#FEFEFE"/>
<path d="M10.3534 10H9.88281V10.5H10.3534V10Z" fill="#FEFEFE"/>
<path d="M10.8241 10H10.3535V10.5H10.8241V10Z" fill="#FEFEFE"/>
<path d="M11.2948 10H10.8242V10.5H11.2948V10Z" fill="#FEFEFE"/>
<path d="M11.7655 10H11.2949V10.5H11.7655V10Z" fill="#FEFEFE"/>
<path d="M12.2362 10H11.7656V10.5H12.2362V10Z" fill="#FEFEFE"/>
<path d="M12.705 10H12.2344V10.5H12.705V10Z" fill="#FEFEFE"/>
<path d="M13.1757 10H12.7051V10.5H13.1757V10Z" fill="#FEFEFE"/>
<path d="M13.6464 10H13.1758V10.5H13.6464V10Z" fill="#FEFEFE"/>
<path d="M14.1171 10H13.6465V10.5H14.1171V10Z" fill="#FEFEFE"/>
<path d="M14.5878 10H14.1172V10.5H14.5878V10Z" fill="#FEFEFE"/>
<path d="M15.0585 10H14.5879V10.5H15.0585V10Z" fill="#FEFEFE"/>
<path d="M15.5292 10H15.0586V10.5H15.5292V10Z" fill="#FEFEFE"/>
<path d="M15.9999 10H15.5293V10.5H15.9999V10Z" fill="#FEFEFE"/>
<path d="M0.470588 10.5H0V11H0.470588V10.5Z" fill="#FEFEFE"/>
<path d="M0.941291 10.5H0.470703V11H0.941291V10.5Z" fill="#FEFEFE"/>
<path d="M1.41199 10.5H0.941406V11H1.41199V10.5Z" fill="#FEFEFE"/>
<path d="M1.8827 10.5H1.41211V11H1.8827V10.5Z" fill="#FEFEFE"/>
<path d="M2.3534 10.5H1.88281V11H2.3534V10.5Z" fill="#FEFEFE"/>
<path d="M2.8241 10.5H2.35352V11H2.8241V10.5Z" fill="#FEFEFE"/>
<path d="M3.29481 10.5H2.82422V11H3.29481V10.5Z" fill="#FEFEFE"/>
<path d="M3.76551 10.5H3.29492V11H3.76551V10.5Z" fill="#FEFEFE"/>
<path d="M4.23621 10.5H3.76562V11H4.23621V10.5Z" fill="#FEFEFE"/>
<path d="M4.70496 10.5H4.23438V11H4.70496V10.5Z" fill="#FEFEFE"/>
<path d="M5.17567 10.5H4.70508V11H5.17567V10.5Z" fill="#FEFEFE"/>
<path d="M5.64637 10.5H5.17578V11H5.64637V10.5Z" fill="#FEFEFE"/>
<path d="M6.11707 10.5H5.64648V11H6.11707V10.5Z" fill="#FEFEFE"/>
<path d="M6.58778 10.5H6.11719V11H6.58778V10.5Z" fill="#FEFEFE"/>
<path d="M7.05848 10.5H6.58789V11H7.05848V10.5Z" fill="#FEFEFE"/>
<path d="M7.52918 10.5H7.05859V11H7.52918V10.5Z" fill="#FEFEFE"/>
<path d="M7.99989 10.5H7.5293V11H7.99989V10.5Z" fill="#FEFEFE"/>
<path d="M8.47059 10.5H8V11H8.47059V10.5Z" fill="#FEFEFE"/>
<path d="M8.94129 10.5H8.4707V11H8.94129V10.5Z" fill="#FEFEFE"/>
<path d="M9.41199 10.5H8.94141V11H9.41199V10.5Z" fill="#FEFEFE"/>
<path d="M9.8827 10.5H9.41211V11H9.8827V10.5Z" fill="#FEFEFE"/>
<path d="M10.3534 10.5H9.88281V11H10.3534V10.5Z" fill="#FEFEFE"/>
<path d="M10.8241 10.5H10.3535V11H10.8241V10.5Z" fill="#FEFEFE"/>
<path d="M11.2948 10.5H10.8242V11H11.2948V10.5Z" fill="#FEFEFE"/>
<path d="M11.7655 10.5H11.2949V11H11.7655V10.5Z" fill="#FEFEFE"/>
<path d="M12.2362 10.5H11.7656V11H12.2362V10.5Z" fill="#FEFEFE"/>
<path d="M12.705 10.5H12.2344V11H12.705V10.5Z" fill="#FEFEFE"/>
<path d="M13.1757 10.5H12.7051V11H13.1757V10.5Z" fill="#FEFEFE"/>
<path d="M13.6464 10.5H13.1758V11H13.6464V10.5Z" fill="#FEFEFE"/>
<path d="M14.1171 10.5H13.6465V11H14.1171V10.5Z" fill="#FEFEFE"/>
<path d="M14.5878 10.5H14.1172V11H14.5878V10.5Z" fill="#FEFEFE"/>
<path d="M15.0585 10.5H14.5879V11H15.0585V10.5Z" fill="#FEFEFE"/>
<path d="M15.5292 10.5H15.0586V11H15.5292V10.5Z" fill="#FEFEFE"/>
<path d="M15.9999 10.5H15.5293V11H15.9999V10.5Z" fill="#FEFEFE"/>
<path d="M0.470588 11H0V11.5H0.470588V11Z" fill="#FEFEFE"/>
<path d="M0.941291 11H0.470703V11.5H0.941291V11Z" fill="#FEFEFE"/>
<path d="M1.41199 11H0.941406V11.5H1.41199V11Z" fill="#FEFEFE"/>
<path d="M1.8827 11H1.41211V11.5H1.8827V11Z" fill="#FEFEFE"/>
<path d="M2.3534 11H1.88281V11.5H2.3534V11Z" fill="#FEFEFE"/>
<path d="M2.8241 11H2.35352V11.5H2.8241V11Z" fill="#FEFEFE"/>
<path d="M3.29481 11H2.82422V11.5H3.29481V11Z" fill="#FEFEFE"/>
<path d="M3.76551 11H3.29492V11.5H3.76551V11Z" fill="#FEFEFE"/>
<path d="M0.470588 11.5H0V12H0.470588V11.5Z" fill="#FEFEFE"/>
<path d="M0.941291 11.5H0.470703V12H0.941291V11.5Z" fill="#FEFEFE"/>
<path d="M1.41199 11.5H0.941406V12H1.41199V11.5Z" fill="#FEFEFE"/>
<path d="M1.8827 11.5H1.41211V12H1.8827V11.5Z" fill="#FEFEFE"/>
<path d="M2.3534 11.5H1.88281V12H2.3534V11.5Z" fill="#FEFEFE"/>
<path d="M2.8241 11.5H2.35352V12H2.8241V11.5Z" fill="#FEFEFE"/>
<path d="M3.29481 11.5H2.82422V12H3.29481V11.5Z" fill="#FEFEFE"/>
<path d="M3.76551 11.5H3.29492V12H3.76551V11.5Z" fill="#FEFEFE"/>
<path d="M0.470588 12H0V12.5H0.470588V12Z" fill="#FEFEFE"/>
<path d="M0.941291 12H0.470703V12.5H0.941291V12Z" fill="#FEFEFE"/>
<path d="M1.41199 12H0.941406V12.5H1.41199V12Z" fill="#FEFEFE"/>
<path d="M1.8827 12H1.41211V12.5H1.8827V12Z" fill="#FEFEFE"/>
<path d="M2.3534 12H1.88281V12.5H2.3534V12Z" fill="#FEFEFE"/>
<path d="M2.8241 12H2.35352V12.5H2.8241V12Z" fill="#FEFEFE"/>
<path d="M3.29481 12H2.82422V12.5H3.29481V12Z" fill="#FEFEFE"/>
<path d="M3.76551 12H3.29492V12.5H3.76551V12Z" fill="#FEFEFE"/>
<path d="M0.470588 12.5H0V13H0.470588V12.5Z" fill="#FEFEFE"/>
<path d="M0.941291 12.5H0.470703V13H0.941291V12.5Z" fill="#FEFEFE"/>
<path d="M1.41199 12.5H0.941406V13H1.41199V12.5Z" fill="#FEFEFE"/>
<path d="M1.8827 12.5H1.41211V13H1.8827V12.5Z" fill="#FEFEFE"/>
<path d="M2.3534 12.5H1.88281V13H2.3534V12.5Z" fill="#FEFEFE"/>
<path d="M2.8241 12.5H2.35352V13H2.8241V12.5Z" fill="#FEFEFE"/>
<path d="M3.29481 12.5H2.82422V13H3.29481V12.5Z" fill="#FEFEFE"/>
<path d="M3.76551 12.5H3.29492V13H3.76551V12.5Z" fill="#FEFEFE"/>
<path d="M0.470588 13H0V13.5H0.470588V13Z" fill="#FEFEFE"/>
<path d="M0.941291 13H0.470703V13.5H0.941291V13Z" fill="#FEFEFE"/>
<path d="M1.41199 13H0.941406V13.5H1.41199V13Z" fill="#FEFEFE"/>
<path d="M1.8827 13H1.41211V13.5H1.8827V13Z" fill="#FEFEFE"/>
<path d="M0.470588 13.5H0V14H0.470588V13.5Z" fill="#FEFEFE"/>
<path d="M0.941291 13.5H0.470703V14H0.941291V13.5Z" fill="#FEFEFE"/>
<path d="M1.41199 13.5H0.941406V14H1.41199V13.5Z" fill="#FEFEFE"/>
<path d="M1.8827 13.5H1.41211V14H1.8827V13.5Z" fill="#FEFEFE"/>
<path d="M0.470588 14H0V14.5H0.470588V14Z" fill="#FEFEFE"/>
<path d="M0.941291 14H0.470703V14.5H0.941291V14Z" fill="#FEFEFE"/>
<path d="M1.41199 14H0.941406V14.5H1.41199V14Z" fill="#FEFEFE"/>
<path d="M1.8827 14H1.41211V14.5H1.8827V14Z" fill="#FEFEFE"/>
<path d="M0.470588 14.5H0V15H0.470588V14.5Z" fill="#FEFEFE"/>
<path d="M0.941291 14.5H0.470703V15H0.941291V14.5Z" fill="#FEFEFE"/>
<path d="M1.41199 14.5H0.941406V15H1.41199V14.5Z" fill="#FEFEFE"/>
<path d="M1.8827 14.5H1.41211V15H1.8827V14.5Z" fill="#FEFEFE"/>
</svg>
