<svg width="66" height="36" viewBox="0 0 66 36" fill="none" xmlns="http://www.w3.org/2000/svg">
<mask id="path-1-inside-1_238_2924" fill="white">
<path fill-rule="evenodd" clip-rule="evenodd" d="M1.89531 8.72709C0.71705 9.45614 0 10.743 0 12.1286V32C0 34.2091 1.79086 36 4 36H48.8629C49.6064 36 50.3353 35.7927 50.9676 35.4015L64.1047 27.2729C65.283 26.5439 66 25.257 66 23.8714V3.99999C66 1.79086 64.2091 0 62 0H17.1371C16.3936 0 15.6647 0.207251 15.0324 0.598486L1.89531 8.72709Z"/>
</mask>
<path d="M64.1047 27.2729L64.6309 28.1233L64.1047 27.2729ZM50.9676 35.4015L50.4414 34.5511L50.9676 35.4015ZM-1 12.1286V32H1V12.1286H-1ZM4 37H48.8629V35H4V37ZM51.4937 36.2519L64.6309 28.1233L63.5785 26.4225L50.4414 34.5511L51.4937 36.2519ZM67 23.8714V3.99999H65V23.8714H67ZM62 -1H17.1371V1H62V-1ZM14.5063 -0.251892L1.36914 7.87671L2.42148 9.57746L15.5586 1.44886L14.5063 -0.251892ZM17.1371 -1C16.2077 -1 15.2966 -0.740936 14.5063 -0.251892L15.5586 1.44886C16.0328 1.15544 16.5795 1 17.1371 1V-1ZM67 3.99999C67 1.23857 64.7614 -1 62 -1V1C63.6569 1 65 2.34314 65 3.99999H67ZM64.6309 28.1233C66.1037 27.212 67 25.6034 67 23.8714H65C65 24.9106 64.4622 25.8757 63.5785 26.4225L64.6309 28.1233ZM48.8629 37C49.7923 37 50.7034 36.7409 51.4937 36.2519L50.4414 34.5511C49.9672 34.8446 49.4205 35 48.8629 35V37ZM-1 32C-1 34.7614 1.23858 37 4 37V35C2.34314 35 1 33.6569 1 32H-1ZM1 12.1286C1 11.0894 1.53779 10.1243 2.42148 9.57746L1.36914 7.87671C-0.103688 8.78802 -1 10.3966 -1 12.1286H1Z" fill="#FEFEFE" mask="url(#path-1-inside-1_238_2924)"/>
</svg>
