<svg width="446" height="50" viewBox="0 0 446 50" fill="none" xmlns="http://www.w3.org/2000/svg">
<mask id="path-1-inside-1_596_4720" fill="white">
<path fill-rule="evenodd" clip-rule="evenodd" d="M4.11621 50C1.90707 50 0.116211 48.2091 0.116211 46V26.2923C0.116211 24.9421 0.797362 23.683 1.92749 22.9442L36.0278 0.651939C36.6785 0.226548 37.4391 0 38.2165 0H442C444.209 0 446 1.79086 446 3.99999V23.0292C446 24.3794 445.319 25.6384 444.189 26.3772L409.051 49.3481C408.4 49.7735 407.64 50 406.862 50H4.11621Z"/>
</mask>
<path d="M409.051 49.3481L409.598 50.1851L409.051 49.3481ZM444.189 26.3772L444.736 27.2142L444.189 26.3772ZM36.0278 0.651939L36.575 1.48895L36.0278 0.651939ZM-0.883789 26.2923V46H1.11621V26.2923H-0.883789ZM35.4806 -0.185076L1.38031 22.1072L2.47467 23.7812L36.575 1.48895L35.4806 -0.185076ZM442 -1H38.2165V1H442V-1ZM447 23.0292V3.99999H445V23.0292H447ZM409.598 50.1851L444.736 27.2142L443.642 25.5402L408.504 48.511L409.598 50.1851ZM4.11621 51H406.862V49H4.11621V51ZM408.504 48.511C408.016 48.8301 407.445 49 406.862 49V51C407.834 51 408.785 50.7168 409.598 50.1851L408.504 48.511ZM445 23.0292C445 24.0418 444.489 24.9861 443.642 25.5402L444.736 27.2142C446.149 26.2908 447 24.7169 447 23.0292H445ZM442 1C443.657 1 445 2.34314 445 3.99999H447C447 1.23857 444.762 -1 442 -1V1ZM36.575 1.48895C37.063 1.16991 37.6334 1 38.2165 1V-1C37.2447 -1 36.294 -0.716817 35.4806 -0.185076L36.575 1.48895ZM-0.883789 46C-0.883789 48.7614 1.35479 51 4.11621 51V49C2.45936 49 1.11621 47.6569 1.11621 46H-0.883789ZM1.11621 26.2923C1.11621 25.2796 1.62707 24.3353 2.47467 23.7812L1.38031 22.1072C-0.0323501 23.0307 -0.883789 24.6045 -0.883789 26.2923H1.11621Z" fill="#FEFEFE" mask="url(#path-1-inside-1_596_4720)"/>
</svg>
