<svg width="550" height="269" viewBox="0 0 550 269" fill="none" xmlns="http://www.w3.org/2000/svg">
<mask id="path-1-inside-1_505_243" fill="white">
<path fill-rule="evenodd" clip-rule="evenodd" d="M507.014 0C512.532 0 517.007 4.46959 517.014 9.9876L517.082 64.8377C517.085 67.7282 518.339 70.4758 520.521 72.3722L546.561 95.0101C548.746 96.9093 550 99.6621 550 102.557V232.285C550 235.939 548.007 239.302 544.802 241.057L496.001 267.772C494.529 268.578 492.878 269 491.2 269L216.597 269C214.446 269 212.352 268.306 210.627 267.022L183.694 246.978C181.968 245.694 179.875 245 177.724 245L9.99999 245C4.47715 245 0 240.523 0 235V10C0 4.47715 4.47715 0 10 0L507.014 0ZM549.679 269C549.856 269 550 268.856 550 268.679V268.679C550 268.436 549.739 268.281 549.525 268.398V268.398C549.234 268.557 549.347 269 549.679 269V269Z"/>
</mask>
<path d="M183.694 246.978L184.291 246.176L183.694 246.978ZM210.627 267.022L210.03 267.824L210.627 267.022ZM496.001 267.772L495.521 266.894L496.001 267.772ZM544.802 241.057L545.282 241.934L544.802 241.057ZM517.082 64.8377L518.082 64.8365L517.082 64.8377ZM520.521 72.3722L521.177 71.6175L520.521 72.3722ZM516.082 64.839L516.014 9.98883L518.014 9.98636L518.082 64.8365L516.082 64.839ZM545.905 95.7648L519.865 73.1269L521.177 71.6175L547.217 94.2554L545.905 95.7648ZM549 232.285V102.557H551V232.285H549ZM495.521 266.894L544.322 240.18L545.282 241.934L496.482 268.649L495.521 266.894ZM216.597 268L491.2 268V270L216.597 270V268ZM210.03 267.824L183.097 247.78L184.291 246.176L211.224 266.22L210.03 267.824ZM177.724 246L9.99999 246V244L177.724 244V246ZM1 10V235H-1V10H1ZM507.014 1L10 1V-1L507.014 -1V1ZM550.006 269.275C550.622 268.938 550.383 268 549.679 268V270C548.312 270 547.846 268.177 549.045 267.521L550.006 269.275ZM551 268.679C551 269.409 550.409 270 549.679 270V268C549.304 268 549 268.304 549 268.679H551ZM549 268.679C549 269.195 549.553 269.523 550.006 269.275L549.045 267.521C549.925 267.039 551 267.676 551 268.679H549ZM-1 10C-1 3.92487 3.92486 -1 10 -1V1C5.02943 1 1 5.02944 1 10H-1ZM9.99999 246C3.92486 246 -1 241.075 -1 235H1C1 239.971 5.02943 244 9.99999 244V246ZM183.097 247.78C181.544 246.624 179.66 246 177.724 246V244C180.09 244 182.393 244.763 184.291 246.176L183.097 247.78ZM216.597 270C214.231 270 211.928 269.237 210.03 267.824L211.224 266.22C212.777 267.376 214.661 268 216.597 268V270ZM496.482 268.649C494.862 269.535 493.046 270 491.2 270V268C492.71 268 494.196 267.62 495.521 266.894L496.482 268.649ZM551 232.285C551 236.305 548.808 240.004 545.282 241.934L544.322 240.18C547.206 238.6 549 235.574 549 232.285H551ZM547.217 94.2554C549.62 96.3446 551 99.3726 551 102.557H549C549 99.9516 547.871 97.4741 545.905 95.7648L547.217 94.2554ZM516.014 9.98883C516.008 5.02263 511.98 1 507.014 1V-1C513.084 -1 518.006 3.91655 518.014 9.98636L516.014 9.98883ZM518.082 64.8365C518.085 67.4379 519.214 69.9107 521.177 71.6175L519.865 73.1269C517.465 71.0408 516.086 68.0185 516.082 64.839L518.082 64.8365Z" fill="#404040" mask="url(#path-1-inside-1_505_243)"/>
</svg>
