<svg width="16" height="16" fill="none" xmlns="http://www.w3.org/2000/svg">
    <path d="M9 0H8v1h1V0ZM8 1H7v1h1V1ZM9 1H8v1h1V1ZM9 2H8v1h1V2ZM9 3H8v1h1V3ZM9 4H8v1h1V4ZM8 5H7v1h1V5ZM9 5H8v1h1V5ZM10 5H9v1h1V5ZM6 7H5v1h1V7ZM7 7H6v1h1V7ZM8 7H7v1h1V7ZM9 7H8v1h1V7ZM10 7H9v1h1V7ZM11 7h-1v1h1V7ZM12 7h-1v1h1V7ZM6 8H5v1h1V8ZM7 8H6v1h1V8ZM8 8H7v1h1V8ZM9 8H8v1h1V8ZM10 8H9v1h1V8ZM11 8h-1v1h1V8ZM12 8h-1v1h1V8ZM6 9H5v1h1V9ZM7 9H6v1h1V9ZM8 9H7v1h1V9ZM9 9H8v1h1V9ZM10 9H9v1h1V9ZM11 9h-1v1h1V9ZM12 9h-1v1h1V9ZM1 10H0v1h1v-1ZM2 10H1v1h1v-1ZM3 10H2v1h1v-1ZM4 10H3v1h1v-1ZM6 10H5v1h1v-1ZM7 10H6v1h1v-1ZM8 10H7v1h1v-1ZM9 10H8v1h1v-1ZM10 10H9v1h1v-1ZM11 10h-1v1h1v-1ZM12 10h-1v1h1v-1ZM1 11H0v1h1v-1ZM2 11H1v1h1v-1ZM3 11H2v1h1v-1ZM4 11H3v1h1v-1ZM6 11H5v1h1v-1ZM7 11H6v1h1v-1ZM8 11H7v1h1v-1ZM9 11H8v1h1v-1ZM10 11H9v1h1v-1ZM11 11h-1v1h1v-1ZM12 11h-1v1h1v-1ZM14 11h-1v1h1v-1ZM15 11h-1v1h1v-1ZM16 11h-1v1h1v-1ZM1 12H0v1h1v-1ZM2 12H1v1h1v-1ZM3 12H2v1h1v-1ZM4 12H3v1h1v-1ZM5 12H4v1h1v-1ZM6 12H5v1h1v-1ZM7 12H6v1h1v-1ZM8 12H7v1h1v-1ZM9 12H8v1h1v-1ZM10 12H9v1h1v-1ZM11 12h-1v1h1v-1ZM12 12h-1v1h1v-1ZM14 12h-1v1h1v-1ZM15 12h-1v1h1v-1ZM16 12h-1v1h1v-1ZM1 13H0v1h1v-1ZM2 13H1v1h1v-1ZM3 13H2v1h1v-1ZM4 13H3v1h1v-1ZM5 13H4v1h1v-1ZM6 13H5v1h1v-1ZM7 13H6v1h1v-1ZM8 13H7v1h1v-1ZM9 13H8v1h1v-1ZM10 13H9v1h1v-1ZM11 13h-1v1h1v-1ZM12 13h-1v1h1v-1ZM13 13h-1v1h1v-1ZM14 13h-1v1h1v-1ZM15 13h-1v1h1v-1ZM16 13h-1v1h1v-1ZM1 14H0v1h1v-1ZM2 14H1v1h1v-1ZM3 14H2v1h1v-1ZM4 14H3v1h1v-1ZM5 14H4v1h1v-1ZM6 14H5v1h1v-1ZM7 14H6v1h1v-1ZM8 14H7v1h1v-1ZM9 14H8v1h1v-1ZM10 14H9v1h1v-1ZM11 14h-1v1h1v-1ZM12 14h-1v1h1v-1ZM13 14h-1v1h1v-1ZM14 14h-1v1h1v-1ZM15 14h-1v1h1v-1ZM16 14h-1v1h1v-1ZM1 15H0v1h1v-1ZM2 15H1v1h1v-1ZM3 15H2v1h1v-1ZM4 15H3v1h1v-1ZM5 15H4v1h1v-1ZM6 15H5v1h1v-1ZM7 15H6v1h1v-1ZM8 15H7v1h1v-1ZM9 15H8v1h1v-1ZM10 15H9v1h1v-1ZM11 15h-1v1h1v-1ZM12 15h-1v1h1v-1ZM13 15h-1v1h1v-1ZM14 15h-1v1h1v-1ZM15 15h-1v1h1v-1ZM16 15h-1v1h1v-1Z" fill="#FEFEFE"/>
</svg>
