<svg width="16" height="16" fill="none" xmlns="http://www.w3.org/2000/svg">
    <path d="M7 0H6v1h1V0ZM8 0H7v1h1V0ZM9 0H8v1h1V0ZM10 0H9v1h1V0ZM6 1H5v1h1V1ZM7 1H6v1h1V1ZM8 1H7v1h1V1ZM9 1H8v1h1V1ZM10 1H9v1h1V1ZM11 1h-1v1h1V1ZM5 2H4v1h1V2ZM6 2H5v1h1V2ZM7 2H6v1h1V2ZM8 2H7v1h1V2ZM9 2H8v1h1V2ZM10 2H9v1h1V2ZM11 2h-1v1h1V2ZM12 2h-1v1h1V2ZM5 3H4v1h1V3ZM6 3H5v1h1V3ZM7 3H6v1h1V3ZM8 3H7v1h1V3ZM9 3H8v1h1V3ZM10 3H9v1h1V3ZM11 3h-1v1h1V3ZM12 3h-1v1h1V3ZM5 4H4v1h1V4ZM6 4H5v1h1V4ZM7 4H6v1h1V4ZM8 4H7v1h1V4ZM9 4H8v1h1V4ZM10 4H9v1h1V4ZM11 4h-1v1h1V4ZM12 4h-1v1h1V4ZM5 5H4v1h1V5ZM6 5H5v1h1V5ZM7 5H6v1h1V5ZM8 5H7v1h1V5ZM9 5H8v1h1V5ZM10 5H9v1h1V5ZM11 5h-1v1h1V5ZM12 5h-1v1h1V5ZM5 6H4v1h1V6ZM6 6H5v1h1V6ZM7 6H6v1h1V6ZM8 6H7v1h1V6ZM9 6H8v1h1V6ZM10 6H9v1h1V6ZM11 6h-1v1h1V6ZM12 6h-1v1h1V6ZM6 7H5v1h1V7ZM7 7H6v1h1V7ZM8 7H7v1h1V7ZM9 7H8v1h1V7ZM10 7H9v1h1V7ZM11 7h-1v1h1V7ZM7 8H6v1h1V8ZM8 8H7v1h1V8ZM9 8H8v1h1V8ZM10 8H9v1h1V8ZM5 10H4v1h1v-1ZM6 10H5v1h1v-1ZM7 10H6v1h1v-1ZM8 10H7v1h1v-1ZM9 10H8v1h1v-1ZM10 10H9v1h1v-1ZM11 10h-1v1h1v-1ZM12 10h-1v1h1v-1ZM3 11H2v1h1v-1ZM4 11H3v1h1v-1ZM5 11H4v1h1v-1ZM6 11H5v1h1v-1ZM7 11H6v1h1v-1ZM8 11H7v1h1v-1ZM9 11H8v1h1v-1ZM10 11H9v1h1v-1ZM11 11h-1v1h1v-1ZM12 11h-1v1h1v-1ZM13 11h-1v1h1v-1ZM14 11h-1v1h1v-1ZM2 12H1v1h1v-1ZM3 12H2v1h1v-1ZM4 12H3v1h1v-1ZM5 12H4v1h1v-1ZM6 12H5v1h1v-1ZM7 12H6v1h1v-1ZM8 12H7v1h1v-1ZM9 12H8v1h1v-1ZM10 12H9v1h1v-1ZM11 12h-1v1h1v-1ZM12 12h-1v1h1v-1ZM13 12h-1v1h1v-1ZM14 12h-1v1h1v-1ZM15 12h-1v1h1v-1ZM1 13H0v1h1v-1ZM2 13H1v1h1v-1ZM3 13H2v1h1v-1ZM4 13H3v1h1v-1ZM5 13H4v1h1v-1ZM6 13H5v1h1v-1ZM7 13H6v1h1v-1ZM8 13H7v1h1v-1ZM9 13H8v1h1v-1ZM10 13H9v1h1v-1ZM11 13h-1v1h1v-1ZM12 13h-1v1h1v-1ZM13 13h-1v1h1v-1ZM14 13h-1v1h1v-1ZM15 13h-1v1h1v-1ZM16 13h-1v1h1v-1ZM1 14H0v1h1v-1ZM2 14H1v1h1v-1ZM3 14H2v1h1v-1ZM4 14H3v1h1v-1ZM5 14H4v1h1v-1ZM6 14H5v1h1v-1ZM7 14H6v1h1v-1ZM8 14H7v1h1v-1ZM9 14H8v1h1v-1ZM10 14H9v1h1v-1ZM11 14h-1v1h1v-1ZM12 14h-1v1h1v-1ZM13 14h-1v1h1v-1ZM14 14h-1v1h1v-1ZM15 14h-1v1h1v-1ZM16 14h-1v1h1v-1ZM1 15H0v1h1v-1ZM2 15H1v1h1v-1ZM3 15H2v1h1v-1ZM4 15H3v1h1v-1ZM5 15H4v1h1v-1ZM6 15H5v1h1v-1ZM7 15H6v1h1v-1ZM8 15H7v1h1v-1ZM9 15H8v1h1v-1ZM10 15H9v1h1v-1ZM11 15h-1v1h1v-1ZM12 15h-1v1h1v-1ZM13 15h-1v1h1v-1ZM14 15h-1v1h1v-1ZM15 15h-1v1h1v-1ZM16 15h-1v1h1v-1Z" fill="#FEFEFE"/>
</svg>
