<svg width="16" height="14" fill="none" xmlns="http://www.w3.org/2000/svg">
    <path d="M.47 0H0v.5h.47V0ZM.941 0h-.47v.5h.47V0ZM1.412 0h-.47v.5h.47V0ZM1.882 0h-.47v.5h.47V0ZM2.353 0h-.47v.5h.47V0Z" fill="#FEFEFE"/>
    <path d="M2.824 0h-.471v.5h.47V0ZM3.294 0h-.47v.5h.47V0ZM3.765 0h-.47v.5h.47V0ZM4.235 0h-.47v.5h.47V0ZM4.706 0h-.47v.5h.47V0ZM5.176 0h-.47v.5h.47V0ZM5.647 0h-.47v.5h.47V0ZM6.118 0h-.47v.5h.47V0ZM6.588 0h-.47v.5h.47V0ZM7.059 0h-.47v.5h.47V0ZM7.53 0h-.471v.5h.47V0ZM8 0h-.47v.5H8V0ZM8.47 0H8v.5h.47V0ZM8.941 0h-.47v.5h.47V0ZM9.412 0h-.47v.5h.47V0Z" fill="#FEFEFE"/>
    <path d="M9.882 0h-.47v.5h.47V0ZM10.353 0h-.47v.5h.47V0ZM10.823 0h-.47v.5h.47V0ZM11.294 0h-.47v.5h.47V0ZM11.765 0h-.47v.5h.47V0Z" fill="#FEFEFE"/>
    <path d="M12.235 0h-.47v.5h.47V0ZM12.706 0h-.47v.5h.47V0ZM13.177 0h-.471v.5h.47V0ZM13.647 0h-.47v.5h.47V0ZM14.118 0h-.47v.5h.47V0Z" fill="#FEFEFE"/>
    <path d="M14.588 0h-.47v.5h.47V0ZM15.059 0h-.47v.5h.47V0ZM15.53 0h-.471v.5h.47V0ZM16 0h-.47v.5H16V0ZM.47.5H0V1h.47V.5ZM.941.5h-.47V1h.47V.5ZM1.412.5h-.47V1h.47V.5ZM1.882.5h-.47V1h.47V.5ZM2.353.5h-.47V1h.47V.5Z" fill="#FEFEFE"/>
    <path d="M2.824.5h-.471V1h.47V.5ZM3.294.5h-.47V1h.47V.5ZM3.765.5h-.47V1h.47V.5ZM4.235.5h-.47V1h.47V.5ZM4.706.5h-.47V1h.47V.5ZM5.176.5h-.47V1h.47V.5ZM5.647.5h-.47V1h.47V.5ZM6.118.5h-.47V1h.47V.5ZM6.588.5h-.47V1h.47V.5ZM7.059.5h-.47V1h.47V.5ZM7.53.5h-.471V1h.47V.5ZM8 .5h-.47V1H8V.5ZM8.47.5H8V1h.47V.5ZM8.941.5h-.47V1h.47V.5ZM9.412.5h-.47V1h.47V.5Z" fill="#FEFEFE"/>
    <path d="M9.882.5h-.47V1h.47V.5ZM10.353.5h-.47V1h.47V.5ZM10.823.5h-.47V1h.47V.5ZM11.294.5h-.47V1h.47V.5ZM11.765.5h-.47V1h.47V.5Z" fill="#FEFEFE"/>
    <path d="M12.235.5h-.47V1h.47V.5ZM12.706.5h-.47V1h.47V.5ZM13.177.5h-.471V1h.47V.5ZM13.647.5h-.47V1h.47V.5ZM14.118.5h-.47V1h.47V.5Z" fill="#FEFEFE"/>
    <path d="M14.588.5h-.47V1h.47V.5ZM15.059.5h-.47V1h.47V.5ZM15.53.5h-.471V1h.47V.5ZM16 .5h-.47V1H16V.5ZM.47 1H0v.5h.47V1ZM.941 1h-.47v.5h.47V1ZM1.412 1h-.47v.5h.47V1ZM1.882 1h-.47v.5h.47V1ZM2.353 1h-.47v.5h.47V1Z" fill="#FEFEFE"/>
    <path d="M2.824 1h-.471v.5h.47V1ZM3.294 1h-.47v.5h.47V1ZM3.765 1h-.47v.5h.47V1ZM4.235 1h-.47v.5h.47V1ZM4.706 1h-.47v.5h.47V1ZM5.176 1h-.47v.5h.47V1ZM5.647 1h-.47v.5h.47V1ZM6.118 1h-.47v.5h.47V1ZM6.588 1h-.47v.5h.47V1ZM7.059 1h-.47v.5h.47V1ZM7.53 1h-.471v.5h.47V1ZM8 1h-.47v.5H8V1ZM8.47 1H8v.5h.47V1ZM8.941 1h-.47v.5h.47V1ZM9.412 1h-.47v.5h.47V1Z" fill="#FEFEFE"/>
    <path d="M9.882 1h-.47v.5h.47V1ZM10.353 1h-.47v.5h.47V1ZM10.823 1h-.47v.5h.47V1ZM11.294 1h-.47v.5h.47V1ZM11.765 1h-.47v.5h.47V1Z" fill="#FEFEFE"/>
    <path d="M12.235 1h-.47v.5h.47V1ZM12.706 1h-.47v.5h.47V1ZM13.177 1h-.471v.5h.47V1ZM13.647 1h-.47v.5h.47V1ZM14.118 1h-.47v.5h.47V1Z" fill="#FEFEFE"/>
    <path d="M14.588 1h-.47v.5h.47V1ZM15.059 1h-.47v.5h.47V1ZM15.53 1h-.471v.5h.47V1ZM16 1h-.47v.5H16V1ZM.47 1.5H0V2h.47v-.5ZM.941 1.5h-.47V2h.47v-.5ZM1.412 1.5h-.47V2h.47v-.5ZM1.882 1.5h-.47V2h.47v-.5ZM2.353 1.5h-.47V2h.47v-.5Z" fill="#FEFEFE"/>
    <path d="M2.824 1.5h-.471V2h.47v-.5ZM3.294 1.5h-.47V2h.47v-.5ZM3.765 1.5h-.47V2h.47v-.5ZM4.235 1.5h-.47V2h.47v-.5ZM4.706 1.5h-.47V2h.47v-.5ZM5.176 1.5h-.47V2h.47v-.5ZM5.647 1.5h-.47V2h.47v-.5ZM6.118 1.5h-.47V2h.47v-.5ZM6.588 1.5h-.47V2h.47v-.5ZM7.059 1.5h-.47V2h.47v-.5ZM7.53 1.5h-.471V2h.47v-.5ZM8 1.5h-.47V2H8v-.5ZM8.47 1.5H8V2h.47v-.5ZM8.941 1.5h-.47V2h.47v-.5ZM9.412 1.5h-.47V2h.47v-.5Z" fill="#FEFEFE"/>
    <path d="M9.882 1.5h-.47V2h.47v-.5ZM10.353 1.5h-.47V2h.47v-.5ZM10.823 1.5h-.47V2h.47v-.5ZM11.294 1.5h-.47V2h.47v-.5ZM11.765 1.5h-.47V2h.47v-.5Z" fill="#FEFEFE"/>
    <path d="M12.235 1.5h-.47V2h.47v-.5ZM12.706 1.5h-.47V2h.47v-.5ZM13.177 1.5h-.471V2h.47v-.5ZM13.647 1.5h-.47V2h.47v-.5ZM14.118 1.5h-.47V2h.47v-.5Z" fill="#FEFEFE"/>
    <path d="M14.588 1.5h-.47V2h.47v-.5ZM15.059 1.5h-.47V2h.47v-.5ZM15.53 1.5h-.471V2h.47v-.5ZM16 1.5h-.47V2H16v-.5ZM.47 2H0v.5h.47V2ZM.941 2h-.47v.5h.47V2ZM1.412 2h-.47v.5h.47V2ZM1.882 2h-.47v.5h.47V2ZM2.353 2h-.47v.5h.47V2Z" fill="#FEFEFE"/>
    <path d="M2.824 2h-.471v.5h.47V2ZM3.294 2h-.47v.5h.47V2ZM3.765 2h-.47v.5h.47V2ZM4.235 2h-.47v.5h.47V2ZM4.706 2h-.47v.5h.47V2ZM5.176 2h-.47v.5h.47V2ZM5.647 2h-.47v.5h.47V2ZM6.118 2h-.47v.5h.47V2ZM6.588 2h-.47v.5h.47V2ZM7.059 2h-.47v.5h.47V2ZM7.53 2h-.471v.5h.47V2ZM8 2h-.47v.5H8V2ZM8.47 2H8v.5h.47V2ZM8.941 2h-.47v.5h.47V2ZM9.412 2h-.47v.5h.47V2Z" fill="#FEFEFE"/>
    <path d="M9.882 2h-.47v.5h.47V2ZM10.353 2h-.47v.5h.47V2ZM10.823 2h-.47v.5h.47V2ZM11.294 2h-.47v.5h.47V2ZM11.765 2h-.47v.5h.47V2Z" fill="#FEFEFE"/>
    <path d="M12.235 2h-.47v.5h.47V2ZM12.706 2h-.47v.5h.47V2ZM13.177 2h-.471v.5h.47V2ZM13.647 2h-.47v.5h.47V2ZM14.118 2h-.47v.5h.47V2Z" fill="#FEFEFE"/>
    <path d="M14.588 2h-.47v.5h.47V2ZM15.059 2h-.47v.5h.47V2ZM15.53 2h-.471v.5h.47V2ZM16 2h-.47v.5H16V2ZM.47 2.5H0V3h.47v-.5ZM.941 2.5h-.47V3h.47v-.5ZM1.412 2.5h-.47V3h.47v-.5ZM1.882 2.5h-.47V3h.47v-.5ZM2.353 2.5h-.47V3h.47v-.5Z" fill="#FEFEFE"/>
    <path d="M2.824 2.5h-.471V3h.47v-.5ZM3.294 2.5h-.47V3h.47v-.5ZM3.765 2.5h-.47V3h.47v-.5ZM4.235 2.5h-.47V3h.47v-.5ZM4.706 2.5h-.47V3h.47v-.5ZM5.176 2.5h-.47V3h.47v-.5ZM5.647 2.5h-.47V3h.47v-.5ZM6.118 2.5h-.47V3h.47v-.5ZM6.588 2.5h-.47V3h.47v-.5ZM7.059 2.5h-.47V3h.47v-.5ZM7.53 2.5h-.471V3h.47v-.5ZM8 2.5h-.47V3H8v-.5ZM8.47 2.5H8V3h.47v-.5ZM8.941 2.5h-.47V3h.47v-.5ZM9.412 2.5h-.47V3h.47v-.5Z" fill="#FEFEFE"/>
    <path d="M9.882 2.5h-.47V3h.47v-.5ZM10.353 2.5h-.47V3h.47v-.5ZM10.823 2.5h-.47V3h.47v-.5ZM11.294 2.5h-.47V3h.47v-.5ZM11.765 2.5h-.47V3h.47v-.5Z" fill="#FEFEFE"/>
    <path d="M12.235 2.5h-.47V3h.47v-.5ZM12.706 2.5h-.47V3h.47v-.5ZM13.177 2.5h-.471V3h.47v-.5ZM13.647 2.5h-.47V3h.47v-.5ZM14.118 2.5h-.47V3h.47v-.5Z" fill="#FEFEFE"/>
    <path d="M14.588 2.5h-.47V3h.47v-.5ZM15.059 2.5h-.47V3h.47v-.5ZM15.53 2.5h-.471V3h.47v-.5ZM16 2.5h-.47V3H16v-.5ZM.47 3H0v.5h.47V3ZM.941 3h-.47v.5h.47V3ZM1.412 3h-.47v.5h.47V3ZM1.882 3h-.47v.5h.47V3ZM2.353 3h-.47v.5h.47V3Z" fill="#FEFEFE"/>
    <path d="M2.824 3h-.471v.5h.47V3ZM3.294 3h-.47v.5h.47V3ZM3.765 3h-.47v.5h.47V3ZM4.235 3h-.47v.5h.47V3ZM4.706 3h-.47v.5h.47V3ZM5.176 3h-.47v.5h.47V3ZM5.647 3h-.47v.5h.47V3ZM6.118 3h-.47v.5h.47V3ZM6.588 3h-.47v.5h.47V3ZM7.059 3h-.47v.5h.47V3ZM7.53 3h-.471v.5h.47V3ZM8 3h-.47v.5H8V3ZM8.47 3H8v.5h.47V3ZM8.941 3h-.47v.5h.47V3ZM9.412 3h-.47v.5h.47V3Z" fill="#FEFEFE"/>
    <path d="M9.882 3h-.47v.5h.47V3ZM10.353 3h-.47v.5h.47V3ZM10.823 3h-.47v.5h.47V3ZM11.294 3h-.47v.5h.47V3ZM11.765 3h-.47v.5h.47V3Z" fill="#FEFEFE"/>
    <path d="M12.235 3h-.47v.5h.47V3ZM12.706 3h-.47v.5h.47V3ZM13.177 3h-.471v.5h.47V3ZM13.647 3h-.47v.5h.47V3ZM14.118 3h-.47v.5h.47V3Z" fill="#FEFEFE"/>
    <path d="M14.588 3h-.47v.5h.47V3ZM15.059 3h-.47v.5h.47V3ZM15.53 3h-.471v.5h.47V3ZM16 3h-.47v.5H16V3ZM.47 3.5H0V4h.47v-.5ZM.941 3.5h-.47V4h.47v-.5ZM1.412 3.5h-.47V4h.47v-.5ZM1.882 3.5h-.47V4h.47v-.5ZM2.353 3.5h-.47V4h.47v-.5Z" fill="#FEFEFE"/>
    <path d="M2.824 3.5h-.471V4h.47v-.5ZM3.294 3.5h-.47V4h.47v-.5ZM3.765 3.5h-.47V4h.47v-.5ZM4.235 3.5h-.47V4h.47v-.5ZM4.706 3.5h-.47V4h.47v-.5ZM5.176 3.5h-.47V4h.47v-.5ZM5.647 3.5h-.47V4h.47v-.5ZM6.118 3.5h-.47V4h.47v-.5ZM6.588 3.5h-.47V4h.47v-.5ZM7.059 3.5h-.47V4h.47v-.5ZM7.53 3.5h-.471V4h.47v-.5ZM8 3.5h-.47V4H8v-.5ZM8.47 3.5H8V4h.47v-.5ZM8.941 3.5h-.47V4h.47v-.5ZM9.412 3.5h-.47V4h.47v-.5Z" fill="#FEFEFE"/>
    <path d="M9.882 3.5h-.47V4h.47v-.5ZM10.353 3.5h-.47V4h.47v-.5ZM10.823 3.5h-.47V4h.47v-.5ZM11.294 3.5h-.47V4h.47v-.5ZM11.765 3.5h-.47V4h.47v-.5Z" fill="#FEFEFE"/>
    <path d="M12.235 3.5h-.47V4h.47v-.5ZM12.706 3.5h-.47V4h.47v-.5ZM13.177 3.5h-.471V4h.47v-.5ZM13.647 3.5h-.47V4h.47v-.5ZM14.118 3.5h-.47V4h.47v-.5Z" fill="#FEFEFE"/>
    <path d="M14.588 3.5h-.47V4h.47v-.5ZM15.059 3.5h-.47V4h.47v-.5ZM15.53 3.5h-.471V4h.47v-.5ZM16 3.5h-.47V4H16v-.5ZM.47 4H0v.5h.47V4ZM.941 4h-.47v.5h.47V4ZM1.412 4h-.47v.5h.47V4ZM1.882 4h-.47v.5h.47V4ZM2.353 4h-.47v.5h.47V4ZM4.706 4h-.47v.5h.47V4ZM5.176 4h-.47v.5h.47V4ZM5.647 4h-.47v.5h.47V4ZM6.118 4h-.47v.5h.47V4ZM6.588 4h-.47v.5h.47V4ZM7.059 4h-.47v.5h.47V4ZM9.412 4h-.47v.5h.47V4Z" fill="#FEFEFE"/>
    <path d="M9.882 4h-.47v.5h.47V4ZM10.353 4h-.47v.5h.47V4ZM10.823 4h-.47v.5h.47V4ZM11.294 4h-.47v.5h.47V4ZM11.765 4h-.47v.5h.47V4ZM14.118 4h-.47v.5h.47V4Z" fill="#FEFEFE"/>
    <path d="M14.588 4h-.47v.5h.47V4ZM15.059 4h-.47v.5h.47V4ZM15.53 4h-.471v.5h.47V4ZM16 4h-.47v.5H16V4ZM.47 4.5H0V5h.47v-.5ZM.941 4.5h-.47V5h.47v-.5ZM1.412 4.5h-.47V5h.47v-.5ZM1.882 4.5h-.47V5h.47v-.5ZM2.353 4.5h-.47V5h.47v-.5ZM4.706 4.5h-.47V5h.47v-.5ZM5.176 4.5h-.47V5h.47v-.5ZM5.647 4.5h-.47V5h.47v-.5ZM6.118 4.5h-.47V5h.47v-.5ZM6.588 4.5h-.47V5h.47v-.5ZM7.059 4.5h-.47V5h.47v-.5ZM9.412 4.5h-.47V5h.47v-.5Z" fill="#FEFEFE"/>
    <path d="M9.882 4.5h-.47V5h.47v-.5ZM10.353 4.5h-.47V5h.47v-.5ZM10.823 4.5h-.47V5h.47v-.5ZM11.294 4.5h-.47V5h.47v-.5ZM11.765 4.5h-.47V5h.47v-.5ZM14.118 4.5h-.47V5h.47v-.5Z" fill="#FEFEFE"/>
    <path d="M14.588 4.5h-.47V5h.47v-.5ZM15.059 4.5h-.47V5h.47v-.5ZM15.53 4.5h-.471V5h.47v-.5ZM16 4.5h-.47V5H16v-.5ZM.47 5H0v.5h.47V5ZM.941 5h-.47v.5h.47V5ZM1.412 5h-.47v.5h.47V5ZM1.882 5h-.47v.5h.47V5ZM2.353 5h-.47v.5h.47V5ZM4.706 5h-.47v.5h.47V5ZM5.176 5h-.47v.5h.47V5ZM5.647 5h-.47v.5h.47V5ZM6.118 5h-.47v.5h.47V5ZM6.588 5h-.47v.5h.47V5ZM7.059 5h-.47v.5h.47V5ZM9.412 5h-.47v.5h.47V5Z" fill="#FEFEFE"/>
    <path d="M9.882 5h-.47v.5h.47V5ZM10.353 5h-.47v.5h.47V5ZM10.823 5h-.47v.5h.47V5ZM11.294 5h-.47v.5h.47V5ZM11.765 5h-.47v.5h.47V5ZM14.118 5h-.47v.5h.47V5Z" fill="#FEFEFE"/>
    <path d="M14.588 5h-.47v.5h.47V5ZM15.059 5h-.47v.5h.47V5ZM15.53 5h-.471v.5h.47V5ZM16 5h-.47v.5H16V5ZM.47 5.5H0V6h.47v-.5ZM.941 5.5h-.47V6h.47v-.5ZM1.412 5.5h-.47V6h.47v-.5ZM1.882 5.5h-.47V6h.47v-.5ZM2.353 5.5h-.47V6h.47v-.5ZM4.706 5.5h-.47V6h.47v-.5ZM5.176 5.5h-.47V6h.47v-.5ZM5.647 5.5h-.47V6h.47v-.5ZM6.118 5.5h-.47V6h.47v-.5ZM6.588 5.5h-.47V6h.47v-.5ZM7.059 5.5h-.47V6h.47v-.5ZM9.412 5.5h-.47V6h.47v-.5Z" fill="#FEFEFE"/>
    <path d="M9.882 5.5h-.47V6h.47v-.5ZM10.353 5.5h-.47V6h.47v-.5ZM10.823 5.5h-.47V6h.47v-.5ZM11.294 5.5h-.47V6h.47v-.5ZM11.765 5.5h-.47V6h.47v-.5ZM14.118 5.5h-.47V6h.47v-.5Z" fill="#FEFEFE"/>
    <path d="M14.588 5.5h-.47V6h.47v-.5ZM15.059 5.5h-.47V6h.47v-.5ZM15.53 5.5h-.471V6h.47v-.5ZM16 5.5h-.47V6H16v-.5ZM.47 6H0v.5h.47V6ZM.941 6h-.47v.5h.47V6ZM1.412 6h-.47v.5h.47V6ZM1.882 6h-.47v.5h.47V6ZM2.353 6h-.47v.5h.47V6Z" fill="#FEFEFE"/>
    <path d="M2.824 6h-.471v.5h.47V6ZM3.294 6h-.47v.5h.47V6ZM3.765 6h-.47v.5h.47V6ZM4.235 6h-.47v.5h.47V6ZM4.706 6h-.47v.5h.47V6ZM5.176 6h-.47v.5h.47V6ZM5.647 6h-.47v.5h.47V6ZM6.118 6h-.47v.5h.47V6ZM6.588 6h-.47v.5h.47V6ZM7.059 6h-.47v.5h.47V6ZM7.53 6h-.471v.5h.47V6ZM8 6h-.47v.5H8V6ZM8.47 6H8v.5h.47V6ZM8.941 6h-.47v.5h.47V6ZM9.412 6h-.47v.5h.47V6Z" fill="#FEFEFE"/>
    <path d="M9.882 6h-.47v.5h.47V6ZM10.353 6h-.47v.5h.47V6ZM10.823 6h-.47v.5h.47V6ZM11.294 6h-.47v.5h.47V6ZM11.765 6h-.47v.5h.47V6Z" fill="#FEFEFE"/>
    <path d="M12.235 6h-.47v.5h.47V6ZM12.706 6h-.47v.5h.47V6ZM13.177 6h-.471v.5h.47V6ZM13.647 6h-.47v.5h.47V6ZM14.118 6h-.47v.5h.47V6Z" fill="#FEFEFE"/>
    <path d="M14.588 6h-.47v.5h.47V6ZM15.059 6h-.47v.5h.47V6ZM15.53 6h-.471v.5h.47V6ZM16 6h-.47v.5H16V6ZM.47 6.5H0V7h.47v-.5ZM.941 6.5h-.47V7h.47v-.5ZM1.412 6.5h-.47V7h.47v-.5ZM1.882 6.5h-.47V7h.47v-.5ZM2.353 6.5h-.47V7h.47v-.5Z" fill="#FEFEFE"/>
    <path d="M2.824 6.5h-.471V7h.47v-.5ZM3.294 6.5h-.47V7h.47v-.5ZM3.765 6.5h-.47V7h.47v-.5ZM4.235 6.5h-.47V7h.47v-.5ZM4.706 6.5h-.47V7h.47v-.5ZM5.176 6.5h-.47V7h.47v-.5ZM5.647 6.5h-.47V7h.47v-.5ZM6.118 6.5h-.47V7h.47v-.5ZM6.588 6.5h-.47V7h.47v-.5ZM7.059 6.5h-.47V7h.47v-.5ZM7.53 6.5h-.471V7h.47v-.5ZM8 6.5h-.47V7H8v-.5ZM8.47 6.5H8V7h.47v-.5ZM8.941 6.5h-.47V7h.47v-.5ZM9.412 6.5h-.47V7h.47v-.5Z" fill="#FEFEFE"/>
    <path d="M9.882 6.5h-.47V7h.47v-.5ZM10.353 6.5h-.47V7h.47v-.5ZM10.823 6.5h-.47V7h.47v-.5ZM11.294 6.5h-.47V7h.47v-.5ZM11.765 6.5h-.47V7h.47v-.5Z" fill="#FEFEFE"/>
    <path d="M12.235 6.5h-.47V7h.47v-.5ZM12.706 6.5h-.47V7h.47v-.5ZM13.177 6.5h-.471V7h.47v-.5ZM13.647 6.5h-.47V7h.47v-.5ZM14.118 6.5h-.47V7h.47v-.5Z" fill="#FEFEFE"/>
    <path d="M14.588 6.5h-.47V7h.47v-.5ZM15.059 6.5h-.47V7h.47v-.5ZM15.53 6.5h-.471V7h.47v-.5ZM16 6.5h-.47V7H16v-.5ZM.47 7H0v.5h.47V7ZM.941 7h-.47v.5h.47V7ZM1.412 7h-.47v.5h.47V7ZM1.882 7h-.47v.5h.47V7ZM2.353 7h-.47v.5h.47V7Z" fill="#FEFEFE"/>
    <path d="M2.824 7h-.471v.5h.47V7ZM3.294 7h-.47v.5h.47V7ZM3.765 7h-.47v.5h.47V7ZM4.235 7h-.47v.5h.47V7ZM4.706 7h-.47v.5h.47V7ZM5.176 7h-.47v.5h.47V7ZM5.647 7h-.47v.5h.47V7ZM6.118 7h-.47v.5h.47V7ZM6.588 7h-.47v.5h.47V7ZM7.059 7h-.47v.5h.47V7ZM7.53 7h-.471v.5h.47V7ZM8 7h-.47v.5H8V7ZM8.47 7H8v.5h.47V7ZM8.941 7h-.47v.5h.47V7ZM9.412 7h-.47v.5h.47V7Z" fill="#FEFEFE"/>
    <path d="M9.882 7h-.47v.5h.47V7ZM10.353 7h-.47v.5h.47V7ZM10.823 7h-.47v.5h.47V7ZM11.294 7h-.47v.5h.47V7ZM11.765 7h-.47v.5h.47V7Z" fill="#FEFEFE"/>
    <path d="M12.235 7h-.47v.5h.47V7ZM12.706 7h-.47v.5h.47V7ZM13.177 7h-.471v.5h.47V7ZM13.647 7h-.47v.5h.47V7ZM14.118 7h-.47v.5h.47V7Z" fill="#FEFEFE"/>
    <path d="M14.588 7h-.47v.5h.47V7ZM15.059 7h-.47v.5h.47V7ZM15.53 7h-.471v.5h.47V7ZM16 7h-.47v.5H16V7ZM.47 7.5H0V8h.47v-.5ZM.941 7.5h-.47V8h.47v-.5ZM1.412 7.5h-.47V8h.47v-.5ZM1.882 7.5h-.47V8h.47v-.5ZM2.353 7.5h-.47V8h.47v-.5Z" fill="#FEFEFE"/>
    <path d="M2.824 7.5h-.471V8h.47v-.5ZM3.294 7.5h-.47V8h.47v-.5ZM3.765 7.5h-.47V8h.47v-.5ZM4.235 7.5h-.47V8h.47v-.5ZM4.706 7.5h-.47V8h.47v-.5ZM5.176 7.5h-.47V8h.47v-.5ZM5.647 7.5h-.47V8h.47v-.5ZM6.118 7.5h-.47V8h.47v-.5ZM6.588 7.5h-.47V8h.47v-.5ZM7.059 7.5h-.47V8h.47v-.5ZM7.53 7.5h-.471V8h.47v-.5ZM8 7.5h-.47V8H8v-.5ZM8.47 7.5H8V8h.47v-.5ZM8.941 7.5h-.47V8h.47v-.5ZM9.412 7.5h-.47V8h.47v-.5Z" fill="#FEFEFE"/>
    <path d="M9.882 7.5h-.47V8h.47v-.5ZM10.353 7.5h-.47V8h.47v-.5ZM10.823 7.5h-.47V8h.47v-.5ZM11.294 7.5h-.47V8h.47v-.5ZM11.765 7.5h-.47V8h.47v-.5Z" fill="#FEFEFE"/>
    <path d="M12.235 7.5h-.47V8h.47v-.5ZM12.706 7.5h-.47V8h.47v-.5ZM13.177 7.5h-.471V8h.47v-.5ZM13.647 7.5h-.47V8h.47v-.5ZM14.118 7.5h-.47V8h.47v-.5Z" fill="#FEFEFE"/>
    <path d="M14.588 7.5h-.47V8h.47v-.5ZM15.059 7.5h-.47V8h.47v-.5ZM15.53 7.5h-.471V8h.47v-.5ZM16 7.5h-.47V8H16v-.5ZM.47 8H0v.5h.47V8ZM.941 8h-.47v.5h.47V8ZM1.412 8h-.47v.5h.47V8ZM1.882 8h-.47v.5h.47V8ZM2.353 8h-.47v.5h.47V8Z" fill="#FEFEFE"/>
    <path d="M2.824 8h-.471v.5h.47V8ZM3.294 8h-.47v.5h.47V8ZM3.765 8h-.47v.5h.47V8ZM4.235 8h-.47v.5h.47V8ZM4.706 8h-.47v.5h.47V8ZM5.176 8h-.47v.5h.47V8ZM5.647 8h-.47v.5h.47V8ZM6.118 8h-.47v.5h.47V8ZM6.588 8h-.47v.5h.47V8ZM7.059 8h-.47v.5h.47V8ZM7.53 8h-.471v.5h.47V8ZM8 8h-.47v.5H8V8ZM8.47 8H8v.5h.47V8ZM8.941 8h-.47v.5h.47V8ZM9.412 8h-.47v.5h.47V8Z" fill="#FEFEFE"/>
    <path d="M9.882 8h-.47v.5h.47V8ZM10.353 8h-.47v.5h.47V8ZM10.823 8h-.47v.5h.47V8ZM11.294 8h-.47v.5h.47V8ZM11.765 8h-.47v.5h.47V8Z" fill="#FEFEFE"/>
    <path d="M12.235 8h-.47v.5h.47V8ZM12.706 8h-.47v.5h.47V8ZM13.177 8h-.471v.5h.47V8ZM13.647 8h-.47v.5h.47V8ZM14.118 8h-.47v.5h.47V8Z" fill="#FEFEFE"/>
    <path d="M14.588 8h-.47v.5h.47V8ZM15.059 8h-.47v.5h.47V8ZM15.53 8h-.471v.5h.47V8ZM16 8h-.47v.5H16V8ZM.47 8.5H0V9h.47v-.5ZM.941 8.5h-.47V9h.47v-.5ZM1.412 8.5h-.47V9h.47v-.5ZM1.882 8.5h-.47V9h.47v-.5ZM2.353 8.5h-.47V9h.47v-.5Z" fill="#FEFEFE"/>
    <path d="M2.824 8.5h-.471V9h.47v-.5ZM3.294 8.5h-.47V9h.47v-.5ZM3.765 8.5h-.47V9h.47v-.5ZM4.235 8.5h-.47V9h.47v-.5ZM4.706 8.5h-.47V9h.47v-.5ZM5.176 8.5h-.47V9h.47v-.5ZM5.647 8.5h-.47V9h.47v-.5ZM6.118 8.5h-.47V9h.47v-.5ZM6.588 8.5h-.47V9h.47v-.5ZM7.059 8.5h-.47V9h.47v-.5ZM7.53 8.5h-.471V9h.47v-.5ZM8 8.5h-.47V9H8v-.5ZM8.47 8.5H8V9h.47v-.5ZM8.941 8.5h-.47V9h.47v-.5ZM9.412 8.5h-.47V9h.47v-.5Z" fill="#FEFEFE"/>
    <path d="M9.882 8.5h-.47V9h.47v-.5ZM10.353 8.5h-.47V9h.47v-.5ZM10.823 8.5h-.47V9h.47v-.5ZM11.294 8.5h-.47V9h.47v-.5ZM11.765 8.5h-.47V9h.47v-.5Z" fill="#FEFEFE"/>
    <path d="M12.235 8.5h-.47V9h.47v-.5ZM12.706 8.5h-.47V9h.47v-.5ZM13.177 8.5h-.471V9h.47v-.5ZM13.647 8.5h-.47V9h.47v-.5ZM14.118 8.5h-.47V9h.47v-.5Z" fill="#FEFEFE"/>
    <path d="M14.588 8.5h-.47V9h.47v-.5ZM15.059 8.5h-.47V9h.47v-.5ZM15.53 8.5h-.471V9h.47v-.5ZM16 8.5h-.47V9H16v-.5ZM.47 9H0v.5h.47V9ZM.941 9h-.47v.5h.47V9ZM1.412 9h-.47v.5h.47V9ZM1.882 9h-.47v.5h.47V9ZM2.353 9h-.47v.5h.47V9Z" fill="#FEFEFE"/>
    <path d="M2.824 9h-.471v.5h.47V9ZM3.294 9h-.47v.5h.47V9ZM3.765 9h-.47v.5h.47V9ZM4.235 9h-.47v.5h.47V9ZM4.706 9h-.47v.5h.47V9ZM5.176 9h-.47v.5h.47V9ZM5.647 9h-.47v.5h.47V9ZM6.118 9h-.47v.5h.47V9ZM6.588 9h-.47v.5h.47V9ZM7.059 9h-.47v.5h.47V9ZM7.53 9h-.471v.5h.47V9ZM8 9h-.47v.5H8V9ZM8.47 9H8v.5h.47V9ZM8.941 9h-.47v.5h.47V9ZM9.412 9h-.47v.5h.47V9Z" fill="#FEFEFE"/>
    <path d="M9.882 9h-.47v.5h.47V9ZM10.353 9h-.47v.5h.47V9ZM10.823 9h-.47v.5h.47V9ZM11.294 9h-.47v.5h.47V9ZM11.765 9h-.47v.5h.47V9Z" fill="#FEFEFE"/>
    <path d="M12.235 9h-.47v.5h.47V9ZM12.706 9h-.47v.5h.47V9ZM13.177 9h-.471v.5h.47V9ZM13.647 9h-.47v.5h.47V9ZM14.118 9h-.47v.5h.47V9Z" fill="#FEFEFE"/>
    <path d="M14.588 9h-.47v.5h.47V9ZM15.059 9h-.47v.5h.47V9ZM15.53 9h-.471v.5h.47V9ZM16 9h-.47v.5H16V9ZM.47 9.5H0v.5h.47v-.5ZM.941 9.5h-.47v.5h.47v-.5ZM1.412 9.5h-.47v.5h.47v-.5ZM1.882 9.5h-.47v.5h.47v-.5ZM2.353 9.5h-.47v.5h.47v-.5Z" fill="#FEFEFE"/>
    <path d="M2.824 9.5h-.471v.5h.47v-.5ZM3.294 9.5h-.47v.5h.47v-.5ZM3.765 9.5h-.47v.5h.47v-.5ZM4.235 9.5h-.47v.5h.47v-.5ZM4.706 9.5h-.47v.5h.47v-.5ZM5.176 9.5h-.47v.5h.47v-.5ZM5.647 9.5h-.47v.5h.47v-.5ZM6.118 9.5h-.47v.5h.47v-.5ZM6.588 9.5h-.47v.5h.47v-.5ZM7.059 9.5h-.47v.5h.47v-.5ZM7.53 9.5h-.471v.5h.47v-.5ZM8 9.5h-.47v.5H8v-.5ZM8.47 9.5H8v.5h.47v-.5ZM8.941 9.5h-.47v.5h.47v-.5ZM9.412 9.5h-.47v.5h.47v-.5Z" fill="#FEFEFE"/>
    <path d="M9.882 9.5h-.47v.5h.47v-.5ZM10.353 9.5h-.47v.5h.47v-.5ZM10.823 9.5h-.47v.5h.47v-.5ZM11.294 9.5h-.47v.5h.47v-.5ZM11.765 9.5h-.47v.5h.47v-.5Z" fill="#FEFEFE"/>
    <path d="M12.235 9.5h-.47v.5h.47v-.5ZM12.706 9.5h-.47v.5h.47v-.5ZM13.177 9.5h-.471v.5h.47v-.5ZM13.647 9.5h-.47v.5h.47v-.5ZM14.118 9.5h-.47v.5h.47v-.5Z" fill="#FEFEFE"/>
    <path d="M14.588 9.5h-.47v.5h.47v-.5ZM15.059 9.5h-.47v.5h.47v-.5ZM15.53 9.5h-.471v.5h.47v-.5ZM16 9.5h-.47v.5H16v-.5ZM.47 10H0v.5h.47V10ZM.941 10h-.47v.5h.47V10ZM1.412 10h-.47v.5h.47V10ZM1.882 10h-.47v.5h.47V10ZM2.353 10h-.47v.5h.47V10Z" fill="#FEFEFE"/>
    <path d="M2.824 10h-.471v.5h.47V10ZM3.294 10h-.47v.5h.47V10ZM3.765 10h-.47v.5h.47V10ZM.47 10.5H0v.5h.47v-.5ZM.941 10.5h-.47v.5h.47v-.5ZM1.412 10.5h-.47v.5h.47v-.5ZM1.882 10.5h-.47v.5h.47v-.5ZM2.353 10.5h-.47v.5h.47v-.5Z" fill="#FEFEFE"/>
    <path d="M2.824 10.5h-.471v.5h.47v-.5ZM3.294 10.5h-.47v.5h.47v-.5ZM3.765 10.5h-.47v.5h.47v-.5ZM.47 11H0v.5h.47V11ZM.941 11h-.47v.5h.47V11ZM1.412 11h-.47v.5h.47V11ZM1.882 11h-.47v.5h.47V11ZM2.353 11h-.47v.5h.47V11Z" fill="#FEFEFE"/>
    <path d="M2.824 11h-.471v.5h.47V11ZM3.294 11h-.47v.5h.47V11ZM3.765 11h-.47v.5h.47V11ZM.47 11.5H0v.5h.47v-.5ZM.941 11.5h-.47v.5h.47v-.5ZM1.412 11.5h-.47v.5h.47v-.5ZM1.882 11.5h-.47v.5h.47v-.5ZM2.353 11.5h-.47v.5h.47v-.5Z" fill="#FEFEFE"/>
    <path d="M2.824 11.5h-.471v.5h.47v-.5ZM3.294 11.5h-.47v.5h.47v-.5ZM3.765 11.5h-.47v.5h.47v-.5ZM.47 12H0v.5h.47V12ZM.941 12h-.47v.5h.47V12ZM1.412 12h-.47v.5h.47V12ZM1.882 12h-.47v.5h.47V12ZM.47 12.5H0v.5h.47v-.5ZM.941 12.5h-.47v.5h.47v-.5ZM1.412 12.5h-.47v.5h.47v-.5ZM1.882 12.5h-.47v.5h.47v-.5ZM.47 13H0v.5h.47V13ZM.941 13h-.47v.5h.47V13ZM1.412 13h-.47v.5h.47V13ZM1.882 13h-.47v.5h.47V13ZM.47 13.5H0v.5h.47v-.5ZM.941 13.5h-.47v.5h.47v-.5ZM1.412 13.5h-.47v.5h.47v-.5ZM1.882 13.5h-.47v.5h.47v-.5Z" fill="#FEFEFE"/>
</svg>
