<svg width="16" height="16" viewBox="0 0 16 16" fill="none" xmlns="http://www.w3.org/2000/svg">
<g clip-path="url(#clip0_2437_599)">
<path d="M0.5 0H0V0.5H0.5V0Z" fill="#121212"/>
<path d="M1 0H0.5V0.5H1V0Z" fill="#121212"/>
<path d="M1.5 0H1V0.5H1.5V0Z" fill="#121212"/>
<path d="M2 0H1.5V0.5H2V0Z" fill="#121212"/>
<path d="M2.5 0H2V0.5H2.5V0Z" fill="#121212"/>
<path d="M3 0H2.5V0.5H3V0Z" fill="#121212"/>
<path d="M3.5 0H3V0.5H3.5V0Z" fill="#121212"/>
<path d="M4 0H3.5V0.5H4V0Z" fill="#121212"/>
<path d="M4.5 0H4V0.5H4.5V0Z" fill="#121212"/>
<path d="M5 0H4.5V0.5H5V0Z" fill="#121212"/>
<path d="M5.5 0H5V0.5H5.5V0Z" fill="#121212"/>
<path d="M6 0H5.5V0.5H6V0Z" fill="#121212"/>
<path d="M6.5 0H6V0.5H6.5V0Z" fill="#121212"/>
<path d="M7 0H6.5V0.5H7V0Z" fill="#121212"/>
<path d="M7.5 0H7V0.5H7.5V0Z" fill="#121212"/>
<path d="M8 0H7.5V0.5H8V0Z" fill="#121212"/>
<path d="M0.5 0.5H0V1H0.5V0.5Z" fill="#121212"/>
<path d="M1 0.5H0.5V1H1V0.5Z" fill="#121212"/>
<path d="M1.5 0.5H1V1H1.5V0.5Z" fill="#121212"/>
<path d="M2 0.5H1.5V1H2V0.5Z" fill="#121212"/>
<path d="M2.5 0.5H2V1H2.5V0.5Z" fill="#121212"/>
<path d="M3 0.5H2.5V1H3V0.5Z" fill="#121212"/>
<path d="M3.5 0.5H3V1H3.5V0.5Z" fill="#121212"/>
<path d="M4 0.5H3.5V1H4V0.5Z" fill="#121212"/>
<path d="M4.5 0.5H4V1H4.5V0.5Z" fill="#121212"/>
<path d="M5 0.5H4.5V1H5V0.5Z" fill="#121212"/>
<path d="M5.5 0.5H5V1H5.5V0.5Z" fill="#121212"/>
<path d="M6 0.5H5.5V1H6V0.5Z" fill="#121212"/>
<path d="M6.5 0.5H6V1H6.5V0.5Z" fill="#121212"/>
<path d="M7 0.5H6.5V1H7V0.5Z" fill="#121212"/>
<path d="M7.5 0.5H7V1H7.5V0.5Z" fill="#121212"/>
<path d="M8 0.5H7.5V1H8V0.5Z" fill="#121212"/>
<path d="M0.5 1H0V1.5H0.5V1Z" fill="#121212"/>
<path d="M1 1H0.5V1.5H1V1Z" fill="#121212"/>
<path d="M1.5 1H1V1.5H1.5V1Z" fill="#121212"/>
<path d="M2 1H1.5V1.5H2V1Z" fill="#121212"/>
<path d="M2.5 1H2V1.5H2.5V1Z" fill="#121212"/>
<path d="M3 1H2.5V1.5H3V1Z" fill="#121212"/>
<path d="M3.5 1H3V1.5H3.5V1Z" fill="#121212"/>
<path d="M4 1H3.5V1.5H4V1Z" fill="#121212"/>
<path d="M4.5 1H4V1.5H4.5V1Z" fill="#121212"/>
<path d="M5 1H4.5V1.5H5V1Z" fill="#121212"/>
<path d="M5.5 1H5V1.5H5.5V1Z" fill="#121212"/>
<path d="M6 1H5.5V1.5H6V1Z" fill="#121212"/>
<path d="M6.5 1H6V1.5H6.5V1Z" fill="#121212"/>
<path d="M7 1H6.5V1.5H7V1Z" fill="#121212"/>
<path d="M7.5 1H7V1.5H7.5V1Z" fill="#121212"/>
<path d="M8 1H7.5V1.5H8V1Z" fill="#121212"/>
<path d="M0.5 1.5H0V2H0.5V1.5Z" fill="#121212"/>
<path d="M1 1.5H0.5V2H1V1.5Z" fill="#121212"/>
<path d="M1.5 1.5H1V2H1.5V1.5Z" fill="#121212"/>
<path d="M2 1.5H1.5V2H2V1.5Z" fill="#121212"/>
<path d="M2.5 1.5H2V2H2.5V1.5Z" fill="#121212"/>
<path d="M3 1.5H2.5V2H3V1.5Z" fill="#121212"/>
<path d="M3.5 1.5H3V2H3.5V1.5Z" fill="#121212"/>
<path d="M4 1.5H3.5V2H4V1.5Z" fill="#121212"/>
<path d="M4.5 1.5H4V2H4.5V1.5Z" fill="#121212"/>
<path d="M5 1.5H4.5V2H5V1.5Z" fill="#121212"/>
<path d="M5.5 1.5H5V2H5.5V1.5Z" fill="#121212"/>
<path d="M6 1.5H5.5V2H6V1.5Z" fill="#121212"/>
<path d="M6.5 1.5H6V2H6.5V1.5Z" fill="#121212"/>
<path d="M7 1.5H6.5V2H7V1.5Z" fill="#121212"/>
<path d="M7.5 1.5H7V2H7.5V1.5Z" fill="#121212"/>
<path d="M8 1.5H7.5V2H8V1.5Z" fill="#121212"/>
<path d="M0.5 2H0V2.5H0.5V2Z" fill="#121212"/>
<path d="M1 2H0.5V2.5H1V2Z" fill="#121212"/>
<path d="M1.5 2H1V2.5H1.5V2Z" fill="#121212"/>
<path d="M2 2H1.5V2.5H2V2Z" fill="#121212"/>
<path d="M0.5 2.5H0V3H0.5V2.5Z" fill="#121212"/>
<path d="M1 2.5H0.5V3H1V2.5Z" fill="#121212"/>
<path d="M1.5 2.5H1V3H1.5V2.5Z" fill="#121212"/>
<path d="M2 2.5H1.5V3H2V2.5Z" fill="#121212"/>
<path d="M0.5 3H0V3.5H0.5V3Z" fill="#121212"/>
<path d="M1 3H0.5V3.5H1V3Z" fill="#121212"/>
<path d="M1.5 3H1V3.5H1.5V3Z" fill="#121212"/>
<path d="M2 3H1.5V3.5H2V3Z" fill="#121212"/>
<path d="M10.5 3H10V3.5H10.5V3Z" fill="#121212"/>
<path d="M11 3H10.5V3.5H11V3Z" fill="#121212"/>
<path d="M11.5 3H11V3.5H11.5V3Z" fill="#121212"/>
<path d="M12 3H11.5V3.5H12V3Z" fill="#121212"/>
<path d="M0.5 3.5H0V4H0.5V3.5Z" fill="#121212"/>
<path d="M1 3.5H0.5V4H1V3.5Z" fill="#121212"/>
<path d="M1.5 3.5H1V4H1.5V3.5Z" fill="#121212"/>
<path d="M2 3.5H1.5V4H2V3.5Z" fill="#121212"/>
<path d="M10.5 3.5H10V4H10.5V3.5Z" fill="#121212"/>
<path d="M11 3.5H10.5V4H11V3.5Z" fill="#121212"/>
<path d="M11.5 3.5H11V4H11.5V3.5Z" fill="#121212"/>
<path d="M12 3.5H11.5V4H12V3.5Z" fill="#121212"/>
<path d="M0.5 4H0V4.5H0.5V4Z" fill="#121212"/>
<path d="M1 4H0.5V4.5H1V4Z" fill="#121212"/>
<path d="M1.5 4H1V4.5H1.5V4Z" fill="#121212"/>
<path d="M2 4H1.5V4.5H2V4Z" fill="#121212"/>
<path d="M10.5 4H10V4.5H10.5V4Z" fill="#121212"/>
<path d="M11 4H10.5V4.5H11V4Z" fill="#121212"/>
<path d="M11.5 4H11V4.5H11.5V4Z" fill="#121212"/>
<path d="M12 4H11.5V4.5H12V4Z" fill="#121212"/>
<path d="M0.5 4.5H0V5H0.5V4.5Z" fill="#121212"/>
<path d="M1 4.5H0.5V5H1V4.5Z" fill="#121212"/>
<path d="M1.5 4.5H1V5H1.5V4.5Z" fill="#121212"/>
<path d="M2 4.5H1.5V5H2V4.5Z" fill="#121212"/>
<path d="M10.5 4.5H10V5H10.5V4.5Z" fill="#121212"/>
<path d="M11 4.5H10.5V5H11V4.5Z" fill="#121212"/>
<path d="M11.5 4.5H11V5H11.5V4.5Z" fill="#121212"/>
<path d="M12 4.5H11.5V5H12V4.5Z" fill="#121212"/>
<path d="M0.5 5H0V5.5H0.5V5Z" fill="#121212"/>
<path d="M1 5H0.5V5.5H1V5Z" fill="#121212"/>
<path d="M1.5 5H1V5.5H1.5V5Z" fill="#121212"/>
<path d="M2 5H1.5V5.5H2V5Z" fill="#121212"/>
<path d="M12.5 5H12V5.5H12.5V5Z" fill="#121212"/>
<path d="M13 5H12.5V5.5H13V5Z" fill="#121212"/>
<path d="M13.5 5H13V5.5H13.5V5Z" fill="#121212"/>
<path d="M14 5H13.5V5.5H14V5Z" fill="#121212"/>
<path d="M0.5 5.5H0V6H0.5V5.5Z" fill="#121212"/>
<path d="M1 5.5H0.5V6H1V5.5Z" fill="#121212"/>
<path d="M1.5 5.5H1V6H1.5V5.5Z" fill="#121212"/>
<path d="M2 5.5H1.5V6H2V5.5Z" fill="#121212"/>
<path d="M12.5 5.5H12V6H12.5V5.5Z" fill="#121212"/>
<path d="M13 5.5H12.5V6H13V5.5Z" fill="#121212"/>
<path d="M13.5 5.5H13V6H13.5V5.5Z" fill="#121212"/>
<path d="M14 5.5H13.5V6H14V5.5Z" fill="#121212"/>
<path d="M0.5 6H0V6.5H0.5V6Z" fill="#121212"/>
<path d="M1 6H0.5V6.5H1V6Z" fill="#121212"/>
<path d="M1.5 6H1V6.5H1.5V6Z" fill="#121212"/>
<path d="M2 6H1.5V6.5H2V6Z" fill="#121212"/>
<path d="M12.5 6H12V6.5H12.5V6Z" fill="#121212"/>
<path d="M13 6H12.5V6.5H13V6Z" fill="#121212"/>
<path d="M13.5 6H13V6.5H13.5V6Z" fill="#121212"/>
<path d="M14 6H13.5V6.5H14V6Z" fill="#121212"/>
<path d="M0.5 6.5H0V7H0.5V6.5Z" fill="#121212"/>
<path d="M1 6.5H0.5V7H1V6.5Z" fill="#121212"/>
<path d="M1.5 6.5H1V7H1.5V6.5Z" fill="#121212"/>
<path d="M2 6.5H1.5V7H2V6.5Z" fill="#121212"/>
<path d="M12.5 6.5H12V7H12.5V6.5Z" fill="#121212"/>
<path d="M13 6.5H12.5V7H13V6.5Z" fill="#121212"/>
<path d="M13.5 6.5H13V7H13.5V6.5Z" fill="#121212"/>
<path d="M14 6.5H13.5V7H14V6.5Z" fill="#121212"/>
<path d="M0.5 7H0V7.5H0.5V7Z" fill="#121212"/>
<path d="M1 7H0.5V7.5H1V7Z" fill="#121212"/>
<path d="M1.5 7H1V7.5H1.5V7Z" fill="#121212"/>
<path d="M2 7H1.5V7.5H2V7Z" fill="#121212"/>
<path d="M4.5 7H4V7.5H4.5V7Z" fill="#121212"/>
<path d="M5 7H4.5V7.5H5V7Z" fill="#121212"/>
<path d="M5.5 7H5V7.5H5.5V7Z" fill="#121212"/>
<path d="M6 7H5.5V7.5H6V7Z" fill="#121212"/>
<path d="M6.5 7H6V7.5H6.5V7Z" fill="#121212"/>
<path d="M7 7H6.5V7.5H7V7Z" fill="#121212"/>
<path d="M7.5 7H7V7.5H7.5V7Z" fill="#121212"/>
<path d="M8 7H7.5V7.5H8V7Z" fill="#121212"/>
<path d="M8.5 7H8V7.5H8.5V7Z" fill="#121212"/>
<path d="M9 7H8.5V7.5H9V7Z" fill="#121212"/>
<path d="M9.5 7H9V7.5H9.5V7Z" fill="#121212"/>
<path d="M10 7H9.5V7.5H10V7Z" fill="#121212"/>
<path d="M10.5 7H10V7.5H10.5V7Z" fill="#121212"/>
<path d="M11 7H10.5V7.5H11V7Z" fill="#121212"/>
<path d="M11.5 7H11V7.5H11.5V7Z" fill="#121212"/>
<path d="M12 7H11.5V7.5H12V7Z" fill="#121212"/>
<path d="M12.5 7H12V7.5H12.5V7Z" fill="#121212"/>
<path d="M13 7H12.5V7.5H13V7Z" fill="#121212"/>
<path d="M13.5 7H13V7.5H13.5V7Z" fill="#121212"/>
<path d="M14 7H13.5V7.5H14V7Z" fill="#121212"/>
<path d="M14.5 7H14V7.5H14.5V7Z" fill="#121212"/>
<path d="M15 7H14.5V7.5H15V7Z" fill="#121212"/>
<path d="M15.5 7H15V7.5H15.5V7Z" fill="#121212"/>
<path d="M16 7H15.5V7.5H16V7Z" fill="#121212"/>
<path d="M0.5 7.5H0V8H0.5V7.5Z" fill="#121212"/>
<path d="M1 7.5H0.5V8H1V7.5Z" fill="#121212"/>
<path d="M1.5 7.5H1V8H1.5V7.5Z" fill="#121212"/>
<path d="M2 7.5H1.5V8H2V7.5Z" fill="#121212"/>
<path d="M4.5 7.5H4V8H4.5V7.5Z" fill="#121212"/>
<path d="M5 7.5H4.5V8H5V7.5Z" fill="#121212"/>
<path d="M5.5 7.5H5V8H5.5V7.5Z" fill="#121212"/>
<path d="M6 7.5H5.5V8H6V7.5Z" fill="#121212"/>
<path d="M6.5 7.5H6V8H6.5V7.5Z" fill="#121212"/>
<path d="M7 7.5H6.5V8H7V7.5Z" fill="#121212"/>
<path d="M7.5 7.5H7V8H7.5V7.5Z" fill="#121212"/>
<path d="M8 7.5H7.5V8H8V7.5Z" fill="#121212"/>
<path d="M8.5 7.5H8V8H8.5V7.5Z" fill="#121212"/>
<path d="M9 7.5H8.5V8H9V7.5Z" fill="#121212"/>
<path d="M9.5 7.5H9V8H9.5V7.5Z" fill="#121212"/>
<path d="M10 7.5H9.5V8H10V7.5Z" fill="#121212"/>
<path d="M10.5 7.5H10V8H10.5V7.5Z" fill="#121212"/>
<path d="M11 7.5H10.5V8H11V7.5Z" fill="#121212"/>
<path d="M11.5 7.5H11V8H11.5V7.5Z" fill="#121212"/>
<path d="M12 7.5H11.5V8H12V7.5Z" fill="#121212"/>
<path d="M12.5 7.5H12V8H12.5V7.5Z" fill="#121212"/>
<path d="M13 7.5H12.5V8H13V7.5Z" fill="#121212"/>
<path d="M13.5 7.5H13V8H13.5V7.5Z" fill="#121212"/>
<path d="M14 7.5H13.5V8H14V7.5Z" fill="#121212"/>
<path d="M14.5 7.5H14V8H14.5V7.5Z" fill="#121212"/>
<path d="M15 7.5H14.5V8H15V7.5Z" fill="#121212"/>
<path d="M15.5 7.5H15V8H15.5V7.5Z" fill="#121212"/>
<path d="M16 7.5H15.5V8H16V7.5Z" fill="#121212"/>
<path d="M0.5 8H0V8.5H0.5V8Z" fill="#121212"/>
<path d="M1 8H0.5V8.5H1V8Z" fill="#121212"/>
<path d="M1.5 8H1V8.5H1.5V8Z" fill="#121212"/>
<path d="M2 8H1.5V8.5H2V8Z" fill="#121212"/>
<path d="M4.5 8H4V8.5H4.5V8Z" fill="#121212"/>
<path d="M5 8H4.5V8.5H5V8Z" fill="#121212"/>
<path d="M5.5 8H5V8.5H5.5V8Z" fill="#121212"/>
<path d="M6 8H5.5V8.5H6V8Z" fill="#121212"/>
<path d="M6.5 8H6V8.5H6.5V8Z" fill="#121212"/>
<path d="M7 8H6.5V8.5H7V8Z" fill="#121212"/>
<path d="M7.5 8H7V8.5H7.5V8Z" fill="#121212"/>
<path d="M8 8H7.5V8.5H8V8Z" fill="#121212"/>
<path d="M8.5 8H8V8.5H8.5V8Z" fill="#121212"/>
<path d="M9 8H8.5V8.5H9V8Z" fill="#121212"/>
<path d="M9.5 8H9V8.5H9.5V8Z" fill="#121212"/>
<path d="M10 8H9.5V8.5H10V8Z" fill="#121212"/>
<path d="M10.5 8H10V8.5H10.5V8Z" fill="#121212"/>
<path d="M11 8H10.5V8.5H11V8Z" fill="#121212"/>
<path d="M11.5 8H11V8.5H11.5V8Z" fill="#121212"/>
<path d="M12 8H11.5V8.5H12V8Z" fill="#121212"/>
<path d="M12.5 8H12V8.5H12.5V8Z" fill="#121212"/>
<path d="M13 8H12.5V8.5H13V8Z" fill="#121212"/>
<path d="M13.5 8H13V8.5H13.5V8Z" fill="#121212"/>
<path d="M14 8H13.5V8.5H14V8Z" fill="#121212"/>
<path d="M14.5 8H14V8.5H14.5V8Z" fill="#121212"/>
<path d="M15 8H14.5V8.5H15V8Z" fill="#121212"/>
<path d="M15.5 8H15V8.5H15.5V8Z" fill="#121212"/>
<path d="M16 8H15.5V8.5H16V8Z" fill="#121212"/>
<path d="M0.5 8.5H0V9H0.5V8.5Z" fill="#121212"/>
<path d="M1 8.5H0.5V9H1V8.5Z" fill="#121212"/>
<path d="M1.5 8.5H1V9H1.5V8.5Z" fill="#121212"/>
<path d="M2 8.5H1.5V9H2V8.5Z" fill="#121212"/>
<path d="M4.5 8.5H4V9H4.5V8.5Z" fill="#121212"/>
<path d="M5 8.5H4.5V9H5V8.5Z" fill="#121212"/>
<path d="M5.5 8.5H5V9H5.5V8.5Z" fill="#121212"/>
<path d="M6 8.5H5.5V9H6V8.5Z" fill="#121212"/>
<path d="M6.5 8.5H6V9H6.5V8.5Z" fill="#121212"/>
<path d="M7 8.5H6.5V9H7V8.5Z" fill="#121212"/>
<path d="M7.5 8.5H7V9H7.5V8.5Z" fill="#121212"/>
<path d="M8 8.5H7.5V9H8V8.5Z" fill="#121212"/>
<path d="M8.5 8.5H8V9H8.5V8.5Z" fill="#121212"/>
<path d="M9 8.5H8.5V9H9V8.5Z" fill="#121212"/>
<path d="M9.5 8.5H9V9H9.5V8.5Z" fill="#121212"/>
<path d="M10 8.5H9.5V9H10V8.5Z" fill="#121212"/>
<path d="M10.5 8.5H10V9H10.5V8.5Z" fill="#121212"/>
<path d="M11 8.5H10.5V9H11V8.5Z" fill="#121212"/>
<path d="M11.5 8.5H11V9H11.5V8.5Z" fill="#121212"/>
<path d="M12 8.5H11.5V9H12V8.5Z" fill="#121212"/>
<path d="M12.5 8.5H12V9H12.5V8.5Z" fill="#121212"/>
<path d="M13 8.5H12.5V9H13V8.5Z" fill="#121212"/>
<path d="M13.5 8.5H13V9H13.5V8.5Z" fill="#121212"/>
<path d="M14 8.5H13.5V9H14V8.5Z" fill="#121212"/>
<path d="M14.5 8.5H14V9H14.5V8.5Z" fill="#121212"/>
<path d="M15 8.5H14.5V9H15V8.5Z" fill="#121212"/>
<path d="M15.5 8.5H15V9H15.5V8.5Z" fill="#121212"/>
<path d="M16 8.5H15.5V9H16V8.5Z" fill="#121212"/>
<path d="M0.5 9H0V9.5H0.5V9Z" fill="#121212"/>
<path d="M1 9H0.5V9.5H1V9Z" fill="#121212"/>
<path d="M1.5 9H1V9.5H1.5V9Z" fill="#121212"/>
<path d="M2 9H1.5V9.5H2V9Z" fill="#121212"/>
<path d="M12.5 9H12V9.5H12.5V9Z" fill="#121212"/>
<path d="M13 9H12.5V9.5H13V9Z" fill="#121212"/>
<path d="M13.5 9H13V9.5H13.5V9Z" fill="#121212"/>
<path d="M14 9H13.5V9.5H14V9Z" fill="#121212"/>
<path d="M0.5 9.5H0V10H0.5V9.5Z" fill="#121212"/>
<path d="M1 9.5H0.5V10H1V9.5Z" fill="#121212"/>
<path d="M1.5 9.5H1V10H1.5V9.5Z" fill="#121212"/>
<path d="M2 9.5H1.5V10H2V9.5Z" fill="#121212"/>
<path d="M12.5 9.5H12V10H12.5V9.5Z" fill="#121212"/>
<path d="M13 9.5H12.5V10H13V9.5Z" fill="#121212"/>
<path d="M13.5 9.5H13V10H13.5V9.5Z" fill="#121212"/>
<path d="M14 9.5H13.5V10H14V9.5Z" fill="#121212"/>
<path d="M0.5 10H0V10.5H0.5V10Z" fill="#121212"/>
<path d="M1 10H0.5V10.5H1V10Z" fill="#121212"/>
<path d="M1.5 10H1V10.5H1.5V10Z" fill="#121212"/>
<path d="M2 10H1.5V10.5H2V10Z" fill="#121212"/>
<path d="M12.5 10H12V10.5H12.5V10Z" fill="#121212"/>
<path d="M13 10H12.5V10.5H13V10Z" fill="#121212"/>
<path d="M13.5 10H13V10.5H13.5V10Z" fill="#121212"/>
<path d="M14 10H13.5V10.5H14V10Z" fill="#121212"/>
<path d="M0.5 10.5H0V11H0.5V10.5Z" fill="#121212"/>
<path d="M1 10.5H0.5V11H1V10.5Z" fill="#121212"/>
<path d="M1.5 10.5H1V11H1.5V10.5Z" fill="#121212"/>
<path d="M2 10.5H1.5V11H2V10.5Z" fill="#121212"/>
<path d="M12.5 10.5H12V11H12.5V10.5Z" fill="#121212"/>
<path d="M13 10.5H12.5V11H13V10.5Z" fill="#121212"/>
<path d="M13.5 10.5H13V11H13.5V10.5Z" fill="#121212"/>
<path d="M14 10.5H13.5V11H14V10.5Z" fill="#121212"/>
<path d="M0.5 11H0V11.5H0.5V11Z" fill="#121212"/>
<path d="M1 11H0.5V11.5H1V11Z" fill="#121212"/>
<path d="M1.5 11H1V11.5H1.5V11Z" fill="#121212"/>
<path d="M2 11H1.5V11.5H2V11Z" fill="#121212"/>
<path d="M10.5 11H10V11.5H10.5V11Z" fill="#121212"/>
<path d="M11 11H10.5V11.5H11V11Z" fill="#121212"/>
<path d="M11.5 11H11V11.5H11.5V11Z" fill="#121212"/>
<path d="M12 11H11.5V11.5H12V11Z" fill="#121212"/>
<path d="M0.5 11.5H0V12H0.5V11.5Z" fill="#121212"/>
<path d="M1 11.5H0.5V12H1V11.5Z" fill="#121212"/>
<path d="M1.5 11.5H1V12H1.5V11.5Z" fill="#121212"/>
<path d="M2 11.5H1.5V12H2V11.5Z" fill="#121212"/>
<path d="M10.5 11.5H10V12H10.5V11.5Z" fill="#121212"/>
<path d="M11 11.5H10.5V12H11V11.5Z" fill="#121212"/>
<path d="M11.5 11.5H11V12H11.5V11.5Z" fill="#121212"/>
<path d="M12 11.5H11.5V12H12V11.5Z" fill="#121212"/>
<path d="M0.5 12H0V12.5H0.5V12Z" fill="#121212"/>
<path d="M1 12H0.5V12.5H1V12Z" fill="#121212"/>
<path d="M1.5 12H1V12.5H1.5V12Z" fill="#121212"/>
<path d="M2 12H1.5V12.5H2V12Z" fill="#121212"/>
<path d="M10.5 12H10V12.5H10.5V12Z" fill="#121212"/>
<path d="M11 12H10.5V12.5H11V12Z" fill="#121212"/>
<path d="M11.5 12H11V12.5H11.5V12Z" fill="#121212"/>
<path d="M12 12H11.5V12.5H12V12Z" fill="#121212"/>
<path d="M0.5 12.5H0V13H0.5V12.5Z" fill="#121212"/>
<path d="M1 12.5H0.5V13H1V12.5Z" fill="#121212"/>
<path d="M1.5 12.5H1V13H1.5V12.5Z" fill="#121212"/>
<path d="M2 12.5H1.5V13H2V12.5Z" fill="#121212"/>
<path d="M10.5 12.5H10V13H10.5V12.5Z" fill="#121212"/>
<path d="M11 12.5H10.5V13H11V12.5Z" fill="#121212"/>
<path d="M11.5 12.5H11V13H11.5V12.5Z" fill="#121212"/>
<path d="M12 12.5H11.5V13H12V12.5Z" fill="#121212"/>
<path d="M0.5 13H0V13.5H0.5V13Z" fill="#121212"/>
<path d="M1 13H0.5V13.5H1V13Z" fill="#121212"/>
<path d="M1.5 13H1V13.5H1.5V13Z" fill="#121212"/>
<path d="M2 13H1.5V13.5H2V13Z" fill="#121212"/>
<path d="M0.5 13.5H0V14H0.5V13.5Z" fill="#121212"/>
<path d="M1 13.5H0.5V14H1V13.5Z" fill="#121212"/>
<path d="M1.5 13.5H1V14H1.5V13.5Z" fill="#121212"/>
<path d="M2 13.5H1.5V14H2V13.5Z" fill="#121212"/>
<path d="M0.5 14H0V14.5H0.5V14Z" fill="#121212"/>
<path d="M1 14H0.5V14.5H1V14Z" fill="#121212"/>
<path d="M1.5 14H1V14.5H1.5V14Z" fill="#121212"/>
<path d="M2 14H1.5V14.5H2V14Z" fill="#121212"/>
<path d="M2.5 14H2V14.5H2.5V14Z" fill="#121212"/>
<path d="M3 14H2.5V14.5H3V14Z" fill="#121212"/>
<path d="M3.5 14H3V14.5H3.5V14Z" fill="#121212"/>
<path d="M4 14H3.5V14.5H4V14Z" fill="#121212"/>
<path d="M4.5 14H4V14.5H4.5V14Z" fill="#121212"/>
<path d="M5 14H4.5V14.5H5V14Z" fill="#121212"/>
<path d="M5.5 14H5V14.5H5.5V14Z" fill="#121212"/>
<path d="M6 14H5.5V14.5H6V14Z" fill="#121212"/>
<path d="M6.5 14H6V14.5H6.5V14Z" fill="#121212"/>
<path d="M7 14H6.5V14.5H7V14Z" fill="#121212"/>
<path d="M7.5 14H7V14.5H7.5V14Z" fill="#121212"/>
<path d="M8 14H7.5V14.5H8V14Z" fill="#121212"/>
<path d="M0.5 14.5H0V15H0.5V14.5Z" fill="#121212"/>
<path d="M1 14.5H0.5V15H1V14.5Z" fill="#121212"/>
<path d="M1.5 14.5H1V15H1.5V14.5Z" fill="#121212"/>
<path d="M2 14.5H1.5V15H2V14.5Z" fill="#121212"/>
<path d="M2.5 14.5H2V15H2.5V14.5Z" fill="#121212"/>
<path d="M3 14.5H2.5V15H3V14.5Z" fill="#121212"/>
<path d="M3.5 14.5H3V15H3.5V14.5Z" fill="#121212"/>
<path d="M4 14.5H3.5V15H4V14.5Z" fill="#121212"/>
<path d="M4.5 14.5H4V15H4.5V14.5Z" fill="#121212"/>
<path d="M5 14.5H4.5V15H5V14.5Z" fill="#121212"/>
<path d="M5.5 14.5H5V15H5.5V14.5Z" fill="#121212"/>
<path d="M6 14.5H5.5V15H6V14.5Z" fill="#121212"/>
<path d="M6.5 14.5H6V15H6.5V14.5Z" fill="#121212"/>
<path d="M7 14.5H6.5V15H7V14.5Z" fill="#121212"/>
<path d="M7.5 14.5H7V15H7.5V14.5Z" fill="#121212"/>
<path d="M8 14.5H7.5V15H8V14.5Z" fill="#121212"/>
<path d="M0.5 15H0V15.5H0.5V15Z" fill="#121212"/>
<path d="M1 15H0.5V15.5H1V15Z" fill="#121212"/>
<path d="M1.5 15H1V15.5H1.5V15Z" fill="#121212"/>
<path d="M2 15H1.5V15.5H2V15Z" fill="#121212"/>
<path d="M2.5 15H2V15.5H2.5V15Z" fill="#121212"/>
<path d="M3 15H2.5V15.5H3V15Z" fill="#121212"/>
<path d="M3.5 15H3V15.5H3.5V15Z" fill="#121212"/>
<path d="M4 15H3.5V15.5H4V15Z" fill="#121212"/>
<path d="M4.5 15H4V15.5H4.5V15Z" fill="#121212"/>
<path d="M5 15H4.5V15.5H5V15Z" fill="#121212"/>
<path d="M5.5 15H5V15.5H5.5V15Z" fill="#121212"/>
<path d="M6 15H5.5V15.5H6V15Z" fill="#121212"/>
<path d="M6.5 15H6V15.5H6.5V15Z" fill="#121212"/>
<path d="M7 15H6.5V15.5H7V15Z" fill="#121212"/>
<path d="M7.5 15H7V15.5H7.5V15Z" fill="#121212"/>
<path d="M8 15H7.5V15.5H8V15Z" fill="#121212"/>
<path d="M0.5 15.5H0V16H0.5V15.5Z" fill="#121212"/>
<path d="M1 15.5H0.5V16H1V15.5Z" fill="#121212"/>
<path d="M1.5 15.5H1V16H1.5V15.5Z" fill="#121212"/>
<path d="M2 15.5H1.5V16H2V15.5Z" fill="#121212"/>
<path d="M2.5 15.5H2V16H2.5V15.5Z" fill="#121212"/>
<path d="M3 15.5H2.5V16H3V15.5Z" fill="#121212"/>
<path d="M3.5 15.5H3V16H3.5V15.5Z" fill="#121212"/>
<path d="M4 15.5H3.5V16H4V15.5Z" fill="#121212"/>
<path d="M4.5 15.5H4V16H4.5V15.5Z" fill="#121212"/>
<path d="M5 15.5H4.5V16H5V15.5Z" fill="#121212"/>
<path d="M5.5 15.5H5V16H5.5V15.5Z" fill="#121212"/>
<path d="M6 15.5H5.5V16H6V15.5Z" fill="#121212"/>
<path d="M6.5 15.5H6V16H6.5V15.5Z" fill="#121212"/>
<path d="M7 15.5H6.5V16H7V15.5Z" fill="#121212"/>
<path d="M7.5 15.5H7V16H7.5V15.5Z" fill="#121212"/>
<path d="M8 15.5H7.5V16H8V15.5Z" fill="#121212"/>
</g>
<defs>
<clipPath id="clip0_2437_599">
<rect width="16" height="16" fill="white"/>
</clipPath>
</defs>
</svg>
