<svg width="16" height="16" fill="none" xmlns="http://www.w3.org/2000/svg">
    <path d="M7.25 0H7v.25h.25V0ZM7.5 0h-.25v.25h.25V0ZM7.75 0H7.5v.25h.25V0ZM8 0h-.25v.25H8V0ZM8.25 0H8v.25h.25V0ZM8.5 0h-.25v.25h.25V0ZM8.75 0H8.5v.25h.25V0ZM9 0h-.25v.25H9V0ZM7.25.25H7V.5h.25V.25ZM7.5.25h-.25V.5h.25V.25ZM7.75.25H7.5V.5h.25V.25ZM8 .25h-.25V.5H8V.25ZM8.25.25H8V.5h.25V.25ZM8.5.25h-.25V.5h.25V.25ZM8.75.25H8.5V.5h.25V.25ZM9 .25h-.25V.5H9V.25ZM7.25.5H7v.25h.25V.5ZM7.5.5h-.25v.25h.25V.5ZM7.75.5H7.5v.25h.25V.5ZM8 .5h-.25v.25H8V.5ZM8.25.5H8v.25h.25V.5ZM8.5.5h-.25v.25h.25V.5ZM8.75.5H8.5v.25h.25V.5ZM9 .5h-.25v.25H9V.5ZM7.25.75H7V1h.25V.75ZM7.5.75h-.25V1h.25V.75ZM7.75.75H7.5V1h.25V.75ZM8 .75h-.25V1H8V.75ZM8.25.75H8V1h.25V.75ZM8.5.75h-.25V1h.25V.75ZM8.75.75H8.5V1h.25V.75ZM9 .75h-.25V1H9V.75ZM5.25 1H5v.25h.25V1ZM5.5 1h-.25v.25h.25V1ZM5.75 1H5.5v.25h.25V1ZM6 1h-.25v.25H6V1ZM6.25 1H6v.25h.25V1ZM6.5 1h-.25v.25h.25V1ZM6.75 1H6.5v.25h.25V1ZM7 1h-.25v.25H7V1ZM7.25 1H7v.25h.25V1ZM7.5 1h-.25v.25h.25V1ZM7.75 1H7.5v.25h.25V1ZM8 1h-.25v.25H8V1ZM8.25 1H8v.25h.25V1ZM8.5 1h-.25v.25h.25V1ZM8.75 1H8.5v.25h.25V1ZM9 1h-.25v.25H9V1ZM9.25 1H9v.25h.25V1ZM9.5 1h-.25v.25h.25V1ZM9.75 1H9.5v.25h.25V1ZM10 1h-.25v.25H10V1ZM10.25 1H10v.25h.25V1ZM10.5 1h-.25v.25h.25V1ZM10.75 1h-.25v.25h.25V1ZM11 1h-.25v.25H11V1ZM5.25 1.25H5v.25h.25v-.25ZM5.5 1.25h-.25v.25h.25v-.25ZM5.75 1.25H5.5v.25h.25v-.25ZM6 1.25h-.25v.25H6v-.25ZM6.25 1.25H6v.25h.25v-.25ZM6.5 1.25h-.25v.25h.25v-.25ZM6.75 1.25H6.5v.25h.25v-.25ZM7 1.25h-.25v.25H7v-.25ZM7.25 1.25H7v.25h.25v-.25ZM7.5 1.25h-.25v.25h.25v-.25ZM7.75 1.25H7.5v.25h.25v-.25ZM8 1.25h-.25v.25H8v-.25ZM8.25 1.25H8v.25h.25v-.25ZM8.5 1.25h-.25v.25h.25v-.25ZM8.75 1.25H8.5v.25h.25v-.25ZM9 1.25h-.25v.25H9v-.25ZM9.25 1.25H9v.25h.25v-.25ZM9.5 1.25h-.25v.25h.25v-.25ZM9.75 1.25H9.5v.25h.25v-.25ZM10 1.25h-.25v.25H10v-.25ZM10.25 1.25H10v.25h.25v-.25ZM10.5 1.25h-.25v.25h.25v-.25ZM10.75 1.25h-.25v.25h.25v-.25ZM11 1.25h-.25v.25H11v-.25ZM5.25 1.5H5v.25h.25V1.5ZM5.5 1.5h-.25v.25h.25V1.5ZM5.75 1.5H5.5v.25h.25V1.5ZM6 1.5h-.25v.25H6V1.5ZM6.25 1.5H6v.25h.25V1.5ZM6.5 1.5h-.25v.25h.25V1.5ZM6.75 1.5H6.5v.25h.25V1.5ZM7 1.5h-.25v.25H7V1.5ZM7.25 1.5H7v.25h.25V1.5ZM7.5 1.5h-.25v.25h.25V1.5ZM7.75 1.5H7.5v.25h.25V1.5ZM8 1.5h-.25v.25H8V1.5ZM8.25 1.5H8v.25h.25V1.5ZM8.5 1.5h-.25v.25h.25V1.5ZM8.75 1.5H8.5v.25h.25V1.5ZM9 1.5h-.25v.25H9V1.5ZM9.25 1.5H9v.25h.25V1.5ZM9.5 1.5h-.25v.25h.25V1.5ZM9.75 1.5H9.5v.25h.25V1.5ZM10 1.5h-.25v.25H10V1.5ZM10.25 1.5H10v.25h.25V1.5ZM10.5 1.5h-.25v.25h.25V1.5ZM10.75 1.5h-.25v.25h.25V1.5ZM11 1.5h-.25v.25H11V1.5ZM5.25 1.75H5V2h.25v-.25ZM5.5 1.75h-.25V2h.25v-.25ZM5.75 1.75H5.5V2h.25v-.25ZM6 1.75h-.25V2H6v-.25ZM6.25 1.75H6V2h.25v-.25ZM6.5 1.75h-.25V2h.25v-.25ZM6.75 1.75H6.5V2h.25v-.25ZM7 1.75h-.25V2H7v-.25ZM7.25 1.75H7V2h.25v-.25ZM7.5 1.75h-.25V2h.25v-.25ZM7.75 1.75H7.5V2h.25v-.25ZM8 1.75h-.25V2H8v-.25ZM8.25 1.75H8V2h.25v-.25ZM8.5 1.75h-.25V2h.25v-.25ZM8.75 1.75H8.5V2h.25v-.25ZM9 1.75h-.25V2H9v-.25ZM9.25 1.75H9V2h.25v-.25ZM9.5 1.75h-.25V2h.25v-.25ZM9.75 1.75H9.5V2h.25v-.25ZM10 1.75h-.25V2H10v-.25ZM10.25 1.75H10V2h.25v-.25ZM10.5 1.75h-.25V2h.25v-.25ZM10.75 1.75h-.25V2h.25v-.25ZM11 1.75h-.25V2H11v-.25ZM3.25 2H3v.25h.25V2ZM3.5 2h-.25v.25h.25V2ZM3.75 2H3.5v.25h.25V2ZM4 2h-.25v.25H4V2ZM4.25 2H4v.25h.25V2ZM4.5 2h-.25v.25h.25V2ZM4.75 2H4.5v.25h.25V2ZM5 2h-.25v.25H5V2ZM5.25 2H5v.25h.25V2ZM5.5 2h-.25v.25h.25V2ZM5.75 2H5.5v.25h.25V2ZM6 2h-.25v.25H6V2ZM6.25 2H6v.25h.25V2ZM6.5 2h-.25v.25h.25V2ZM6.75 2H6.5v.25h.25V2ZM7 2h-.25v.25H7V2ZM7.25 2H7v.25h.25V2ZM7.5 2h-.25v.25h.25V2ZM7.75 2H7.5v.25h.25V2ZM8 2h-.25v.25H8V2ZM8.25 2H8v.25h.25V2ZM8.5 2h-.25v.25h.25V2ZM8.75 2H8.5v.25h.25V2ZM9 2h-.25v.25H9V2ZM9.25 2H9v.25h.25V2ZM9.5 2h-.25v.25h.25V2ZM9.75 2H9.5v.25h.25V2ZM10 2h-.25v.25H10V2ZM10.25 2H10v.25h.25V2ZM10.5 2h-.25v.25h.25V2ZM10.75 2h-.25v.25h.25V2ZM11 2h-.25v.25H11V2ZM11.25 2H11v.25h.25V2ZM11.5 2h-.25v.25h.25V2ZM11.75 2h-.25v.25h.25V2ZM12 2h-.25v.25H12V2ZM12.25 2H12v.25h.25V2ZM12.5 2h-.25v.25h.25V2ZM12.75 2h-.25v.25h.25V2ZM13 2h-.25v.25H13V2ZM3.25 2.25H3v.25h.25v-.25ZM3.5 2.25h-.25v.25h.25v-.25ZM3.75 2.25H3.5v.25h.25v-.25ZM4 2.25h-.25v.25H4v-.25ZM4.25 2.25H4v.25h.25v-.25ZM4.5 2.25h-.25v.25h.25v-.25ZM4.75 2.25H4.5v.25h.25v-.25ZM5 2.25h-.25v.25H5v-.25ZM5.25 2.25H5v.25h.25v-.25ZM5.5 2.25h-.25v.25h.25v-.25ZM5.75 2.25H5.5v.25h.25v-.25ZM6 2.25h-.25v.25H6v-.25ZM6.25 2.25H6v.25h.25v-.25ZM6.5 2.25h-.25v.25h.25v-.25ZM6.75 2.25H6.5v.25h.25v-.25ZM7 2.25h-.25v.25H7v-.25ZM7.25 2.25H7v.25h.25v-.25ZM7.5 2.25h-.25v.25h.25v-.25ZM7.75 2.25H7.5v.25h.25v-.25ZM8 2.25h-.25v.25H8v-.25ZM8.25 2.25H8v.25h.25v-.25ZM8.5 2.25h-.25v.25h.25v-.25ZM8.75 2.25H8.5v.25h.25v-.25ZM9 2.25h-.25v.25H9v-.25ZM9.25 2.25H9v.25h.25v-.25ZM9.5 2.25h-.25v.25h.25v-.25ZM9.75 2.25H9.5v.25h.25v-.25ZM10 2.25h-.25v.25H10v-.25ZM10.25 2.25H10v.25h.25v-.25ZM10.5 2.25h-.25v.25h.25v-.25ZM10.75 2.25h-.25v.25h.25v-.25ZM11 2.25h-.25v.25H11v-.25ZM11.25 2.25H11v.25h.25v-.25ZM11.5 2.25h-.25v.25h.25v-.25ZM11.75 2.25h-.25v.25h.25v-.25ZM12 2.25h-.25v.25H12v-.25ZM12.25 2.25H12v.25h.25v-.25ZM12.5 2.25h-.25v.25h.25v-.25ZM12.75 2.25h-.25v.25h.25v-.25ZM13 2.25h-.25v.25H13v-.25ZM3.25 2.5H3v.25h.25V2.5ZM3.5 2.5h-.25v.25h.25V2.5ZM3.75 2.5H3.5v.25h.25V2.5ZM4 2.5h-.25v.25H4V2.5ZM4.25 2.5H4v.25h.25V2.5ZM4.5 2.5h-.25v.25h.25V2.5ZM4.75 2.5H4.5v.25h.25V2.5ZM5 2.5h-.25v.25H5V2.5ZM5.25 2.5H5v.25h.25V2.5ZM5.5 2.5h-.25v.25h.25V2.5ZM5.75 2.5H5.5v.25h.25V2.5ZM6 2.5h-.25v.25H6V2.5ZM6.25 2.5H6v.25h.25V2.5ZM6.5 2.5h-.25v.25h.25V2.5ZM6.75 2.5H6.5v.25h.25V2.5ZM7 2.5h-.25v.25H7V2.5ZM7.25 2.5H7v.25h.25V2.5ZM7.5 2.5h-.25v.25h.25V2.5ZM7.75 2.5H7.5v.25h.25V2.5ZM8 2.5h-.25v.25H8V2.5ZM8.25 2.5H8v.25h.25V2.5ZM8.5 2.5h-.25v.25h.25V2.5ZM8.75 2.5H8.5v.25h.25V2.5ZM9 2.5h-.25v.25H9V2.5ZM9.25 2.5H9v.25h.25V2.5ZM9.5 2.5h-.25v.25h.25V2.5ZM9.75 2.5H9.5v.25h.25V2.5ZM10 2.5h-.25v.25H10V2.5ZM10.25 2.5H10v.25h.25V2.5ZM10.5 2.5h-.25v.25h.25V2.5ZM10.75 2.5h-.25v.25h.25V2.5ZM11 2.5h-.25v.25H11V2.5ZM11.25 2.5H11v.25h.25V2.5ZM11.5 2.5h-.25v.25h.25V2.5ZM11.75 2.5h-.25v.25h.25V2.5ZM12 2.5h-.25v.25H12V2.5ZM12.25 2.5H12v.25h.25V2.5ZM12.5 2.5h-.25v.25h.25V2.5ZM12.75 2.5h-.25v.25h.25V2.5ZM13 2.5h-.25v.25H13V2.5ZM3.25 2.75H3V3h.25v-.25ZM3.5 2.75h-.25V3h.25v-.25ZM3.75 2.75H3.5V3h.25v-.25ZM4 2.75h-.25V3H4v-.25ZM4.25 2.75H4V3h.25v-.25ZM4.5 2.75h-.25V3h.25v-.25ZM4.75 2.75H4.5V3h.25v-.25ZM5 2.75h-.25V3H5v-.25ZM5.25 2.75H5V3h.25v-.25ZM5.5 2.75h-.25V3h.25v-.25ZM5.75 2.75H5.5V3h.25v-.25ZM6 2.75h-.25V3H6v-.25ZM6.25 2.75H6V3h.25v-.25ZM6.5 2.75h-.25V3h.25v-.25ZM6.75 2.75H6.5V3h.25v-.25ZM7 2.75h-.25V3H7v-.25ZM7.25 2.75H7V3h.25v-.25ZM7.5 2.75h-.25V3h.25v-.25ZM7.75 2.75H7.5V3h.25v-.25ZM8 2.75h-.25V3H8v-.25ZM8.25 2.75H8V3h.25v-.25ZM8.5 2.75h-.25V3h.25v-.25ZM8.75 2.75H8.5V3h.25v-.25ZM9 2.75h-.25V3H9v-.25ZM9.25 2.75H9V3h.25v-.25ZM9.5 2.75h-.25V3h.25v-.25ZM9.75 2.75H9.5V3h.25v-.25ZM10 2.75h-.25V3H10v-.25ZM10.25 2.75H10V3h.25v-.25ZM10.5 2.75h-.25V3h.25v-.25ZM10.75 2.75h-.25V3h.25v-.25ZM11 2.75h-.25V3H11v-.25ZM11.25 2.75H11V3h.25v-.25ZM11.5 2.75h-.25V3h.25v-.25ZM11.75 2.75h-.25V3h.25v-.25ZM12 2.75h-.25V3H12v-.25ZM12.25 2.75H12V3h.25v-.25ZM12.5 2.75h-.25V3h.25v-.25ZM12.75 2.75h-.25V3h.25v-.25ZM13 2.75h-.25V3H13v-.25ZM1.25 3H1v.25h.25V3ZM1.5 3h-.25v.25h.25V3ZM1.75 3H1.5v.25h.25V3ZM2 3h-.25v.25H2V3ZM2.25 3H2v.25h.25V3ZM2.5 3h-.25v.25h.25V3ZM2.75 3H2.5v.25h.25V3ZM3 3h-.25v.25H3V3ZM3.25 3H3v.25h.25V3ZM3.5 3h-.25v.25h.25V3ZM3.75 3H3.5v.25h.25V3ZM4 3h-.25v.25H4V3ZM4.25 3H4v.25h.25V3ZM4.5 3h-.25v.25h.25V3ZM4.75 3H4.5v.25h.25V3ZM5 3h-.25v.25H5V3ZM5.25 3H5v.25h.25V3ZM5.5 3h-.25v.25h.25V3ZM5.75 3H5.5v.25h.25V3ZM6 3h-.25v.25H6V3ZM6.25 3H6v.25h.25V3ZM6.5 3h-.25v.25h.25V3ZM6.75 3H6.5v.25h.25V3ZM7 3h-.25v.25H7V3ZM7.25 3H7v.25h.25V3ZM7.5 3h-.25v.25h.25V3ZM7.75 3H7.5v.25h.25V3ZM8 3h-.25v.25H8V3ZM8.25 3H8v.25h.25V3ZM8.5 3h-.25v.25h.25V3ZM8.75 3H8.5v.25h.25V3ZM9 3h-.25v.25H9V3ZM9.25 3H9v.25h.25V3ZM9.5 3h-.25v.25h.25V3ZM9.75 3H9.5v.25h.25V3ZM10 3h-.25v.25H10V3ZM10.25 3H10v.25h.25V3ZM10.5 3h-.25v.25h.25V3ZM10.75 3h-.25v.25h.25V3ZM11 3h-.25v.25H11V3ZM11.25 3H11v.25h.25V3ZM11.5 3h-.25v.25h.25V3ZM11.75 3h-.25v.25h.25V3ZM12 3h-.25v.25H12V3ZM12.25 3H12v.25h.25V3ZM12.5 3h-.25v.25h.25V3ZM12.75 3h-.25v.25h.25V3ZM13 3h-.25v.25H13V3ZM13.25 3H13v.25h.25V3ZM13.5 3h-.25v.25h.25V3ZM13.75 3h-.25v.25h.25V3ZM14 3h-.25v.25H14V3ZM14.25 3H14v.25h.25V3ZM14.5 3h-.25v.25h.25V3ZM14.75 3h-.25v.25h.25V3ZM15 3h-.25v.25H15V3ZM1.25 3.25H1v.25h.25v-.25ZM1.5 3.25h-.25v.25h.25v-.25ZM1.75 3.25H1.5v.25h.25v-.25ZM2 3.25h-.25v.25H2v-.25ZM2.25 3.25H2v.25h.25v-.25ZM2.5 3.25h-.25v.25h.25v-.25ZM2.75 3.25H2.5v.25h.25v-.25ZM3 3.25h-.25v.25H3v-.25ZM3.25 3.25H3v.25h.25v-.25ZM3.5 3.25h-.25v.25h.25v-.25ZM3.75 3.25H3.5v.25h.25v-.25ZM4 3.25h-.25v.25H4v-.25ZM4.25 3.25H4v.25h.25v-.25ZM4.5 3.25h-.25v.25h.25v-.25ZM4.75 3.25H4.5v.25h.25v-.25ZM5 3.25h-.25v.25H5v-.25ZM5.25 3.25H5v.25h.25v-.25ZM5.5 3.25h-.25v.25h.25v-.25ZM5.75 3.25H5.5v.25h.25v-.25ZM6 3.25h-.25v.25H6v-.25ZM6.25 3.25H6v.25h.25v-.25ZM6.5 3.25h-.25v.25h.25v-.25ZM6.75 3.25H6.5v.25h.25v-.25ZM7 3.25h-.25v.25H7v-.25ZM7.25 3.25H7v.25h.25v-.25ZM7.5 3.25h-.25v.25h.25v-.25ZM7.75 3.25H7.5v.25h.25v-.25ZM8 3.25h-.25v.25H8v-.25ZM8.25 3.25H8v.25h.25v-.25ZM8.5 3.25h-.25v.25h.25v-.25ZM8.75 3.25H8.5v.25h.25v-.25ZM9 3.25h-.25v.25H9v-.25ZM9.25 3.25H9v.25h.25v-.25ZM9.5 3.25h-.25v.25h.25v-.25ZM9.75 3.25H9.5v.25h.25v-.25ZM10 3.25h-.25v.25H10v-.25ZM10.25 3.25H10v.25h.25v-.25ZM10.5 3.25h-.25v.25h.25v-.25ZM10.75 3.25h-.25v.25h.25v-.25ZM11 3.25h-.25v.25H11v-.25ZM11.25 3.25H11v.25h.25v-.25ZM11.5 3.25h-.25v.25h.25v-.25ZM11.75 3.25h-.25v.25h.25v-.25ZM12 3.25h-.25v.25H12v-.25ZM12.25 3.25H12v.25h.25v-.25ZM12.5 3.25h-.25v.25h.25v-.25ZM12.75 3.25h-.25v.25h.25v-.25ZM13 3.25h-.25v.25H13v-.25ZM13.25 3.25H13v.25h.25v-.25ZM13.5 3.25h-.25v.25h.25v-.25ZM13.75 3.25h-.25v.25h.25v-.25ZM14 3.25h-.25v.25H14v-.25ZM14.25 3.25H14v.25h.25v-.25ZM14.5 3.25h-.25v.25h.25v-.25ZM14.75 3.25h-.25v.25h.25v-.25ZM15 3.25h-.25v.25H15v-.25ZM1.25 3.5H1v.25h.25V3.5ZM1.5 3.5h-.25v.25h.25V3.5ZM1.75 3.5H1.5v.25h.25V3.5ZM2 3.5h-.25v.25H2V3.5ZM2.25 3.5H2v.25h.25V3.5ZM2.5 3.5h-.25v.25h.25V3.5ZM2.75 3.5H2.5v.25h.25V3.5ZM3 3.5h-.25v.25H3V3.5ZM3.25 3.5H3v.25h.25V3.5ZM3.5 3.5h-.25v.25h.25V3.5ZM3.75 3.5H3.5v.25h.25V3.5ZM4 3.5h-.25v.25H4V3.5ZM4.25 3.5H4v.25h.25V3.5ZM4.5 3.5h-.25v.25h.25V3.5ZM4.75 3.5H4.5v.25h.25V3.5ZM5 3.5h-.25v.25H5V3.5ZM5.25 3.5H5v.25h.25V3.5ZM5.5 3.5h-.25v.25h.25V3.5ZM5.75 3.5H5.5v.25h.25V3.5ZM6 3.5h-.25v.25H6V3.5ZM6.25 3.5H6v.25h.25V3.5ZM6.5 3.5h-.25v.25h.25V3.5ZM6.75 3.5H6.5v.25h.25V3.5ZM7 3.5h-.25v.25H7V3.5ZM7.25 3.5H7v.25h.25V3.5ZM7.5 3.5h-.25v.25h.25V3.5ZM7.75 3.5H7.5v.25h.25V3.5ZM8 3.5h-.25v.25H8V3.5ZM8.25 3.5H8v.25h.25V3.5ZM8.5 3.5h-.25v.25h.25V3.5ZM8.75 3.5H8.5v.25h.25V3.5ZM9 3.5h-.25v.25H9V3.5ZM9.25 3.5H9v.25h.25V3.5ZM9.5 3.5h-.25v.25h.25V3.5ZM9.75 3.5H9.5v.25h.25V3.5ZM10 3.5h-.25v.25H10V3.5ZM10.25 3.5H10v.25h.25V3.5ZM10.5 3.5h-.25v.25h.25V3.5ZM10.75 3.5h-.25v.25h.25V3.5ZM11 3.5h-.25v.25H11V3.5ZM11.25 3.5H11v.25h.25V3.5ZM11.5 3.5h-.25v.25h.25V3.5ZM11.75 3.5h-.25v.25h.25V3.5ZM12 3.5h-.25v.25H12V3.5ZM12.25 3.5H12v.25h.25V3.5ZM12.5 3.5h-.25v.25h.25V3.5ZM12.75 3.5h-.25v.25h.25V3.5ZM13 3.5h-.25v.25H13V3.5ZM13.25 3.5H13v.25h.25V3.5ZM13.5 3.5h-.25v.25h.25V3.5ZM13.75 3.5h-.25v.25h.25V3.5ZM14 3.5h-.25v.25H14V3.5ZM14.25 3.5H14v.25h.25V3.5ZM14.5 3.5h-.25v.25h.25V3.5ZM14.75 3.5h-.25v.25h.25V3.5ZM15 3.5h-.25v.25H15V3.5ZM1.25 3.75H1V4h.25v-.25ZM1.5 3.75h-.25V4h.25v-.25ZM1.75 3.75H1.5V4h.25v-.25ZM2 3.75h-.25V4H2v-.25ZM2.25 3.75H2V4h.25v-.25ZM2.5 3.75h-.25V4h.25v-.25ZM2.75 3.75H2.5V4h.25v-.25ZM3 3.75h-.25V4H3v-.25ZM3.25 3.75H3V4h.25v-.25ZM3.5 3.75h-.25V4h.25v-.25ZM3.75 3.75H3.5V4h.25v-.25ZM4 3.75h-.25V4H4v-.25ZM4.25 3.75H4V4h.25v-.25ZM4.5 3.75h-.25V4h.25v-.25ZM4.75 3.75H4.5V4h.25v-.25ZM5 3.75h-.25V4H5v-.25ZM5.25 3.75H5V4h.25v-.25ZM5.5 3.75h-.25V4h.25v-.25ZM5.75 3.75H5.5V4h.25v-.25ZM6 3.75h-.25V4H6v-.25ZM6.25 3.75H6V4h.25v-.25ZM6.5 3.75h-.25V4h.25v-.25ZM6.75 3.75H6.5V4h.25v-.25ZM7 3.75h-.25V4H7v-.25ZM7.25 3.75H7V4h.25v-.25ZM7.5 3.75h-.25V4h.25v-.25ZM8.75 3.75H8.5V4h.25v-.25ZM9 3.75h-.25V4H9v-.25ZM9.25 3.75H9V4h.25v-.25ZM9.5 3.75h-.25V4h.25v-.25ZM9.75 3.75H9.5V4h.25v-.25ZM10 3.75h-.25V4H10v-.25ZM10.25 3.75H10V4h.25v-.25ZM10.5 3.75h-.25V4h.25v-.25ZM10.75 3.75h-.25V4h.25v-.25ZM11 3.75h-.25V4H11v-.25ZM11.25 3.75H11V4h.25v-.25ZM11.5 3.75h-.25V4h.25v-.25ZM11.75 3.75h-.25V4h.25v-.25ZM12 3.75h-.25V4H12v-.25ZM12.25 3.75H12V4h.25v-.25ZM12.5 3.75h-.25V4h.25v-.25ZM12.75 3.75h-.25V4h.25v-.25ZM13 3.75h-.25V4H13v-.25ZM13.25 3.75H13V4h.25v-.25ZM13.5 3.75h-.25V4h.25v-.25ZM13.75 3.75h-.25V4h.25v-.25ZM14 3.75h-.25V4H14v-.25ZM14.25 3.75H14V4h.25v-.25ZM14.5 3.75h-.25V4h.25v-.25ZM14.75 3.75h-.25V4h.25v-.25ZM15 3.75h-.25V4H15v-.25ZM.25 4H0v.25h.25V4ZM.5 4H.25v.25H.5V4ZM.75 4H.5v.25h.25V4ZM1 4H.75v.25H1V4ZM1.25 4H1v.25h.25V4ZM1.5 4h-.25v.25h.25V4ZM1.75 4H1.5v.25h.25V4ZM2 4h-.25v.25H2V4ZM2.25 4H2v.25h.25V4ZM2.5 4h-.25v.25h.25V4ZM2.75 4H2.5v.25h.25V4ZM3 4h-.25v.25H3V4ZM3.25 4H3v.25h.25V4ZM3.5 4h-.25v.25h.25V4ZM3.75 4H3.5v.25h.25V4ZM4 4h-.25v.25H4V4ZM4.25 4H4v.25h.25V4ZM4.5 4h-.25v.25h.25V4ZM4.75 4H4.5v.25h.25V4ZM5 4h-.25v.25H5V4ZM5.25 4H5v.25h.25V4ZM5.5 4h-.25v.25h.25V4ZM5.75 4H5.5v.25h.25V4ZM6 4h-.25v.25H6V4ZM6.25 4H6v.25h.25V4ZM6.5 4h-.25v.25h.25V4ZM6.75 4H6.5v.25h.25V4ZM7 4h-.25v.25H7V4ZM7.25 4H7v.25h.25V4ZM7.5 4h-.25v.25h.25V4ZM8.75 4H8.5v.25h.25V4ZM9 4h-.25v.25H9V4ZM9.25 4H9v.25h.25V4ZM9.5 4h-.25v.25h.25V4ZM9.75 4H9.5v.25h.25V4ZM10 4h-.25v.25H10V4ZM10.25 4H10v.25h.25V4ZM10.5 4h-.25v.25h.25V4ZM10.75 4h-.25v.25h.25V4ZM11 4h-.25v.25H11V4ZM11.25 4H11v.25h.25V4ZM11.5 4h-.25v.25h.25V4ZM11.75 4h-.25v.25h.25V4ZM12 4h-.25v.25H12V4ZM12.25 4H12v.25h.25V4ZM12.5 4h-.25v.25h.25V4ZM12.75 4h-.25v.25h.25V4ZM13 4h-.25v.25H13V4ZM13.25 4H13v.25h.25V4ZM13.5 4h-.25v.25h.25V4ZM13.75 4h-.25v.25h.25V4ZM14 4h-.25v.25H14V4ZM14.25 4H14v.25h.25V4ZM14.5 4h-.25v.25h.25V4ZM14.75 4h-.25v.25h.25V4ZM15 4h-.25v.25H15V4ZM15.25 4H15v.25h.25V4ZM15.5 4h-.25v.25h.25V4ZM15.75 4h-.25v.25h.25V4ZM16 4h-.25v.25H16V4ZM.25 4.25H0v.25h.25v-.25ZM.5 4.25H.25v.25H.5v-.25ZM.75 4.25H.5v.25h.25v-.25ZM1 4.25H.75v.25H1v-.25ZM1.25 4.25H1v.25h.25v-.25ZM1.5 4.25h-.25v.25h.25v-.25ZM1.75 4.25H1.5v.25h.25v-.25ZM2 4.25h-.25v.25H2v-.25ZM2.25 4.25H2v.25h.25v-.25ZM2.5 4.25h-.25v.25h.25v-.25ZM2.75 4.25H2.5v.25h.25v-.25ZM3 4.25h-.25v.25H3v-.25ZM3.25 4.25H3v.25h.25v-.25ZM3.5 4.25h-.25v.25h.25v-.25ZM3.75 4.25H3.5v.25h.25v-.25ZM4 4.25h-.25v.25H4v-.25ZM4.25 4.25H4v.25h.25v-.25ZM4.5 4.25h-.25v.25h.25v-.25ZM4.75 4.25H4.5v.25h.25v-.25ZM5 4.25h-.25v.25H5v-.25ZM5.25 4.25H5v.25h.25v-.25ZM5.5 4.25h-.25v.25h.25v-.25ZM5.75 4.25H5.5v.25h.25v-.25ZM6 4.25h-.25v.25H6v-.25ZM6.25 4.25H6v.25h.25v-.25ZM6.5 4.25h-.25v.25h.25v-.25ZM6.75 4.25H6.5v.25h.25v-.25ZM7 4.25h-.25v.25H7v-.25ZM7.25 4.25H7v.25h.25v-.25ZM7.5 4.25h-.25v.25h.25v-.25ZM8.75 4.25H8.5v.25h.25v-.25ZM9 4.25h-.25v.25H9v-.25ZM9.25 4.25H9v.25h.25v-.25ZM9.5 4.25h-.25v.25h.25v-.25ZM9.75 4.25H9.5v.25h.25v-.25ZM10 4.25h-.25v.25H10v-.25ZM10.25 4.25H10v.25h.25v-.25ZM10.5 4.25h-.25v.25h.25v-.25ZM10.75 4.25h-.25v.25h.25v-.25ZM11 4.25h-.25v.25H11v-.25ZM11.25 4.25H11v.25h.25v-.25ZM11.5 4.25h-.25v.25h.25v-.25ZM11.75 4.25h-.25v.25h.25v-.25ZM12 4.25h-.25v.25H12v-.25ZM12.25 4.25H12v.25h.25v-.25ZM12.5 4.25h-.25v.25h.25v-.25ZM12.75 4.25h-.25v.25h.25v-.25ZM13 4.25h-.25v.25H13v-.25ZM13.25 4.25H13v.25h.25v-.25ZM13.5 4.25h-.25v.25h.25v-.25ZM13.75 4.25h-.25v.25h.25v-.25ZM14 4.25h-.25v.25H14v-.25ZM14.25 4.25H14v.25h.25v-.25ZM14.5 4.25h-.25v.25h.25v-.25ZM14.75 4.25h-.25v.25h.25v-.25ZM15 4.25h-.25v.25H15v-.25ZM15.25 4.25H15v.25h.25v-.25ZM15.5 4.25h-.25v.25h.25v-.25ZM15.75 4.25h-.25v.25h.25v-.25ZM16 4.25h-.25v.25H16v-.25ZM.25 4.5H0v.25h.25V4.5ZM.5 4.5H.25v.25H.5V4.5ZM.75 4.5H.5v.25h.25V4.5ZM1 4.5H.75v.25H1V4.5ZM1.25 4.5H1v.25h.25V4.5ZM1.5 4.5h-.25v.25h.25V4.5ZM1.75 4.5H1.5v.25h.25V4.5ZM2 4.5h-.25v.25H2V4.5ZM2.25 4.5H2v.25h.25V4.5ZM2.5 4.5h-.25v.25h.25V4.5ZM2.75 4.5H2.5v.25h.25V4.5ZM3 4.5h-.25v.25H3V4.5ZM3.25 4.5H3v.25h.25V4.5ZM3.5 4.5h-.25v.25h.25V4.5ZM3.75 4.5H3.5v.25h.25V4.5ZM4 4.5h-.25v.25H4V4.5ZM4.25 4.5H4v.25h.25V4.5ZM4.5 4.5h-.25v.25h.25V4.5ZM4.75 4.5H4.5v.25h.25V4.5ZM5 4.5h-.25v.25H5V4.5ZM5.25 4.5H5v.25h.25V4.5ZM5.5 4.5h-.25v.25h.25V4.5ZM5.75 4.5H5.5v.25h.25V4.5ZM6 4.5h-.25v.25H6V4.5ZM6.25 4.5H6v.25h.25V4.5ZM6.5 4.5h-.25v.25h.25V4.5ZM6.75 4.5H6.5v.25h.25V4.5ZM7 4.5h-.25v.25H7V4.5ZM7.25 4.5H7v.25h.25V4.5ZM7.5 4.5h-.25v.25h.25V4.5ZM8.75 4.5H8.5v.25h.25V4.5ZM9 4.5h-.25v.25H9V4.5ZM9.25 4.5H9v.25h.25V4.5ZM9.5 4.5h-.25v.25h.25V4.5ZM9.75 4.5H9.5v.25h.25V4.5ZM10 4.5h-.25v.25H10V4.5ZM10.25 4.5H10v.25h.25V4.5ZM10.5 4.5h-.25v.25h.25V4.5ZM10.75 4.5h-.25v.25h.25V4.5ZM11 4.5h-.25v.25H11V4.5ZM11.25 4.5H11v.25h.25V4.5ZM11.5 4.5h-.25v.25h.25V4.5ZM11.75 4.5h-.25v.25h.25V4.5ZM12 4.5h-.25v.25H12V4.5ZM12.25 4.5H12v.25h.25V4.5ZM12.5 4.5h-.25v.25h.25V4.5ZM12.75 4.5h-.25v.25h.25V4.5ZM13 4.5h-.25v.25H13V4.5ZM13.25 4.5H13v.25h.25V4.5ZM13.5 4.5h-.25v.25h.25V4.5ZM13.75 4.5h-.25v.25h.25V4.5ZM14 4.5h-.25v.25H14V4.5ZM14.25 4.5H14v.25h.25V4.5ZM14.5 4.5h-.25v.25h.25V4.5ZM14.75 4.5h-.25v.25h.25V4.5ZM15 4.5h-.25v.25H15V4.5ZM15.25 4.5H15v.25h.25V4.5ZM15.5 4.5h-.25v.25h.25V4.5ZM15.75 4.5h-.25v.25h.25V4.5ZM16 4.5h-.25v.25H16V4.5ZM.25 4.75H0V5h.25v-.25ZM.5 4.75H.25V5H.5v-.25ZM.75 4.75H.5V5h.25v-.25ZM1 4.75H.75V5H1v-.25ZM1.25 4.75H1V5h.25v-.25ZM1.5 4.75h-.25V5h.25v-.25ZM1.75 4.75H1.5V5h.25v-.25ZM2 4.75h-.25V5H2v-.25ZM2.25 4.75H2V5h.25v-.25ZM2.5 4.75h-.25V5h.25v-.25ZM2.75 4.75H2.5V5h.25v-.25ZM3 4.75h-.25V5H3v-.25ZM3.25 4.75H3V5h.25v-.25ZM3.5 4.75h-.25V5h.25v-.25ZM3.75 4.75H3.5V5h.25v-.25ZM4 4.75h-.25V5H4v-.25ZM4.25 4.75H4V5h.25v-.25ZM4.5 4.75h-.25V5h.25v-.25ZM4.75 4.75H4.5V5h.25v-.25ZM5 4.75h-.25V5H5v-.25ZM5.25 4.75H5V5h.25v-.25ZM5.5 4.75h-.25V5h.25v-.25ZM5.75 4.75H5.5V5h.25v-.25ZM6 4.75h-.25V5H6v-.25ZM6.25 4.75H6V5h.25v-.25ZM6.5 4.75h-.25V5h.25v-.25ZM6.75 4.75H6.5V5h.25v-.25ZM7 4.75h-.25V5H7v-.25ZM9.25 4.75H9V5h.25v-.25ZM9.5 4.75h-.25V5h.25v-.25ZM9.75 4.75H9.5V5h.25v-.25ZM10 4.75h-.25V5H10v-.25ZM10.25 4.75H10V5h.25v-.25ZM10.5 4.75h-.25V5h.25v-.25ZM10.75 4.75h-.25V5h.25v-.25ZM11 4.75h-.25V5H11v-.25ZM11.25 4.75H11V5h.25v-.25ZM11.5 4.75h-.25V5h.25v-.25ZM11.75 4.75h-.25V5h.25v-.25ZM12 4.75h-.25V5H12v-.25ZM12.25 4.75H12V5h.25v-.25ZM12.5 4.75h-.25V5h.25v-.25ZM12.75 4.75h-.25V5h.25v-.25ZM13 4.75h-.25V5H13v-.25ZM13.25 4.75H13V5h.25v-.25ZM13.5 4.75h-.25V5h.25v-.25ZM13.75 4.75h-.25V5h.25v-.25ZM14 4.75h-.25V5H14v-.25ZM14.25 4.75H14V5h.25v-.25ZM14.5 4.75h-.25V5h.25v-.25ZM14.75 4.75h-.25V5h.25v-.25ZM15 4.75h-.25V5H15v-.25ZM15.25 4.75H15V5h.25v-.25ZM15.5 4.75h-.25V5h.25v-.25ZM15.75 4.75h-.25V5h.25v-.25ZM16 4.75h-.25V5H16v-.25ZM.25 5H0v.25h.25V5ZM.5 5H.25v.25H.5V5ZM.75 5H.5v.25h.25V5ZM1 5H.75v.25H1V5ZM1.25 5H1v.25h.25V5ZM1.5 5h-.25v.25h.25V5ZM1.75 5H1.5v.25h.25V5ZM2 5h-.25v.25H2V5ZM2.25 5H2v.25h.25V5ZM2.5 5h-.25v.25h.25V5ZM2.75 5H2.5v.25h.25V5ZM3 5h-.25v.25H3V5ZM3.25 5H3v.25h.25V5ZM3.5 5h-.25v.25h.25V5ZM3.75 5H3.5v.25h.25V5ZM4 5h-.25v.25H4V5ZM4.25 5H4v.25h.25V5ZM4.5 5h-.25v.25h.25V5ZM4.75 5H4.5v.25h.25V5ZM5 5h-.25v.25H5V5ZM5.25 5H5v.25h.25V5ZM5.5 5h-.25v.25h.25V5ZM5.75 5H5.5v.25h.25V5ZM6 5h-.25v.25H6V5ZM6.25 5H6v.25h.25V5ZM6.5 5h-.25v.25h.25V5ZM6.75 5H6.5v.25h.25V5ZM7 5h-.25v.25H7V5ZM9.25 5H9v.25h.25V5ZM9.5 5h-.25v.25h.25V5ZM9.75 5H9.5v.25h.25V5ZM10 5h-.25v.25H10V5ZM10.25 5H10v.25h.25V5ZM10.5 5h-.25v.25h.25V5ZM10.75 5h-.25v.25h.25V5ZM11 5h-.25v.25H11V5ZM11.25 5H11v.25h.25V5ZM11.5 5h-.25v.25h.25V5ZM11.75 5h-.25v.25h.25V5ZM12 5h-.25v.25H12V5ZM12.25 5H12v.25h.25V5ZM12.5 5h-.25v.25h.25V5ZM12.75 5h-.25v.25h.25V5ZM13 5h-.25v.25H13V5ZM13.25 5H13v.25h.25V5ZM13.5 5h-.25v.25h.25V5ZM13.75 5h-.25v.25h.25V5ZM14 5h-.25v.25H14V5ZM14.25 5H14v.25h.25V5ZM14.5 5h-.25v.25h.25V5ZM14.75 5h-.25v.25h.25V5ZM15 5h-.25v.25H15V5ZM15.25 5H15v.25h.25V5ZM15.5 5h-.25v.25h.25V5ZM15.75 5h-.25v.25h.25V5ZM16 5h-.25v.25H16V5ZM.25 5.25H0v.25h.25v-.25ZM.5 5.25H.25v.25H.5v-.25ZM.75 5.25H.5v.25h.25v-.25ZM1 5.25H.75v.25H1v-.25ZM1.25 5.25H1v.25h.25v-.25ZM1.5 5.25h-.25v.25h.25v-.25ZM1.75 5.25H1.5v.25h.25v-.25ZM2 5.25h-.25v.25H2v-.25ZM2.25 5.25H2v.25h.25v-.25ZM2.5 5.25h-.25v.25h.25v-.25ZM2.75 5.25H2.5v.25h.25v-.25ZM3 5.25h-.25v.25H3v-.25ZM3.25 5.25H3v.25h.25v-.25ZM3.5 5.25h-.25v.25h.25v-.25ZM3.75 5.25H3.5v.25h.25v-.25ZM4 5.25h-.25v.25H4v-.25ZM4.25 5.25H4v.25h.25v-.25ZM4.5 5.25h-.25v.25h.25v-.25ZM4.75 5.25H4.5v.25h.25v-.25ZM5 5.25h-.25v.25H5v-.25ZM5.25 5.25H5v.25h.25v-.25ZM5.5 5.25h-.25v.25h.25v-.25ZM5.75 5.25H5.5v.25h.25v-.25ZM6 5.25h-.25v.25H6v-.25ZM6.25 5.25H6v.25h.25v-.25ZM6.5 5.25h-.25v.25h.25v-.25ZM6.75 5.25H6.5v.25h.25v-.25ZM7 5.25h-.25v.25H7v-.25ZM9.25 5.25H9v.25h.25v-.25ZM9.5 5.25h-.25v.25h.25v-.25ZM9.75 5.25H9.5v.25h.25v-.25ZM10 5.25h-.25v.25H10v-.25ZM10.25 5.25H10v.25h.25v-.25ZM10.5 5.25h-.25v.25h.25v-.25ZM10.75 5.25h-.25v.25h.25v-.25ZM11 5.25h-.25v.25H11v-.25ZM11.25 5.25H11v.25h.25v-.25ZM11.5 5.25h-.25v.25h.25v-.25ZM11.75 5.25h-.25v.25h.25v-.25ZM12 5.25h-.25v.25H12v-.25ZM12.25 5.25H12v.25h.25v-.25ZM12.5 5.25h-.25v.25h.25v-.25ZM12.75 5.25h-.25v.25h.25v-.25ZM13 5.25h-.25v.25H13v-.25ZM13.25 5.25H13v.25h.25v-.25ZM13.5 5.25h-.25v.25h.25v-.25ZM13.75 5.25h-.25v.25h.25v-.25ZM14 5.25h-.25v.25H14v-.25ZM14.25 5.25H14v.25h.25v-.25ZM14.5 5.25h-.25v.25h.25v-.25ZM14.75 5.25h-.25v.25h.25v-.25ZM15 5.25h-.25v.25H15v-.25ZM15.25 5.25H15v.25h.25v-.25ZM15.5 5.25h-.25v.25h.25v-.25ZM15.75 5.25h-.25v.25h.25v-.25ZM16 5.25h-.25v.25H16v-.25ZM.25 5.5H0v.25h.25V5.5ZM.5 5.5H.25v.25H.5V5.5ZM.75 5.5H.5v.25h.25V5.5ZM1 5.5H.75v.25H1V5.5ZM1.25 5.5H1v.25h.25V5.5ZM1.5 5.5h-.25v.25h.25V5.5ZM1.75 5.5H1.5v.25h.25V5.5ZM2 5.5h-.25v.25H2V5.5ZM2.25 5.5H2v.25h.25V5.5ZM2.5 5.5h-.25v.25h.25V5.5ZM2.75 5.5H2.5v.25h.25V5.5ZM3 5.5h-.25v.25H3V5.5ZM3.25 5.5H3v.25h.25V5.5ZM3.5 5.5h-.25v.25h.25V5.5ZM3.75 5.5H3.5v.25h.25V5.5ZM4 5.5h-.25v.25H4V5.5ZM4.25 5.5H4v.25h.25V5.5ZM4.5 5.5h-.25v.25h.25V5.5ZM4.75 5.5H4.5v.25h.25V5.5ZM5 5.5h-.25v.25H5V5.5ZM5.25 5.5H5v.25h.25V5.5ZM5.5 5.5h-.25v.25h.25V5.5ZM5.75 5.5H5.5v.25h.25V5.5ZM6 5.5h-.25v.25H6V5.5ZM6.25 5.5H6v.25h.25V5.5ZM6.5 5.5h-.25v.25h.25V5.5ZM6.75 5.5H6.5v.25h.25V5.5ZM7 5.5h-.25v.25H7V5.5ZM9.25 5.5H9v.25h.25V5.5ZM9.5 5.5h-.25v.25h.25V5.5ZM9.75 5.5H9.5v.25h.25V5.5ZM10 5.5h-.25v.25H10V5.5ZM10.25 5.5H10v.25h.25V5.5ZM10.5 5.5h-.25v.25h.25V5.5ZM10.75 5.5h-.25v.25h.25V5.5ZM11 5.5h-.25v.25H11V5.5ZM11.25 5.5H11v.25h.25V5.5ZM11.5 5.5h-.25v.25h.25V5.5ZM11.75 5.5h-.25v.25h.25V5.5ZM12 5.5h-.25v.25H12V5.5ZM12.25 5.5H12v.25h.25V5.5ZM12.5 5.5h-.25v.25h.25V5.5ZM12.75 5.5h-.25v.25h.25V5.5ZM13 5.5h-.25v.25H13V5.5ZM13.25 5.5H13v.25h.25V5.5ZM13.5 5.5h-.25v.25h.25V5.5ZM13.75 5.5h-.25v.25h.25V5.5ZM14 5.5h-.25v.25H14V5.5ZM14.25 5.5H14v.25h.25V5.5ZM14.5 5.5h-.25v.25h.25V5.5ZM14.75 5.5h-.25v.25h.25V5.5ZM15 5.5h-.25v.25H15V5.5ZM15.25 5.5H15v.25h.25V5.5ZM15.5 5.5h-.25v.25h.25V5.5ZM15.75 5.5h-.25v.25h.25V5.5ZM16 5.5h-.25v.25H16V5.5ZM.25 5.75H0V6h.25v-.25ZM.5 5.75H.25V6H.5v-.25ZM.75 5.75H.5V6h.25v-.25ZM1 5.75H.75V6H1v-.25ZM1.25 5.75H1V6h.25v-.25ZM1.5 5.75h-.25V6h.25v-.25ZM1.75 5.75H1.5V6h.25v-.25ZM2 5.75h-.25V6H2v-.25ZM2.25 5.75H2V6h.25v-.25ZM2.5 5.75h-.25V6h.25v-.25ZM2.75 5.75H2.5V6h.25v-.25ZM3 5.75h-.25V6H3v-.25ZM3.25 5.75H3V6h.25v-.25ZM3.5 5.75h-.25V6h.25v-.25ZM3.75 5.75H3.5V6h.25v-.25ZM4 5.75h-.25V6H4v-.25ZM4.25 5.75H4V6h.25v-.25ZM4.5 5.75h-.25V6h.25v-.25ZM4.75 5.75H4.5V6h.25v-.25ZM5 5.75h-.25V6H5v-.25ZM5.25 5.75H5V6h.25v-.25ZM5.5 5.75h-.25V6h.25v-.25ZM5.75 5.75H5.5V6h.25v-.25ZM6 5.75h-.25V6H6v-.25ZM6.25 5.75H6V6h.25v-.25ZM6.5 5.75h-.25V6h.25v-.25ZM9.75 5.75H9.5V6h.25v-.25ZM10 5.75h-.25V6H10v-.25ZM10.25 5.75H10V6h.25v-.25ZM10.5 5.75h-.25V6h.25v-.25ZM10.75 5.75h-.25V6h.25v-.25ZM11 5.75h-.25V6H11v-.25ZM11.25 5.75H11V6h.25v-.25ZM11.5 5.75h-.25V6h.25v-.25ZM11.75 5.75h-.25V6h.25v-.25ZM12 5.75h-.25V6H12v-.25ZM12.25 5.75H12V6h.25v-.25ZM12.5 5.75h-.25V6h.25v-.25ZM12.75 5.75h-.25V6h.25v-.25ZM13 5.75h-.25V6H13v-.25ZM13.25 5.75H13V6h.25v-.25ZM13.5 5.75h-.25V6h.25v-.25ZM13.75 5.75h-.25V6h.25v-.25ZM14 5.75h-.25V6H14v-.25ZM14.25 5.75H14V6h.25v-.25ZM14.5 5.75h-.25V6h.25v-.25ZM14.75 5.75h-.25V6h.25v-.25ZM15 5.75h-.25V6H15v-.25ZM15.25 5.75H15V6h.25v-.25ZM15.5 5.75h-.25V6h.25v-.25ZM15.75 5.75h-.25V6h.25v-.25ZM16 5.75h-.25V6H16v-.25ZM.25 6H0v.25h.25V6ZM.5 6H.25v.25H.5V6ZM.75 6H.5v.25h.25V6ZM1 6H.75v.25H1V6ZM1.25 6H1v.25h.25V6ZM1.5 6h-.25v.25h.25V6ZM1.75 6H1.5v.25h.25V6ZM2 6h-.25v.25H2V6ZM2.25 6H2v.25h.25V6ZM2.5 6h-.25v.25h.25V6ZM2.75 6H2.5v.25h.25V6ZM3 6h-.25v.25H3V6ZM3.25 6H3v.25h.25V6ZM3.5 6h-.25v.25h.25V6ZM3.75 6H3.5v.25h.25V6ZM4 6h-.25v.25H4V6ZM4.25 6H4v.25h.25V6ZM4.5 6h-.25v.25h.25V6ZM4.75 6H4.5v.25h.25V6ZM5 6h-.25v.25H5V6ZM5.25 6H5v.25h.25V6ZM5.5 6h-.25v.25h.25V6ZM5.75 6H5.5v.25h.25V6ZM6 6h-.25v.25H6V6ZM6.25 6H6v.25h.25V6ZM6.5 6h-.25v.25h.25V6ZM9.75 6H9.5v.25h.25V6ZM10 6h-.25v.25H10V6ZM10.25 6H10v.25h.25V6ZM10.5 6h-.25v.25h.25V6ZM10.75 6h-.25v.25h.25V6ZM11 6h-.25v.25H11V6ZM11.25 6H11v.25h.25V6ZM11.5 6h-.25v.25h.25V6ZM11.75 6h-.25v.25h.25V6ZM12 6h-.25v.25H12V6ZM12.25 6H12v.25h.25V6ZM12.5 6h-.25v.25h.25V6ZM12.75 6h-.25v.25h.25V6ZM13 6h-.25v.25H13V6ZM13.25 6H13v.25h.25V6ZM13.5 6h-.25v.25h.25V6ZM13.75 6h-.25v.25h.25V6ZM14 6h-.25v.25H14V6ZM14.25 6H14v.25h.25V6ZM14.5 6h-.25v.25h.25V6ZM14.75 6h-.25v.25h.25V6ZM15 6h-.25v.25H15V6ZM15.25 6H15v.25h.25V6ZM15.5 6h-.25v.25h.25V6ZM15.75 6h-.25v.25h.25V6ZM16 6h-.25v.25H16V6ZM.25 6.25H0v.25h.25v-.25ZM.5 6.25H.25v.25H.5v-.25ZM.75 6.25H.5v.25h.25v-.25ZM1 6.25H.75v.25H1v-.25ZM1.25 6.25H1v.25h.25v-.25ZM1.5 6.25h-.25v.25h.25v-.25ZM1.75 6.25H1.5v.25h.25v-.25ZM2 6.25h-.25v.25H2v-.25ZM2.25 6.25H2v.25h.25v-.25ZM2.5 6.25h-.25v.25h.25v-.25ZM2.75 6.25H2.5v.25h.25v-.25ZM3 6.25h-.25v.25H3v-.25ZM3.25 6.25H3v.25h.25v-.25ZM3.5 6.25h-.25v.25h.25v-.25ZM3.75 6.25H3.5v.25h.25v-.25ZM4 6.25h-.25v.25H4v-.25ZM4.25 6.25H4v.25h.25v-.25ZM4.5 6.25h-.25v.25h.25v-.25ZM4.75 6.25H4.5v.25h.25v-.25ZM5 6.25h-.25v.25H5v-.25ZM5.25 6.25H5v.25h.25v-.25ZM5.5 6.25h-.25v.25h.25v-.25ZM5.75 6.25H5.5v.25h.25v-.25ZM6 6.25h-.25v.25H6v-.25ZM6.25 6.25H6v.25h.25v-.25ZM6.5 6.25h-.25v.25h.25v-.25ZM9.75 6.25H9.5v.25h.25v-.25ZM10 6.25h-.25v.25H10v-.25ZM10.25 6.25H10v.25h.25v-.25ZM10.5 6.25h-.25v.25h.25v-.25ZM10.75 6.25h-.25v.25h.25v-.25ZM11 6.25h-.25v.25H11v-.25ZM11.25 6.25H11v.25h.25v-.25ZM11.5 6.25h-.25v.25h.25v-.25ZM11.75 6.25h-.25v.25h.25v-.25ZM12 6.25h-.25v.25H12v-.25ZM12.25 6.25H12v.25h.25v-.25ZM12.5 6.25h-.25v.25h.25v-.25ZM12.75 6.25h-.25v.25h.25v-.25ZM13 6.25h-.25v.25H13v-.25ZM13.25 6.25H13v.25h.25v-.25ZM13.5 6.25h-.25v.25h.25v-.25ZM13.75 6.25h-.25v.25h.25v-.25ZM14 6.25h-.25v.25H14v-.25ZM14.25 6.25H14v.25h.25v-.25ZM14.5 6.25h-.25v.25h.25v-.25ZM14.75 6.25h-.25v.25h.25v-.25ZM15 6.25h-.25v.25H15v-.25ZM15.25 6.25H15v.25h.25v-.25ZM15.5 6.25h-.25v.25h.25v-.25ZM15.75 6.25h-.25v.25h.25v-.25ZM16 6.25h-.25v.25H16v-.25ZM.25 6.5H0v.25h.25V6.5ZM.5 6.5H.25v.25H.5V6.5ZM.75 6.5H.5v.25h.25V6.5ZM1 6.5H.75v.25H1V6.5ZM1.25 6.5H1v.25h.25V6.5ZM1.5 6.5h-.25v.25h.25V6.5ZM1.75 6.5H1.5v.25h.25V6.5ZM2 6.5h-.25v.25H2V6.5ZM2.25 6.5H2v.25h.25V6.5ZM2.5 6.5h-.25v.25h.25V6.5ZM2.75 6.5H2.5v.25h.25V6.5ZM3 6.5h-.25v.25H3V6.5ZM3.25 6.5H3v.25h.25V6.5ZM3.5 6.5h-.25v.25h.25V6.5ZM3.75 6.5H3.5v.25h.25V6.5ZM4 6.5h-.25v.25H4V6.5ZM4.25 6.5H4v.25h.25V6.5ZM4.5 6.5h-.25v.25h.25V6.5ZM4.75 6.5H4.5v.25h.25V6.5ZM5 6.5h-.25v.25H5V6.5ZM5.25 6.5H5v.25h.25V6.5ZM5.5 6.5h-.25v.25h.25V6.5ZM5.75 6.5H5.5v.25h.25V6.5ZM6 6.5h-.25v.25H6V6.5ZM6.25 6.5H6v.25h.25V6.5ZM6.5 6.5h-.25v.25h.25V6.5ZM9.75 6.5H9.5v.25h.25V6.5ZM10 6.5h-.25v.25H10V6.5ZM10.25 6.5H10v.25h.25V6.5ZM10.5 6.5h-.25v.25h.25V6.5ZM10.75 6.5h-.25v.25h.25V6.5ZM11 6.5h-.25v.25H11V6.5ZM11.25 6.5H11v.25h.25V6.5ZM11.5 6.5h-.25v.25h.25V6.5ZM11.75 6.5h-.25v.25h.25V6.5ZM12 6.5h-.25v.25H12V6.5ZM12.25 6.5H12v.25h.25V6.5ZM12.5 6.5h-.25v.25h.25V6.5ZM12.75 6.5h-.25v.25h.25V6.5ZM13 6.5h-.25v.25H13V6.5ZM13.25 6.5H13v.25h.25V6.5ZM13.5 6.5h-.25v.25h.25V6.5ZM13.75 6.5h-.25v.25h.25V6.5ZM14 6.5h-.25v.25H14V6.5ZM14.25 6.5H14v.25h.25V6.5ZM14.5 6.5h-.25v.25h.25V6.5ZM14.75 6.5h-.25v.25h.25V6.5ZM15 6.5h-.25v.25H15V6.5ZM15.25 6.5H15v.25h.25V6.5ZM15.5 6.5h-.25v.25h.25V6.5ZM15.75 6.5h-.25v.25h.25V6.5ZM16 6.5h-.25v.25H16V6.5ZM.25 6.75H0V7h.25v-.25ZM.5 6.75H.25V7H.5v-.25ZM.75 6.75H.5V7h.25v-.25ZM1 6.75H.75V7H1v-.25ZM1.25 6.75H1V7h.25v-.25ZM1.5 6.75h-.25V7h.25v-.25ZM1.75 6.75H1.5V7h.25v-.25ZM2 6.75h-.25V7H2v-.25ZM2.25 6.75H2V7h.25v-.25ZM2.5 6.75h-.25V7h.25v-.25ZM2.75 6.75H2.5V7h.25v-.25ZM3 6.75h-.25V7H3v-.25ZM3.25 6.75H3V7h.25v-.25ZM3.5 6.75h-.25V7h.25v-.25ZM12.75 6.75h-.25V7h.25v-.25ZM13 6.75h-.25V7H13v-.25ZM13.25 6.75H13V7h.25v-.25ZM13.5 6.75h-.25V7h.25v-.25ZM13.75 6.75h-.25V7h.25v-.25ZM14 6.75h-.25V7H14v-.25ZM14.25 6.75H14V7h.25v-.25ZM14.5 6.75h-.25V7h.25v-.25ZM14.75 6.75h-.25V7h.25v-.25ZM15 6.75h-.25V7H15v-.25ZM15.25 6.75H15V7h.25v-.25ZM15.5 6.75h-.25V7h.25v-.25ZM15.75 6.75h-.25V7h.25v-.25ZM16 6.75h-.25V7H16v-.25ZM.25 7H0v.25h.25V7ZM.5 7H.25v.25H.5V7ZM.75 7H.5v.25h.25V7ZM1 7H.75v.25H1V7ZM1.25 7H1v.25h.25V7ZM1.5 7h-.25v.25h.25V7ZM1.75 7H1.5v.25h.25V7ZM2 7h-.25v.25H2V7ZM2.25 7H2v.25h.25V7ZM2.5 7h-.25v.25h.25V7ZM2.75 7H2.5v.25h.25V7ZM3 7h-.25v.25H3V7ZM3.25 7H3v.25h.25V7ZM3.5 7h-.25v.25h.25V7ZM12.75 7h-.25v.25h.25V7ZM13 7h-.25v.25H13V7ZM13.25 7H13v.25h.25V7ZM13.5 7h-.25v.25h.25V7ZM13.75 7h-.25v.25h.25V7ZM14 7h-.25v.25H14V7ZM14.25 7H14v.25h.25V7ZM14.5 7h-.25v.25h.25V7ZM14.75 7h-.25v.25h.25V7ZM15 7h-.25v.25H15V7ZM15.25 7H15v.25h.25V7ZM15.5 7h-.25v.25h.25V7ZM15.75 7h-.25v.25h.25V7ZM16 7h-.25v.25H16V7ZM.25 7.25H0v.25h.25v-.25ZM.5 7.25H.25v.25H.5v-.25ZM.75 7.25H.5v.25h.25v-.25ZM1 7.25H.75v.25H1v-.25ZM1.25 7.25H1v.25h.25v-.25ZM1.5 7.25h-.25v.25h.25v-.25ZM1.75 7.25H1.5v.25h.25v-.25ZM2 7.25h-.25v.25H2v-.25ZM2.25 7.25H2v.25h.25v-.25ZM2.5 7.25h-.25v.25h.25v-.25ZM2.75 7.25H2.5v.25h.25v-.25ZM3 7.25h-.25v.25H3v-.25ZM3.25 7.25H3v.25h.25v-.25ZM3.5 7.25h-.25v.25h.25v-.25ZM3.75 7.25H3.5v.25h.25v-.25ZM4 7.25h-.25v.25H4v-.25ZM12.25 7.25H12v.25h.25v-.25ZM12.5 7.25h-.25v.25h.25v-.25ZM12.75 7.25h-.25v.25h.25v-.25ZM13 7.25h-.25v.25H13v-.25ZM13.25 7.25H13v.25h.25v-.25ZM13.5 7.25h-.25v.25h.25v-.25ZM13.75 7.25h-.25v.25h.25v-.25ZM14 7.25h-.25v.25H14v-.25ZM14.25 7.25H14v.25h.25v-.25ZM14.5 7.25h-.25v.25h.25v-.25ZM14.75 7.25h-.25v.25h.25v-.25ZM15 7.25h-.25v.25H15v-.25ZM15.25 7.25H15v.25h.25v-.25ZM15.5 7.25h-.25v.25h.25v-.25ZM15.75 7.25h-.25v.25h.25v-.25ZM16 7.25h-.25v.25H16v-.25ZM.25 7.5H0v.25h.25V7.5ZM.5 7.5H.25v.25H.5V7.5ZM.75 7.5H.5v.25h.25V7.5ZM1 7.5H.75v.25H1V7.5ZM1.25 7.5H1v.25h.25V7.5ZM1.5 7.5h-.25v.25h.25V7.5ZM1.75 7.5H1.5v.25h.25V7.5ZM2 7.5h-.25v.25H2V7.5ZM2.25 7.5H2v.25h.25V7.5ZM2.5 7.5h-.25v.25h.25V7.5ZM2.75 7.5H2.5v.25h.25V7.5ZM3 7.5h-.25v.25H3V7.5ZM3.25 7.5H3v.25h.25V7.5ZM3.5 7.5h-.25v.25h.25V7.5ZM3.75 7.5H3.5v.25h.25V7.5ZM4 7.5h-.25v.25H4V7.5ZM12.25 7.5H12v.25h.25V7.5ZM12.5 7.5h-.25v.25h.25V7.5ZM12.75 7.5h-.25v.25h.25V7.5ZM13 7.5h-.25v.25H13V7.5ZM13.25 7.5H13v.25h.25V7.5ZM13.5 7.5h-.25v.25h.25V7.5ZM13.75 7.5h-.25v.25h.25V7.5ZM14 7.5h-.25v.25H14V7.5ZM14.25 7.5H14v.25h.25V7.5ZM14.5 7.5h-.25v.25h.25V7.5ZM14.75 7.5h-.25v.25h.25V7.5ZM15 7.5h-.25v.25H15V7.5ZM15.25 7.5H15v.25h.25V7.5ZM15.5 7.5h-.25v.25h.25V7.5ZM15.75 7.5h-.25v.25h.25V7.5ZM16 7.5h-.25v.25H16V7.5ZM.25 7.75H0V8h.25v-.25ZM.5 7.75H.25V8H.5v-.25ZM.75 7.75H.5V8h.25v-.25ZM1 7.75H.75V8H1v-.25ZM1.25 7.75H1V8h.25v-.25ZM1.5 7.75h-.25V8h.25v-.25ZM1.75 7.75H1.5V8h.25v-.25ZM2 7.75h-.25V8H2v-.25ZM2.25 7.75H2V8h.25v-.25ZM2.5 7.75h-.25V8h.25v-.25ZM2.75 7.75H2.5V8h.25v-.25ZM3 7.75h-.25V8H3v-.25ZM3.25 7.75H3V8h.25v-.25ZM3.5 7.75h-.25V8h.25v-.25ZM3.75 7.75H3.5V8h.25v-.25ZM4 7.75h-.25V8H4v-.25ZM4.25 7.75H4V8h.25v-.25ZM4.5 7.75h-.25V8h.25v-.25ZM11.75 7.75h-.25V8h.25v-.25ZM12 7.75h-.25V8H12v-.25ZM12.25 7.75H12V8h.25v-.25ZM12.5 7.75h-.25V8h.25v-.25ZM12.75 7.75h-.25V8h.25v-.25ZM13 7.75h-.25V8H13v-.25ZM13.25 7.75H13V8h.25v-.25ZM13.5 7.75h-.25V8h.25v-.25ZM13.75 7.75h-.25V8h.25v-.25ZM14 7.75h-.25V8H14v-.25ZM14.25 7.75H14V8h.25v-.25ZM14.5 7.75h-.25V8h.25v-.25ZM14.75 7.75h-.25V8h.25v-.25ZM15 7.75h-.25V8H15v-.25ZM15.25 7.75H15V8h.25v-.25ZM15.5 7.75h-.25V8h.25v-.25ZM15.75 7.75h-.25V8h.25v-.25ZM16 7.75h-.25V8H16v-.25ZM.25 8H0v.25h.25V8ZM.5 8H.25v.25H.5V8ZM.75 8H.5v.25h.25V8ZM1 8H.75v.25H1V8ZM1.25 8H1v.25h.25V8ZM1.5 8h-.25v.25h.25V8ZM1.75 8H1.5v.25h.25V8ZM2 8h-.25v.25H2V8ZM2.25 8H2v.25h.25V8ZM2.5 8h-.25v.25h.25V8ZM2.75 8H2.5v.25h.25V8ZM3 8h-.25v.25H3V8ZM3.25 8H3v.25h.25V8ZM3.5 8h-.25v.25h.25V8ZM3.75 8H3.5v.25h.25V8ZM4 8h-.25v.25H4V8ZM4.25 8H4v.25h.25V8ZM4.5 8h-.25v.25h.25V8ZM11.75 8h-.25v.25h.25V8ZM12 8h-.25v.25H12V8ZM12.25 8H12v.25h.25V8ZM12.5 8h-.25v.25h.25V8ZM12.75 8h-.25v.25h.25V8ZM13 8h-.25v.25H13V8ZM13.25 8H13v.25h.25V8ZM13.5 8h-.25v.25h.25V8ZM13.75 8h-.25v.25h.25V8ZM14 8h-.25v.25H14V8ZM14.25 8H14v.25h.25V8ZM14.5 8h-.25v.25h.25V8ZM14.75 8h-.25v.25h.25V8ZM15 8h-.25v.25H15V8ZM15.25 8H15v.25h.25V8ZM15.5 8h-.25v.25h.25V8ZM15.75 8h-.25v.25h.25V8ZM16 8h-.25v.25H16V8ZM.25 8.25H0v.25h.25v-.25ZM.5 8.25H.25v.25H.5v-.25ZM.75 8.25H.5v.25h.25v-.25ZM1 8.25H.75v.25H1v-.25ZM1.25 8.25H1v.25h.25v-.25ZM1.5 8.25h-.25v.25h.25v-.25ZM1.75 8.25H1.5v.25h.25v-.25ZM2 8.25h-.25v.25H2v-.25ZM2.25 8.25H2v.25h.25v-.25ZM2.5 8.25h-.25v.25h.25v-.25ZM2.75 8.25H2.5v.25h.25v-.25ZM3 8.25h-.25v.25H3v-.25ZM3.25 8.25H3v.25h.25v-.25ZM3.5 8.25h-.25v.25h.25v-.25ZM3.75 8.25H3.5v.25h.25v-.25ZM4 8.25h-.25v.25H4v-.25ZM4.25 8.25H4v.25h.25v-.25ZM4.5 8.25h-.25v.25h.25v-.25ZM4.75 8.25H4.5v.25h.25v-.25ZM5 8.25h-.25v.25H5v-.25ZM11.25 8.25H11v.25h.25v-.25ZM11.5 8.25h-.25v.25h.25v-.25ZM11.75 8.25h-.25v.25h.25v-.25ZM12 8.25h-.25v.25H12v-.25ZM12.25 8.25H12v.25h.25v-.25ZM12.5 8.25h-.25v.25h.25v-.25ZM12.75 8.25h-.25v.25h.25v-.25ZM13 8.25h-.25v.25H13v-.25ZM13.25 8.25H13v.25h.25v-.25ZM13.5 8.25h-.25v.25h.25v-.25ZM13.75 8.25h-.25v.25h.25v-.25ZM14 8.25h-.25v.25H14v-.25ZM14.25 8.25H14v.25h.25v-.25ZM14.5 8.25h-.25v.25h.25v-.25ZM14.75 8.25h-.25v.25h.25v-.25ZM15 8.25h-.25v.25H15v-.25ZM15.25 8.25H15v.25h.25v-.25ZM15.5 8.25h-.25v.25h.25v-.25ZM15.75 8.25h-.25v.25h.25v-.25ZM16 8.25h-.25v.25H16v-.25ZM.25 8.5H0v.25h.25V8.5ZM.5 8.5H.25v.25H.5V8.5ZM.75 8.5H.5v.25h.25V8.5ZM1 8.5H.75v.25H1V8.5ZM1.25 8.5H1v.25h.25V8.5ZM1.5 8.5h-.25v.25h.25V8.5ZM1.75 8.5H1.5v.25h.25V8.5ZM2 8.5h-.25v.25H2V8.5ZM2.25 8.5H2v.25h.25V8.5ZM2.5 8.5h-.25v.25h.25V8.5ZM2.75 8.5H2.5v.25h.25V8.5ZM3 8.5h-.25v.25H3V8.5ZM3.25 8.5H3v.25h.25V8.5ZM3.5 8.5h-.25v.25h.25V8.5ZM3.75 8.5H3.5v.25h.25V8.5ZM4 8.5h-.25v.25H4V8.5ZM4.25 8.5H4v.25h.25V8.5ZM4.5 8.5h-.25v.25h.25V8.5ZM4.75 8.5H4.5v.25h.25V8.5ZM5 8.5h-.25v.25H5V8.5ZM11.25 8.5H11v.25h.25V8.5ZM11.5 8.5h-.25v.25h.25V8.5ZM11.75 8.5h-.25v.25h.25V8.5ZM12 8.5h-.25v.25H12V8.5ZM12.25 8.5H12v.25h.25V8.5ZM12.5 8.5h-.25v.25h.25V8.5ZM12.75 8.5h-.25v.25h.25V8.5ZM13 8.5h-.25v.25H13V8.5ZM13.25 8.5H13v.25h.25V8.5ZM13.5 8.5h-.25v.25h.25V8.5ZM13.75 8.5h-.25v.25h.25V8.5ZM14 8.5h-.25v.25H14V8.5ZM14.25 8.5H14v.25h.25V8.5ZM14.5 8.5h-.25v.25h.25V8.5ZM14.75 8.5h-.25v.25h.25V8.5ZM15 8.5h-.25v.25H15V8.5ZM15.25 8.5H15v.25h.25V8.5ZM15.5 8.5h-.25v.25h.25V8.5ZM15.75 8.5h-.25v.25h.25V8.5ZM16 8.5h-.25v.25H16V8.5ZM.25 8.75H0V9h.25v-.25ZM.5 8.75H.25V9H.5v-.25ZM.75 8.75H.5V9h.25v-.25ZM1 8.75H.75V9H1v-.25ZM1.25 8.75H1V9h.25v-.25ZM1.5 8.75h-.25V9h.25v-.25ZM1.75 8.75H1.5V9h.25v-.25ZM2 8.75h-.25V9H2v-.25ZM2.25 8.75H2V9h.25v-.25ZM2.5 8.75h-.25V9h.25v-.25ZM2.75 8.75H2.5V9h.25v-.25ZM3 8.75h-.25V9H3v-.25ZM3.25 8.75H3V9h.25v-.25ZM3.5 8.75h-.25V9h.25v-.25ZM3.75 8.75H3.5V9h.25v-.25ZM4 8.75h-.25V9H4v-.25ZM4.25 8.75H4V9h.25v-.25ZM4.5 8.75h-.25V9h.25v-.25ZM4.75 8.75H4.5V9h.25v-.25ZM5 8.75h-.25V9H5v-.25ZM5.25 8.75H5V9h.25v-.25ZM5.5 8.75h-.25V9h.25v-.25ZM10.75 8.75h-.25V9h.25v-.25ZM11 8.75h-.25V9H11v-.25ZM11.25 8.75H11V9h.25v-.25ZM11.5 8.75h-.25V9h.25v-.25ZM11.75 8.75h-.25V9h.25v-.25ZM12 8.75h-.25V9H12v-.25ZM12.25 8.75H12V9h.25v-.25ZM12.5 8.75h-.25V9h.25v-.25ZM12.75 8.75h-.25V9h.25v-.25ZM13 8.75h-.25V9H13v-.25ZM13.25 8.75H13V9h.25v-.25ZM13.5 8.75h-.25V9h.25v-.25ZM13.75 8.75h-.25V9h.25v-.25ZM14 8.75h-.25V9H14v-.25ZM14.25 8.75H14V9h.25v-.25ZM14.5 8.75h-.25V9h.25v-.25ZM14.75 8.75h-.25V9h.25v-.25ZM15 8.75h-.25V9H15v-.25ZM15.25 8.75H15V9h.25v-.25ZM15.5 8.75h-.25V9h.25v-.25ZM15.75 8.75h-.25V9h.25v-.25ZM16 8.75h-.25V9H16v-.25ZM1.25 9H1v.25h.25V9ZM1.5 9h-.25v.25h.25V9ZM1.75 9H1.5v.25h.25V9ZM2 9h-.25v.25H2V9ZM2.25 9H2v.25h.25V9ZM2.5 9h-.25v.25h.25V9ZM2.75 9H2.5v.25h.25V9ZM3 9h-.25v.25H3V9ZM3.25 9H3v.25h.25V9ZM3.5 9h-.25v.25h.25V9ZM3.75 9H3.5v.25h.25V9ZM4 9h-.25v.25H4V9ZM4.25 9H4v.25h.25V9ZM4.5 9h-.25v.25h.25V9ZM4.75 9H4.5v.25h.25V9ZM5 9h-.25v.25H5V9ZM5.25 9H5v.25h.25V9ZM5.5 9h-.25v.25h.25V9ZM10.75 9h-.25v.25h.25V9ZM11 9h-.25v.25H11V9ZM11.25 9H11v.25h.25V9ZM11.5 9h-.25v.25h.25V9ZM11.75 9h-.25v.25h.25V9ZM12 9h-.25v.25H12V9ZM12.25 9H12v.25h.25V9ZM12.5 9h-.25v.25h.25V9ZM12.75 9h-.25v.25h.25V9ZM13 9h-.25v.25H13V9ZM13.25 9H13v.25h.25V9ZM13.5 9h-.25v.25h.25V9ZM13.75 9h-.25v.25h.25V9ZM14 9h-.25v.25H14V9ZM14.25 9H14v.25h.25V9ZM14.5 9h-.25v.25h.25V9ZM14.75 9h-.25v.25h.25V9ZM15 9h-.25v.25H15V9ZM1.25 9.25H1v.25h.25v-.25ZM1.5 9.25h-.25v.25h.25v-.25ZM1.75 9.25H1.5v.25h.25v-.25ZM2 9.25h-.25v.25H2v-.25ZM2.25 9.25H2v.25h.25v-.25ZM2.5 9.25h-.25v.25h.25v-.25ZM2.75 9.25H2.5v.25h.25v-.25ZM3 9.25h-.25v.25H3v-.25ZM3.25 9.25H3v.25h.25v-.25ZM3.5 9.25h-.25v.25h.25v-.25ZM3.75 9.25H3.5v.25h.25v-.25ZM4 9.25h-.25v.25H4v-.25ZM4.25 9.25H4v.25h.25v-.25ZM4.5 9.25h-.25v.25h.25v-.25ZM4.75 9.25H4.5v.25h.25v-.25ZM5 9.25h-.25v.25H5v-.25ZM5.25 9.25H5v.25h.25v-.25ZM5.5 9.25h-.25v.25h.25v-.25ZM10.75 9.25h-.25v.25h.25v-.25ZM11 9.25h-.25v.25H11v-.25ZM11.25 9.25H11v.25h.25v-.25ZM11.5 9.25h-.25v.25h.25v-.25ZM11.75 9.25h-.25v.25h.25v-.25ZM12 9.25h-.25v.25H12v-.25ZM12.25 9.25H12v.25h.25v-.25ZM12.5 9.25h-.25v.25h.25v-.25ZM12.75 9.25h-.25v.25h.25v-.25ZM13 9.25h-.25v.25H13v-.25ZM13.25 9.25H13v.25h.25v-.25ZM13.5 9.25h-.25v.25h.25v-.25ZM13.75 9.25h-.25v.25h.25v-.25ZM14 9.25h-.25v.25H14v-.25ZM14.25 9.25H14v.25h.25v-.25ZM14.5 9.25h-.25v.25h.25v-.25ZM14.75 9.25h-.25v.25h.25v-.25ZM15 9.25h-.25v.25H15v-.25ZM1.25 9.5H1v.25h.25V9.5ZM1.5 9.5h-.25v.25h.25V9.5ZM1.75 9.5H1.5v.25h.25V9.5ZM2 9.5h-.25v.25H2V9.5ZM2.25 9.5H2v.25h.25V9.5ZM2.5 9.5h-.25v.25h.25V9.5ZM2.75 9.5H2.5v.25h.25V9.5ZM3 9.5h-.25v.25H3V9.5ZM3.25 9.5H3v.25h.25V9.5ZM3.5 9.5h-.25v.25h.25V9.5ZM3.75 9.5H3.5v.25h.25V9.5ZM4 9.5h-.25v.25H4V9.5ZM4.25 9.5H4v.25h.25V9.5ZM4.5 9.5h-.25v.25h.25V9.5ZM4.75 9.5H4.5v.25h.25V9.5ZM5 9.5h-.25v.25H5V9.5ZM5.25 9.5H5v.25h.25V9.5ZM5.5 9.5h-.25v.25h.25V9.5ZM10.75 9.5h-.25v.25h.25V9.5ZM11 9.5h-.25v.25H11V9.5ZM11.25 9.5H11v.25h.25V9.5ZM11.5 9.5h-.25v.25h.25V9.5ZM11.75 9.5h-.25v.25h.25V9.5ZM12 9.5h-.25v.25H12V9.5ZM12.25 9.5H12v.25h.25V9.5ZM12.5 9.5h-.25v.25h.25V9.5ZM12.75 9.5h-.25v.25h.25V9.5ZM13 9.5h-.25v.25H13V9.5ZM13.25 9.5H13v.25h.25V9.5ZM13.5 9.5h-.25v.25h.25V9.5ZM13.75 9.5h-.25v.25h.25V9.5ZM14 9.5h-.25v.25H14V9.5ZM14.25 9.5H14v.25h.25V9.5ZM14.5 9.5h-.25v.25h.25V9.5ZM14.75 9.5h-.25v.25h.25V9.5ZM15 9.5h-.25v.25H15V9.5ZM1.25 9.75H1V10h.25v-.25ZM1.5 9.75h-.25V10h.25v-.25ZM1.75 9.75H1.5V10h.25v-.25ZM2 9.75h-.25V10H2v-.25ZM2.25 9.75H2V10h.25v-.25ZM2.5 9.75h-.25V10h.25v-.25ZM2.75 9.75H2.5V10h.25v-.25ZM3 9.75h-.25V10H3v-.25ZM3.25 9.75H3V10h.25v-.25ZM3.5 9.75h-.25V10h.25v-.25ZM3.75 9.75H3.5V10h.25v-.25ZM4 9.75h-.25V10H4v-.25ZM4.25 9.75H4V10h.25v-.25ZM4.5 9.75h-.25V10h.25v-.25ZM4.75 9.75H4.5V10h.25v-.25ZM5 9.75h-.25V10H5v-.25ZM11.25 9.75H11V10h.25v-.25ZM11.5 9.75h-.25V10h.25v-.25ZM11.75 9.75h-.25V10h.25v-.25ZM12 9.75h-.25V10H12v-.25ZM12.25 9.75H12V10h.25v-.25ZM12.5 9.75h-.25V10h.25v-.25ZM12.75 9.75h-.25V10h.25v-.25ZM13 9.75h-.25V10H13v-.25ZM13.25 9.75H13V10h.25v-.25ZM13.5 9.75h-.25V10h.25v-.25ZM13.75 9.75h-.25V10h.25v-.25ZM14 9.75h-.25V10H14v-.25ZM14.25 9.75H14V10h.25v-.25ZM14.5 9.75h-.25V10h.25v-.25ZM14.75 9.75h-.25V10h.25v-.25ZM15 9.75h-.25V10H15v-.25ZM1.25 10H1v.25h.25V10ZM1.5 10h-.25v.25h.25V10ZM1.75 10H1.5v.25h.25V10ZM2 10h-.25v.25H2V10ZM2.25 10H2v.25h.25V10ZM2.5 10h-.25v.25h.25V10ZM2.75 10H2.5v.25h.25V10ZM3 10h-.25v.25H3V10ZM3.25 10H3v.25h.25V10ZM3.5 10h-.25v.25h.25V10ZM3.75 10H3.5v.25h.25V10ZM4 10h-.25v.25H4V10ZM4.25 10H4v.25h.25V10ZM4.5 10h-.25v.25h.25V10ZM4.75 10H4.5v.25h.25V10ZM5 10h-.25v.25H5V10ZM11.25 10H11v.25h.25V10ZM11.5 10h-.25v.25h.25V10ZM11.75 10h-.25v.25h.25V10ZM12 10h-.25v.25H12V10ZM12.25 10H12v.25h.25V10ZM12.5 10h-.25v.25h.25V10ZM12.75 10h-.25v.25h.25V10ZM13 10h-.25v.25H13V10ZM13.25 10H13v.25h.25V10ZM13.5 10h-.25v.25h.25V10ZM13.75 10h-.25v.25h.25V10ZM14 10h-.25v.25H14V10ZM14.25 10H14v.25h.25V10ZM14.5 10h-.25v.25h.25V10ZM14.75 10h-.25v.25h.25V10ZM15 10h-.25v.25H15V10ZM1.25 10.25H1v.25h.25v-.25ZM1.5 10.25h-.25v.25h.25v-.25ZM1.75 10.25H1.5v.25h.25v-.25ZM2 10.25h-.25v.25H2v-.25ZM2.25 10.25H2v.25h.25v-.25ZM2.5 10.25h-.25v.25h.25v-.25ZM2.75 10.25H2.5v.25h.25v-.25ZM3 10.25h-.25v.25H3v-.25ZM3.25 10.25H3v.25h.25v-.25ZM3.5 10.25h-.25v.25h.25v-.25ZM3.75 10.25H3.5v.25h.25v-.25ZM4 10.25h-.25v.25H4v-.25ZM4.25 10.25H4v.25h.25v-.25ZM4.5 10.25h-.25v.25h.25v-.25ZM4.75 10.25H4.5v.25h.25v-.25ZM5 10.25h-.25v.25H5v-.25ZM7.75 10.25H7.5v.25h.25v-.25ZM8 10.25h-.25v.25H8v-.25ZM8.25 10.25H8v.25h.25v-.25ZM8.5 10.25h-.25v.25h.25v-.25ZM11.25 10.25H11v.25h.25v-.25ZM11.5 10.25h-.25v.25h.25v-.25ZM11.75 10.25h-.25v.25h.25v-.25ZM12 10.25h-.25v.25H12v-.25ZM12.25 10.25H12v.25h.25v-.25ZM12.5 10.25h-.25v.25h.25v-.25ZM12.75 10.25h-.25v.25h.25v-.25ZM13 10.25h-.25v.25H13v-.25ZM13.25 10.25H13v.25h.25v-.25ZM13.5 10.25h-.25v.25h.25v-.25ZM13.75 10.25h-.25v.25h.25v-.25ZM14 10.25h-.25v.25H14v-.25ZM14.25 10.25H14v.25h.25v-.25ZM14.5 10.25h-.25v.25h.25v-.25ZM14.75 10.25h-.25v.25h.25v-.25ZM15 10.25h-.25v.25H15v-.25ZM1.25 10.5H1v.25h.25v-.25ZM1.5 10.5h-.25v.25h.25v-.25ZM1.75 10.5H1.5v.25h.25v-.25ZM2 10.5h-.25v.25H2v-.25ZM2.25 10.5H2v.25h.25v-.25ZM2.5 10.5h-.25v.25h.25v-.25ZM2.75 10.5H2.5v.25h.25v-.25ZM3 10.5h-.25v.25H3v-.25ZM3.25 10.5H3v.25h.25v-.25ZM3.5 10.5h-.25v.25h.25v-.25ZM3.75 10.5H3.5v.25h.25v-.25ZM4 10.5h-.25v.25H4v-.25ZM4.25 10.5H4v.25h.25v-.25ZM4.5 10.5h-.25v.25h.25v-.25ZM4.75 10.5H4.5v.25h.25v-.25ZM5 10.5h-.25v.25H5v-.25ZM7.75 10.5H7.5v.25h.25v-.25ZM8 10.5h-.25v.25H8v-.25ZM8.25 10.5H8v.25h.25v-.25ZM8.5 10.5h-.25v.25h.25v-.25ZM11.25 10.5H11v.25h.25v-.25ZM11.5 10.5h-.25v.25h.25v-.25ZM11.75 10.5h-.25v.25h.25v-.25ZM12 10.5h-.25v.25H12v-.25ZM12.25 10.5H12v.25h.25v-.25ZM12.5 10.5h-.25v.25h.25v-.25ZM12.75 10.5h-.25v.25h.25v-.25ZM13 10.5h-.25v.25H13v-.25ZM13.25 10.5H13v.25h.25v-.25ZM13.5 10.5h-.25v.25h.25v-.25ZM13.75 10.5h-.25v.25h.25v-.25ZM14 10.5h-.25v.25H14v-.25ZM14.25 10.5H14v.25h.25v-.25ZM14.5 10.5h-.25v.25h.25v-.25ZM14.75 10.5h-.25v.25h.25v-.25ZM15 10.5h-.25v.25H15v-.25ZM1.25 10.75H1V11h.25v-.25ZM1.5 10.75h-.25V11h.25v-.25ZM1.75 10.75H1.5V11h.25v-.25ZM2 10.75h-.25V11H2v-.25ZM2.25 10.75H2V11h.25v-.25ZM2.5 10.75h-.25V11h.25v-.25ZM2.75 10.75H2.5V11h.25v-.25ZM3 10.75h-.25V11H3v-.25ZM3.25 10.75H3V11h.25v-.25ZM3.5 10.75h-.25V11h.25v-.25ZM3.75 10.75H3.5V11h.25v-.25ZM4 10.75h-.25V11H4v-.25ZM4.25 10.75H4V11h.25v-.25ZM4.5 10.75h-.25V11h.25v-.25ZM6.75 10.75H6.5V11h.25v-.25ZM7 10.75h-.25V11H7v-.25ZM7.25 10.75H7V11h.25v-.25ZM7.5 10.75h-.25V11h.25v-.25ZM7.75 10.75H7.5V11h.25v-.25ZM8 10.75h-.25V11H8v-.25ZM8.25 10.75H8V11h.25v-.25ZM8.5 10.75h-.25V11h.25v-.25ZM8.75 10.75H8.5V11h.25v-.25ZM9 10.75h-.25V11H9v-.25ZM9.25 10.75H9V11h.25v-.25ZM9.5 10.75h-.25V11h.25v-.25ZM11.75 10.75h-.25V11h.25v-.25ZM12 10.75h-.25V11H12v-.25ZM12.25 10.75H12V11h.25v-.25ZM12.5 10.75h-.25V11h.25v-.25ZM12.75 10.75h-.25V11h.25v-.25ZM13 10.75h-.25V11H13v-.25ZM13.25 10.75H13V11h.25v-.25ZM13.5 10.75h-.25V11h.25v-.25ZM13.75 10.75h-.25V11h.25v-.25ZM14 10.75h-.25V11H14v-.25ZM14.25 10.75H14V11h.25v-.25ZM14.5 10.75h-.25V11h.25v-.25ZM14.75 10.75h-.25V11h.25v-.25ZM15 10.75h-.25V11H15v-.25ZM2.25 11H2v.25h.25V11ZM2.5 11h-.25v.25h.25V11ZM2.75 11H2.5v.25h.25V11ZM3 11h-.25v.25H3V11ZM3.25 11H3v.25h.25V11ZM3.5 11h-.25v.25h.25V11ZM3.75 11H3.5v.25h.25V11ZM4 11h-.25v.25H4V11ZM4.25 11H4v.25h.25V11ZM4.5 11h-.25v.25h.25V11ZM6.75 11H6.5v.25h.25V11ZM7 11h-.25v.25H7V11ZM7.25 11H7v.25h.25V11ZM7.5 11h-.25v.25h.25V11ZM7.75 11H7.5v.25h.25V11ZM8 11h-.25v.25H8V11ZM8.25 11H8v.25h.25V11ZM8.5 11h-.25v.25h.25V11ZM8.75 11H8.5v.25h.25V11ZM9 11h-.25v.25H9V11ZM9.25 11H9v.25h.25V11ZM9.5 11h-.25v.25h.25V11ZM11.75 11h-.25v.25h.25V11ZM12 11h-.25v.25H12V11ZM12.25 11H12v.25h.25V11ZM12.5 11h-.25v.25h.25V11ZM12.75 11h-.25v.25h.25V11ZM13 11h-.25v.25H13V11ZM13.25 11H13v.25h.25V11ZM13.5 11h-.25v.25h.25V11ZM13.75 11h-.25v.25h.25V11ZM14 11h-.25v.25H14V11ZM2.25 11.25H2v.25h.25v-.25ZM2.5 11.25h-.25v.25h.25v-.25ZM2.75 11.25H2.5v.25h.25v-.25ZM3 11.25h-.25v.25H3v-.25ZM3.25 11.25H3v.25h.25v-.25ZM3.5 11.25h-.25v.25h.25v-.25ZM3.75 11.25H3.5v.25h.25v-.25ZM4 11.25h-.25v.25H4v-.25ZM4.25 11.25H4v.25h.25v-.25ZM4.5 11.25h-.25v.25h.25v-.25ZM6 11.25h-.25v.25H6v-.25ZM6.25 11.25H6v.25h.25v-.25ZM6.5 11.25h-.25v.25h.25v-.25ZM6.75 11.25H6.5v.25h.25v-.25ZM7 11.25h-.25v.25H7v-.25ZM7.25 11.25H7v.25h.25v-.25ZM7.5 11.25h-.25v.25h.25v-.25ZM7.75 11.25H7.5v.25h.25v-.25ZM8 11.25h-.25v.25H8v-.25ZM8.25 11.25H8v.25h.25v-.25ZM8.5 11.25h-.25v.25h.25v-.25ZM8.75 11.25H8.5v.25h.25v-.25ZM9 11.25h-.25v.25H9v-.25ZM9.25 11.25H9v.25h.25v-.25ZM9.5 11.25h-.25v.25h.25v-.25ZM9.75 11.25H9.5v.25h.25v-.25ZM10 11.25h-.25v.25H10v-.25ZM10.25 11.25H10v.25h.25v-.25ZM11.75 11.25h-.25v.25h.25v-.25ZM12 11.25h-.25v.25H12v-.25ZM12.25 11.25H12v.25h.25v-.25ZM12.5 11.25h-.25v.25h.25v-.25ZM12.75 11.25h-.25v.25h.25v-.25ZM13 11.25h-.25v.25H13v-.25ZM13.25 11.25H13v.25h.25v-.25ZM13.5 11.25h-.25v.25h.25v-.25ZM13.75 11.25h-.25v.25h.25v-.25ZM14 11.25h-.25v.25H14v-.25ZM2.25 11.5H2v.25h.25v-.25ZM2.5 11.5h-.25v.25h.25v-.25ZM2.75 11.5H2.5v.25h.25v-.25ZM3 11.5h-.25v.25H3v-.25ZM3.25 11.5H3v.25h.25v-.25ZM3.5 11.5h-.25v.25h.25v-.25ZM3.75 11.5H3.5v.25h.25v-.25ZM4 11.5h-.25v.25H4v-.25ZM4.25 11.5H4v.25h.25v-.25ZM4.5 11.5h-.25v.25h.25v-.25ZM6 11.5h-.25v.25H6v-.25ZM6.25 11.5H6v.25h.25v-.25ZM6.5 11.5h-.25v.25h.25v-.25ZM6.75 11.5H6.5v.25h.25v-.25ZM7 11.5h-.25v.25H7v-.25ZM7.25 11.5H7v.25h.25v-.25ZM7.5 11.5h-.25v.25h.25v-.25ZM7.75 11.5H7.5v.25h.25v-.25ZM8 11.5h-.25v.25H8v-.25ZM8.25 11.5H8v.25h.25v-.25ZM8.5 11.5h-.25v.25h.25v-.25ZM8.75 11.5H8.5v.25h.25v-.25ZM9 11.5h-.25v.25H9v-.25ZM9.25 11.5H9v.25h.25v-.25ZM9.5 11.5h-.25v.25h.25v-.25ZM9.75 11.5H9.5v.25h.25v-.25ZM10 11.5h-.25v.25H10v-.25ZM10.25 11.5H10v.25h.25v-.25ZM11.75 11.5h-.25v.25h.25v-.25ZM12 11.5h-.25v.25H12v-.25ZM12.25 11.5H12v.25h.25v-.25ZM12.5 11.5h-.25v.25h.25v-.25ZM12.75 11.5h-.25v.25h.25v-.25ZM13 11.5h-.25v.25H13v-.25ZM13.25 11.5H13v.25h.25v-.25ZM13.5 11.5h-.25v.25h.25v-.25ZM13.75 11.5h-.25v.25h.25v-.25ZM14 11.5h-.25v.25H14v-.25ZM2.25 11.75H2V12h.25v-.25ZM2.5 11.75h-.25V12h.25v-.25ZM2.75 11.75H2.5V12h.25v-.25ZM3 11.75h-.25V12H3v-.25ZM3.25 11.75H3V12h.25v-.25ZM3.5 11.75h-.25V12h.25v-.25ZM3.75 11.75H3.5V12h.25v-.25ZM4 11.75h-.25V12H4v-.25ZM4.25 11.75H4V12h.25v-.25ZM4.5 11.75h-.25V12h.25v-.25ZM4.75 11.75H4.5V12h.25v-.25ZM5 11.75h-.25V12H5v-.25ZM5.25 11.75H5V12h.25v-.25ZM5.5 11.75h-.25V12h.25v-.25ZM5.75 11.75H5.5V12h.25v-.25ZM6 11.75h-.25V12H6v-.25ZM6.25 11.75H6V12h.25v-.25ZM6.5 11.75h-.25V12h.25v-.25ZM6.75 11.75H6.5V12h.25v-.25ZM7 11.75h-.25V12H7v-.25ZM7.25 11.75H7V12h.25v-.25ZM7.5 11.75h-.25V12h.25v-.25ZM7.75 11.75H7.5V12h.25v-.25ZM8 11.75h-.25V12H8v-.25ZM8.25 11.75H8V12h.25v-.25ZM8.5 11.75h-.25V12h.25v-.25ZM8.75 11.75H8.5V12h.25v-.25ZM9 11.75h-.25V12H9v-.25ZM9.25 11.75H9V12h.25v-.25ZM9.5 11.75h-.25V12h.25v-.25ZM9.75 11.75H9.5V12h.25v-.25ZM10 11.75h-.25V12H10v-.25ZM10.25 11.75H10V12h.25v-.25ZM10.5 11.75h-.25V12h.25v-.25ZM10.75 11.75h-.25V12h.25v-.25ZM11 11.75h-.25V12H11v-.25ZM11.25 11.75H11V12h.25v-.25ZM11.5 11.75h-.25V12h.25v-.25ZM11.75 11.75h-.25V12h.25v-.25ZM12 11.75h-.25V12H12v-.25ZM12.25 11.75H12V12h.25v-.25ZM12.5 11.75h-.25V12h.25v-.25ZM12.75 11.75h-.25V12h.25v-.25ZM13 11.75h-.25V12H13v-.25ZM13.25 11.75H13V12h.25v-.25ZM13.5 11.75h-.25V12h.25v-.25ZM13.75 11.75h-.25V12h.25v-.25ZM14 11.75h-.25V12H14v-.25ZM2.25 12H2v.25h.25V12ZM2.5 12h-.25v.25h.25V12ZM2.75 12H2.5v.25h.25V12ZM3 12h-.25v.25H3V12ZM3.25 12H3v.25h.25V12ZM3.5 12h-.25v.25h.25V12ZM3.75 12H3.5v.25h.25V12ZM4 12h-.25v.25H4V12ZM4.25 12H4v.25h.25V12ZM4.5 12h-.25v.25h.25V12ZM4.75 12H4.5v.25h.25V12ZM5 12h-.25v.25H5V12ZM5.25 12H5v.25h.25V12ZM5.5 12h-.25v.25h.25V12ZM5.75 12H5.5v.25h.25V12ZM6 12h-.25v.25H6V12ZM6.25 12H6v.25h.25V12ZM6.5 12h-.25v.25h.25V12ZM6.75 12H6.5v.25h.25V12ZM7 12h-.25v.25H7V12ZM7.25 12H7v.25h.25V12ZM7.5 12h-.25v.25h.25V12ZM7.75 12H7.5v.25h.25V12ZM8 12h-.25v.25H8V12ZM8.25 12H8v.25h.25V12ZM8.5 12h-.25v.25h.25V12ZM8.75 12H8.5v.25h.25V12ZM9 12h-.25v.25H9V12ZM9.25 12H9v.25h.25V12ZM9.5 12h-.25v.25h.25V12ZM9.75 12H9.5v.25h.25V12ZM10 12h-.25v.25H10V12ZM10.25 12H10v.25h.25V12ZM10.5 12h-.25v.25h.25V12ZM10.75 12h-.25v.25h.25V12ZM11 12h-.25v.25H11V12ZM11.25 12H11v.25h.25V12ZM11.5 12h-.25v.25h.25V12ZM11.75 12h-.25v.25h.25V12ZM12 12h-.25v.25H12V12ZM12.25 12H12v.25h.25V12ZM12.5 12h-.25v.25h.25V12ZM12.75 12h-.25v.25h.25V12ZM13 12h-.25v.25H13V12ZM13.25 12H13v.25h.25V12ZM13.5 12h-.25v.25h.25V12ZM13.75 12h-.25v.25h.25V12ZM14 12h-.25v.25H14V12ZM2.25 12.25H2v.25h.25v-.25ZM2.5 12.25h-.25v.25h.25v-.25ZM2.75 12.25H2.5v.25h.25v-.25ZM3 12.25h-.25v.25H3v-.25ZM3.25 12.25H3v.25h.25v-.25ZM3.5 12.25h-.25v.25h.25v-.25ZM3.75 12.25H3.5v.25h.25v-.25ZM4 12.25h-.25v.25H4v-.25ZM4.25 12.25H4v.25h.25v-.25ZM4.5 12.25h-.25v.25h.25v-.25ZM4.75 12.25H4.5v.25h.25v-.25ZM5 12.25h-.25v.25H5v-.25ZM5.25 12.25H5v.25h.25v-.25ZM5.5 12.25h-.25v.25h.25v-.25ZM5.75 12.25H5.5v.25h.25v-.25ZM6 12.25h-.25v.25H6v-.25ZM6.25 12.25H6v.25h.25v-.25ZM6.5 12.25h-.25v.25h.25v-.25ZM6.75 12.25H6.5v.25h.25v-.25ZM7 12.25h-.25v.25H7v-.25ZM7.25 12.25H7v.25h.25v-.25ZM7.5 12.25h-.25v.25h.25v-.25ZM7.75 12.25H7.5v.25h.25v-.25ZM8 12.25h-.25v.25H8v-.25ZM8.25 12.25H8v.25h.25v-.25ZM8.5 12.25h-.25v.25h.25v-.25ZM8.75 12.25H8.5v.25h.25v-.25ZM9 12.25h-.25v.25H9v-.25ZM9.25 12.25H9v.25h.25v-.25ZM9.5 12.25h-.25v.25h.25v-.25ZM9.75 12.25H9.5v.25h.25v-.25ZM10 12.25h-.25v.25H10v-.25ZM10.25 12.25H10v.25h.25v-.25ZM10.5 12.25h-.25v.25h.25v-.25ZM10.75 12.25h-.25v.25h.25v-.25ZM11 12.25h-.25v.25H11v-.25ZM11.25 12.25H11v.25h.25v-.25ZM11.5 12.25h-.25v.25h.25v-.25ZM11.75 12.25h-.25v.25h.25v-.25ZM12 12.25h-.25v.25H12v-.25ZM12.25 12.25H12v.25h.25v-.25ZM12.5 12.25h-.25v.25h.25v-.25ZM12.75 12.25h-.25v.25h.25v-.25ZM13 12.25h-.25v.25H13v-.25ZM13.25 12.25H13v.25h.25v-.25ZM13.5 12.25h-.25v.25h.25v-.25ZM13.75 12.25h-.25v.25h.25v-.25ZM14 12.25h-.25v.25H14v-.25ZM2.25 12.5H2v.25h.25v-.25ZM2.5 12.5h-.25v.25h.25v-.25ZM2.75 12.5H2.5v.25h.25v-.25ZM3 12.5h-.25v.25H3v-.25ZM3.25 12.5H3v.25h.25v-.25ZM3.5 12.5h-.25v.25h.25v-.25ZM3.75 12.5H3.5v.25h.25v-.25ZM4 12.5h-.25v.25H4v-.25ZM4.25 12.5H4v.25h.25v-.25ZM4.5 12.5h-.25v.25h.25v-.25ZM4.75 12.5H4.5v.25h.25v-.25ZM5 12.5h-.25v.25H5v-.25ZM5.25 12.5H5v.25h.25v-.25ZM5.5 12.5h-.25v.25h.25v-.25ZM5.75 12.5H5.5v.25h.25v-.25ZM6 12.5h-.25v.25H6v-.25ZM6.25 12.5H6v.25h.25v-.25ZM6.5 12.5h-.25v.25h.25v-.25ZM6.75 12.5H6.5v.25h.25v-.25ZM7 12.5h-.25v.25H7v-.25ZM7.25 12.5H7v.25h.25v-.25ZM7.5 12.5h-.25v.25h.25v-.25ZM7.75 12.5H7.5v.25h.25v-.25ZM8 12.5h-.25v.25H8v-.25ZM8.25 12.5H8v.25h.25v-.25ZM8.5 12.5h-.25v.25h.25v-.25ZM8.75 12.5H8.5v.25h.25v-.25ZM9 12.5h-.25v.25H9v-.25ZM9.25 12.5H9v.25h.25v-.25ZM9.5 12.5h-.25v.25h.25v-.25ZM9.75 12.5H9.5v.25h.25v-.25ZM10 12.5h-.25v.25H10v-.25ZM10.25 12.5H10v.25h.25v-.25ZM10.5 12.5h-.25v.25h.25v-.25ZM10.75 12.5h-.25v.25h.25v-.25ZM11 12.5h-.25v.25H11v-.25ZM11.25 12.5H11v.25h.25v-.25ZM11.5 12.5h-.25v.25h.25v-.25ZM11.75 12.5h-.25v.25h.25v-.25ZM12 12.5h-.25v.25H12v-.25ZM12.25 12.5H12v.25h.25v-.25ZM12.5 12.5h-.25v.25h.25v-.25ZM12.75 12.5h-.25v.25h.25v-.25ZM13 12.5h-.25v.25H13v-.25ZM13.25 12.5H13v.25h.25v-.25ZM13.5 12.5h-.25v.25h.25v-.25ZM13.75 12.5h-.25v.25h.25v-.25ZM14 12.5h-.25v.25H14v-.25ZM2.25 12.75H2V13h.25v-.25ZM2.5 12.75h-.25V13h.25v-.25ZM2.75 12.75H2.5V13h.25v-.25ZM3 12.75h-.25V13H3v-.25ZM3.25 12.75H3V13h.25v-.25ZM3.5 12.75h-.25V13h.25v-.25ZM3.75 12.75H3.5V13h.25v-.25ZM4 12.75h-.25V13H4v-.25ZM4.25 12.75H4V13h.25v-.25ZM4.5 12.75h-.25V13h.25v-.25ZM4.75 12.75H4.5V13h.25v-.25ZM5 12.75h-.25V13H5v-.25ZM5.25 12.75H5V13h.25v-.25ZM5.5 12.75h-.25V13h.25v-.25ZM5.75 12.75H5.5V13h.25v-.25ZM6 12.75h-.25V13H6v-.25ZM6.25 12.75H6V13h.25v-.25ZM6.5 12.75h-.25V13h.25v-.25ZM6.75 12.75H6.5V13h.25v-.25ZM7 12.75h-.25V13H7v-.25ZM7.25 12.75H7V13h.25v-.25ZM7.5 12.75h-.25V13h.25v-.25ZM7.75 12.75H7.5V13h.25v-.25ZM8 12.75h-.25V13H8v-.25ZM8.25 12.75H8V13h.25v-.25ZM8.5 12.75h-.25V13h.25v-.25ZM8.75 12.75H8.5V13h.25v-.25ZM9 12.75h-.25V13H9v-.25ZM9.25 12.75H9V13h.25v-.25ZM9.5 12.75h-.25V13h.25v-.25ZM9.75 12.75H9.5V13h.25v-.25ZM10 12.75h-.25V13H10v-.25ZM10.25 12.75H10V13h.25v-.25ZM10.5 12.75h-.25V13h.25v-.25ZM10.75 12.75h-.25V13h.25v-.25ZM11 12.75h-.25V13H11v-.25ZM11.25 12.75H11V13h.25v-.25ZM11.5 12.75h-.25V13h.25v-.25ZM11.75 12.75h-.25V13h.25v-.25ZM12 12.75h-.25V13H12v-.25ZM12.25 12.75H12V13h.25v-.25ZM12.5 12.75h-.25V13h.25v-.25ZM12.75 12.75h-.25V13h.25v-.25ZM13 12.75h-.25V13H13v-.25ZM13.25 12.75H13V13h.25v-.25ZM13.5 12.75h-.25V13h.25v-.25ZM13.75 12.75h-.25V13h.25v-.25ZM14 12.75h-.25V13H14v-.25ZM3.25 13H3v.25h.25V13ZM3.5 13h-.25v.25h.25V13ZM3.75 13H3.5v.25h.25V13ZM4 13h-.25v.25H4V13ZM4.25 13H4v.25h.25V13ZM4.5 13h-.25v.25h.25V13ZM4.75 13H4.5v.25h.25V13ZM5 13h-.25v.25H5V13ZM5.25 13H5v.25h.25V13ZM5.5 13h-.25v.25h.25V13ZM5.75 13H5.5v.25h.25V13ZM6 13h-.25v.25H6V13ZM6.25 13H6v.25h.25V13ZM6.5 13h-.25v.25h.25V13ZM6.75 13H6.5v.25h.25V13ZM7 13h-.25v.25H7V13ZM7.25 13H7v.25h.25V13ZM7.5 13h-.25v.25h.25V13ZM7.75 13H7.5v.25h.25V13ZM8 13h-.25v.25H8V13ZM8.25 13H8v.25h.25V13ZM8.5 13h-.25v.25h.25V13ZM8.75 13H8.5v.25h.25V13ZM9 13h-.25v.25H9V13ZM9.25 13H9v.25h.25V13ZM9.5 13h-.25v.25h.25V13ZM9.75 13H9.5v.25h.25V13ZM10 13h-.25v.25H10V13ZM10.25 13H10v.25h.25V13ZM10.5 13h-.25v.25h.25V13ZM10.75 13h-.25v.25h.25V13ZM11 13h-.25v.25H11V13ZM11.25 13H11v.25h.25V13ZM11.5 13h-.25v.25h.25V13ZM11.75 13h-.25v.25h.25V13ZM12 13h-.25v.25H12V13ZM12.25 13H12v.25h.25V13ZM12.5 13h-.25v.25h.25V13ZM12.75 13h-.25v.25h.25V13ZM13 13h-.25v.25H13V13ZM3.25 13.25H3v.25h.25v-.25ZM3.5 13.25h-.25v.25h.25v-.25ZM3.75 13.25H3.5v.25h.25v-.25ZM4 13.25h-.25v.25H4v-.25ZM4.25 13.25H4v.25h.25v-.25ZM4.5 13.25h-.25v.25h.25v-.25ZM4.75 13.25H4.5v.25h.25v-.25ZM5 13.25h-.25v.25H5v-.25ZM5.25 13.25H5v.25h.25v-.25ZM5.5 13.25h-.25v.25h.25v-.25ZM5.75 13.25H5.5v.25h.25v-.25ZM6 13.25h-.25v.25H6v-.25ZM6.25 13.25H6v.25h.25v-.25ZM6.5 13.25h-.25v.25h.25v-.25ZM6.75 13.25H6.5v.25h.25v-.25ZM7 13.25h-.25v.25H7v-.25ZM7.25 13.25H7v.25h.25v-.25ZM7.5 13.25h-.25v.25h.25v-.25ZM7.75 13.25H7.5v.25h.25v-.25ZM8 13.25h-.25v.25H8v-.25ZM8.25 13.25H8v.25h.25v-.25ZM8.5 13.25h-.25v.25h.25v-.25ZM8.75 13.25H8.5v.25h.25v-.25ZM9 13.25h-.25v.25H9v-.25ZM9.25 13.25H9v.25h.25v-.25ZM9.5 13.25h-.25v.25h.25v-.25ZM9.75 13.25H9.5v.25h.25v-.25ZM10 13.25h-.25v.25H10v-.25ZM10.25 13.25H10v.25h.25v-.25ZM10.5 13.25h-.25v.25h.25v-.25ZM10.75 13.25h-.25v.25h.25v-.25ZM11 13.25h-.25v.25H11v-.25ZM11.25 13.25H11v.25h.25v-.25ZM11.5 13.25h-.25v.25h.25v-.25ZM11.75 13.25h-.25v.25h.25v-.25ZM12 13.25h-.25v.25H12v-.25ZM12.25 13.25H12v.25h.25v-.25ZM12.5 13.25h-.25v.25h.25v-.25ZM12.75 13.25h-.25v.25h.25v-.25ZM13 13.25h-.25v.25H13v-.25ZM3.25 13.5H3v.25h.25v-.25ZM3.5 13.5h-.25v.25h.25v-.25ZM3.75 13.5H3.5v.25h.25v-.25ZM4 13.5h-.25v.25H4v-.25ZM4.25 13.5H4v.25h.25v-.25ZM4.5 13.5h-.25v.25h.25v-.25ZM4.75 13.5H4.5v.25h.25v-.25ZM5 13.5h-.25v.25H5v-.25ZM5.25 13.5H5v.25h.25v-.25ZM5.5 13.5h-.25v.25h.25v-.25ZM5.75 13.5H5.5v.25h.25v-.25ZM6 13.5h-.25v.25H6v-.25ZM6.25 13.5H6v.25h.25v-.25ZM6.5 13.5h-.25v.25h.25v-.25ZM6.75 13.5H6.5v.25h.25v-.25ZM7 13.5h-.25v.25H7v-.25ZM7.25 13.5H7v.25h.25v-.25ZM7.5 13.5h-.25v.25h.25v-.25ZM7.75 13.5H7.5v.25h.25v-.25ZM8 13.5h-.25v.25H8v-.25ZM8.25 13.5H8v.25h.25v-.25ZM8.5 13.5h-.25v.25h.25v-.25ZM8.75 13.5H8.5v.25h.25v-.25ZM9 13.5h-.25v.25H9v-.25ZM9.25 13.5H9v.25h.25v-.25ZM9.5 13.5h-.25v.25h.25v-.25ZM9.75 13.5H9.5v.25h.25v-.25ZM10 13.5h-.25v.25H10v-.25ZM10.25 13.5H10v.25h.25v-.25ZM10.5 13.5h-.25v.25h.25v-.25ZM10.75 13.5h-.25v.25h.25v-.25ZM11 13.5h-.25v.25H11v-.25ZM11.25 13.5H11v.25h.25v-.25ZM11.5 13.5h-.25v.25h.25v-.25ZM11.75 13.5h-.25v.25h.25v-.25ZM12 13.5h-.25v.25H12v-.25ZM12.25 13.5H12v.25h.25v-.25ZM12.5 13.5h-.25v.25h.25v-.25ZM12.75 13.5h-.25v.25h.25v-.25ZM13 13.5h-.25v.25H13v-.25ZM3.25 13.75H3V14h.25v-.25ZM3.5 13.75h-.25V14h.25v-.25ZM3.75 13.75H3.5V14h.25v-.25ZM4 13.75h-.25V14H4v-.25ZM4.25 13.75H4V14h.25v-.25ZM4.5 13.75h-.25V14h.25v-.25ZM4.75 13.75H4.5V14h.25v-.25ZM5 13.75h-.25V14H5v-.25ZM5.25 13.75H5V14h.25v-.25ZM5.5 13.75h-.25V14h.25v-.25ZM5.75 13.75H5.5V14h.25v-.25ZM6 13.75h-.25V14H6v-.25ZM6.25 13.75H6V14h.25v-.25ZM6.5 13.75h-.25V14h.25v-.25ZM6.75 13.75H6.5V14h.25v-.25ZM7 13.75h-.25V14H7v-.25ZM7.25 13.75H7V14h.25v-.25ZM7.5 13.75h-.25V14h.25v-.25ZM7.75 13.75H7.5V14h.25v-.25ZM8 13.75h-.25V14H8v-.25ZM8.25 13.75H8V14h.25v-.25ZM8.5 13.75h-.25V14h.25v-.25ZM8.75 13.75H8.5V14h.25v-.25ZM9 13.75h-.25V14H9v-.25ZM9.25 13.75H9V14h.25v-.25ZM9.5 13.75h-.25V14h.25v-.25ZM9.75 13.75H9.5V14h.25v-.25ZM10 13.75h-.25V14H10v-.25ZM10.25 13.75H10V14h.25v-.25ZM10.5 13.75h-.25V14h.25v-.25ZM10.75 13.75h-.25V14h.25v-.25ZM11 13.75h-.25V14H11v-.25ZM11.25 13.75H11V14h.25v-.25ZM11.5 13.75h-.25V14h.25v-.25ZM11.75 13.75h-.25V14h.25v-.25ZM12 13.75h-.25V14H12v-.25ZM12.25 13.75H12V14h.25v-.25ZM12.5 13.75h-.25V14h.25v-.25ZM12.75 13.75h-.25V14h.25v-.25ZM13 13.75h-.25V14H13v-.25ZM4.25 14H4v.25h.25V14ZM4.5 14h-.25v.25h.25V14ZM4.75 14H4.5v.25h.25V14ZM5 14h-.25v.25H5V14ZM5.25 14H5v.25h.25V14ZM5.5 14h-.25v.25h.25V14ZM5.75 14H5.5v.25h.25V14ZM6 14h-.25v.25H6V14ZM6.25 14H6v.25h.25V14ZM6.5 14h-.25v.25h.25V14ZM6.75 14H6.5v.25h.25V14ZM7 14h-.25v.25H7V14ZM7.25 14H7v.25h.25V14ZM7.5 14h-.25v.25h.25V14ZM7.75 14H7.5v.25h.25V14ZM8 14h-.25v.25H8V14ZM8.25 14H8v.25h.25V14ZM8.5 14h-.25v.25h.25V14ZM8.75 14H8.5v.25h.25V14ZM9 14h-.25v.25H9V14ZM9.25 14H9v.25h.25V14ZM9.5 14h-.25v.25h.25V14ZM9.75 14H9.5v.25h.25V14ZM10 14h-.25v.25H10V14ZM10.25 14H10v.25h.25V14ZM10.5 14h-.25v.25h.25V14ZM10.75 14h-.25v.25h.25V14ZM11 14h-.25v.25H11V14ZM11.25 14H11v.25h.25V14ZM11.5 14h-.25v.25h.25V14ZM11.75 14h-.25v.25h.25V14ZM12 14h-.25v.25H12V14ZM4.25 14.25H4v.25h.25v-.25ZM4.5 14.25h-.25v.25h.25v-.25ZM4.75 14.25H4.5v.25h.25v-.25ZM5 14.25h-.25v.25H5v-.25ZM5.25 14.25H5v.25h.25v-.25ZM5.5 14.25h-.25v.25h.25v-.25ZM5.75 14.25H5.5v.25h.25v-.25ZM6 14.25h-.25v.25H6v-.25ZM6.25 14.25H6v.25h.25v-.25ZM6.5 14.25h-.25v.25h.25v-.25ZM6.75 14.25H6.5v.25h.25v-.25ZM7 14.25h-.25v.25H7v-.25ZM7.25 14.25H7v.25h.25v-.25ZM7.5 14.25h-.25v.25h.25v-.25ZM7.75 14.25H7.5v.25h.25v-.25ZM8 14.25h-.25v.25H8v-.25ZM8.25 14.25H8v.25h.25v-.25ZM8.5 14.25h-.25v.25h.25v-.25ZM8.75 14.25H8.5v.25h.25v-.25ZM9 14.25h-.25v.25H9v-.25ZM9.25 14.25H9v.25h.25v-.25ZM9.5 14.25h-.25v.25h.25v-.25ZM9.75 14.25H9.5v.25h.25v-.25ZM10 14.25h-.25v.25H10v-.25ZM10.25 14.25H10v.25h.25v-.25ZM10.5 14.25h-.25v.25h.25v-.25ZM10.75 14.25h-.25v.25h.25v-.25ZM11 14.25h-.25v.25H11v-.25ZM11.25 14.25H11v.25h.25v-.25ZM11.5 14.25h-.25v.25h.25v-.25ZM11.75 14.25h-.25v.25h.25v-.25ZM12 14.25h-.25v.25H12v-.25ZM4.25 14.5H4v.25h.25v-.25ZM4.5 14.5h-.25v.25h.25v-.25ZM4.75 14.5H4.5v.25h.25v-.25ZM5 14.5h-.25v.25H5v-.25ZM5.25 14.5H5v.25h.25v-.25ZM5.5 14.5h-.25v.25h.25v-.25ZM5.75 14.5H5.5v.25h.25v-.25ZM6 14.5h-.25v.25H6v-.25ZM6.25 14.5H6v.25h.25v-.25ZM6.5 14.5h-.25v.25h.25v-.25ZM6.75 14.5H6.5v.25h.25v-.25ZM7 14.5h-.25v.25H7v-.25ZM7.25 14.5H7v.25h.25v-.25ZM7.5 14.5h-.25v.25h.25v-.25ZM7.75 14.5H7.5v.25h.25v-.25ZM8 14.5h-.25v.25H8v-.25ZM8.25 14.5H8v.25h.25v-.25ZM8.5 14.5h-.25v.25h.25v-.25ZM8.75 14.5H8.5v.25h.25v-.25ZM9 14.5h-.25v.25H9v-.25ZM9.25 14.5H9v.25h.25v-.25ZM9.5 14.5h-.25v.25h.25v-.25ZM9.75 14.5H9.5v.25h.25v-.25ZM10 14.5h-.25v.25H10v-.25ZM10.25 14.5H10v.25h.25v-.25ZM10.5 14.5h-.25v.25h.25v-.25ZM10.75 14.5h-.25v.25h.25v-.25ZM11 14.5h-.25v.25H11v-.25ZM11.25 14.5H11v.25h.25v-.25ZM11.5 14.5h-.25v.25h.25v-.25ZM11.75 14.5h-.25v.25h.25v-.25ZM12 14.5h-.25v.25H12v-.25ZM4.25 14.75H4V15h.25v-.25ZM4.5 14.75h-.25V15h.25v-.25ZM4.75 14.75H4.5V15h.25v-.25ZM5 14.75h-.25V15H5v-.25ZM5.25 14.75H5V15h.25v-.25ZM5.5 14.75h-.25V15h.25v-.25ZM5.75 14.75H5.5V15h.25v-.25ZM6 14.75h-.25V15H6v-.25ZM6.25 14.75H6V15h.25v-.25ZM6.5 14.75h-.25V15h.25v-.25ZM6.75 14.75H6.5V15h.25v-.25ZM7 14.75h-.25V15H7v-.25ZM7.25 14.75H7V15h.25v-.25ZM7.5 14.75h-.25V15h.25v-.25ZM7.75 14.75H7.5V15h.25v-.25ZM8 14.75h-.25V15H8v-.25ZM8.25 14.75H8V15h.25v-.25ZM8.5 14.75h-.25V15h.25v-.25ZM8.75 14.75H8.5V15h.25v-.25ZM9 14.75h-.25V15H9v-.25ZM9.25 14.75H9V15h.25v-.25ZM9.5 14.75h-.25V15h.25v-.25ZM9.75 14.75H9.5V15h.25v-.25ZM10 14.75h-.25V15H10v-.25ZM10.25 14.75H10V15h.25v-.25ZM10.5 14.75h-.25V15h.25v-.25ZM10.75 14.75h-.25V15h.25v-.25ZM11 14.75h-.25V15H11v-.25ZM11.25 14.75H11V15h.25v-.25ZM11.5 14.75h-.25V15h.25v-.25ZM11.75 14.75h-.25V15h.25v-.25ZM12 14.75h-.25V15H12v-.25ZM6.25 15H6v.25h.25V15ZM6.5 15h-.25v.25h.25V15ZM6.75 15H6.5v.25h.25V15ZM7 15h-.25v.25H7V15ZM7.25 15H7v.25h.25V15ZM7.5 15h-.25v.25h.25V15ZM7.75 15H7.5v.25h.25V15ZM8 15h-.25v.25H8V15ZM8.25 15H8v.25h.25V15ZM8.5 15h-.25v.25h.25V15ZM8.75 15H8.5v.25h.25V15ZM9 15h-.25v.25H9V15ZM9.25 15H9v.25h.25V15ZM9.5 15h-.25v.25h.25V15ZM9.75 15H9.5v.25h.25V15ZM10 15h-.25v.25H10V15ZM6.25 15.25H6v.25h.25v-.25ZM6.5 15.25h-.25v.25h.25v-.25ZM6.75 15.25H6.5v.25h.25v-.25ZM7 15.25h-.25v.25H7v-.25ZM7.25 15.25H7v.25h.25v-.25ZM7.5 15.25h-.25v.25h.25v-.25ZM7.75 15.25H7.5v.25h.25v-.25ZM8 15.25h-.25v.25H8v-.25ZM8.25 15.25H8v.25h.25v-.25ZM8.5 15.25h-.25v.25h.25v-.25ZM8.75 15.25H8.5v.25h.25v-.25ZM9 15.25h-.25v.25H9v-.25ZM9.25 15.25H9v.25h.25v-.25ZM9.5 15.25h-.25v.25h.25v-.25ZM9.75 15.25H9.5v.25h.25v-.25ZM10 15.25h-.25v.25H10v-.25ZM6.25 15.5H6v.25h.25v-.25ZM6.5 15.5h-.25v.25h.25v-.25ZM6.75 15.5H6.5v.25h.25v-.25ZM7 15.5h-.25v.25H7v-.25ZM7.25 15.5H7v.25h.25v-.25ZM7.5 15.5h-.25v.25h.25v-.25ZM7.75 15.5H7.5v.25h.25v-.25ZM8 15.5h-.25v.25H8v-.25ZM8.25 15.5H8v.25h.25v-.25ZM8.5 15.5h-.25v.25h.25v-.25ZM8.75 15.5H8.5v.25h.25v-.25ZM9 15.5h-.25v.25H9v-.25ZM9.25 15.5H9v.25h.25v-.25ZM9.5 15.5h-.25v.25h.25v-.25ZM9.75 15.5H9.5v.25h.25v-.25ZM10 15.5h-.25v.25H10v-.25ZM6.25 15.75H6V16h.25v-.25ZM6.5 15.75h-.25V16h.25v-.25ZM6.75 15.75H6.5V16h.25v-.25ZM7 15.75h-.25V16H7v-.25ZM7.25 15.75H7V16h.25v-.25ZM7.5 15.75h-.25V16h.25v-.25ZM7.75 15.75H7.5V16h.25v-.25ZM8 15.75h-.25V16H8v-.25ZM8.25 15.75H8V16h.25v-.25ZM8.5 15.75h-.25V16h.25v-.25ZM8.75 15.75H8.5V16h.25v-.25ZM9 15.75h-.25V16H9v-.25ZM9.25 15.75H9V16h.25v-.25ZM9.5 15.75h-.25V16h.25v-.25ZM9.75 15.75H9.5V16h.25v-.25ZM10 15.75h-.25V16H10v-.25Z" fill="#FEFEFE"/>
</svg>
