<svg width="450" height="50" viewBox="0 0 450 50" fill="none" xmlns="http://www.w3.org/2000/svg">
<mask id="path-1-inside-1_596_4720" fill="white">
<path fill-rule="evenodd" clip-rule="evenodd" d="M4 50C1.79086 50 0 48.2091 0 46V26.379C0 25.0228 0.687138 23.759 1.82537 23.0217L36.3742 0.642775C37.0219 0.22323 37.7771 0 38.5489 0H446C448.209 0 450 1.79086 450 4V23.0943C450 24.4505 449.313 25.7143 448.175 26.4516L412.813 49.3572C412.165 49.7768 411.41 50 410.638 50H4Z"/>
</mask>
<path d="M412.813 49.3572L412.269 48.5179L412.813 49.3572ZM448.175 26.4516L448.718 27.2909L448.175 26.4516ZM36.3742 0.642775L36.9179 1.48208L36.3742 0.642775ZM1.82537 23.0217L2.36902 23.861L1.82537 23.0217ZM-1 26.379V46H1V26.379H-1ZM35.8306 -0.196531L1.28171 22.1824L2.36902 23.861L36.9179 1.48208L35.8306 -0.196531ZM446 -1H38.5489V1H446V-1ZM451 23.0943V4H449V23.0943H451ZM413.356 50.1965L448.718 27.2909L447.631 25.6122L412.269 48.5179L413.356 50.1965ZM4 51H410.638V49H4V51ZM412.269 48.5179C411.783 48.8326 411.217 49 410.638 49V51C411.603 51 412.547 50.721 413.356 50.1965L412.269 48.5179ZM449 23.0943C449 24.1114 448.485 25.0593 447.631 25.6122L448.718 27.2909C450.141 26.3693 451 24.7895 451 23.0943H449ZM446 1C447.657 1 449 2.34315 449 4H451C451 1.23858 448.761 -1 446 -1V1ZM36.9179 1.48208C37.4037 1.16742 37.9701 1 38.5489 1V-1C37.5842 -1 36.6402 -0.720961 35.8306 -0.196531L36.9179 1.48208ZM-1 46C-1 48.7614 1.23858 51 4 51V49C2.34315 49 1 47.6569 1 46H-1ZM1 26.379C1 25.3618 1.51535 24.414 2.36902 23.861L1.28171 22.1824C-0.141078 23.104 -1 24.6838 -1 26.379H1Z" fill="#FEFEFE" mask="url(#path-1-inside-1_596_4720)"/>
</svg>
