<svg width="16" height="16" viewBox="0 0 16 16" fill="none" xmlns="http://www.w3.org/2000/svg">
<g clip-path="url(#clip0_2483_7984)">
<path d="M9 0H8V1H9V0Z" fill="#FEFEFE"/>
<path d="M8 1H7V2H8V1Z" fill="#FEFEFE"/>
<path d="M9 1H8V2H9V1Z" fill="#FEFEFE"/>
<path d="M9 2H8V3H9V2Z" fill="#FEFEFE"/>
<path d="M9 3H8V4H9V3Z" fill="#FEFEFE"/>
<path d="M9 4H8V5H9V4Z" fill="#FEFEFE"/>
<path d="M8 5H7V6H8V5Z" fill="#FEFEFE"/>
<path d="M9 5H8V6H9V5Z" fill="#FEFEFE"/>
<path d="M10 5H9V6H10V5Z" fill="#FEFEFE"/>
<path d="M6 7H5V8H6V7Z" fill="#FEFEFE"/>
<path d="M7 7H6V8H7V7Z" fill="#FEFEFE"/>
<path d="M8 7H7V8H8V7Z" fill="#FEFEFE"/>
<path d="M9 7H8V8H9V7Z" fill="#FEFEFE"/>
<path d="M10 7H9V8H10V7Z" fill="#FEFEFE"/>
<path d="M11 7H10V8H11V7Z" fill="#FEFEFE"/>
<path d="M12 7H11V8H12V7Z" fill="#FEFEFE"/>
<path d="M6 8H5V9H6V8Z" fill="#FEFEFE"/>
<path d="M7 8H6V9H7V8Z" fill="#FEFEFE"/>
<path d="M8 8H7V9H8V8Z" fill="#FEFEFE"/>
<path d="M9 8H8V9H9V8Z" fill="#FEFEFE"/>
<path d="M10 8H9V9H10V8Z" fill="#FEFEFE"/>
<path d="M11 8H10V9H11V8Z" fill="#FEFEFE"/>
<path d="M12 8H11V9H12V8Z" fill="#FEFEFE"/>
<path d="M6 9H5V10H6V9Z" fill="#FEFEFE"/>
<path d="M7 9H6V10H7V9Z" fill="#FEFEFE"/>
<path d="M8 9H7V10H8V9Z" fill="#FEFEFE"/>
<path d="M9 9H8V10H9V9Z" fill="#FEFEFE"/>
<path d="M10 9H9V10H10V9Z" fill="#FEFEFE"/>
<path d="M11 9H10V10H11V9Z" fill="#FEFEFE"/>
<path d="M12 9H11V10H12V9Z" fill="#FEFEFE"/>
<path d="M1 10H0V11H1V10Z" fill="#FEFEFE"/>
<path d="M2 10H1V11H2V10Z" fill="#FEFEFE"/>
<path d="M3 10H2V11H3V10Z" fill="#FEFEFE"/>
<path d="M4 10H3V11H4V10Z" fill="#FEFEFE"/>
<path d="M6 10H5V11H6V10Z" fill="#FEFEFE"/>
<path d="M7 10H6V11H7V10Z" fill="#FEFEFE"/>
<path d="M8 10H7V11H8V10Z" fill="#FEFEFE"/>
<path d="M9 10H8V11H9V10Z" fill="#FEFEFE"/>
<path d="M10 10H9V11H10V10Z" fill="#FEFEFE"/>
<path d="M11 10H10V11H11V10Z" fill="#FEFEFE"/>
<path d="M12 10H11V11H12V10Z" fill="#FEFEFE"/>
<path d="M1 11H0V12H1V11Z" fill="#FEFEFE"/>
<path d="M2 11H1V12H2V11Z" fill="#FEFEFE"/>
<path d="M3 11H2V12H3V11Z" fill="#FEFEFE"/>
<path d="M4 11H3V12H4V11Z" fill="#FEFEFE"/>
<path d="M6 11H5V12H6V11Z" fill="#FEFEFE"/>
<path d="M7 11H6V12H7V11Z" fill="#FEFEFE"/>
<path d="M8 11H7V12H8V11Z" fill="#FEFEFE"/>
<path d="M9 11H8V12H9V11Z" fill="#FEFEFE"/>
<path d="M10 11H9V12H10V11Z" fill="#FEFEFE"/>
<path d="M11 11H10V12H11V11Z" fill="#FEFEFE"/>
<path d="M12 11H11V12H12V11Z" fill="#FEFEFE"/>
<path d="M14 11H13V12H14V11Z" fill="#FEFEFE"/>
<path d="M15 11H14V12H15V11Z" fill="#FEFEFE"/>
<path d="M16 11H15V12H16V11Z" fill="#FEFEFE"/>
<path d="M1 12H0V13H1V12Z" fill="#FEFEFE"/>
<path d="M2 12H1V13H2V12Z" fill="#FEFEFE"/>
<path d="M3 12H2V13H3V12Z" fill="#FEFEFE"/>
<path d="M4 12H3V13H4V12Z" fill="#FEFEFE"/>
<path d="M5 12H4V13H5V12Z" fill="#FEFEFE"/>
<path d="M6 12H5V13H6V12Z" fill="#FEFEFE"/>
<path d="M7 12H6V13H7V12Z" fill="#FEFEFE"/>
<path d="M8 12H7V13H8V12Z" fill="#FEFEFE"/>
<path d="M9 12H8V13H9V12Z" fill="#FEFEFE"/>
<path d="M10 12H9V13H10V12Z" fill="#FEFEFE"/>
<path d="M11 12H10V13H11V12Z" fill="#FEFEFE"/>
<path d="M12 12H11V13H12V12Z" fill="#FEFEFE"/>
<path d="M14 12H13V13H14V12Z" fill="#FEFEFE"/>
<path d="M15 12H14V13H15V12Z" fill="#FEFEFE"/>
<path d="M16 12H15V13H16V12Z" fill="#FEFEFE"/>
<path d="M1 13H0V14H1V13Z" fill="#FEFEFE"/>
<path d="M2 13H1V14H2V13Z" fill="#FEFEFE"/>
<path d="M3 13H2V14H3V13Z" fill="#FEFEFE"/>
<path d="M4 13H3V14H4V13Z" fill="#FEFEFE"/>
<path d="M5 13H4V14H5V13Z" fill="#FEFEFE"/>
<path d="M6 13H5V14H6V13Z" fill="#FEFEFE"/>
<path d="M7 13H6V14H7V13Z" fill="#FEFEFE"/>
<path d="M8 13H7V14H8V13Z" fill="#FEFEFE"/>
<path d="M9 13H8V14H9V13Z" fill="#FEFEFE"/>
<path d="M10 13H9V14H10V13Z" fill="#FEFEFE"/>
<path d="M11 13H10V14H11V13Z" fill="#FEFEFE"/>
<path d="M12 13H11V14H12V13Z" fill="#FEFEFE"/>
<path d="M13 13H12V14H13V13Z" fill="#FEFEFE"/>
<path d="M14 13H13V14H14V13Z" fill="#FEFEFE"/>
<path d="M15 13H14V14H15V13Z" fill="#FEFEFE"/>
<path d="M16 13H15V14H16V13Z" fill="#FEFEFE"/>
<path d="M1 14H0V15H1V14Z" fill="#FEFEFE"/>
<path d="M2 14H1V15H2V14Z" fill="#FEFEFE"/>
<path d="M3 14H2V15H3V14Z" fill="#FEFEFE"/>
<path d="M4 14H3V15H4V14Z" fill="#FEFEFE"/>
<path d="M5 14H4V15H5V14Z" fill="#FEFEFE"/>
<path d="M6 14H5V15H6V14Z" fill="#FEFEFE"/>
<path d="M7 14H6V15H7V14Z" fill="#FEFEFE"/>
<path d="M8 14H7V15H8V14Z" fill="#FEFEFE"/>
<path d="M9 14H8V15H9V14Z" fill="#FEFEFE"/>
<path d="M10 14H9V15H10V14Z" fill="#FEFEFE"/>
<path d="M11 14H10V15H11V14Z" fill="#FEFEFE"/>
<path d="M12 14H11V15H12V14Z" fill="#FEFEFE"/>
<path d="M13 14H12V15H13V14Z" fill="#FEFEFE"/>
<path d="M14 14H13V15H14V14Z" fill="#FEFEFE"/>
<path d="M15 14H14V15H15V14Z" fill="#FEFEFE"/>
<path d="M16 14H15V15H16V14Z" fill="#FEFEFE"/>
<path d="M1 15H0V16H1V15Z" fill="#FEFEFE"/>
<path d="M2 15H1V16H2V15Z" fill="#FEFEFE"/>
<path d="M3 15H2V16H3V15Z" fill="#FEFEFE"/>
<path d="M4 15H3V16H4V15Z" fill="#FEFEFE"/>
<path d="M5 15H4V16H5V15Z" fill="#FEFEFE"/>
<path d="M6 15H5V16H6V15Z" fill="#FEFEFE"/>
<path d="M7 15H6V16H7V15Z" fill="#FEFEFE"/>
<path d="M8 15H7V16H8V15Z" fill="#FEFEFE"/>
<path d="M9 15H8V16H9V15Z" fill="#FEFEFE"/>
<path d="M10 15H9V16H10V15Z" fill="#FEFEFE"/>
<path d="M11 15H10V16H11V15Z" fill="#FEFEFE"/>
<path d="M12 15H11V16H12V15Z" fill="#FEFEFE"/>
<path d="M13 15H12V16H13V15Z" fill="#FEFEFE"/>
<path d="M14 15H13V16H14V15Z" fill="#FEFEFE"/>
<path d="M15 15H14V16H15V15Z" fill="#FEFEFE"/>
<path d="M16 15H15V16H16V15Z" fill="#FEFEFE"/>
</g>
<defs>
<clipPath id="clip0_2483_7984">
<rect width="16" height="16" fill="white"/>
</clipPath>
</defs>
</svg>
