<svg width="16" height="17" viewBox="0 0 16 17" fill="none" xmlns="http://www.w3.org/2000/svg">
<g clip-path="url(#clip0_2483_7899)">
<path d="M8.00028 0H6.85742V1.13333H8.00028V0Z" fill="#FEFEFE"/>
<path d="M9.14286 0H8V1.13333H9.14286V0Z" fill="#FEFEFE"/>
<path d="M6.8577 1.1333H5.71484V2.26663H6.8577V1.1333Z" fill="#FEFEFE"/>
<path d="M8.00028 1.1333H6.85742V2.26663H8.00028V1.1333Z" fill="#FEFEFE"/>
<path d="M9.14286 1.1333H8V2.26663H9.14286V1.1333Z" fill="#FEFEFE"/>
<path d="M10.2854 1.1333H9.14258V2.26663H10.2854V1.1333Z" fill="#FEFEFE"/>
<path d="M5.71512 2.2666H4.57227V3.39993H5.71512V2.2666Z" fill="#FEFEFE"/>
<path d="M6.8577 2.2666H5.71484V3.39993H6.8577V2.2666Z" fill="#FEFEFE"/>
<path d="M8.00028 2.2666H6.85742V3.39993H8.00028V2.2666Z" fill="#FEFEFE"/>
<path d="M9.14286 2.2666H8V3.39993H9.14286V2.2666Z" fill="#FEFEFE"/>
<path d="M10.2854 2.2666H9.14258V3.39993H10.2854V2.2666Z" fill="#FEFEFE"/>
<path d="M5.71512 3.3999H4.57227V4.53324H5.71512V3.3999Z" fill="#FEFEFE"/>
<path d="M6.8577 3.3999H5.71484V4.53324H6.8577V3.3999Z" fill="#FEFEFE"/>
<path d="M8.00028 3.3999H6.85742V4.53324H8.00028V3.3999Z" fill="#FEFEFE"/>
<path d="M9.14286 3.3999H8V4.53324H9.14286V3.3999Z" fill="#FEFEFE"/>
<path d="M10.2854 3.3999H9.14258V4.53324H10.2854V3.3999Z" fill="#FEFEFE"/>
<path d="M11.428 3.3999H10.2852V4.53324H11.428V3.3999Z" fill="#FEFEFE"/>
<path d="M6.8577 4.5332H5.71484V5.66654H6.8577V4.5332Z" fill="#FEFEFE"/>
<path d="M8.00028 4.5332H6.85742V5.66654H8.00028V4.5332Z" fill="#FEFEFE"/>
<path d="M9.14286 4.5332H8V5.66654H9.14286V4.5332Z" fill="#FEFEFE"/>
<path d="M10.2854 4.5332H9.14258V5.66654H10.2854V4.5332Z" fill="#FEFEFE"/>
<path d="M11.428 4.5332H10.2852V5.66654H11.428V4.5332Z" fill="#FEFEFE"/>
<path d="M12.5706 4.5332H11.4277V5.66654H12.5706V4.5332Z" fill="#FEFEFE"/>
<path d="M9.14286 5.6665H8V6.79984H9.14286V5.6665Z" fill="#FEFEFE"/>
<path d="M10.2854 5.6665H9.14258V6.79984H10.2854V5.6665Z" fill="#FEFEFE"/>
<path d="M11.428 5.6665H10.2852V6.79984H11.428V5.6665Z" fill="#FEFEFE"/>
<path d="M12.5706 5.6665H11.4277V6.79984H12.5706V5.6665Z" fill="#FEFEFE"/>
<path d="M13.7151 5.6665H12.5723V6.79984H13.7151V5.6665Z" fill="#FEFEFE"/>
<path d="M14.8577 5.6665H13.7148V6.79984H14.8577V5.6665Z" fill="#FEFEFE"/>
<path d="M8.00028 6.7998H6.85742V7.93314H8.00028V6.7998Z" fill="#FEFEFE"/>
<path d="M9.14286 6.7998H8V7.93314H9.14286V6.7998Z" fill="#FEFEFE"/>
<path d="M10.2854 6.7998H9.14258V7.93314H10.2854V6.7998Z" fill="#FEFEFE"/>
<path d="M11.428 6.7998H10.2852V7.93314H11.428V6.7998Z" fill="#FEFEFE"/>
<path d="M12.5706 6.7998H11.4277V7.93314H12.5706V6.7998Z" fill="#FEFEFE"/>
<path d="M13.7151 6.7998H12.5723V7.93314H13.7151V6.7998Z" fill="#FEFEFE"/>
<path d="M14.8577 6.7998H13.7148V7.93314H14.8577V6.7998Z" fill="#FEFEFE"/>
<path d="M16.0003 6.7998H14.8574V7.93314H16.0003V6.7998Z" fill="#FEFEFE"/>
<path d="M6.8577 7.93311H5.71484V9.06644H6.8577V7.93311Z" fill="#FEFEFE"/>
<path d="M8.00028 7.93311H6.85742V9.06644H8.00028V7.93311Z" fill="#FEFEFE"/>
<path d="M9.14286 7.93311H8V9.06644H9.14286V7.93311Z" fill="#FEFEFE"/>
<path d="M11.428 7.93311H10.2852V9.06644H11.428V7.93311Z" fill="#FEFEFE"/>
<path d="M12.5706 7.93311H11.4277V9.06644H12.5706V7.93311Z" fill="#FEFEFE"/>
<path d="M13.7151 7.93311H12.5723V9.06644H13.7151V7.93311Z" fill="#FEFEFE"/>
<path d="M14.8577 7.93311H13.7148V9.06644H14.8577V7.93311Z" fill="#FEFEFE"/>
<path d="M16.0003 7.93311H14.8574V9.06644H16.0003V7.93311Z" fill="#FEFEFE"/>
<path d="M5.71512 9.06689H4.57227V10.2002H5.71512V9.06689Z" fill="#FEFEFE"/>
<path d="M6.8577 9.06689H5.71484V10.2002H6.8577V9.06689Z" fill="#FEFEFE"/>
<path d="M8.00028 9.06689H6.85742V10.2002H8.00028V9.06689Z" fill="#FEFEFE"/>
<path d="M11.428 9.06689H10.2852V10.2002H11.428V9.06689Z" fill="#FEFEFE"/>
<path d="M12.5706 9.06689H11.4277V10.2002H12.5706V9.06689Z" fill="#FEFEFE"/>
<path d="M13.7151 9.06689H12.5723V10.2002H13.7151V9.06689Z" fill="#FEFEFE"/>
<path d="M14.8577 9.06689H13.7148V10.2002H14.8577V9.06689Z" fill="#FEFEFE"/>
<path d="M4.57059 10.2002H3.42773V11.3335H4.57059V10.2002Z" fill="#FEFEFE"/>
<path d="M5.71512 10.2002H4.57227V11.3335H5.71512V10.2002Z" fill="#FEFEFE"/>
<path d="M6.8577 10.2002H5.71484V11.3335H6.8577V10.2002Z" fill="#FEFEFE"/>
<path d="M12.5706 10.2002H11.4277V11.3335H12.5706V10.2002Z" fill="#FEFEFE"/>
<path d="M13.7151 10.2002H12.5723V11.3335H13.7151V10.2002Z" fill="#FEFEFE"/>
<path d="M3.42801 11.3335H2.28516V12.4668H3.42801V11.3335Z" fill="#FEFEFE"/>
<path d="M4.57059 11.3335H3.42773V12.4668H4.57059V11.3335Z" fill="#FEFEFE"/>
<path d="M5.71512 11.3335H4.57227V12.4668H5.71512V11.3335Z" fill="#FEFEFE"/>
<path d="M2.28544 12.4668H1.14258V13.6001H2.28544V12.4668Z" fill="#FEFEFE"/>
<path d="M3.42801 12.4668H2.28516V13.6001H3.42801V12.4668Z" fill="#FEFEFE"/>
<path d="M4.57059 12.4668H3.42773V13.6001H4.57059V12.4668Z" fill="#FEFEFE"/>
<path d="M1.14286 13.6001H0V14.7334H1.14286V13.6001Z" fill="#FEFEFE"/>
<path d="M2.28544 13.6001H1.14258V14.7334H2.28544V13.6001Z" fill="#FEFEFE"/>
<path d="M3.42801 13.6001H2.28516V14.7334H3.42801V13.6001Z" fill="#FEFEFE"/>
<path d="M1.14286 14.7334H0V15.8667H1.14286V14.7334Z" fill="#FEFEFE"/>
<path d="M2.28544 14.7334H1.14258V15.8667H2.28544V14.7334Z" fill="#FEFEFE"/>
<path d="M8.00028 14.7334H6.85742V15.8667H8.00028V14.7334Z" fill="#FEFEFE"/>
<path d="M9.14286 14.7334H8V15.8667H9.14286V14.7334Z" fill="#FEFEFE"/>
<path d="M10.2854 14.7334H9.14258V15.8667H10.2854V14.7334Z" fill="#FEFEFE"/>
<path d="M11.428 14.7334H10.2852V15.8667H11.428V14.7334Z" fill="#FEFEFE"/>
<path d="M12.5706 14.7334H11.4277V15.8667H12.5706V14.7334Z" fill="#FEFEFE"/>
<path d="M13.7151 14.7334H12.5723V15.8667H13.7151V14.7334Z" fill="#FEFEFE"/>
<path d="M14.8577 14.7334H13.7148V15.8667H14.8577V14.7334Z" fill="#FEFEFE"/>
<path d="M6.8577 15.8667H5.71484V17H6.8577V15.8667Z" fill="#FEFEFE"/>
<path d="M8.00028 15.8667H6.85742V17H8.00028V15.8667Z" fill="#FEFEFE"/>
<path d="M9.14286 15.8667H8V17H9.14286V15.8667Z" fill="#FEFEFE"/>
<path d="M10.2854 15.8667H9.14258V17H10.2854V15.8667Z" fill="#FEFEFE"/>
<path d="M11.428 15.8667H10.2852V17H11.428V15.8667Z" fill="#FEFEFE"/>
<path d="M12.5706 15.8667H11.4277V17H12.5706V15.8667Z" fill="#FEFEFE"/>
<path d="M13.7151 15.8667H12.5723V17H13.7151V15.8667Z" fill="#FEFEFE"/>
<path d="M14.8577 15.8667H13.7148V17H14.8577V15.8667Z" fill="#FEFEFE"/>
<path d="M16.0003 15.8667H14.8574V17H16.0003V15.8667Z" fill="#FEFEFE"/>
</g>
<defs>
<clipPath id="clip0_2483_7899">
<rect width="16" height="17" fill="white"/>
</clipPath>
</defs>
</svg>
