<svg width="16" height="16" viewBox="0 0 16 16" fill="none" xmlns="http://www.w3.org/2000/svg">
<path d="M10.5 0H10V0.5H10.5V0Z" fill="#34D3D7"/>
<path d="M11 0H10.5V0.5H11V0Z" fill="#34D3D7"/>
<path d="M11.5 0H11V0.5H11.5V0Z" fill="#34D3D7"/>
<path d="M12 0H11.5V0.5H12V0Z" fill="#34D3D7"/>
<path d="M10.5 0.5H10V1H10.5V0.5Z" fill="#34D3D7"/>
<path d="M11 0.5H10.5V1H11V0.5Z" fill="#34D3D7"/>
<path d="M11.5 0.5H11V1H11.5V0.5Z" fill="#34D3D7"/>
<path d="M12 0.5H11.5V1H12V0.5Z" fill="#34D3D7"/>
<path d="M10.5 1H10V1.5H10.5V1Z" fill="#34D3D7"/>
<path d="M11 1H10.5V1.5H11V1Z" fill="#34D3D7"/>
<path d="M11.5 1H11V1.5H11.5V1Z" fill="#34D3D7"/>
<path d="M12 1H11.5V1.5H12V1Z" fill="#34D3D7"/>
<path d="M10.5 1.5H10V2H10.5V1.5Z" fill="#34D3D7"/>
<path d="M11 1.5H10.5V2H11V1.5Z" fill="#34D3D7"/>
<path d="M11.5 1.5H11V2H11.5V1.5Z" fill="#34D3D7"/>
<path d="M12 1.5H11.5V2H12V1.5Z" fill="#34D3D7"/>
<path d="M12.5 2H12V2.5H12.5V2Z" fill="#34D3D7"/>
<path d="M13 2H12.5V2.5H13V2Z" fill="#34D3D7"/>
<path d="M13.5 2H13V2.5H13.5V2Z" fill="#34D3D7"/>
<path d="M14 2H13.5V2.5H14V2Z" fill="#34D3D7"/>
<path d="M12.5 2.5H12V3H12.5V2.5Z" fill="#34D3D7"/>
<path d="M13 2.5H12.5V3H13V2.5Z" fill="#34D3D7"/>
<path d="M13.5 2.5H13V3H13.5V2.5Z" fill="#34D3D7"/>
<path d="M14 2.5H13.5V3H14V2.5Z" fill="#34D3D7"/>
<path d="M12.5 3H12V3.5H12.5V3Z" fill="#34D3D7"/>
<path d="M13 3H12.5V3.5H13V3Z" fill="#34D3D7"/>
<path d="M13.5 3H13V3.5H13.5V3Z" fill="#34D3D7"/>
<path d="M14 3H13.5V3.5H14V3Z" fill="#34D3D7"/>
<path d="M12.5 3.5H12V4H12.5V3.5Z" fill="#34D3D7"/>
<path d="M13 3.5H12.5V4H13V3.5Z" fill="#34D3D7"/>
<path d="M13.5 3.5H13V4H13.5V3.5Z" fill="#34D3D7"/>
<path d="M14 3.5H13.5V4H14V3.5Z" fill="#34D3D7"/>
<path d="M0.5 4H0V4.5H0.5V4Z" fill="#34D3D7"/>
<path d="M1 4H0.5V4.5H1V4Z" fill="#34D3D7"/>
<path d="M1.5 4H1V4.5H1.5V4Z" fill="#34D3D7"/>
<path d="M2 4H1.5V4.5H2V4Z" fill="#34D3D7"/>
<path d="M2.5 4H2V4.5H2.5V4Z" fill="#34D3D7"/>
<path d="M3 4H2.5V4.5H3V4Z" fill="#34D3D7"/>
<path d="M3.5 4H3V4.5H3.5V4Z" fill="#34D3D7"/>
<path d="M4 4H3.5V4.5H4V4Z" fill="#34D3D7"/>
<path d="M4.5 4H4V4.5H4.5V4Z" fill="#34D3D7"/>
<path d="M5 4H4.5V4.5H5V4Z" fill="#34D3D7"/>
<path d="M5.5 4H5V4.5H5.5V4Z" fill="#34D3D7"/>
<path d="M6 4H5.5V4.5H6V4Z" fill="#34D3D7"/>
<path d="M6.5 4H6V4.5H6.5V4Z" fill="#34D3D7"/>
<path d="M7 4H6.5V4.5H7V4Z" fill="#34D3D7"/>
<path d="M7.5 4H7V4.5H7.5V4Z" fill="#34D3D7"/>
<path d="M8 4H7.5V4.5H8V4Z" fill="#34D3D7"/>
<path d="M8.5 4H8V4.5H8.5V4Z" fill="#34D3D7"/>
<path d="M9 4H8.5V4.5H9V4Z" fill="#34D3D7"/>
<path d="M9.5 4H9V4.5H9.5V4Z" fill="#34D3D7"/>
<path d="M10 4H9.5V4.5H10V4Z" fill="#34D3D7"/>
<path d="M10.5 4H10V4.5H10.5V4Z" fill="#34D3D7"/>
<path d="M11 4H10.5V4.5H11V4Z" fill="#34D3D7"/>
<path d="M11.5 4H11V4.5H11.5V4Z" fill="#34D3D7"/>
<path d="M12 4H11.5V4.5H12V4Z" fill="#34D3D7"/>
<path d="M12.5 4H12V4.5H12.5V4Z" fill="#34D3D7"/>
<path d="M13 4H12.5V4.5H13V4Z" fill="#34D3D7"/>
<path d="M13.5 4H13V4.5H13.5V4Z" fill="#34D3D7"/>
<path d="M14 4H13.5V4.5H14V4Z" fill="#34D3D7"/>
<path d="M14.5 4H14V4.5H14.5V4Z" fill="#34D3D7"/>
<path d="M15 4H14.5V4.5H15V4Z" fill="#34D3D7"/>
<path d="M15.5 4H15V4.5H15.5V4Z" fill="#34D3D7"/>
<path d="M16 4H15.5V4.5H16V4Z" fill="#34D3D7"/>
<path d="M0.5 4.5H0V5H0.5V4.5Z" fill="#34D3D7"/>
<path d="M1 4.5H0.5V5H1V4.5Z" fill="#34D3D7"/>
<path d="M1.5 4.5H1V5H1.5V4.5Z" fill="#34D3D7"/>
<path d="M2 4.5H1.5V5H2V4.5Z" fill="#34D3D7"/>
<path d="M2.5 4.5H2V5H2.5V4.5Z" fill="#34D3D7"/>
<path d="M3 4.5H2.5V5H3V4.5Z" fill="#34D3D7"/>
<path d="M3.5 4.5H3V5H3.5V4.5Z" fill="#34D3D7"/>
<path d="M4 4.5H3.5V5H4V4.5Z" fill="#34D3D7"/>
<path d="M4.5 4.5H4V5H4.5V4.5Z" fill="#34D3D7"/>
<path d="M5 4.5H4.5V5H5V4.5Z" fill="#34D3D7"/>
<path d="M5.5 4.5H5V5H5.5V4.5Z" fill="#34D3D7"/>
<path d="M6 4.5H5.5V5H6V4.5Z" fill="#34D3D7"/>
<path d="M6.5 4.5H6V5H6.5V4.5Z" fill="#34D3D7"/>
<path d="M7 4.5H6.5V5H7V4.5Z" fill="#34D3D7"/>
<path d="M7.5 4.5H7V5H7.5V4.5Z" fill="#34D3D7"/>
<path d="M8 4.5H7.5V5H8V4.5Z" fill="#34D3D7"/>
<path d="M8.5 4.5H8V5H8.5V4.5Z" fill="#34D3D7"/>
<path d="M9 4.5H8.5V5H9V4.5Z" fill="#34D3D7"/>
<path d="M9.5 4.5H9V5H9.5V4.5Z" fill="#34D3D7"/>
<path d="M10 4.5H9.5V5H10V4.5Z" fill="#34D3D7"/>
<path d="M10.5 4.5H10V5H10.5V4.5Z" fill="#34D3D7"/>
<path d="M11 4.5H10.5V5H11V4.5Z" fill="#34D3D7"/>
<path d="M11.5 4.5H11V5H11.5V4.5Z" fill="#34D3D7"/>
<path d="M12 4.5H11.5V5H12V4.5Z" fill="#34D3D7"/>
<path d="M12.5 4.5H12V5H12.5V4.5Z" fill="#34D3D7"/>
<path d="M13 4.5H12.5V5H13V4.5Z" fill="#34D3D7"/>
<path d="M13.5 4.5H13V5H13.5V4.5Z" fill="#34D3D7"/>
<path d="M14 4.5H13.5V5H14V4.5Z" fill="#34D3D7"/>
<path d="M14.5 4.5H14V5H14.5V4.5Z" fill="#34D3D7"/>
<path d="M15 4.5H14.5V5H15V4.5Z" fill="#34D3D7"/>
<path d="M15.5 4.5H15V5H15.5V4.5Z" fill="#34D3D7"/>
<path d="M16 4.5H15.5V5H16V4.5Z" fill="#34D3D7"/>
<path d="M0.5 5H0V5.5H0.5V5Z" fill="#34D3D7"/>
<path d="M1 5H0.5V5.5H1V5Z" fill="#34D3D7"/>
<path d="M1.5 5H1V5.5H1.5V5Z" fill="#34D3D7"/>
<path d="M2 5H1.5V5.5H2V5Z" fill="#34D3D7"/>
<path d="M2.5 5H2V5.5H2.5V5Z" fill="#34D3D7"/>
<path d="M3 5H2.5V5.5H3V5Z" fill="#34D3D7"/>
<path d="M3.5 5H3V5.5H3.5V5Z" fill="#34D3D7"/>
<path d="M4 5H3.5V5.5H4V5Z" fill="#34D3D7"/>
<path d="M4.5 5H4V5.5H4.5V5Z" fill="#34D3D7"/>
<path d="M5 5H4.5V5.5H5V5Z" fill="#34D3D7"/>
<path d="M5.5 5H5V5.5H5.5V5Z" fill="#34D3D7"/>
<path d="M6 5H5.5V5.5H6V5Z" fill="#34D3D7"/>
<path d="M6.5 5H6V5.5H6.5V5Z" fill="#34D3D7"/>
<path d="M7 5H6.5V5.5H7V5Z" fill="#34D3D7"/>
<path d="M7.5 5H7V5.5H7.5V5Z" fill="#34D3D7"/>
<path d="M8 5H7.5V5.5H8V5Z" fill="#34D3D7"/>
<path d="M8.5 5H8V5.5H8.5V5Z" fill="#34D3D7"/>
<path d="M9 5H8.5V5.5H9V5Z" fill="#34D3D7"/>
<path d="M9.5 5H9V5.5H9.5V5Z" fill="#34D3D7"/>
<path d="M10 5H9.5V5.5H10V5Z" fill="#34D3D7"/>
<path d="M10.5 5H10V5.5H10.5V5Z" fill="#34D3D7"/>
<path d="M11 5H10.5V5.5H11V5Z" fill="#34D3D7"/>
<path d="M11.5 5H11V5.5H11.5V5Z" fill="#34D3D7"/>
<path d="M12 5H11.5V5.5H12V5Z" fill="#34D3D7"/>
<path d="M12.5 5H12V5.5H12.5V5Z" fill="#34D3D7"/>
<path d="M13 5H12.5V5.5H13V5Z" fill="#34D3D7"/>
<path d="M13.5 5H13V5.5H13.5V5Z" fill="#34D3D7"/>
<path d="M14 5H13.5V5.5H14V5Z" fill="#34D3D7"/>
<path d="M14.5 5H14V5.5H14.5V5Z" fill="#34D3D7"/>
<path d="M15 5H14.5V5.5H15V5Z" fill="#34D3D7"/>
<path d="M15.5 5H15V5.5H15.5V5Z" fill="#34D3D7"/>
<path d="M16 5H15.5V5.5H16V5Z" fill="#34D3D7"/>
<path d="M0.5 5.5H0V6H0.5V5.5Z" fill="#34D3D7"/>
<path d="M1 5.5H0.5V6H1V5.5Z" fill="#34D3D7"/>
<path d="M1.5 5.5H1V6H1.5V5.5Z" fill="#34D3D7"/>
<path d="M2 5.5H1.5V6H2V5.5Z" fill="#34D3D7"/>
<path d="M2.5 5.5H2V6H2.5V5.5Z" fill="#34D3D7"/>
<path d="M3 5.5H2.5V6H3V5.5Z" fill="#34D3D7"/>
<path d="M3.5 5.5H3V6H3.5V5.5Z" fill="#34D3D7"/>
<path d="M4 5.5H3.5V6H4V5.5Z" fill="#34D3D7"/>
<path d="M4.5 5.5H4V6H4.5V5.5Z" fill="#34D3D7"/>
<path d="M5 5.5H4.5V6H5V5.5Z" fill="#34D3D7"/>
<path d="M5.5 5.5H5V6H5.5V5.5Z" fill="#34D3D7"/>
<path d="M6 5.5H5.5V6H6V5.5Z" fill="#34D3D7"/>
<path d="M6.5 5.5H6V6H6.5V5.5Z" fill="#34D3D7"/>
<path d="M7 5.5H6.5V6H7V5.5Z" fill="#34D3D7"/>
<path d="M7.5 5.5H7V6H7.5V5.5Z" fill="#34D3D7"/>
<path d="M8 5.5H7.5V6H8V5.5Z" fill="#34D3D7"/>
<path d="M8.5 5.5H8V6H8.5V5.5Z" fill="#34D3D7"/>
<path d="M9 5.5H8.5V6H9V5.5Z" fill="#34D3D7"/>
<path d="M9.5 5.5H9V6H9.5V5.5Z" fill="#34D3D7"/>
<path d="M10 5.5H9.5V6H10V5.5Z" fill="#34D3D7"/>
<path d="M10.5 5.5H10V6H10.5V5.5Z" fill="#34D3D7"/>
<path d="M11 5.5H10.5V6H11V5.5Z" fill="#34D3D7"/>
<path d="M11.5 5.5H11V6H11.5V5.5Z" fill="#34D3D7"/>
<path d="M12 5.5H11.5V6H12V5.5Z" fill="#34D3D7"/>
<path d="M12.5 5.5H12V6H12.5V5.5Z" fill="#34D3D7"/>
<path d="M13 5.5H12.5V6H13V5.5Z" fill="#34D3D7"/>
<path d="M13.5 5.5H13V6H13.5V5.5Z" fill="#34D3D7"/>
<path d="M14 5.5H13.5V6H14V5.5Z" fill="#34D3D7"/>
<path d="M14.5 5.5H14V6H14.5V5.5Z" fill="#34D3D7"/>
<path d="M15 5.5H14.5V6H15V5.5Z" fill="#34D3D7"/>
<path d="M15.5 5.5H15V6H15.5V5.5Z" fill="#34D3D7"/>
<path d="M16 5.5H15.5V6H16V5.5Z" fill="#34D3D7"/>
<path d="M0.5 10H0V10.5H0.5V10Z" fill="#34D3D7"/>
<path d="M1 10H0.5V10.5H1V10Z" fill="#34D3D7"/>
<path d="M1.5 10H1V10.5H1.5V10Z" fill="#34D3D7"/>
<path d="M2 10H1.5V10.5H2V10Z" fill="#34D3D7"/>
<path d="M2.5 10H2V10.5H2.5V10Z" fill="#34D3D7"/>
<path d="M3 10H2.5V10.5H3V10Z" fill="#34D3D7"/>
<path d="M3.5 10H3V10.5H3.5V10Z" fill="#34D3D7"/>
<path d="M4 10H3.5V10.5H4V10Z" fill="#34D3D7"/>
<path d="M4.5 10H4V10.5H4.5V10Z" fill="#34D3D7"/>
<path d="M5 10H4.5V10.5H5V10Z" fill="#34D3D7"/>
<path d="M5.5 10H5V10.5H5.5V10Z" fill="#34D3D7"/>
<path d="M6 10H5.5V10.5H6V10Z" fill="#34D3D7"/>
<path d="M6.5 10H6V10.5H6.5V10Z" fill="#34D3D7"/>
<path d="M7 10H6.5V10.5H7V10Z" fill="#34D3D7"/>
<path d="M7.5 10H7V10.5H7.5V10Z" fill="#34D3D7"/>
<path d="M8 10H7.5V10.5H8V10Z" fill="#34D3D7"/>
<path d="M8.5 10H8V10.5H8.5V10Z" fill="#34D3D7"/>
<path d="M9 10H8.5V10.5H9V10Z" fill="#34D3D7"/>
<path d="M9.5 10H9V10.5H9.5V10Z" fill="#34D3D7"/>
<path d="M10 10H9.5V10.5H10V10Z" fill="#34D3D7"/>
<path d="M10.5 10H10V10.5H10.5V10Z" fill="#34D3D7"/>
<path d="M11 10H10.5V10.5H11V10Z" fill="#34D3D7"/>
<path d="M11.5 10H11V10.5H11.5V10Z" fill="#34D3D7"/>
<path d="M12 10H11.5V10.5H12V10Z" fill="#34D3D7"/>
<path d="M12.5 10H12V10.5H12.5V10Z" fill="#34D3D7"/>
<path d="M13 10H12.5V10.5H13V10Z" fill="#34D3D7"/>
<path d="M13.5 10H13V10.5H13.5V10Z" fill="#34D3D7"/>
<path d="M14 10H13.5V10.5H14V10Z" fill="#34D3D7"/>
<path d="M14.5 10H14V10.5H14.5V10Z" fill="#34D3D7"/>
<path d="M15 10H14.5V10.5H15V10Z" fill="#34D3D7"/>
<path d="M15.5 10H15V10.5H15.5V10Z" fill="#34D3D7"/>
<path d="M16 10H15.5V10.5H16V10Z" fill="#34D3D7"/>
<path d="M0.5 10.5H0V11H0.5V10.5Z" fill="#34D3D7"/>
<path d="M1 10.5H0.5V11H1V10.5Z" fill="#34D3D7"/>
<path d="M1.5 10.5H1V11H1.5V10.5Z" fill="#34D3D7"/>
<path d="M2 10.5H1.5V11H2V10.5Z" fill="#34D3D7"/>
<path d="M2.5 10.5H2V11H2.5V10.5Z" fill="#34D3D7"/>
<path d="M3 10.5H2.5V11H3V10.5Z" fill="#34D3D7"/>
<path d="M3.5 10.5H3V11H3.5V10.5Z" fill="#34D3D7"/>
<path d="M4 10.5H3.5V11H4V10.5Z" fill="#34D3D7"/>
<path d="M4.5 10.5H4V11H4.5V10.5Z" fill="#34D3D7"/>
<path d="M5 10.5H4.5V11H5V10.5Z" fill="#34D3D7"/>
<path d="M5.5 10.5H5V11H5.5V10.5Z" fill="#34D3D7"/>
<path d="M6 10.5H5.5V11H6V10.5Z" fill="#34D3D7"/>
<path d="M6.5 10.5H6V11H6.5V10.5Z" fill="#34D3D7"/>
<path d="M7 10.5H6.5V11H7V10.5Z" fill="#34D3D7"/>
<path d="M7.5 10.5H7V11H7.5V10.5Z" fill="#34D3D7"/>
<path d="M8 10.5H7.5V11H8V10.5Z" fill="#34D3D7"/>
<path d="M8.5 10.5H8V11H8.5V10.5Z" fill="#34D3D7"/>
<path d="M9 10.5H8.5V11H9V10.5Z" fill="#34D3D7"/>
<path d="M9.5 10.5H9V11H9.5V10.5Z" fill="#34D3D7"/>
<path d="M10 10.5H9.5V11H10V10.5Z" fill="#34D3D7"/>
<path d="M10.5 10.5H10V11H10.5V10.5Z" fill="#34D3D7"/>
<path d="M11 10.5H10.5V11H11V10.5Z" fill="#34D3D7"/>
<path d="M11.5 10.5H11V11H11.5V10.5Z" fill="#34D3D7"/>
<path d="M12 10.5H11.5V11H12V10.5Z" fill="#34D3D7"/>
<path d="M12.5 10.5H12V11H12.5V10.5Z" fill="#34D3D7"/>
<path d="M13 10.5H12.5V11H13V10.5Z" fill="#34D3D7"/>
<path d="M13.5 10.5H13V11H13.5V10.5Z" fill="#34D3D7"/>
<path d="M14 10.5H13.5V11H14V10.5Z" fill="#34D3D7"/>
<path d="M14.5 10.5H14V11H14.5V10.5Z" fill="#34D3D7"/>
<path d="M15 10.5H14.5V11H15V10.5Z" fill="#34D3D7"/>
<path d="M15.5 10.5H15V11H15.5V10.5Z" fill="#34D3D7"/>
<path d="M16 10.5H15.5V11H16V10.5Z" fill="#34D3D7"/>
<path d="M0.5 11H0V11.5H0.5V11Z" fill="#34D3D7"/>
<path d="M1 11H0.5V11.5H1V11Z" fill="#34D3D7"/>
<path d="M1.5 11H1V11.5H1.5V11Z" fill="#34D3D7"/>
<path d="M2 11H1.5V11.5H2V11Z" fill="#34D3D7"/>
<path d="M2.5 11H2V11.5H2.5V11Z" fill="#34D3D7"/>
<path d="M3 11H2.5V11.5H3V11Z" fill="#34D3D7"/>
<path d="M3.5 11H3V11.5H3.5V11Z" fill="#34D3D7"/>
<path d="M4 11H3.5V11.5H4V11Z" fill="#34D3D7"/>
<path d="M4.5 11H4V11.5H4.5V11Z" fill="#34D3D7"/>
<path d="M5 11H4.5V11.5H5V11Z" fill="#34D3D7"/>
<path d="M5.5 11H5V11.5H5.5V11Z" fill="#34D3D7"/>
<path d="M6 11H5.5V11.5H6V11Z" fill="#34D3D7"/>
<path d="M6.5 11H6V11.5H6.5V11Z" fill="#34D3D7"/>
<path d="M7 11H6.5V11.5H7V11Z" fill="#34D3D7"/>
<path d="M7.5 11H7V11.5H7.5V11Z" fill="#34D3D7"/>
<path d="M8 11H7.5V11.5H8V11Z" fill="#34D3D7"/>
<path d="M8.5 11H8V11.5H8.5V11Z" fill="#34D3D7"/>
<path d="M9 11H8.5V11.5H9V11Z" fill="#34D3D7"/>
<path d="M9.5 11H9V11.5H9.5V11Z" fill="#34D3D7"/>
<path d="M10 11H9.5V11.5H10V11Z" fill="#34D3D7"/>
<path d="M10.5 11H10V11.5H10.5V11Z" fill="#34D3D7"/>
<path d="M11 11H10.5V11.5H11V11Z" fill="#34D3D7"/>
<path d="M11.5 11H11V11.5H11.5V11Z" fill="#34D3D7"/>
<path d="M12 11H11.5V11.5H12V11Z" fill="#34D3D7"/>
<path d="M12.5 11H12V11.5H12.5V11Z" fill="#34D3D7"/>
<path d="M13 11H12.5V11.5H13V11Z" fill="#34D3D7"/>
<path d="M13.5 11H13V11.5H13.5V11Z" fill="#34D3D7"/>
<path d="M14 11H13.5V11.5H14V11Z" fill="#34D3D7"/>
<path d="M14.5 11H14V11.5H14.5V11Z" fill="#34D3D7"/>
<path d="M15 11H14.5V11.5H15V11Z" fill="#34D3D7"/>
<path d="M15.5 11H15V11.5H15.5V11Z" fill="#34D3D7"/>
<path d="M16 11H15.5V11.5H16V11Z" fill="#34D3D7"/>
<path d="M0.5 11.5H0V12H0.5V11.5Z" fill="#34D3D7"/>
<path d="M1 11.5H0.5V12H1V11.5Z" fill="#34D3D7"/>
<path d="M1.5 11.5H1V12H1.5V11.5Z" fill="#34D3D7"/>
<path d="M2 11.5H1.5V12H2V11.5Z" fill="#34D3D7"/>
<path d="M2.5 11.5H2V12H2.5V11.5Z" fill="#34D3D7"/>
<path d="M3 11.5H2.5V12H3V11.5Z" fill="#34D3D7"/>
<path d="M3.5 11.5H3V12H3.5V11.5Z" fill="#34D3D7"/>
<path d="M4 11.5H3.5V12H4V11.5Z" fill="#34D3D7"/>
<path d="M4.5 11.5H4V12H4.5V11.5Z" fill="#34D3D7"/>
<path d="M5 11.5H4.5V12H5V11.5Z" fill="#34D3D7"/>
<path d="M5.5 11.5H5V12H5.5V11.5Z" fill="#34D3D7"/>
<path d="M6 11.5H5.5V12H6V11.5Z" fill="#34D3D7"/>
<path d="M6.5 11.5H6V12H6.5V11.5Z" fill="#34D3D7"/>
<path d="M7 11.5H6.5V12H7V11.5Z" fill="#34D3D7"/>
<path d="M7.5 11.5H7V12H7.5V11.5Z" fill="#34D3D7"/>
<path d="M8 11.5H7.5V12H8V11.5Z" fill="#34D3D7"/>
<path d="M8.5 11.5H8V12H8.5V11.5Z" fill="#34D3D7"/>
<path d="M9 11.5H8.5V12H9V11.5Z" fill="#34D3D7"/>
<path d="M9.5 11.5H9V12H9.5V11.5Z" fill="#34D3D7"/>
<path d="M10 11.5H9.5V12H10V11.5Z" fill="#34D3D7"/>
<path d="M10.5 11.5H10V12H10.5V11.5Z" fill="#34D3D7"/>
<path d="M11 11.5H10.5V12H11V11.5Z" fill="#34D3D7"/>
<path d="M11.5 11.5H11V12H11.5V11.5Z" fill="#34D3D7"/>
<path d="M12 11.5H11.5V12H12V11.5Z" fill="#34D3D7"/>
<path d="M12.5 11.5H12V12H12.5V11.5Z" fill="#34D3D7"/>
<path d="M13 11.5H12.5V12H13V11.5Z" fill="#34D3D7"/>
<path d="M13.5 11.5H13V12H13.5V11.5Z" fill="#34D3D7"/>
<path d="M14 11.5H13.5V12H14V11.5Z" fill="#34D3D7"/>
<path d="M14.5 11.5H14V12H14.5V11.5Z" fill="#34D3D7"/>
<path d="M15 11.5H14.5V12H15V11.5Z" fill="#34D3D7"/>
<path d="M15.5 11.5H15V12H15.5V11.5Z" fill="#34D3D7"/>
<path d="M16 11.5H15.5V12H16V11.5Z" fill="#34D3D7"/>
<path d="M2.5 12H2V12.5H2.5V12Z" fill="#34D3D7"/>
<path d="M3 12H2.5V12.5H3V12Z" fill="#34D3D7"/>
<path d="M3.5 12H3V12.5H3.5V12Z" fill="#34D3D7"/>
<path d="M4 12H3.5V12.5H4V12Z" fill="#34D3D7"/>
<path d="M2.5 12.5H2V13H2.5V12.5Z" fill="#34D3D7"/>
<path d="M3 12.5H2.5V13H3V12.5Z" fill="#34D3D7"/>
<path d="M3.5 12.5H3V13H3.5V12.5Z" fill="#34D3D7"/>
<path d="M4 12.5H3.5V13H4V12.5Z" fill="#34D3D7"/>
<path d="M2.5 13H2V13.5H2.5V13Z" fill="#34D3D7"/>
<path d="M3 13H2.5V13.5H3V13Z" fill="#34D3D7"/>
<path d="M3.5 13H3V13.5H3.5V13Z" fill="#34D3D7"/>
<path d="M4 13H3.5V13.5H4V13Z" fill="#34D3D7"/>
<path d="M2.5 13.5H2V14H2.5V13.5Z" fill="#34D3D7"/>
<path d="M3 13.5H2.5V14H3V13.5Z" fill="#34D3D7"/>
<path d="M3.5 13.5H3V14H3.5V13.5Z" fill="#34D3D7"/>
<path d="M4 13.5H3.5V14H4V13.5Z" fill="#34D3D7"/>
<path d="M4.5 14H4V14.5H4.5V14Z" fill="#34D3D7"/>
<path d="M5 14H4.5V14.5H5V14Z" fill="#34D3D7"/>
<path d="M5.5 14H5V14.5H5.5V14Z" fill="#34D3D7"/>
<path d="M6 14H5.5V14.5H6V14Z" fill="#34D3D7"/>
<path d="M4.5 14.5H4V15H4.5V14.5Z" fill="#34D3D7"/>
<path d="M5 14.5H4.5V15H5V14.5Z" fill="#34D3D7"/>
<path d="M5.5 14.5H5V15H5.5V14.5Z" fill="#34D3D7"/>
<path d="M6 14.5H5.5V15H6V14.5Z" fill="#34D3D7"/>
<path d="M4.5 15H4V15.5H4.5V15Z" fill="#34D3D7"/>
<path d="M5 15H4.5V15.5H5V15Z" fill="#34D3D7"/>
<path d="M5.5 15H5V15.5H5.5V15Z" fill="#34D3D7"/>
<path d="M6 15H5.5V15.5H6V15Z" fill="#34D3D7"/>
<path d="M4.5 15.5H4V16H4.5V15.5Z" fill="#34D3D7"/>
<path d="M5 15.5H4.5V16H5V15.5Z" fill="#34D3D7"/>
<path d="M5.5 15.5H5V16H5.5V15.5Z" fill="#34D3D7"/>
<path d="M6 15.5H5.5V16H6V15.5Z" fill="#34D3D7"/>
</svg>
