<svg width="650" height="50" viewBox="0 0 650 50" fill="none" xmlns="http://www.w3.org/2000/svg">
<mask id="path-1-inside-1_596_4699" fill="white">
<path fill-rule="evenodd" clip-rule="evenodd" d="M4 50C1.79086 50 0 48.2091 0 46V26.7179C0 25.142 0.925319 23.713 2.36327 23.0681L53.0231 0.350188C53.5378 0.119341 54.0957 0 54.6598 0H646C648.209 0 650 1.79087 650 4V22.6031C650 24.179 649.075 25.6081 647.637 26.2529L595.463 49.6498C594.948 49.8807 594.39 50 593.826 50H4Z"/>
</mask>
<path d="M595.463 49.6498L595.872 50.5623L595.463 49.6498ZM647.637 26.2529L648.046 27.1654L647.637 26.2529ZM53.0231 0.350188L53.4323 1.26264L53.0231 0.350188ZM-1 26.7179V46H1V26.7179H-1ZM52.6139 -0.562266L1.95409 22.1557L2.77246 23.9806L53.4323 1.26264L52.6139 -0.562266ZM646 -1H54.6598V1H646V-1ZM651 22.6031V4H649V22.6031H651ZM595.872 50.5623L648.046 27.1654L647.228 25.3405L595.054 48.7374L595.872 50.5623ZM4 51H593.826V49H4V51ZM595.054 48.7374C594.668 48.9105 594.249 49 593.826 49V51C594.531 51 595.229 50.8508 595.872 50.5623L595.054 48.7374ZM649 22.6031C649 23.7851 648.306 24.8569 647.228 25.3405L648.046 27.1654C649.843 26.3593 651 24.573 651 22.6031H649ZM646 1C647.657 1 649 2.34315 649 4H651C651 1.23858 648.761 -1 646 -1V1ZM53.4323 1.26264C53.8183 1.08951 54.2367 1 54.6598 1V-1C53.9546 -1 53.2574 -0.850826 52.6139 -0.562266L53.4323 1.26264ZM-1 46C-1 48.7614 1.23857 51 4 51V49C2.34315 49 1 47.6569 1 46H-1ZM1 26.7179C1 25.536 1.69399 24.4642 2.77246 23.9806L1.95409 22.1557C0.156649 22.9617 -1 24.748 -1 26.7179H1Z" fill="#FEFEFE" mask="url(#path-1-inside-1_596_4699)"/>
</svg>
