<svg width="24" height="23" viewBox="0 0 24 23" fill="none" xmlns="http://www.w3.org/2000/svg">
<path d="M19.8872 0.950785L20.5944 0.243677L21.3015 0.950785L20.5944 1.65789L19.8872 0.950785Z" fill="#FEFEFE"/>
<path d="M19.1801 1.65789L19.8872 0.950785L20.5944 1.65789L19.8872 2.365L19.1801 1.65789Z" fill="#FEFEFE"/>
<path d="M18.473 2.365L19.1801 1.65789L19.8872 2.365L19.1801 3.0721L18.473 2.365Z" fill="#FEFEFE"/>
<path d="M17.7659 3.0721L18.473 2.365L19.1801 3.0721L18.473 3.77921L17.7659 3.0721Z" fill="#FEFEFE"/>
<path d="M2.91668 17.9213L3.62379 17.2142L4.3309 17.9213L3.62379 18.6285L2.91668 17.9213Z" fill="#FEFEFE"/>
<path d="M2.20958 18.6285L2.91668 17.9213L3.62379 18.6285L2.91668 19.3356L2.20958 18.6285Z" fill="#FEFEFE"/>
<path d="M1.50247 19.3356L2.20958 18.6285L2.91668 19.3356L2.20958 20.0427L1.50247 19.3356Z" fill="#FEFEFE"/>
<path d="M0.795365 20.0427L1.50247 19.3356L2.20958 20.0427L1.50247 20.7498L0.795365 20.0427Z" fill="#FEFEFE"/>
<path d="M20.5944 1.65789L21.3015 0.950785L22.0086 1.65789L21.3015 2.365L20.5944 1.65789Z" fill="#FEFEFE"/>
<path d="M19.8872 2.365L20.5944 1.65789L21.3015 2.365L20.5944 3.0721L19.8872 2.365Z" fill="#FEFEFE"/>
<path d="M19.1801 3.0721L19.8872 2.365L20.5944 3.0721L19.8872 3.77921L19.1801 3.0721Z" fill="#FEFEFE"/>
<path d="M18.473 3.77921L19.1801 3.0721L19.8872 3.77921L19.1801 4.48632L18.473 3.77921Z" fill="#FEFEFE"/>
<path d="M3.62379 18.6285L4.3309 17.9213L5.03801 18.6285L4.3309 19.3356L3.62379 18.6285Z" fill="#FEFEFE"/>
<path d="M2.91668 19.3356L3.62379 18.6285L4.3309 19.3356L3.62379 20.0427L2.91668 19.3356Z" fill="#FEFEFE"/>
<path d="M2.20958 20.0427L2.91668 19.3356L3.62379 20.0427L2.91668 20.7498L2.20958 20.0427Z" fill="#FEFEFE"/>
<path d="M1.50247 20.7498L2.20958 20.0427L2.91668 20.7498L2.20958 21.4569L1.50247 20.7498Z" fill="#FEFEFE"/>
<path d="M21.3015 2.365L22.0086 1.65789L22.7157 2.365L22.0086 3.0721L21.3015 2.365Z" fill="#FEFEFE"/>
<path d="M20.5944 3.0721L21.3015 2.365L22.0086 3.0721L21.3015 3.77921L20.5944 3.0721Z" fill="#FEFEFE"/>
<path d="M19.8872 3.77921L20.5944 3.0721L21.3015 3.77921L20.5944 4.48632L19.8872 3.77921Z" fill="#FEFEFE"/>
<path d="M19.1801 4.48632L19.8872 3.77921L20.5944 4.48632L19.8872 5.19342L19.1801 4.48632Z" fill="#FEFEFE"/>
<path d="M4.3309 19.3356L5.03801 18.6285L5.74511 19.3356L5.03801 20.0427L4.3309 19.3356Z" fill="#FEFEFE"/>
<path d="M3.62379 20.0427L4.3309 19.3356L5.03801 20.0427L4.3309 20.7498L3.62379 20.0427Z" fill="#FEFEFE"/>
<path d="M2.91668 20.7498L3.62379 20.0427L4.3309 20.7498L3.62379 21.4569L2.91668 20.7498Z" fill="#FEFEFE"/>
<path d="M2.20958 21.4569L2.91668 20.7498L3.62379 21.4569L2.91668 22.164L2.20958 21.4569Z" fill="#FEFEFE"/>
<path d="M22.0086 3.0721L22.7157 2.365L23.4228 3.0721L22.7157 3.77921L22.0086 3.0721Z" fill="#FEFEFE"/>
<path d="M21.3015 3.77921L22.0086 3.0721L22.7157 3.77921L22.0086 4.48632L21.3015 3.77921Z" fill="#FEFEFE"/>
<path d="M20.5944 4.48632L21.3015 3.77921L22.0086 4.48632L21.3015 5.19342L20.5944 4.48632Z" fill="#FEFEFE"/>
<path d="M19.8872 5.19342L20.5944 4.48632L21.3015 5.19342L20.5944 5.90053L19.8872 5.19342Z" fill="#FEFEFE"/>
<path d="M5.03801 20.0427L5.74511 19.3356L6.45222 20.0427L5.74511 20.7498L5.03801 20.0427Z" fill="#FEFEFE"/>
<path d="M4.3309 20.7498L5.03801 20.0427L5.74511 20.7498L5.03801 21.4569L4.3309 20.7498Z" fill="#FEFEFE"/>
<path d="M3.62379 21.4569L4.3309 20.7498L5.03801 21.4569L4.3309 22.164L3.62379 21.4569Z" fill="#FEFEFE"/>
<path d="M2.91668 22.164L3.62379 21.4569L4.3309 22.164L3.62379 22.8711L2.91668 22.164Z" fill="#FEFEFE"/>
<path d="M19.8872 6.60764L20.5944 5.90053L21.3015 6.60764L20.5944 7.31474L19.8872 6.60764Z" fill="#FEFEFE"/>
<path d="M19.1801 7.31474L19.8872 6.60764L20.5944 7.31474L19.8872 8.02185L19.1801 7.31474Z" fill="#FEFEFE"/>
<path d="M18.473 8.02185L19.1801 7.31474L19.8872 8.02185L19.1801 8.72896L18.473 8.02185Z" fill="#FEFEFE"/>
<path d="M17.7659 8.72896L18.473 8.02185L19.1801 8.72896L18.473 9.43606L17.7659 8.72896Z" fill="#FEFEFE"/>
<path d="M8.57354 17.9213L9.28065 17.2142L9.98775 17.9213L9.28065 18.6285L8.57354 17.9213Z" fill="#FEFEFE"/>
<path d="M7.86643 18.6285L8.57354 17.9213L9.28065 18.6285L8.57354 19.3356L7.86643 18.6285Z" fill="#FEFEFE"/>
<path d="M7.15933 19.3356L7.86643 18.6285L8.57354 19.3356L7.86643 20.0427L7.15933 19.3356Z" fill="#FEFEFE"/>
<path d="M6.45222 20.0427L7.15933 19.3356L7.86643 20.0427L7.15933 20.7498L6.45222 20.0427Z" fill="#FEFEFE"/>
<path d="M20.5944 7.31474L21.3015 6.60764L22.0086 7.31474L21.3015 8.02185L20.5944 7.31474Z" fill="#FEFEFE"/>
<path d="M19.8872 8.02185L20.5944 7.31474L21.3015 8.02185L20.5944 8.72896L19.8872 8.02185Z" fill="#FEFEFE"/>
<path d="M19.1801 8.72896L19.8872 8.02185L20.5944 8.72896L19.8872 9.43606L19.1801 8.72896Z" fill="#FEFEFE"/>
<path d="M18.473 9.43606L19.1801 8.72896L19.8872 9.43606L19.1801 10.1432L18.473 9.43606Z" fill="#FEFEFE"/>
<path d="M9.28065 18.6285L9.98775 17.9213L10.6949 18.6285L9.98775 19.3356L9.28065 18.6285Z" fill="#FEFEFE"/>
<path d="M8.57354 19.3356L9.28065 18.6285L9.98775 19.3356L9.28065 20.0427L8.57354 19.3356Z" fill="#FEFEFE"/>
<path d="M7.86643 20.0427L8.57354 19.3356L9.28065 20.0427L8.57354 20.7498L7.86643 20.0427Z" fill="#FEFEFE"/>
<path d="M7.15933 20.7498L7.86643 20.0427L8.57354 20.7498L7.86643 21.4569L7.15933 20.7498Z" fill="#FEFEFE"/>
<path d="M21.3015 8.02185L22.0086 7.31474L22.7157 8.02185L22.0086 8.72896L21.3015 8.02185Z" fill="#FEFEFE"/>
<path d="M20.5944 8.72896L21.3015 8.02185L22.0086 8.72896L21.3015 9.43606L20.5944 8.72896Z" fill="#FEFEFE"/>
<path d="M19.8872 9.43606L20.5944 8.72896L21.3015 9.43606L20.5944 10.1432L19.8872 9.43606Z" fill="#FEFEFE"/>
<path d="M19.1801 10.1432L19.8872 9.43606L20.5944 10.1432L19.8872 10.8503L19.1801 10.1432Z" fill="#FEFEFE"/>
<path d="M9.98775 19.3356L10.6949 18.6285L11.402 19.3356L10.6949 20.0427L9.98775 19.3356Z" fill="#FEFEFE"/>
<path d="M9.28065 20.0427L9.98775 19.3356L10.6949 20.0427L9.98775 20.7498L9.28065 20.0427Z" fill="#FEFEFE"/>
<path d="M8.57354 20.7498L9.28065 20.0427L9.98775 20.7498L9.28065 21.4569L8.57354 20.7498Z" fill="#FEFEFE"/>
<path d="M7.86643 21.4569L8.57354 20.7498L9.28065 21.4569L8.57354 22.164L7.86643 21.4569Z" fill="#FEFEFE"/>
<path d="M22.0086 8.72896L22.7157 8.02185L23.4228 8.72896L22.7157 9.43606L22.0086 8.72896Z" fill="#FEFEFE"/>
<path d="M21.3015 9.43606L22.0086 8.72896L22.7157 9.43606L22.0086 10.1432L21.3015 9.43606Z" fill="#FEFEFE"/>
<path d="M20.5944 10.1432L21.3015 9.43606L22.0086 10.1432L21.3015 10.8503L20.5944 10.1432Z" fill="#FEFEFE"/>
<path d="M19.8872 10.8503L20.5944 10.1432L21.3015 10.8503L20.5944 11.5574L19.8872 10.8503Z" fill="#FEFEFE"/>
<path d="M10.6949 20.0427L11.402 19.3356L12.1091 20.0427L11.402 20.7498L10.6949 20.0427Z" fill="#FEFEFE"/>
<path d="M9.98775 20.7498L10.6949 20.0427L11.402 20.7498L10.6949 21.4569L9.98775 20.7498Z" fill="#FEFEFE"/>
<path d="M9.28065 21.4569L9.98775 20.7498L10.6949 21.4569L9.98775 22.164L9.28065 21.4569Z" fill="#FEFEFE"/>
<path d="M8.57354 22.164L9.28065 21.4569L9.98775 22.164L9.28065 22.8711L8.57354 22.164Z" fill="#FEFEFE"/>
<path d="M19.8872 12.2645L20.5944 11.5574L21.3015 12.2645L20.5944 12.9716L19.8872 12.2645Z" fill="#FEFEFE"/>
<path d="M19.1801 12.9716L19.8872 12.2645L20.5944 12.9716L19.8872 13.6787L19.1801 12.9716Z" fill="#FEFEFE"/>
<path d="M18.473 13.6787L19.1801 12.9716L19.8872 13.6787L19.1801 14.3858L18.473 13.6787Z" fill="#FEFEFE"/>
<path d="M17.7659 14.3858L18.473 13.6787L19.1801 14.3858L18.473 15.0929L17.7659 14.3858Z" fill="#FEFEFE"/>
<path d="M14.2304 17.9213L14.9375 17.2142L15.6446 17.9213L14.9375 18.6285L14.2304 17.9213Z" fill="#FEFEFE"/>
<path d="M13.5233 18.6285L14.2304 17.9213L14.9375 18.6285L14.2304 19.3356L13.5233 18.6285Z" fill="#FEFEFE"/>
<path d="M12.8162 19.3356L13.5233 18.6285L14.2304 19.3356L13.5233 20.0427L12.8162 19.3356Z" fill="#FEFEFE"/>
<path d="M12.1091 20.0427L12.8162 19.3356L13.5233 20.0427L12.8162 20.7498L12.1091 20.0427Z" fill="#FEFEFE"/>
<path d="M20.5944 12.9716L21.3015 12.2645L22.0086 12.9716L21.3015 13.6787L20.5944 12.9716Z" fill="#FEFEFE"/>
<path d="M19.8872 13.6787L20.5944 12.9716L21.3015 13.6787L20.5944 14.3858L19.8872 13.6787Z" fill="#FEFEFE"/>
<path d="M19.1801 14.3858L19.8872 13.6787L20.5944 14.3858L19.8872 15.0929L19.1801 14.3858Z" fill="#FEFEFE"/>
<path d="M18.473 15.0929L19.1801 14.3858L19.8872 15.0929L19.1801 15.8L18.473 15.0929Z" fill="#FEFEFE"/>
<path d="M14.9375 18.6285L15.6446 17.9213L16.3517 18.6285L15.6446 19.3356L14.9375 18.6285Z" fill="#FEFEFE"/>
<path d="M14.2304 19.3356L14.9375 18.6285L15.6446 19.3356L14.9375 20.0427L14.2304 19.3356Z" fill="#FEFEFE"/>
<path d="M13.5233 20.0427L14.2304 19.3356L14.9375 20.0427L14.2304 20.7498L13.5233 20.0427Z" fill="#FEFEFE"/>
<path d="M12.8162 20.7498L13.5233 20.0427L14.2304 20.7498L13.5233 21.4569L12.8162 20.7498Z" fill="#FEFEFE"/>
<path d="M21.3015 13.6787L22.0086 12.9716L22.7157 13.6787L22.0086 14.3858L21.3015 13.6787Z" fill="#FEFEFE"/>
<path d="M20.5944 14.3858L21.3015 13.6787L22.0086 14.3858L21.3015 15.0929L20.5944 14.3858Z" fill="#FEFEFE"/>
<path d="M19.8872 15.0929L20.5944 14.3858L21.3015 15.0929L20.5944 15.8L19.8872 15.0929Z" fill="#FEFEFE"/>
<path d="M19.1801 15.8L19.8872 15.0929L20.5944 15.8L19.8872 16.5071L19.1801 15.8Z" fill="#FEFEFE"/>
<path d="M15.6446 19.3356L16.3517 18.6285L17.0588 19.3356L16.3517 20.0427L15.6446 19.3356Z" fill="#FEFEFE"/>
<path d="M14.9375 20.0427L15.6446 19.3356L16.3517 20.0427L15.6446 20.7498L14.9375 20.0427Z" fill="#FEFEFE"/>
<path d="M14.2304 20.7498L14.9375 20.0427L15.6446 20.7498L14.9375 21.4569L14.2304 20.7498Z" fill="#FEFEFE"/>
<path d="M13.5233 21.4569L14.2304 20.7498L14.9375 21.4569L14.2304 22.164L13.5233 21.4569Z" fill="#FEFEFE"/>
<path d="M22.0086 14.3858L22.7157 13.6787L23.4228 14.3858L22.7157 15.0929L22.0086 14.3858Z" fill="#FEFEFE"/>
<path d="M21.3015 15.0929L22.0086 14.3858L22.7157 15.0929L22.0086 15.8L21.3015 15.0929Z" fill="#FEFEFE"/>
<path d="M20.5944 15.8L21.3015 15.0929L22.0086 15.8L21.3015 16.5071L20.5944 15.8Z" fill="#FEFEFE"/>
<path d="M19.8872 16.5071L20.5944 15.8L21.3015 16.5071L20.5944 17.2142L19.8872 16.5071Z" fill="#FEFEFE"/>
<path d="M16.3517 20.0427L17.0588 19.3356L17.7659 20.0427L17.0588 20.7498L16.3517 20.0427Z" fill="#FEFEFE"/>
<path d="M15.6446 20.7498L16.3517 20.0427L17.0588 20.7498L16.3517 21.4569L15.6446 20.7498Z" fill="#FEFEFE"/>
<path d="M14.9375 21.4569L15.6446 20.7498L16.3517 21.4569L15.6446 22.164L14.9375 21.4569Z" fill="#FEFEFE"/>
<path d="M14.2304 22.164L14.9375 21.4569L15.6446 22.164L14.9375 22.8711L14.2304 22.164Z" fill="#FEFEFE"/>
<path d="M19.8872 17.9213L20.5944 17.2142L21.3015 17.9213L20.5944 18.6285L19.8872 17.9213Z" fill="#FEFEFE"/>
<path d="M19.1801 18.6285L19.8872 17.9213L20.5944 18.6285L19.8872 19.3356L19.1801 18.6285Z" fill="#FEFEFE"/>
<path d="M18.473 19.3356L19.1801 18.6285L19.8872 19.3356L19.1801 20.0427L18.473 19.3356Z" fill="#FEFEFE"/>
<path d="M17.7659 20.0427L18.473 19.3356L19.1801 20.0427L18.473 20.7498L17.7659 20.0427Z" fill="#FEFEFE"/>
<path d="M20.5944 18.6285L21.3015 17.9213L22.0086 18.6285L21.3015 19.3356L20.5944 18.6285Z" fill="#FEFEFE"/>
<path d="M19.8872 19.3356L20.5944 18.6285L21.3015 19.3356L20.5944 20.0427L19.8872 19.3356Z" fill="#FEFEFE"/>
<path d="M19.1801 20.0427L19.8872 19.3356L20.5944 20.0427L19.8872 20.7498L19.1801 20.0427Z" fill="#FEFEFE"/>
<path d="M18.473 20.7498L19.1801 20.0427L19.8872 20.7498L19.1801 21.4569L18.473 20.7498Z" fill="#FEFEFE"/>
<path d="M21.3015 19.3356L22.0086 18.6285L22.7157 19.3356L22.0086 20.0427L21.3015 19.3356Z" fill="#FEFEFE"/>
<path d="M20.5944 20.0427L21.3015 19.3356L22.0086 20.0427L21.3015 20.7498L20.5944 20.0427Z" fill="#FEFEFE"/>
<path d="M19.8872 20.7498L20.5944 20.0427L21.3015 20.7498L20.5944 21.4569L19.8872 20.7498Z" fill="#FEFEFE"/>
<path d="M19.1801 21.4569L19.8872 20.7498L20.5944 21.4569L19.8872 22.164L19.1801 21.4569Z" fill="#FEFEFE"/>
<path d="M22.0086 20.0427L22.7157 19.3356L23.4228 20.0427L22.7157 20.7498L22.0086 20.0427Z" fill="#FEFEFE"/>
<path d="M21.3015 20.7498L22.0086 20.0427L22.7157 20.7498L22.0086 21.4569L21.3015 20.7498Z" fill="#FEFEFE"/>
<path d="M20.5944 21.4569L21.3015 20.7498L22.0086 21.4569L21.3015 22.164L20.5944 21.4569Z" fill="#FEFEFE"/>
<path d="M19.8872 22.164L20.5944 21.4569L21.3015 22.164L20.5944 22.8711L19.8872 22.164Z" fill="#FEFEFE"/>
<path d="M0 2.87949L17.9017 20.0979L20.6717 17.218L2.77002 -0.00044632L0 2.87949Z" fill="#FEFEFE"/>
</svg>
