<svg width="40" height="23" viewBox="0 0 40 23" fill="none" xmlns="http://www.w3.org/2000/svg">
<g clip-path="url(#clip0_5_18542)">
<path d="M1.42857 23H0V21.5625H1.42857V23Z" fill="#121212"/>
<path d="M2.85826 23H1.42969V21.5625H2.85826V23Z" fill="#121212"/>
<path d="M4.28795 23H2.85938V21.5625H4.28795V23Z" fill="#121212"/>
<path d="M5.71763 23H4.28906V21.5625H5.71763V23Z" fill="#121212"/>
<path d="M35.7176 23H34.2891V21.5625H35.7176V23Z" fill="#121212"/>
<path d="M37.1395 23H35.7109V21.5625H37.1395V23Z" fill="#121212"/>
<path d="M38.5692 23H37.1406V21.5625H38.5692V23Z" fill="#121212"/>
<path d="M39.9989 23H38.5703V21.5625H39.9989V23Z" fill="#121212"/>
<path d="M1.42857 21.5625H0V20.125H1.42857V21.5625Z" fill="#121212"/>
<path d="M2.85826 21.5625H1.42969V20.125H2.85826V21.5625Z" fill="#121212"/>
<path d="M4.28795 21.5625H2.85938V20.125H4.28795V21.5625Z" fill="#121212"/>
<path d="M5.71763 21.5625H4.28906V20.125H5.71763V21.5625Z" fill="#121212"/>
<path d="M35.7176 21.5625H34.2891V20.125H35.7176V21.5625Z" fill="#121212"/>
<path d="M37.1395 21.5625H35.7109V20.125H37.1395V21.5625Z" fill="#121212"/>
<path d="M38.5692 21.5625H37.1406V20.125H38.5692V21.5625Z" fill="#121212"/>
<path d="M39.9989 21.5625H38.5703V20.125H39.9989V21.5625Z" fill="#121212"/>
<path d="M1.42857 20.125H0V18.6875H1.42857V20.125Z" fill="#121212"/>
<path d="M2.85826 20.125H1.42969V18.6875H2.85826V20.125Z" fill="#121212"/>
<path d="M4.28795 20.125H2.85938V18.6875H4.28795V20.125Z" fill="#121212"/>
<path d="M5.71763 20.125H4.28906V18.6875H5.71763V20.125Z" fill="#121212"/>
<path d="M35.7176 20.125H34.2891V18.6875H35.7176V20.125Z" fill="#121212"/>
<path d="M37.1395 20.125H35.7109V18.6875H37.1395V20.125Z" fill="#121212"/>
<path d="M38.5692 20.125H37.1406V18.6875H38.5692V20.125Z" fill="#121212"/>
<path d="M39.9989 20.125H38.5703V18.6875H39.9989V20.125Z" fill="#121212"/>
<path d="M1.42857 18.6875H0V17.25H1.42857V18.6875Z" fill="#121212"/>
<path d="M2.85826 18.6875H1.42969V17.25H2.85826V18.6875Z" fill="#121212"/>
<path d="M4.28795 18.6875H2.85938V17.25H4.28795V18.6875Z" fill="#121212"/>
<path d="M5.71763 18.6875H4.28906V17.25H5.71763V18.6875Z" fill="#121212"/>
<path d="M35.7176 18.6875H34.2891V17.25H35.7176V18.6875Z" fill="#121212"/>
<path d="M37.1395 18.6875H35.7109V17.25H37.1395V18.6875Z" fill="#121212"/>
<path d="M38.5692 18.6875H37.1406V17.25H38.5692V18.6875Z" fill="#121212"/>
<path d="M39.9989 18.6875H38.5703V17.25H39.9989V18.6875Z" fill="#121212"/>
<path d="M7.13951 17.25H5.71094V15.8125H7.13951V17.25Z" fill="#121212"/>
<path d="M8.5692 17.25H7.14062V15.8125H8.5692V17.25Z" fill="#121212"/>
<path d="M9.99888 17.25H8.57031V15.8125H9.99888V17.25Z" fill="#121212"/>
<path d="M11.4286 17.25H10V15.8125H11.4286V17.25Z" fill="#121212"/>
<path d="M29.9989 17.25H28.5703V15.8125H29.9989V17.25Z" fill="#121212"/>
<path d="M31.4286 17.25H30V15.8125H31.4286V17.25Z" fill="#121212"/>
<path d="M32.8583 17.25H31.4297V15.8125H32.8583V17.25Z" fill="#121212"/>
<path d="M34.2879 17.25H32.8594V15.8125H34.2879V17.25Z" fill="#121212"/>
<path d="M7.13951 15.8125H5.71094V14.375H7.13951V15.8125Z" fill="#121212"/>
<path d="M8.5692 15.8125H7.14062V14.375H8.5692V15.8125Z" fill="#121212"/>
<path d="M9.99888 15.8125H8.57031V14.375H9.99888V15.8125Z" fill="#121212"/>
<path d="M11.4286 15.8125H10V14.375H11.4286V15.8125Z" fill="#121212"/>
<path d="M29.9989 15.8125H28.5703V14.375H29.9989V15.8125Z" fill="#121212"/>
<path d="M31.4286 15.8125H30V14.375H31.4286V15.8125Z" fill="#121212"/>
<path d="M32.8583 15.8125H31.4297V14.375H32.8583V15.8125Z" fill="#121212"/>
<path d="M34.2879 15.8125H32.8594V14.375H34.2879V15.8125Z" fill="#121212"/>
<path d="M7.13951 14.375H5.71094V12.9375H7.13951V14.375Z" fill="#121212"/>
<path d="M8.5692 14.375H7.14062V12.9375H8.5692V14.375Z" fill="#121212"/>
<path d="M9.99888 14.375H8.57031V12.9375H9.99888V14.375Z" fill="#121212"/>
<path d="M11.4286 14.375H10V12.9375H11.4286V14.375Z" fill="#121212"/>
<path d="M29.9989 14.375H28.5703V12.9375H29.9989V14.375Z" fill="#121212"/>
<path d="M31.4286 14.375H30V12.9375H31.4286V14.375Z" fill="#121212"/>
<path d="M32.8583 14.375H31.4297V12.9375H32.8583V14.375Z" fill="#121212"/>
<path d="M34.2879 14.375H32.8594V12.9375H34.2879V14.375Z" fill="#121212"/>
<path d="M7.13951 12.9375H5.71094V11.5H7.13951V12.9375Z" fill="#121212"/>
<path d="M8.5692 12.9375H7.14062V11.5H8.5692V12.9375Z" fill="#121212"/>
<path d="M9.99888 12.9375H8.57031V11.5H9.99888V12.9375Z" fill="#121212"/>
<path d="M11.4286 12.9375H10V11.5H11.4286V12.9375Z" fill="#121212"/>
<path d="M29.9989 12.9375H28.5703V11.5H29.9989V12.9375Z" fill="#121212"/>
<path d="M31.4286 12.9375H30V11.5H31.4286V12.9375Z" fill="#121212"/>
<path d="M32.8583 12.9375H31.4297V11.5H32.8583V12.9375Z" fill="#121212"/>
<path d="M34.2879 12.9375H32.8594V11.5H34.2879V12.9375Z" fill="#121212"/>
<path d="M12.8583 11.5H11.4297V10.0625H12.8583V11.5Z" fill="#121212"/>
<path d="M14.2879 11.5H12.8594V10.0625H14.2879V11.5Z" fill="#121212"/>
<path d="M15.7176 11.5H14.2891V10.0625H15.7176V11.5Z" fill="#121212"/>
<path d="M17.1395 11.5H15.7109V10.0625H17.1395V11.5Z" fill="#121212"/>
<path d="M24.2879 11.5H22.8594V10.0625H24.2879V11.5Z" fill="#121212"/>
<path d="M25.7176 11.5H24.2891V10.0625H25.7176V11.5Z" fill="#121212"/>
<path d="M27.1395 11.5H25.7109V10.0625H27.1395V11.5Z" fill="#121212"/>
<path d="M28.5692 11.5H27.1406V10.0625H28.5692V11.5Z" fill="#121212"/>
<path d="M12.8583 10.0625H11.4297V8.625H12.8583V10.0625Z" fill="#121212"/>
<path d="M14.2879 10.0625H12.8594V8.625H14.2879V10.0625Z" fill="#121212"/>
<path d="M15.7176 10.0625H14.2891V8.625H15.7176V10.0625Z" fill="#121212"/>
<path d="M17.1395 10.0625H15.7109V8.625H17.1395V10.0625Z" fill="#121212"/>
<path d="M24.2879 10.0625H22.8594V8.625H24.2879V10.0625Z" fill="#121212"/>
<path d="M25.7176 10.0625H24.2891V8.625H25.7176V10.0625Z" fill="#121212"/>
<path d="M27.1395 10.0625H25.7109V8.625H27.1395V10.0625Z" fill="#121212"/>
<path d="M28.5692 10.0625H27.1406V8.625H28.5692V10.0625Z" fill="#121212"/>
<path d="M12.8583 8.625H11.4297V7.1875H12.8583V8.625Z" fill="#121212"/>
<path d="M14.2879 8.625H12.8594V7.1875H14.2879V8.625Z" fill="#121212"/>
<path d="M15.7176 8.625H14.2891V7.1875H15.7176V8.625Z" fill="#121212"/>
<path d="M17.1395 8.625H15.7109V7.1875H17.1395V8.625Z" fill="#121212"/>
<path d="M24.2879 8.625H22.8594V7.1875H24.2879V8.625Z" fill="#121212"/>
<path d="M25.7176 8.625H24.2891V7.1875H25.7176V8.625Z" fill="#121212"/>
<path d="M27.1395 8.625H25.7109V7.1875H27.1395V8.625Z" fill="#121212"/>
<path d="M28.5692 8.625H27.1406V7.1875H28.5692V8.625Z" fill="#121212"/>
<path d="M12.8583 7.1875H11.4297V5.75H12.8583V7.1875Z" fill="#121212"/>
<path d="M14.2879 7.1875H12.8594V5.75H14.2879V7.1875Z" fill="#121212"/>
<path d="M15.7176 7.1875H14.2891V5.75H15.7176V7.1875Z" fill="#121212"/>
<path d="M17.1395 7.1875H15.7109V5.75H17.1395V7.1875Z" fill="#121212"/>
<path d="M24.2879 7.1875H22.8594V5.75H24.2879V7.1875Z" fill="#121212"/>
<path d="M25.7176 7.1875H24.2891V5.75H25.7176V7.1875Z" fill="#121212"/>
<path d="M27.1395 7.1875H25.7109V5.75H27.1395V7.1875Z" fill="#121212"/>
<path d="M28.5692 7.1875H27.1406V5.75H28.5692V7.1875Z" fill="#121212"/>
<path d="M18.5692 5.75H17.1406V4.3125H18.5692V5.75Z" fill="#121212"/>
<path d="M19.9989 5.75H18.5703V4.3125H19.9989V5.75Z" fill="#121212"/>
<path d="M21.4286 5.75H20V4.3125H21.4286V5.75Z" fill="#121212"/>
<path d="M22.8583 5.75H21.4297V4.3125H22.8583V5.75Z" fill="#121212"/>
<path d="M18.5692 4.3125H17.1406V2.875H18.5692V4.3125Z" fill="#121212"/>
<path d="M19.9989 4.3125H18.5703V2.875H19.9989V4.3125Z" fill="#121212"/>
<path d="M21.4286 4.3125H20V2.875H21.4286V4.3125Z" fill="#121212"/>
<path d="M22.8583 4.3125H21.4297V2.875H22.8583V4.3125Z" fill="#121212"/>
<path d="M18.5692 2.875H17.1406V1.4375H18.5692V2.875Z" fill="#121212"/>
<path d="M19.9989 2.875H18.5703V1.4375H19.9989V2.875Z" fill="#121212"/>
<path d="M21.4286 2.875H20V1.4375H21.4286V2.875Z" fill="#121212"/>
<path d="M22.8583 2.875H21.4297V1.4375H22.8583V2.875Z" fill="#121212"/>
<path d="M18.5692 1.4375H17.1406V0H18.5692V1.4375Z" fill="#121212"/>
<path d="M19.9989 1.4375H18.5703V0H19.9989V1.4375Z" fill="#121212"/>
<path d="M21.4286 1.4375H20V0H21.4286V1.4375Z" fill="#121212"/>
<path d="M22.8583 1.4375H21.4297V0H22.8583V1.4375Z" fill="#121212"/>
</g>
<defs>
<clipPath id="clip0_5_18542">
<rect width="40" height="23" fill="white" transform="matrix(1 0 0 -1 0 23)"/>
</clipPath>
</defs>
</svg>
