<svg width="16" height="16" viewBox="0 0 16 16" fill="none" xmlns="http://www.w3.org/2000/svg">
<path d="M13.5849 15.3346L14.0679 15.8292L14.5509 15.3346L14.0679 14.8399L13.5849 15.3346Z" fill="#34D3D7"/>
<path d="M13.1019 14.8399L13.5849 15.3346L14.0679 14.8399L13.5849 14.3452L13.1019 14.8399Z" fill="#34D3D7"/>
<path d="M12.6188 14.3452L13.1019 14.8399L13.5849 14.3452L13.1019 13.8506L12.6188 14.3452Z" fill="#34D3D7"/>
<path d="M12.1358 13.8506L12.6188 14.3452L13.1019 13.8506L12.6188 13.3559L12.1358 13.8506Z" fill="#34D3D7"/>
<path d="M1.99237 3.46264L2.4754 3.95731L2.95842 3.46264L2.4754 2.96798L1.99237 3.46264Z" fill="#34D3D7"/>
<path d="M1.50935 2.96798L1.99237 3.46264L2.4754 2.96798L1.99237 2.47332L1.50935 2.96798Z" fill="#34D3D7"/>
<path d="M1.02633 2.47332L1.50935 2.96798L1.99237 2.47332L1.50935 1.97865L1.02633 2.47332Z" fill="#34D3D7"/>
<path d="M0.54331 1.97865L1.02633 2.47332L1.50935 1.97865L1.02633 1.48399L0.54331 1.97865Z" fill="#34D3D7"/>
<path d="M14.0679 14.8399L14.5509 15.3346L15.034 14.8399L14.5509 14.3452L14.0679 14.8399Z" fill="#34D3D7"/>
<path d="M13.5849 14.3452L14.0679 14.8399L14.5509 14.3452L14.0679 13.8506L13.5849 14.3452Z" fill="#34D3D7"/>
<path d="M13.1019 13.8506L13.5849 14.3452L14.0679 13.8506L13.5849 13.3559L13.1019 13.8506Z" fill="#34D3D7"/>
<path d="M12.6188 13.3559L13.1019 13.8506L13.5849 13.3559L13.1019 12.8612L12.6188 13.3559Z" fill="#34D3D7"/>
<path d="M2.4754 2.96798L2.95842 3.46264L3.44144 2.96798L2.95842 2.47332L2.4754 2.96798Z" fill="#34D3D7"/>
<path d="M1.99237 2.47332L2.4754 2.96798L2.95842 2.47332L2.4754 1.97865L1.99237 2.47332Z" fill="#34D3D7"/>
<path d="M1.50935 1.97865L1.99237 2.47332L2.4754 1.97865L1.99237 1.48399L1.50935 1.97865Z" fill="#34D3D7"/>
<path d="M1.02633 1.48399L1.50935 1.97865L1.99237 1.48399L1.50935 0.989326L1.02633 1.48399Z" fill="#34D3D7"/>
<path d="M14.5509 14.3452L15.034 14.8399L15.517 14.3452L15.034 13.8506L14.5509 14.3452Z" fill="#34D3D7"/>
<path d="M14.0679 13.8506L14.5509 14.3452L15.034 13.8506L14.5509 13.3559L14.0679 13.8506Z" fill="#34D3D7"/>
<path d="M13.5849 13.3559L14.0679 13.8506L14.5509 13.3559L14.0679 12.8612L13.5849 13.3559Z" fill="#34D3D7"/>
<path d="M13.1019 12.8612L13.5849 13.3559L14.0679 12.8612L13.5849 12.3666L13.1019 12.8612Z" fill="#34D3D7"/>
<path d="M2.95842 2.47332L3.44144 2.96798L3.92446 2.47332L3.44144 1.97865L2.95842 2.47332Z" fill="#34D3D7"/>
<path d="M2.4754 1.97865L2.95842 2.47332L3.44144 1.97865L2.95842 1.48399L2.4754 1.97865Z" fill="#34D3D7"/>
<path d="M1.99237 1.48399L2.4754 1.97865L2.95842 1.48399L2.4754 0.989326L1.99237 1.48399Z" fill="#34D3D7"/>
<path d="M1.50935 0.989326L1.99237 1.48399L2.4754 0.989326L1.99237 0.494663L1.50935 0.989326Z" fill="#34D3D7"/>
<path d="M15.034 13.8506L15.517 14.3452L16 13.8506L15.517 13.3559L15.034 13.8506Z" fill="#34D3D7"/>
<path d="M14.5509 13.3559L15.034 13.8506L15.517 13.3559L15.034 12.8612L14.5509 13.3559Z" fill="#34D3D7"/>
<path d="M14.0679 12.8612L14.5509 13.3559L15.034 12.8612L14.5509 12.3666L14.0679 12.8612Z" fill="#34D3D7"/>
<path d="M13.5849 12.3666L14.0679 12.8612L14.5509 12.3666L14.0679 11.8719L13.5849 12.3666Z" fill="#34D3D7"/>
<path d="M3.44144 1.97865L3.92446 2.47332L4.40748 1.97865L3.92446 1.48399L3.44144 1.97865Z" fill="#34D3D7"/>
<path d="M2.95842 1.48399L3.44144 1.97865L3.92446 1.48399L3.44144 0.989326L2.95842 1.48399Z" fill="#34D3D7"/>
<path d="M2.4754 0.989326L2.95842 1.48399L3.44144 0.989326L2.95842 0.494663L2.4754 0.989326Z" fill="#34D3D7"/>
<path d="M1.99237 0.494663L2.4754 0.989326L2.95842 0.494663L2.4754 0L1.99237 0.494663Z" fill="#34D3D7"/>
<path d="M13.5849 11.3773L14.0679 11.8719L14.5509 11.3773L14.0679 10.8826L13.5849 11.3773Z" fill="#34D3D7"/>
<path d="M13.1019 10.8826L13.5849 11.3773L14.0679 10.8826L13.5849 10.3879L13.1019 10.8826Z" fill="#34D3D7"/>
<path d="M12.6188 10.3879L13.1019 10.8826L13.5849 10.3879L13.1019 9.89326L12.6188 10.3879Z" fill="#34D3D7"/>
<path d="M12.1358 9.89326L12.6188 10.3879L13.1019 9.89326L12.6188 9.3986L12.1358 9.89326Z" fill="#34D3D7"/>
<path d="M5.85655 3.46264L6.33957 3.95731L6.82259 3.46264L6.33957 2.96798L5.85655 3.46264Z" fill="#34D3D7"/>
<path d="M5.37353 2.96798L5.85655 3.46264L6.33957 2.96798L5.85655 2.47332L5.37353 2.96798Z" fill="#34D3D7"/>
<path d="M4.8905 2.47332L5.37353 2.96798L5.85655 2.47332L5.37353 1.97865L4.8905 2.47332Z" fill="#34D3D7"/>
<path d="M4.40748 1.97865L4.8905 2.47332L5.37353 1.97865L4.8905 1.48399L4.40748 1.97865Z" fill="#34D3D7"/>
<path d="M14.0679 10.8826L14.5509 11.3773L15.034 10.8826L14.5509 10.3879L14.0679 10.8826Z" fill="#34D3D7"/>
<path d="M13.5849 10.3879L14.0679 10.8826L14.5509 10.3879L14.0679 9.89326L13.5849 10.3879Z" fill="#34D3D7"/>
<path d="M13.1019 9.89326L13.5849 10.3879L14.0679 9.89326L13.5849 9.3986L13.1019 9.89326Z" fill="#34D3D7"/>
<path d="M12.6188 9.3986L13.1019 9.89326L13.5849 9.3986L13.1019 8.90394L12.6188 9.3986Z" fill="#34D3D7"/>
<path d="M6.33957 2.96798L6.82259 3.46264L7.30561 2.96798L6.82259 2.47332L6.33957 2.96798Z" fill="#34D3D7"/>
<path d="M5.85655 2.47332L6.33957 2.96798L6.82259 2.47332L6.33957 1.97865L5.85655 2.47332Z" fill="#34D3D7"/>
<path d="M5.37353 1.97865L5.85655 2.47332L6.33957 1.97865L5.85655 1.48399L5.37353 1.97865Z" fill="#34D3D7"/>
<path d="M4.8905 1.48399L5.37353 1.97865L5.85655 1.48399L5.37353 0.989326L4.8905 1.48399Z" fill="#34D3D7"/>
<path d="M14.5509 10.3879L15.034 10.8826L15.517 10.3879L15.034 9.89326L14.5509 10.3879Z" fill="#34D3D7"/>
<path d="M14.0679 9.89326L14.5509 10.3879L15.034 9.89326L14.5509 9.3986L14.0679 9.89326Z" fill="#34D3D7"/>
<path d="M13.5849 9.3986L14.0679 9.89326L14.5509 9.3986L14.0679 8.90394L13.5849 9.3986Z" fill="#34D3D7"/>
<path d="M13.1019 8.90394L13.5849 9.3986L14.0679 8.90394L13.5849 8.40927L13.1019 8.90394Z" fill="#34D3D7"/>
<path d="M6.82259 2.47332L7.30561 2.96798L7.78863 2.47332L7.30561 1.97865L6.82259 2.47332Z" fill="#34D3D7"/>
<path d="M6.33957 1.97865L6.82259 2.47332L7.30561 1.97865L6.82259 1.48399L6.33957 1.97865Z" fill="#34D3D7"/>
<path d="M5.85655 1.48399L6.33957 1.97865L6.82259 1.48399L6.33957 0.989326L5.85655 1.48399Z" fill="#34D3D7"/>
<path d="M5.37353 0.989326L5.85655 1.48399L6.33957 0.989326L5.85655 0.494663L5.37353 0.989326Z" fill="#34D3D7"/>
<path d="M15.034 9.89326L15.517 10.3879L16 9.89326L15.517 9.3986L15.034 9.89326Z" fill="#34D3D7"/>
<path d="M14.5509 9.3986L15.034 9.89326L15.517 9.3986L15.034 8.90394L14.5509 9.3986Z" fill="#34D3D7"/>
<path d="M14.0679 8.90394L14.5509 9.3986L15.034 8.90394L14.5509 8.40927L14.0679 8.90394Z" fill="#34D3D7"/>
<path d="M13.5849 8.40927L14.0679 8.90394L14.5509 8.40927L14.0679 7.91461L13.5849 8.40927Z" fill="#34D3D7"/>
<path d="M7.30561 1.97865L7.78863 2.47332L8.27165 1.97865L7.78863 1.48399L7.30561 1.97865Z" fill="#34D3D7"/>
<path d="M6.82259 1.48399L7.30561 1.97865L7.78863 1.48399L7.30561 0.989326L6.82259 1.48399Z" fill="#34D3D7"/>
<path d="M6.33957 0.989326L6.82259 1.48399L7.30561 0.989326L6.82259 0.494663L6.33957 0.989326Z" fill="#34D3D7"/>
<path d="M5.85655 0.494663L6.33957 0.989326L6.82259 0.494663L6.33957 0L5.85655 0.494663Z" fill="#34D3D7"/>
<path d="M13.5849 7.41995L14.0679 7.91461L14.5509 7.41995L14.0679 6.92528L13.5849 7.41995Z" fill="#34D3D7"/>
<path d="M13.1019 6.92528L13.5849 7.41995L14.0679 6.92528L13.5849 6.43062L13.1019 6.92528Z" fill="#34D3D7"/>
<path d="M12.6188 6.43062L13.1019 6.92528L13.5849 6.43062L13.1019 5.93596L12.6188 6.43062Z" fill="#34D3D7"/>
<path d="M12.1358 5.93596L12.6188 6.43062L13.1019 5.93596L12.6188 5.44129L12.1358 5.93596Z" fill="#34D3D7"/>
<path d="M9.72072 3.46264L10.2037 3.95731L10.6868 3.46264L10.2037 2.96798L9.72072 3.46264Z" fill="#34D3D7"/>
<path d="M9.2377 2.96798L9.72072 3.46264L10.2037 2.96798L9.72072 2.47332L9.2377 2.96798Z" fill="#34D3D7"/>
<path d="M8.75468 2.47332L9.2377 2.96798L9.72072 2.47332L9.2377 1.97865L8.75468 2.47332Z" fill="#34D3D7"/>
<path d="M8.27165 1.97865L8.75468 2.47332L9.2377 1.97865L8.75468 1.48399L8.27165 1.97865Z" fill="#34D3D7"/>
<path d="M14.0679 6.92528L14.5509 7.41995L15.034 6.92528L14.5509 6.43062L14.0679 6.92528Z" fill="#34D3D7"/>
<path d="M13.5849 6.43062L14.0679 6.92528L14.5509 6.43062L14.0679 5.93596L13.5849 6.43062Z" fill="#34D3D7"/>
<path d="M13.1019 5.93596L13.5849 6.43062L14.0679 5.93596L13.5849 5.44129L13.1019 5.93596Z" fill="#34D3D7"/>
<path d="M12.6188 5.44129L13.1019 5.93596L13.5849 5.44129L13.1019 4.94663L12.6188 5.44129Z" fill="#34D3D7"/>
<path d="M10.2037 2.96798L10.6868 3.46264L11.1698 2.96798L10.6868 2.47332L10.2037 2.96798Z" fill="#34D3D7"/>
<path d="M9.72072 2.47332L10.2037 2.96798L10.6868 2.47332L10.2037 1.97865L9.72072 2.47332Z" fill="#34D3D7"/>
<path d="M9.2377 1.97865L9.72072 2.47332L10.2037 1.97865L9.72072 1.48399L9.2377 1.97865Z" fill="#34D3D7"/>
<path d="M8.75468 1.48399L9.2377 1.97865L9.72072 1.48399L9.2377 0.989326L8.75468 1.48399Z" fill="#34D3D7"/>
<path d="M14.5509 6.43062L15.034 6.92528L15.517 6.43062L15.034 5.93596L14.5509 6.43062Z" fill="#34D3D7"/>
<path d="M14.0679 5.93596L14.5509 6.43062L15.034 5.93596L14.5509 5.44129L14.0679 5.93596Z" fill="#34D3D7"/>
<path d="M13.5849 5.44129L14.0679 5.93596L14.5509 5.44129L14.0679 4.94663L13.5849 5.44129Z" fill="#34D3D7"/>
<path d="M13.1019 4.94663L13.5849 5.44129L14.0679 4.94663L13.5849 4.45197L13.1019 4.94663Z" fill="#34D3D7"/>
<path d="M10.6868 2.47332L11.1698 2.96798L11.6528 2.47332L11.1698 1.97865L10.6868 2.47332Z" fill="#34D3D7"/>
<path d="M10.2037 1.97865L10.6868 2.47332L11.1698 1.97865L10.6868 1.48399L10.2037 1.97865Z" fill="#34D3D7"/>
<path d="M9.72072 1.48399L10.2037 1.97865L10.6868 1.48399L10.2037 0.989326L9.72072 1.48399Z" fill="#34D3D7"/>
<path d="M9.2377 0.989326L9.72072 1.48399L10.2037 0.989326L9.72072 0.494663L9.2377 0.989326Z" fill="#34D3D7"/>
<path d="M15.034 5.93596L15.517 6.43062L16 5.93596L15.517 5.44129L15.034 5.93596Z" fill="#34D3D7"/>
<path d="M14.5509 5.44129L15.034 5.93596L15.517 5.44129L15.034 4.94663L14.5509 5.44129Z" fill="#34D3D7"/>
<path d="M14.0679 4.94663L14.5509 5.44129L15.034 4.94663L14.5509 4.45197L14.0679 4.94663Z" fill="#34D3D7"/>
<path d="M13.5849 4.45197L14.0679 4.94663L14.5509 4.45197L14.0679 3.95731L13.5849 4.45197Z" fill="#34D3D7"/>
<path d="M11.1698 1.97865L11.6528 2.47332L12.1358 1.97865L11.6528 1.48399L11.1698 1.97865Z" fill="#34D3D7"/>
<path d="M10.6868 1.48399L11.1698 1.97865L11.6528 1.48399L11.1698 0.989326L10.6868 1.48399Z" fill="#34D3D7"/>
<path d="M10.2037 0.989326L10.6868 1.48399L11.1698 0.989326L10.6868 0.494663L10.2037 0.989326Z" fill="#34D3D7"/>
<path d="M9.72072 0.494663L10.2037 0.989326L10.6868 0.494663L10.2037 0L9.72072 0.494663Z" fill="#34D3D7"/>
<path d="M13.5849 3.46264L14.0679 3.95731L14.5509 3.46264L14.0679 2.96798L13.5849 3.46264Z" fill="#34D3D7"/>
<path d="M13.1019 2.96798L13.5849 3.46264L14.0679 2.96798L13.5849 2.47332L13.1019 2.96798Z" fill="#34D3D7"/>
<path d="M12.6188 2.47332L13.1019 2.96798L13.5849 2.47332L13.1019 1.97865L12.6188 2.47332Z" fill="#34D3D7"/>
<path d="M12.1358 1.97865L12.6188 2.47332L13.1019 1.97865L12.6188 1.48399L12.1358 1.97865Z" fill="#34D3D7"/>
<path d="M14.0679 2.96798L14.5509 3.46264L15.034 2.96798L14.5509 2.47332L14.0679 2.96798Z" fill="#34D3D7"/>
<path d="M13.5849 2.47332L14.0679 2.96798L14.5509 2.47332L14.0679 1.97865L13.5849 2.47332Z" fill="#34D3D7"/>
<path d="M13.1019 1.97865L13.5849 2.47332L14.0679 1.97865L13.5849 1.48399L13.1019 1.97865Z" fill="#34D3D7"/>
<path d="M12.6188 1.48399L13.1019 1.97865L13.5849 1.48399L13.1019 0.989326L12.6188 1.48399Z" fill="#34D3D7"/>
<path d="M14.5509 2.47332L15.034 2.96798L15.517 2.47332L15.034 1.97865L14.5509 2.47332Z" fill="#34D3D7"/>
<path d="M14.0679 1.97865L14.5509 2.47332L15.034 1.97865L14.5509 1.48399L14.0679 1.97865Z" fill="#34D3D7"/>
<path d="M13.5849 1.48399L14.0679 1.97865L14.5509 1.48399L14.0679 0.989326L13.5849 1.48399Z" fill="#34D3D7"/>
<path d="M13.1019 0.989326L13.5849 1.48399L14.0679 0.989326L13.5849 0.494663L13.1019 0.989326Z" fill="#34D3D7"/>
<path d="M15.034 1.97865L15.517 2.47332L16 1.97865L15.517 1.48399L15.034 1.97865Z" fill="#34D3D7"/>
<path d="M14.5509 1.48399L15.034 1.97865L15.517 1.48399L15.034 0.989326L14.5509 1.48399Z" fill="#34D3D7"/>
<path d="M14.0679 0.989326L14.5509 1.48399L15.034 0.989326L14.5509 0.494663L14.0679 0.989326Z" fill="#34D3D7"/>
<path d="M13.5849 0.494663L14.0679 0.989326L14.5509 0.494663L14.0679 0L13.5849 0.494663Z" fill="#34D3D7"/>
<path d="M0 13.9853L12.2286 1.93999L14.1208 3.95467L1.89219 16L0 13.9853Z" fill="#34D3D7"/>
</svg>
