<svg width="24" height="24" viewBox="0 0 24 24" fill="none" xmlns="http://www.w3.org/2000/svg">
<path d="M20.3773 0.998163L21.1019 0.256168L21.8264 0.998163L21.1019 1.74016L20.3773 0.998163Z" fill="#FEFEFE"/>
<path d="M19.6528 1.74016L20.3773 0.998163L21.1019 1.74016L20.3773 2.48215L19.6528 1.74016Z" fill="#FEFEFE"/>
<path d="M18.9283 2.48215L19.6528 1.74016L20.3773 2.48215L19.6528 3.22415L18.9283 2.48215Z" fill="#FEFEFE"/>
<path d="M18.2037 3.22415L18.9283 2.48215L19.6528 3.22415L18.9283 3.96614L18.2037 3.22415Z" fill="#FEFEFE"/>
<path d="M2.98856 18.806L3.71309 18.064L4.43763 18.806L3.71309 19.548L2.98856 18.806Z" fill="#FEFEFE"/>
<path d="M2.26403 19.548L2.98856 18.806L3.71309 19.548L2.98856 20.29L2.26403 19.548Z" fill="#FEFEFE"/>
<path d="M1.5395 20.29L2.26403 19.548L2.98856 20.29L2.26403 21.032L1.5395 20.29Z" fill="#FEFEFE"/>
<path d="M0.814965 21.032L1.5395 20.29L2.26403 21.032L1.5395 21.774L0.814965 21.032Z" fill="#FEFEFE"/>
<path d="M21.1019 1.74016L21.8264 0.998163L22.5509 1.74016L21.8264 2.48215L21.1019 1.74016Z" fill="#FEFEFE"/>
<path d="M20.3773 2.48215L21.1019 1.74016L21.8264 2.48215L21.1019 3.22415L20.3773 2.48215Z" fill="#FEFEFE"/>
<path d="M19.6528 3.22415L20.3773 2.48215L21.1019 3.22415L20.3773 3.96614L19.6528 3.22415Z" fill="#FEFEFE"/>
<path d="M18.9283 3.96614L19.6528 3.22415L20.3773 3.96614L19.6528 4.70814L18.9283 3.96614Z" fill="#FEFEFE"/>
<path d="M3.71309 19.548L4.43763 18.806L5.16216 19.548L4.43763 20.29L3.71309 19.548Z" fill="#FEFEFE"/>
<path d="M2.98856 20.29L3.71309 19.548L4.43763 20.29L3.71309 21.032L2.98856 20.29Z" fill="#FEFEFE"/>
<path d="M2.26403 21.032L2.98856 20.29L3.71309 21.032L2.98856 21.774L2.26403 21.032Z" fill="#FEFEFE"/>
<path d="M1.5395 21.774L2.26403 21.032L2.98856 21.774L2.26403 22.516L1.5395 21.774Z" fill="#FEFEFE"/>
<path d="M21.8264 2.48215L22.5509 1.74016L23.2755 2.48215L22.5509 3.22415L21.8264 2.48215Z" fill="#FEFEFE"/>
<path d="M21.1019 3.22415L21.8264 2.48215L22.5509 3.22415L21.8264 3.96614L21.1019 3.22415Z" fill="#FEFEFE"/>
<path d="M20.3773 3.96614L21.1019 3.22415L21.8264 3.96614L21.1019 4.70814L20.3773 3.96614Z" fill="#FEFEFE"/>
<path d="M19.6528 4.70814L20.3773 3.96614L21.1019 4.70814L20.3773 5.45013L19.6528 4.70814Z" fill="#FEFEFE"/>
<path d="M4.43763 20.29L5.16216 19.548L5.88669 20.29L5.16216 21.032L4.43763 20.29Z" fill="#FEFEFE"/>
<path d="M3.71309 21.032L4.43763 20.29L5.16216 21.032L4.43763 21.774L3.71309 21.032Z" fill="#FEFEFE"/>
<path d="M2.98856 21.774L3.71309 21.032L4.43763 21.774L3.71309 22.516L2.98856 21.774Z" fill="#FEFEFE"/>
<path d="M2.26403 22.516L2.98856 21.774L3.71309 22.516L2.98856 23.258L2.26403 22.516Z" fill="#FEFEFE"/>
<path d="M22.5509 3.22415L23.2755 2.48215L24 3.22415L23.2755 3.96614L22.5509 3.22415Z" fill="#FEFEFE"/>
<path d="M21.8264 3.96614L22.5509 3.22415L23.2755 3.96614L22.5509 4.70814L21.8264 3.96614Z" fill="#FEFEFE"/>
<path d="M21.1019 4.70814L21.8264 3.96614L22.5509 4.70814L21.8264 5.45013L21.1019 4.70814Z" fill="#FEFEFE"/>
<path d="M20.3773 5.45013L21.1019 4.70814L21.8264 5.45013L21.1019 6.19213L20.3773 5.45013Z" fill="#FEFEFE"/>
<path d="M5.16216 21.032L5.88669 20.29L6.61122 21.032L5.88669 21.774L5.16216 21.032Z" fill="#FEFEFE"/>
<path d="M4.43763 21.774L5.16216 21.032L5.88669 21.774L5.16216 22.516L4.43763 21.774Z" fill="#FEFEFE"/>
<path d="M3.71309 22.516L4.43763 21.774L5.16216 22.516L4.43763 23.258L3.71309 22.516Z" fill="#FEFEFE"/>
<path d="M2.98856 23.258L3.71309 22.516L4.43763 23.258L3.71309 24L2.98856 23.258Z" fill="#FEFEFE"/>
<path d="M20.3773 6.93412L21.1019 6.19213L21.8264 6.93412L21.1019 7.67612L20.3773 6.93412Z" fill="#FEFEFE"/>
<path d="M19.6528 7.67612L20.3773 6.93412L21.1019 7.67612L20.3773 8.41811L19.6528 7.67612Z" fill="#FEFEFE"/>
<path d="M18.9283 8.41811L19.6528 7.67612L20.3773 8.41811L19.6528 9.1601L18.9283 8.41811Z" fill="#FEFEFE"/>
<path d="M18.2037 9.1601L18.9283 8.41811L19.6528 9.1601L18.9283 9.9021L18.2037 9.1601Z" fill="#FEFEFE"/>
<path d="M8.78482 18.806L9.50935 18.064L10.2339 18.806L9.50935 19.548L8.78482 18.806Z" fill="#FEFEFE"/>
<path d="M8.06029 19.548L8.78482 18.806L9.50935 19.548L8.78482 20.29L8.06029 19.548Z" fill="#FEFEFE"/>
<path d="M7.33576 20.29L8.06029 19.548L8.78482 20.29L8.06029 21.032L7.33576 20.29Z" fill="#FEFEFE"/>
<path d="M6.61122 21.032L7.33576 20.29L8.06029 21.032L7.33576 21.774L6.61122 21.032Z" fill="#FEFEFE"/>
<path d="M21.1019 7.67612L21.8264 6.93412L22.5509 7.67612L21.8264 8.41811L21.1019 7.67612Z" fill="#FEFEFE"/>
<path d="M20.3773 8.41811L21.1019 7.67612L21.8264 8.41811L21.1019 9.1601L20.3773 8.41811Z" fill="#FEFEFE"/>
<path d="M19.6528 9.1601L20.3773 8.41811L21.1019 9.1601L20.3773 9.9021L19.6528 9.1601Z" fill="#FEFEFE"/>
<path d="M18.9283 9.9021L19.6528 9.1601L20.3773 9.9021L19.6528 10.6441L18.9283 9.9021Z" fill="#FEFEFE"/>
<path d="M9.50935 19.548L10.2339 18.806L10.9584 19.548L10.2339 20.29L9.50935 19.548Z" fill="#FEFEFE"/>
<path d="M8.78482 20.29L9.50935 19.548L10.2339 20.29L9.50935 21.032L8.78482 20.29Z" fill="#FEFEFE"/>
<path d="M8.06029 21.032L8.78482 20.29L9.50935 21.032L8.78482 21.774L8.06029 21.032Z" fill="#FEFEFE"/>
<path d="M7.33576 21.774L8.06029 21.032L8.78482 21.774L8.06029 22.516L7.33576 21.774Z" fill="#FEFEFE"/>
<path d="M21.8264 8.41811L22.5509 7.67612L23.2755 8.41811L22.5509 9.1601L21.8264 8.41811Z" fill="#FEFEFE"/>
<path d="M21.1019 9.1601L21.8264 8.41811L22.5509 9.1601L21.8264 9.9021L21.1019 9.1601Z" fill="#FEFEFE"/>
<path d="M20.3773 9.9021L21.1019 9.1601L21.8264 9.9021L21.1019 10.6441L20.3773 9.9021Z" fill="#FEFEFE"/>
<path d="M19.6528 10.6441L20.3773 9.9021L21.1019 10.6441L20.3773 11.3861L19.6528 10.6441Z" fill="#FEFEFE"/>
<path d="M10.2339 20.29L10.9584 19.548L11.683 20.29L10.9584 21.032L10.2339 20.29Z" fill="#FEFEFE"/>
<path d="M9.50935 21.032L10.2339 20.29L10.9584 21.032L10.2339 21.774L9.50935 21.032Z" fill="#FEFEFE"/>
<path d="M8.78482 21.774L9.50935 21.032L10.2339 21.774L9.50935 22.516L8.78482 21.774Z" fill="#FEFEFE"/>
<path d="M8.06029 22.516L8.78482 21.774L9.50935 22.516L8.78482 23.258L8.06029 22.516Z" fill="#FEFEFE"/>
<path d="M22.5509 9.1601L23.2755 8.41811L24 9.1601L23.2755 9.9021L22.5509 9.1601Z" fill="#FEFEFE"/>
<path d="M21.8264 9.9021L22.5509 9.1601L23.2755 9.9021L22.5509 10.6441L21.8264 9.9021Z" fill="#FEFEFE"/>
<path d="M21.1019 10.6441L21.8264 9.9021L22.5509 10.6441L21.8264 11.3861L21.1019 10.6441Z" fill="#FEFEFE"/>
<path d="M20.3773 11.3861L21.1019 10.6441L21.8264 11.3861L21.1019 12.1281L20.3773 11.3861Z" fill="#FEFEFE"/>
<path d="M10.9584 21.032L11.683 20.29L12.4075 21.032L11.683 21.774L10.9584 21.032Z" fill="#FEFEFE"/>
<path d="M10.2339 21.774L10.9584 21.032L11.683 21.774L10.9584 22.516L10.2339 21.774Z" fill="#FEFEFE"/>
<path d="M9.50935 22.516L10.2339 21.774L10.9584 22.516L10.2339 23.258L9.50935 22.516Z" fill="#FEFEFE"/>
<path d="M8.78482 23.258L9.50935 22.516L10.2339 23.258L9.50935 24L8.78482 23.258Z" fill="#FEFEFE"/>
<path d="M20.3773 12.8701L21.1019 12.1281L21.8264 12.8701L21.1019 13.6121L20.3773 12.8701Z" fill="#FEFEFE"/>
<path d="M19.6528 13.6121L20.3773 12.8701L21.1019 13.6121L20.3773 14.3541L19.6528 13.6121Z" fill="#FEFEFE"/>
<path d="M18.9283 14.3541L19.6528 13.6121L20.3773 14.3541L19.6528 15.0961L18.9283 14.3541Z" fill="#FEFEFE"/>
<path d="M18.2037 15.0961L18.9283 14.3541L19.6528 15.0961L18.9283 15.8381L18.2037 15.0961Z" fill="#FEFEFE"/>
<path d="M14.5811 18.806L15.3056 18.064L16.0301 18.806L15.3056 19.548L14.5811 18.806Z" fill="#FEFEFE"/>
<path d="M13.8565 19.548L14.5811 18.806L15.3056 19.548L14.5811 20.29L13.8565 19.548Z" fill="#FEFEFE"/>
<path d="M13.132 20.29L13.8565 19.548L14.5811 20.29L13.8565 21.032L13.132 20.29Z" fill="#FEFEFE"/>
<path d="M12.4075 21.032L13.132 20.29L13.8565 21.032L13.132 21.774L12.4075 21.032Z" fill="#FEFEFE"/>
<path d="M21.1019 13.6121L21.8264 12.8701L22.5509 13.6121L21.8264 14.3541L21.1019 13.6121Z" fill="#FEFEFE"/>
<path d="M20.3773 14.3541L21.1019 13.6121L21.8264 14.3541L21.1019 15.0961L20.3773 14.3541Z" fill="#FEFEFE"/>
<path d="M19.6528 15.0961L20.3773 14.3541L21.1019 15.0961L20.3773 15.8381L19.6528 15.0961Z" fill="#FEFEFE"/>
<path d="M18.9283 15.8381L19.6528 15.0961L20.3773 15.8381L19.6528 16.5801L18.9283 15.8381Z" fill="#FEFEFE"/>
<path d="M15.3056 19.548L16.0301 18.806L16.7547 19.548L16.0301 20.29L15.3056 19.548Z" fill="#FEFEFE"/>
<path d="M14.5811 20.29L15.3056 19.548L16.0301 20.29L15.3056 21.032L14.5811 20.29Z" fill="#FEFEFE"/>
<path d="M13.8565 21.032L14.5811 20.29L15.3056 21.032L14.5811 21.774L13.8565 21.032Z" fill="#FEFEFE"/>
<path d="M13.132 21.774L13.8565 21.032L14.5811 21.774L13.8565 22.516L13.132 21.774Z" fill="#FEFEFE"/>
<path d="M21.8264 14.3541L22.5509 13.6121L23.2755 14.3541L22.5509 15.0961L21.8264 14.3541Z" fill="#FEFEFE"/>
<path d="M21.1019 15.0961L21.8264 14.3541L22.5509 15.0961L21.8264 15.8381L21.1019 15.0961Z" fill="#FEFEFE"/>
<path d="M20.3773 15.8381L21.1019 15.0961L21.8264 15.8381L21.1019 16.5801L20.3773 15.8381Z" fill="#FEFEFE"/>
<path d="M19.6528 16.5801L20.3773 15.8381L21.1019 16.5801L20.3773 17.322L19.6528 16.5801Z" fill="#FEFEFE"/>
<path d="M16.0301 20.29L16.7547 19.548L17.4792 20.29L16.7547 21.032L16.0301 20.29Z" fill="#FEFEFE"/>
<path d="M15.3056 21.032L16.0301 20.29L16.7547 21.032L16.0301 21.774L15.3056 21.032Z" fill="#FEFEFE"/>
<path d="M14.5811 21.774L15.3056 21.032L16.0301 21.774L15.3056 22.516L14.5811 21.774Z" fill="#FEFEFE"/>
<path d="M13.8565 22.516L14.5811 21.774L15.3056 22.516L14.5811 23.258L13.8565 22.516Z" fill="#FEFEFE"/>
<path d="M22.5509 15.0961L23.2755 14.3541L24 15.0961L23.2755 15.8381L22.5509 15.0961Z" fill="#FEFEFE"/>
<path d="M21.8264 15.8381L22.5509 15.0961L23.2755 15.8381L22.5509 16.5801L21.8264 15.8381Z" fill="#FEFEFE"/>
<path d="M21.1019 16.5801L21.8264 15.8381L22.5509 16.5801L21.8264 17.322L21.1019 16.5801Z" fill="#FEFEFE"/>
<path d="M20.3773 17.322L21.1019 16.5801L21.8264 17.322L21.1019 18.064L20.3773 17.322Z" fill="#FEFEFE"/>
<path d="M16.7547 21.032L17.4792 20.29L18.2037 21.032L17.4792 21.774L16.7547 21.032Z" fill="#FEFEFE"/>
<path d="M16.0301 21.774L16.7547 21.032L17.4792 21.774L16.7547 22.516L16.0301 21.774Z" fill="#FEFEFE"/>
<path d="M15.3056 22.516L16.0301 21.774L16.7547 22.516L16.0301 23.258L15.3056 22.516Z" fill="#FEFEFE"/>
<path d="M14.5811 23.258L15.3056 22.516L16.0301 23.258L15.3056 24L14.5811 23.258Z" fill="#FEFEFE"/>
<path d="M20.3773 18.806L21.1019 18.064L21.8264 18.806L21.1019 19.548L20.3773 18.806Z" fill="#FEFEFE"/>
<path d="M19.6528 19.548L20.3773 18.806L21.1019 19.548L20.3773 20.29L19.6528 19.548Z" fill="#FEFEFE"/>
<path d="M18.9283 20.29L19.6528 19.548L20.3773 20.29L19.6528 21.032L18.9283 20.29Z" fill="#FEFEFE"/>
<path d="M18.2037 21.032L18.9283 20.29L19.6528 21.032L18.9283 21.774L18.2037 21.032Z" fill="#FEFEFE"/>
<path d="M21.1019 19.548L21.8264 18.806L22.5509 19.548L21.8264 20.29L21.1019 19.548Z" fill="#FEFEFE"/>
<path d="M20.3773 20.29L21.1019 19.548L21.8264 20.29L21.1019 21.032L20.3773 20.29Z" fill="#FEFEFE"/>
<path d="M19.6528 21.032L20.3773 20.29L21.1019 21.032L20.3773 21.774L19.6528 21.032Z" fill="#FEFEFE"/>
<path d="M18.9283 21.774L19.6528 21.032L20.3773 21.774L19.6528 22.516L18.9283 21.774Z" fill="#FEFEFE"/>
<path d="M21.8264 20.29L22.5509 19.548L23.2755 20.29L22.5509 21.032L21.8264 20.29Z" fill="#FEFEFE"/>
<path d="M21.1019 21.032L21.8264 20.29L22.5509 21.032L21.8264 21.774L21.1019 21.032Z" fill="#FEFEFE"/>
<path d="M20.3773 21.774L21.1019 21.032L21.8264 21.774L21.1019 22.516L20.3773 21.774Z" fill="#FEFEFE"/>
<path d="M19.6528 22.516L20.3773 21.774L21.1019 22.516L20.3773 23.258L19.6528 22.516Z" fill="#FEFEFE"/>
<path d="M22.5509 21.032L23.2755 20.29L24 21.032L23.2755 21.774L22.5509 21.032Z" fill="#FEFEFE"/>
<path d="M21.8264 21.774L22.5509 21.032L23.2755 21.774L22.5509 22.516L21.8264 21.774Z" fill="#FEFEFE"/>
<path d="M21.1019 22.516L21.8264 21.774L22.5509 22.516L21.8264 23.258L21.1019 22.516Z" fill="#FEFEFE"/>
<path d="M20.3773 23.258L21.1019 22.516L21.8264 23.258L21.1019 24L20.3773 23.258Z" fill="#FEFEFE"/>
<path d="M0 3.02203L18.3428 21.09L21.1811 18.068L2.83828 0L0 3.02203Z" fill="#FEFEFE"/>
</svg>
