<svg width="1350" height="50" viewBox="0 0 1350 50" fill="none" xmlns="http://www.w3.org/2000/svg">
<mask id="path-1-inside-1_5_19831" fill="white">
<path fill-rule="evenodd" clip-rule="evenodd" d="M6 50C2.68629 50 0 47.3137 0 44V27.67C0 25.7676 0.902175 23.9779 2.43152 22.8465L31.7227 1.17652C32.7555 0.412402 34.0064 0 35.2911 0H1344C1347.31 0 1350 2.68629 1350 6V21.4258C1350 23.3282 1349.1 25.1179 1347.57 26.2493L1317.06 48.8235C1316.02 49.5876 1314.77 50 1313.49 50H6ZM1349.64 49.5942C1349.47 49.7232 1349.56 50 1349.78 50V50C1349.9 50 1350 49.8993 1350 49.775V49.775C1350 49.5903 1349.79 49.4843 1349.64 49.5942V49.5942Z"/>
</mask>
<path fill-rule="evenodd" clip-rule="evenodd" d="M6 50C2.68629 50 0 47.3137 0 44V27.67C0 25.7676 0.902175 23.9779 2.43152 22.8465L31.7227 1.17652C32.7555 0.412402 34.0064 0 35.2911 0H1344C1347.31 0 1350 2.68629 1350 6V21.4258C1350 23.3282 1349.1 25.1179 1347.57 26.2493L1317.06 48.8235C1316.02 49.5876 1314.77 50 1313.49 50H6ZM1349.64 49.5942C1349.47 49.7232 1349.56 50 1349.78 50V50C1349.9 50 1350 49.8993 1350 49.775V49.775C1350 49.5903 1349.79 49.4843 1349.64 49.5942V49.5942Z" fill="#121212"/>
<path d="M1317.06 48.8235L1316.46 48.0196L1317.06 48.8235ZM1347.57 26.2493L1346.97 25.4454L1347.57 26.2493ZM31.7227 1.17652L32.3174 1.98043L31.7227 1.17652ZM2.43152 22.8465L1.83678 22.0426L2.43152 22.8465ZM-1 27.67V44H1V27.67H-1ZM31.1279 0.372605L1.83678 22.0426L3.02627 23.6504L32.3174 1.98043L31.1279 0.372605ZM1344 -1H35.2911V1H1344V-1ZM1351 21.4258V6H1349V21.4258H1351ZM1317.65 49.6274L1348.16 27.0532L1346.97 25.4454L1316.46 48.0196L1317.65 49.6274ZM6 51H1313.49V49H6V51ZM1351 49.775C1351 48.7693 1349.85 48.1921 1349.05 48.7903L1350.24 50.3981C1349.72 50.7765 1349 50.4113 1349 49.775H1351ZM1349.78 51C1350.45 51 1351 50.4516 1351 49.775H1349C1349 49.347 1349.35 49 1349.78 49V51ZM1349.78 49C1350.52 49 1350.84 49.9536 1350.24 50.3981L1349.05 48.7903C1348.1 49.4928 1348.59 51 1349.78 51V49ZM1316.46 48.0196C1315.6 48.6563 1314.56 49 1313.49 49V51C1314.99 51 1316.44 50.5189 1317.65 49.6274L1316.46 48.0196ZM1349 21.4258C1349 23.0112 1348.25 24.5025 1346.97 25.4454L1348.16 27.0532C1349.95 25.7332 1351 23.6453 1351 21.4258H1349ZM1344 1C1346.76 1 1349 3.23858 1349 6H1351C1351 2.13401 1347.87 -1 1344 -1V1ZM32.3174 1.98043C33.1781 1.34367 34.2205 1 35.2911 1V-1C33.7922 -1 32.3329 -0.518864 31.1279 0.372605L32.3174 1.98043ZM-1 44C-1 47.866 2.13401 51 6 51V49C3.23858 49 1 46.7614 1 44H-1ZM1 27.67C1 26.0847 1.75181 24.5933 3.02627 23.6504L1.83678 22.0426C0.0525371 23.3626 -1 25.4505 -1 27.67H1Z" fill="#FEFEFE" mask="url(#path-1-inside-1_5_19831)"/>
</svg>
