<svg width="24" height="23" viewBox="0 0 24 23" fill="none" xmlns="http://www.w3.org/2000/svg">
<path d="M19.8872 21.9203L20.5944 22.6274L21.3015 21.9203L20.5944 21.2132L19.8872 21.9203Z" fill="#34D3D7"/>
<path d="M19.1801 21.2132L19.8872 21.9203L20.5944 21.2132L19.8872 20.5061L19.1801 21.2132Z" fill="#34D3D7"/>
<path d="M18.473 20.5061L19.1801 21.2132L19.8872 20.5061L19.1801 19.799L18.473 20.5061Z" fill="#34D3D7"/>
<path d="M17.7659 19.799L18.473 20.5061L19.1801 19.799L18.473 19.0919L17.7659 19.799Z" fill="#34D3D7"/>
<path d="M2.91668 4.94975L3.62379 5.65685L4.3309 4.94975L3.62379 4.24264L2.91668 4.94975Z" fill="#34D3D7"/>
<path d="M2.20958 4.24264L2.91668 4.94975L3.62379 4.24264L2.91668 3.53553L2.20958 4.24264Z" fill="#34D3D7"/>
<path d="M1.50247 3.53553L2.20958 4.24264L2.91668 3.53553L2.20958 2.82843L1.50247 3.53553Z" fill="#34D3D7"/>
<path d="M0.795365 2.82843L1.50247 3.53553L2.20958 2.82843L1.50247 2.12132L0.795365 2.82843Z" fill="#34D3D7"/>
<path d="M20.5944 21.2132L21.3015 21.9203L22.0086 21.2132L21.3015 20.5061L20.5944 21.2132Z" fill="#34D3D7"/>
<path d="M19.8872 20.5061L20.5944 21.2132L21.3015 20.5061L20.5944 19.799L19.8872 20.5061Z" fill="#34D3D7"/>
<path d="M19.1801 19.799L19.8872 20.5061L20.5944 19.799L19.8872 19.0919L19.1801 19.799Z" fill="#34D3D7"/>
<path d="M18.473 19.0919L19.1801 19.799L19.8872 19.0919L19.1801 18.3848L18.473 19.0919Z" fill="#34D3D7"/>
<path d="M3.62379 4.24264L4.3309 4.94975L5.03801 4.24264L4.3309 3.53553L3.62379 4.24264Z" fill="#34D3D7"/>
<path d="M2.91668 3.53553L3.62379 4.24264L4.3309 3.53553L3.62379 2.82843L2.91668 3.53553Z" fill="#34D3D7"/>
<path d="M2.20958 2.82843L2.91668 3.53553L3.62379 2.82843L2.91668 2.12132L2.20958 2.82843Z" fill="#34D3D7"/>
<path d="M1.50247 2.12132L2.20958 2.82843L2.91668 2.12132L2.20958 1.41421L1.50247 2.12132Z" fill="#34D3D7"/>
<path d="M21.3015 20.5061L22.0086 21.2132L22.7157 20.5061L22.0086 19.799L21.3015 20.5061Z" fill="#34D3D7"/>
<path d="M20.5944 19.799L21.3015 20.5061L22.0086 19.799L21.3015 19.0919L20.5944 19.799Z" fill="#34D3D7"/>
<path d="M19.8872 19.0919L20.5944 19.799L21.3015 19.0919L20.5944 18.3848L19.8872 19.0919Z" fill="#34D3D7"/>
<path d="M19.1801 18.3848L19.8872 19.0919L20.5944 18.3848L19.8872 17.6777L19.1801 18.3848Z" fill="#34D3D7"/>
<path d="M4.3309 3.53553L5.03801 4.24264L5.74511 3.53553L5.03801 2.82843L4.3309 3.53553Z" fill="#34D3D7"/>
<path d="M3.62379 2.82843L4.3309 3.53553L5.03801 2.82843L4.3309 2.12132L3.62379 2.82843Z" fill="#34D3D7"/>
<path d="M2.91668 2.12132L3.62379 2.82843L4.3309 2.12132L3.62379 1.41421L2.91668 2.12132Z" fill="#34D3D7"/>
<path d="M2.20958 1.41421L2.91668 2.12132L3.62379 1.41421L2.91668 0.707107L2.20958 1.41421Z" fill="#34D3D7"/>
<path d="M22.0086 19.799L22.7157 20.5061L23.4228 19.799L22.7157 19.0919L22.0086 19.799Z" fill="#34D3D7"/>
<path d="M21.3015 19.0919L22.0086 19.799L22.7157 19.0919L22.0086 18.3848L21.3015 19.0919Z" fill="#34D3D7"/>
<path d="M20.5944 18.3848L21.3015 19.0919L22.0086 18.3848L21.3015 17.6777L20.5944 18.3848Z" fill="#34D3D7"/>
<path d="M19.8872 17.6777L20.5944 18.3848L21.3015 17.6777L20.5944 16.9706L19.8872 17.6777Z" fill="#34D3D7"/>
<path d="M5.03801 2.82843L5.74511 3.53553L6.45222 2.82843L5.74511 2.12132L5.03801 2.82843Z" fill="#34D3D7"/>
<path d="M4.3309 2.12132L5.03801 2.82843L5.74511 2.12132L5.03801 1.41421L4.3309 2.12132Z" fill="#34D3D7"/>
<path d="M3.62379 1.41421L4.3309 2.12132L5.03801 1.41421L4.3309 0.707107L3.62379 1.41421Z" fill="#34D3D7"/>
<path d="M2.91668 0.707107L3.62379 1.41421L4.3309 0.707107L3.62379 0L2.91668 0.707107Z" fill="#34D3D7"/>
<path d="M19.8872 16.2635L20.5944 16.9706L21.3015 16.2635L20.5944 15.5563L19.8872 16.2635Z" fill="#34D3D7"/>
<path d="M19.1801 15.5563L19.8872 16.2635L20.5944 15.5563L19.8872 14.8492L19.1801 15.5563Z" fill="#34D3D7"/>
<path d="M18.473 14.8492L19.1801 15.5563L19.8872 14.8492L19.1801 14.1421L18.473 14.8492Z" fill="#34D3D7"/>
<path d="M17.7659 14.1421L18.473 14.8492L19.1801 14.1421L18.473 13.435L17.7659 14.1421Z" fill="#34D3D7"/>
<path d="M8.57354 4.94975L9.28065 5.65685L9.98775 4.94975L9.28065 4.24264L8.57354 4.94975Z" fill="#34D3D7"/>
<path d="M7.86643 4.24264L8.57354 4.94975L9.28065 4.24264L8.57354 3.53553L7.86643 4.24264Z" fill="#34D3D7"/>
<path d="M7.15933 3.53553L7.86643 4.24264L8.57354 3.53553L7.86643 2.82843L7.15933 3.53553Z" fill="#34D3D7"/>
<path d="M6.45222 2.82843L7.15933 3.53553L7.86643 2.82843L7.15933 2.12132L6.45222 2.82843Z" fill="#34D3D7"/>
<path d="M20.5944 15.5563L21.3015 16.2635L22.0086 15.5563L21.3015 14.8492L20.5944 15.5563Z" fill="#34D3D7"/>
<path d="M19.8872 14.8492L20.5944 15.5563L21.3015 14.8492L20.5944 14.1421L19.8872 14.8492Z" fill="#34D3D7"/>
<path d="M19.1801 14.1421L19.8872 14.8492L20.5944 14.1421L19.8872 13.435L19.1801 14.1421Z" fill="#34D3D7"/>
<path d="M18.473 13.435L19.1801 14.1421L19.8872 13.435L19.1801 12.7279L18.473 13.435Z" fill="#34D3D7"/>
<path d="M9.28065 4.24264L9.98775 4.94975L10.6949 4.24264L9.98775 3.53553L9.28065 4.24264Z" fill="#34D3D7"/>
<path d="M8.57354 3.53553L9.28065 4.24264L9.98775 3.53553L9.28065 2.82843L8.57354 3.53553Z" fill="#34D3D7"/>
<path d="M7.86643 2.82843L8.57354 3.53553L9.28065 2.82843L8.57354 2.12132L7.86643 2.82843Z" fill="#34D3D7"/>
<path d="M7.15933 2.12132L7.86643 2.82843L8.57354 2.12132L7.86643 1.41421L7.15933 2.12132Z" fill="#34D3D7"/>
<path d="M21.3015 14.8492L22.0086 15.5563L22.7157 14.8492L22.0086 14.1421L21.3015 14.8492Z" fill="#34D3D7"/>
<path d="M20.5944 14.1421L21.3015 14.8492L22.0086 14.1421L21.3015 13.435L20.5944 14.1421Z" fill="#34D3D7"/>
<path d="M19.8872 13.435L20.5944 14.1421L21.3015 13.435L20.5944 12.7279L19.8872 13.435Z" fill="#34D3D7"/>
<path d="M19.1801 12.7279L19.8872 13.435L20.5944 12.7279L19.8872 12.0208L19.1801 12.7279Z" fill="#34D3D7"/>
<path d="M9.98775 3.53553L10.6949 4.24264L11.402 3.53553L10.6949 2.82843L9.98775 3.53553Z" fill="#34D3D7"/>
<path d="M9.28065 2.82843L9.98775 3.53553L10.6949 2.82843L9.98775 2.12132L9.28065 2.82843Z" fill="#34D3D7"/>
<path d="M8.57354 2.12132L9.28065 2.82843L9.98775 2.12132L9.28065 1.41421L8.57354 2.12132Z" fill="#34D3D7"/>
<path d="M7.86643 1.41421L8.57354 2.12132L9.28065 1.41421L8.57354 0.707107L7.86643 1.41421Z" fill="#34D3D7"/>
<path d="M22.0086 14.1421L22.7157 14.8492L23.4228 14.1421L22.7157 13.435L22.0086 14.1421Z" fill="#34D3D7"/>
<path d="M21.3015 13.435L22.0086 14.1421L22.7157 13.435L22.0086 12.7279L21.3015 13.435Z" fill="#34D3D7"/>
<path d="M20.5944 12.7279L21.3015 13.435L22.0086 12.7279L21.3015 12.0208L20.5944 12.7279Z" fill="#34D3D7"/>
<path d="M19.8872 12.0208L20.5944 12.7279L21.3015 12.0208L20.5944 11.3137L19.8872 12.0208Z" fill="#34D3D7"/>
<path d="M10.6949 2.82843L11.402 3.53553L12.1091 2.82843L11.402 2.12132L10.6949 2.82843Z" fill="#34D3D7"/>
<path d="M9.98775 2.12132L10.6949 2.82843L11.402 2.12132L10.6949 1.41421L9.98775 2.12132Z" fill="#34D3D7"/>
<path d="M9.28065 1.41421L9.98775 2.12132L10.6949 1.41421L9.98775 0.707107L9.28065 1.41421Z" fill="#34D3D7"/>
<path d="M8.57354 0.707107L9.28065 1.41421L9.98775 0.707107L9.28065 0L8.57354 0.707107Z" fill="#34D3D7"/>
<path d="M19.8872 10.6066L20.5944 11.3137L21.3015 10.6066L20.5944 9.8995L19.8872 10.6066Z" fill="#34D3D7"/>
<path d="M19.1801 9.8995L19.8872 10.6066L20.5944 9.8995L19.8872 9.19239L19.1801 9.8995Z" fill="#34D3D7"/>
<path d="M18.473 9.19239L19.1801 9.8995L19.8872 9.19239L19.1801 8.48528L18.473 9.19239Z" fill="#34D3D7"/>
<path d="M17.7659 8.48528L18.473 9.19239L19.1801 8.48528L18.473 7.77817L17.7659 8.48528Z" fill="#34D3D7"/>
<path d="M14.2304 4.94975L14.9375 5.65685L15.6446 4.94975L14.9375 4.24264L14.2304 4.94975Z" fill="#34D3D7"/>
<path d="M13.5233 4.24264L14.2304 4.94975L14.9375 4.24264L14.2304 3.53553L13.5233 4.24264Z" fill="#34D3D7"/>
<path d="M12.8162 3.53553L13.5233 4.24264L14.2304 3.53553L13.5233 2.82843L12.8162 3.53553Z" fill="#34D3D7"/>
<path d="M12.1091 2.82843L12.8162 3.53553L13.5233 2.82843L12.8162 2.12132L12.1091 2.82843Z" fill="#34D3D7"/>
<path d="M20.5944 9.8995L21.3015 10.6066L22.0086 9.8995L21.3015 9.19239L20.5944 9.8995Z" fill="#34D3D7"/>
<path d="M19.8872 9.19239L20.5944 9.8995L21.3015 9.19239L20.5944 8.48528L19.8872 9.19239Z" fill="#34D3D7"/>
<path d="M19.1801 8.48528L19.8872 9.19239L20.5944 8.48528L19.8872 7.77817L19.1801 8.48528Z" fill="#34D3D7"/>
<path d="M18.473 7.77817L19.1801 8.48528L19.8872 7.77817L19.1801 7.07107L18.473 7.77817Z" fill="#34D3D7"/>
<path d="M14.9375 4.24264L15.6446 4.94975L16.3517 4.24264L15.6446 3.53553L14.9375 4.24264Z" fill="#34D3D7"/>
<path d="M14.2304 3.53553L14.9375 4.24264L15.6446 3.53553L14.9375 2.82843L14.2304 3.53553Z" fill="#34D3D7"/>
<path d="M13.5233 2.82843L14.2304 3.53553L14.9375 2.82843L14.2304 2.12132L13.5233 2.82843Z" fill="#34D3D7"/>
<path d="M12.8162 2.12132L13.5233 2.82843L14.2304 2.12132L13.5233 1.41421L12.8162 2.12132Z" fill="#34D3D7"/>
<path d="M21.3015 9.19239L22.0086 9.8995L22.7157 9.19239L22.0086 8.48528L21.3015 9.19239Z" fill="#34D3D7"/>
<path d="M20.5944 8.48528L21.3015 9.19239L22.0086 8.48528L21.3015 7.77817L20.5944 8.48528Z" fill="#34D3D7"/>
<path d="M19.8872 7.77817L20.5944 8.48528L21.3015 7.77817L20.5944 7.07107L19.8872 7.77817Z" fill="#34D3D7"/>
<path d="M19.1801 7.07107L19.8872 7.77817L20.5944 7.07107L19.8872 6.36396L19.1801 7.07107Z" fill="#34D3D7"/>
<path d="M15.6446 3.53553L16.3517 4.24264L17.0588 3.53553L16.3517 2.82843L15.6446 3.53553Z" fill="#34D3D7"/>
<path d="M14.9375 2.82843L15.6446 3.53553L16.3517 2.82843L15.6446 2.12132L14.9375 2.82843Z" fill="#34D3D7"/>
<path d="M14.2304 2.12132L14.9375 2.82843L15.6446 2.12132L14.9375 1.41421L14.2304 2.12132Z" fill="#34D3D7"/>
<path d="M13.5233 1.41421L14.2304 2.12132L14.9375 1.41421L14.2304 0.707107L13.5233 1.41421Z" fill="#34D3D7"/>
<path d="M22.0086 8.48528L22.7157 9.19239L23.4228 8.48528L22.7157 7.77817L22.0086 8.48528Z" fill="#34D3D7"/>
<path d="M21.3015 7.77817L22.0086 8.48528L22.7157 7.77817L22.0086 7.07107L21.3015 7.77817Z" fill="#34D3D7"/>
<path d="M20.5944 7.07107L21.3015 7.77817L22.0086 7.07107L21.3015 6.36396L20.5944 7.07107Z" fill="#34D3D7"/>
<path d="M19.8872 6.36396L20.5944 7.07107L21.3015 6.36396L20.5944 5.65685L19.8872 6.36396Z" fill="#34D3D7"/>
<path d="M16.3517 2.82843L17.0588 3.53553L17.7659 2.82843L17.0588 2.12132L16.3517 2.82843Z" fill="#34D3D7"/>
<path d="M15.6446 2.12132L16.3517 2.82843L17.0588 2.12132L16.3517 1.41421L15.6446 2.12132Z" fill="#34D3D7"/>
<path d="M14.9375 1.41421L15.6446 2.12132L16.3517 1.41421L15.6446 0.707107L14.9375 1.41421Z" fill="#34D3D7"/>
<path d="M14.2304 0.707107L14.9375 1.41421L15.6446 0.707107L14.9375 0L14.2304 0.707107Z" fill="#34D3D7"/>
<path d="M19.8872 4.94975L20.5944 5.65685L21.3015 4.94975L20.5944 4.24264L19.8872 4.94975Z" fill="#34D3D7"/>
<path d="M19.1801 4.24264L19.8872 4.94975L20.5944 4.24264L19.8872 3.53553L19.1801 4.24264Z" fill="#34D3D7"/>
<path d="M18.473 3.53553L19.1801 4.24264L19.8872 3.53553L19.1801 2.82843L18.473 3.53553Z" fill="#34D3D7"/>
<path d="M17.7659 2.82843L18.473 3.53553L19.1801 2.82843L18.473 2.12132L17.7659 2.82843Z" fill="#34D3D7"/>
<path d="M20.5944 4.24264L21.3015 4.94975L22.0086 4.24264L21.3015 3.53553L20.5944 4.24264Z" fill="#34D3D7"/>
<path d="M19.8872 3.53553L20.5944 4.24264L21.3015 3.53553L20.5944 2.82843L19.8872 3.53553Z" fill="#34D3D7"/>
<path d="M19.1801 2.82843L19.8872 3.53553L20.5944 2.82843L19.8872 2.12132L19.1801 2.82843Z" fill="#34D3D7"/>
<path d="M18.473 2.12132L19.1801 2.82843L19.8872 2.12132L19.1801 1.41421L18.473 2.12132Z" fill="#34D3D7"/>
<path d="M21.3015 3.53553L22.0086 4.24264L22.7157 3.53553L22.0086 2.82843L21.3015 3.53553Z" fill="#34D3D7"/>
<path d="M20.5944 2.82843L21.3015 3.53553L22.0086 2.82843L21.3015 2.12132L20.5944 2.82843Z" fill="#34D3D7"/>
<path d="M19.8872 2.12132L20.5944 2.82843L21.3015 2.12132L20.5944 1.41421L19.8872 2.12132Z" fill="#34D3D7"/>
<path d="M19.1801 1.41421L19.8872 2.12132L20.5944 1.41421L19.8872 0.707107L19.1801 1.41421Z" fill="#34D3D7"/>
<path d="M22.0086 2.82843L22.7157 3.53553L23.4228 2.82843L22.7157 2.12132L22.0086 2.82843Z" fill="#34D3D7"/>
<path d="M21.3015 2.12132L22.0086 2.82843L22.7157 2.12132L22.0086 1.41421L21.3015 2.12132Z" fill="#34D3D7"/>
<path d="M20.5944 1.41421L21.3015 2.12132L22.0086 1.41421L21.3015 0.707107L20.5944 1.41421Z" fill="#34D3D7"/>
<path d="M19.8872 0.707107L20.5944 1.41421L21.3015 0.707107L20.5944 0L19.8872 0.707107Z" fill="#34D3D7"/>
<path d="M0 19.9916L17.9017 2.77315L20.6717 5.65309L2.77002 22.8715L0 19.9916Z" fill="#34D3D7"/>
</svg>
