<svg width="24" height="16" viewBox="0 0 24 16" fill="none" xmlns="http://www.w3.org/2000/svg">
<g clip-path="url(#clip0_5_17214)">
<path d="M8.25 0.5H9V1.25H8.25V0.5Z" fill="#FEFEFE"/>
<path d="M7.5 0.5H8.25V1.25H7.5V0.5Z" fill="#FEFEFE"/>
<path d="M6.75 0.5H7.5V1.25H6.75V0.5Z" fill="#FEFEFE"/>
<path d="M6 0.5H6.75V1.25H6V0.5Z" fill="#FEFEFE"/>
<path d="M8.25 1.25H9V2H8.25V1.25Z" fill="#FEFEFE"/>
<path d="M7.5 1.25H8.25V2H7.5V1.25Z" fill="#FEFEFE"/>
<path d="M6.75 1.25H7.5V2H6.75V1.25Z" fill="#FEFEFE"/>
<path d="M6 1.25H6.75V2H6V1.25Z" fill="#FEFEFE"/>
<path d="M8.25 2H9V2.75H8.25V2Z" fill="#FEFEFE"/>
<path d="M7.5 2H8.25V2.75H7.5V2Z" fill="#FEFEFE"/>
<path d="M6.75 2H7.5V2.75H6.75V2Z" fill="#FEFEFE"/>
<path d="M6 2H6.75V2.75H6V2Z" fill="#FEFEFE"/>
<path d="M8.25 2.75H9V3.5H8.25V2.75Z" fill="#FEFEFE"/>
<path d="M7.5 2.75H8.25V3.5H7.5V2.75Z" fill="#FEFEFE"/>
<path d="M6.75 2.75H7.5V3.5H6.75V2.75Z" fill="#FEFEFE"/>
<path d="M6 2.75H6.75V3.5H6V2.75Z" fill="#FEFEFE"/>
<path d="M5.25 3.5H6V4.25H5.25V3.5Z" fill="#FEFEFE"/>
<path d="M4.5 3.5H5.25V4.25H4.5V3.5Z" fill="#FEFEFE"/>
<path d="M3.75 3.5H4.5V4.25H3.75V3.5Z" fill="#FEFEFE"/>
<path d="M3 3.5H3.75V4.25H3V3.5Z" fill="#FEFEFE"/>
<path d="M5.25 4.25H6V5H5.25V4.25Z" fill="#FEFEFE"/>
<path d="M4.5 4.25H5.25V5H4.5V4.25Z" fill="#FEFEFE"/>
<path d="M3.75 4.25H4.5V5H3.75V4.25Z" fill="#FEFEFE"/>
<path d="M3 4.25H3.75V5H3V4.25Z" fill="#FEFEFE"/>
<path d="M5.25 5H6V5.75H5.25V5Z" fill="#FEFEFE"/>
<path d="M4.5 5H5.25V5.75H4.5V5Z" fill="#FEFEFE"/>
<path d="M3.75 5H4.5V5.75H3.75V5Z" fill="#FEFEFE"/>
<path d="M3 5H3.75V5.75H3V5Z" fill="#FEFEFE"/>
<path d="M5.25 5.75H6V6.5H5.25V5.75Z" fill="#FEFEFE"/>
<path d="M4.5 5.75H5.25V6.5H4.5V5.75Z" fill="#FEFEFE"/>
<path d="M3.75 5.75H4.5V6.5H3.75V5.75Z" fill="#FEFEFE"/>
<path d="M3 5.75H3.75V6.5H3V5.75Z" fill="#FEFEFE"/>
<path d="M23.25 6.5H24V7.25H23.25V6.5Z" fill="#FEFEFE"/>
<path d="M22.5 6.5H23.25V7.25H22.5V6.5Z" fill="#FEFEFE"/>
<path d="M21.75 6.5H22.5V7.25H21.75V6.5Z" fill="#FEFEFE"/>
<path d="M21 6.5H21.75V7.25H21V6.5Z" fill="#FEFEFE"/>
<path d="M20.25 6.5H21V7.25H20.25V6.5Z" fill="#FEFEFE"/>
<path d="M19.5 6.5H20.25V7.25H19.5V6.5Z" fill="#FEFEFE"/>
<path d="M18.75 6.5H19.5V7.25H18.75V6.5Z" fill="#FEFEFE"/>
<path d="M18 6.5H18.75V7.25H18V6.5Z" fill="#FEFEFE"/>
<path d="M17.25 6.5H18V7.25H17.25V6.5Z" fill="#FEFEFE"/>
<path d="M16.5 6.5H17.25V7.25H16.5V6.5Z" fill="#FEFEFE"/>
<path d="M15.75 6.5H16.5V7.25H15.75V6.5Z" fill="#FEFEFE"/>
<path d="M15 6.5H15.75V7.25H15V6.5Z" fill="#FEFEFE"/>
<path d="M14.25 6.5H15V7.25H14.25V6.5Z" fill="#FEFEFE"/>
<path d="M13.5 6.5H14.25V7.25H13.5V6.5Z" fill="#FEFEFE"/>
<path d="M12.75 6.5H13.5V7.25H12.75V6.5Z" fill="#FEFEFE"/>
<path d="M12 6.5H12.75V7.25H12V6.5Z" fill="#FEFEFE"/>
<path d="M11.25 6.5H12V7.25H11.25V6.5Z" fill="#FEFEFE"/>
<path d="M10.5 6.5H11.25V7.25H10.5V6.5Z" fill="#FEFEFE"/>
<path d="M9.75 6.5H10.5V7.25H9.75V6.5Z" fill="#FEFEFE"/>
<path d="M9 6.5H9.75V7.25H9V6.5Z" fill="#FEFEFE"/>
<path d="M8.25 6.5H9V7.25H8.25V6.5Z" fill="#FEFEFE"/>
<path d="M7.5 6.5H8.25V7.25H7.5V6.5Z" fill="#FEFEFE"/>
<path d="M6.75 6.5H7.5V7.25H6.75V6.5Z" fill="#FEFEFE"/>
<path d="M6 6.5H6.75V7.25H6V6.5Z" fill="#FEFEFE"/>
<path d="M5.25 6.5H6V7.25H5.25V6.5Z" fill="#FEFEFE"/>
<path d="M4.5 6.5H5.25V7.25H4.5V6.5Z" fill="#FEFEFE"/>
<path d="M3.75 6.5H4.5V7.25H3.75V6.5Z" fill="#FEFEFE"/>
<path d="M3 6.5H3.75V7.25H3V6.5Z" fill="#FEFEFE"/>
<path d="M2.25 6.5H3V7.25H2.25V6.5Z" fill="#FEFEFE"/>
<path d="M1.5 6.5H2.25V7.25H1.5V6.5Z" fill="#FEFEFE"/>
<path d="M0.75 6.5H1.5V7.25H0.75V6.5Z" fill="#FEFEFE"/>
<path d="M0 6.5H0.75V7.25H0V6.5Z" fill="#FEFEFE"/>
<path d="M23.25 7.25H24V8H23.25V7.25Z" fill="#FEFEFE"/>
<path d="M22.5 7.25H23.25V8H22.5V7.25Z" fill="#FEFEFE"/>
<path d="M21.75 7.25H22.5V8H21.75V7.25Z" fill="#FEFEFE"/>
<path d="M21 7.25H21.75V8H21V7.25Z" fill="#FEFEFE"/>
<path d="M20.25 7.25H21V8H20.25V7.25Z" fill="#FEFEFE"/>
<path d="M19.5 7.25H20.25V8H19.5V7.25Z" fill="#FEFEFE"/>
<path d="M18.75 7.25H19.5V8H18.75V7.25Z" fill="#FEFEFE"/>
<path d="M18 7.25H18.75V8H18V7.25Z" fill="#FEFEFE"/>
<path d="M17.25 7.25H18V8H17.25V7.25Z" fill="#FEFEFE"/>
<path d="M16.5 7.25H17.25V8H16.5V7.25Z" fill="#FEFEFE"/>
<path d="M15.75 7.25H16.5V8H15.75V7.25Z" fill="#FEFEFE"/>
<path d="M15 7.25H15.75V8H15V7.25Z" fill="#FEFEFE"/>
<path d="M14.25 7.25H15V8H14.25V7.25Z" fill="#FEFEFE"/>
<path d="M13.5 7.25H14.25V8H13.5V7.25Z" fill="#FEFEFE"/>
<path d="M12.75 7.25H13.5V8H12.75V7.25Z" fill="#FEFEFE"/>
<path d="M12 7.25H12.75V8H12V7.25Z" fill="#FEFEFE"/>
<path d="M11.25 7.25H12V8H11.25V7.25Z" fill="#FEFEFE"/>
<path d="M10.5 7.25H11.25V8H10.5V7.25Z" fill="#FEFEFE"/>
<path d="M9.75 7.25H10.5V8H9.75V7.25Z" fill="#FEFEFE"/>
<path d="M9 7.25H9.75V8H9V7.25Z" fill="#FEFEFE"/>
<path d="M8.25 7.25H9V8H8.25V7.25Z" fill="#FEFEFE"/>
<path d="M7.5 7.25H8.25V8H7.5V7.25Z" fill="#FEFEFE"/>
<path d="M6.75 7.25H7.5V8H6.75V7.25Z" fill="#FEFEFE"/>
<path d="M6 7.25H6.75V8H6V7.25Z" fill="#FEFEFE"/>
<path d="M5.25 7.25H6V8H5.25V7.25Z" fill="#FEFEFE"/>
<path d="M4.5 7.25H5.25V8H4.5V7.25Z" fill="#FEFEFE"/>
<path d="M3.75 7.25H4.5V8H3.75V7.25Z" fill="#FEFEFE"/>
<path d="M3 7.25H3.75V8H3V7.25Z" fill="#FEFEFE"/>
<path d="M2.25 7.25H3V8H2.25V7.25Z" fill="#FEFEFE"/>
<path d="M1.5 7.25H2.25V8H1.5V7.25Z" fill="#FEFEFE"/>
<path d="M0.75 7.25H1.5V8H0.75V7.25Z" fill="#FEFEFE"/>
<path d="M0 7.25H0.75V8H0V7.25Z" fill="#FEFEFE"/>
<path d="M23.25 8H24V8.75H23.25V8Z" fill="#FEFEFE"/>
<path d="M22.5 8H23.25V8.75H22.5V8Z" fill="#FEFEFE"/>
<path d="M21.75 8H22.5V8.75H21.75V8Z" fill="#FEFEFE"/>
<path d="M21 8H21.75V8.75H21V8Z" fill="#FEFEFE"/>
<path d="M20.25 8H21V8.75H20.25V8Z" fill="#FEFEFE"/>
<path d="M19.5 8H20.25V8.75H19.5V8Z" fill="#FEFEFE"/>
<path d="M18.75 8H19.5V8.75H18.75V8Z" fill="#FEFEFE"/>
<path d="M18 8H18.75V8.75H18V8Z" fill="#FEFEFE"/>
<path d="M17.25 8H18V8.75H17.25V8Z" fill="#FEFEFE"/>
<path d="M16.5 8H17.25V8.75H16.5V8Z" fill="#FEFEFE"/>
<path d="M15.75 8H16.5V8.75H15.75V8Z" fill="#FEFEFE"/>
<path d="M15 8H15.75V8.75H15V8Z" fill="#FEFEFE"/>
<path d="M14.25 8H15V8.75H14.25V8Z" fill="#FEFEFE"/>
<path d="M13.5 8H14.25V8.75H13.5V8Z" fill="#FEFEFE"/>
<path d="M12.75 8H13.5V8.75H12.75V8Z" fill="#FEFEFE"/>
<path d="M12 8H12.75V8.75H12V8Z" fill="#FEFEFE"/>
<path d="M11.25 8H12V8.75H11.25V8Z" fill="#FEFEFE"/>
<path d="M10.5 8H11.25V8.75H10.5V8Z" fill="#FEFEFE"/>
<path d="M9.75 8H10.5V8.75H9.75V8Z" fill="#FEFEFE"/>
<path d="M9 8H9.75V8.75H9V8Z" fill="#FEFEFE"/>
<path d="M8.25 8H9V8.75H8.25V8Z" fill="#FEFEFE"/>
<path d="M7.5 8H8.25V8.75H7.5V8Z" fill="#FEFEFE"/>
<path d="M6.75 8H7.5V8.75H6.75V8Z" fill="#FEFEFE"/>
<path d="M6 8H6.75V8.75H6V8Z" fill="#FEFEFE"/>
<path d="M5.25 8H6V8.75H5.25V8Z" fill="#FEFEFE"/>
<path d="M4.5 8H5.25V8.75H4.5V8Z" fill="#FEFEFE"/>
<path d="M3.75 8H4.5V8.75H3.75V8Z" fill="#FEFEFE"/>
<path d="M3 8H3.75V8.75H3V8Z" fill="#FEFEFE"/>
<path d="M2.25 8H3V8.75H2.25V8Z" fill="#FEFEFE"/>
<path d="M1.5 8H2.25V8.75H1.5V8Z" fill="#FEFEFE"/>
<path d="M0.75 8H1.5V8.75H0.75V8Z" fill="#FEFEFE"/>
<path d="M0 8H0.75V8.75H0V8Z" fill="#FEFEFE"/>
<path d="M23.25 8.75H24V9.5H23.25V8.75Z" fill="#FEFEFE"/>
<path d="M22.5 8.75H23.25V9.5H22.5V8.75Z" fill="#FEFEFE"/>
<path d="M21.75 8.75H22.5V9.5H21.75V8.75Z" fill="#FEFEFE"/>
<path d="M21 8.75H21.75V9.5H21V8.75Z" fill="#FEFEFE"/>
<path d="M20.25 8.75H21V9.5H20.25V8.75Z" fill="#FEFEFE"/>
<path d="M19.5 8.75H20.25V9.5H19.5V8.75Z" fill="#FEFEFE"/>
<path d="M18.75 8.75H19.5V9.5H18.75V8.75Z" fill="#FEFEFE"/>
<path d="M18 8.75H18.75V9.5H18V8.75Z" fill="#FEFEFE"/>
<path d="M17.25 8.75H18V9.5H17.25V8.75Z" fill="#FEFEFE"/>
<path d="M16.5 8.75H17.25V9.5H16.5V8.75Z" fill="#FEFEFE"/>
<path d="M15.75 8.75H16.5V9.5H15.75V8.75Z" fill="#FEFEFE"/>
<path d="M15 8.75H15.75V9.5H15V8.75Z" fill="#FEFEFE"/>
<path d="M14.25 8.75H15V9.5H14.25V8.75Z" fill="#FEFEFE"/>
<path d="M13.5 8.75H14.25V9.5H13.5V8.75Z" fill="#FEFEFE"/>
<path d="M12.75 8.75H13.5V9.5H12.75V8.75Z" fill="#FEFEFE"/>
<path d="M12 8.75H12.75V9.5H12V8.75Z" fill="#FEFEFE"/>
<path d="M11.25 8.75H12V9.5H11.25V8.75Z" fill="#FEFEFE"/>
<path d="M10.5 8.75H11.25V9.5H10.5V8.75Z" fill="#FEFEFE"/>
<path d="M9.75 8.75H10.5V9.5H9.75V8.75Z" fill="#FEFEFE"/>
<path d="M9 8.75H9.75V9.5H9V8.75Z" fill="#FEFEFE"/>
<path d="M8.25 8.75H9V9.5H8.25V8.75Z" fill="#FEFEFE"/>
<path d="M7.5 8.75H8.25V9.5H7.5V8.75Z" fill="#FEFEFE"/>
<path d="M6.75 8.75H7.5V9.5H6.75V8.75Z" fill="#FEFEFE"/>
<path d="M6 8.75H6.75V9.5H6V8.75Z" fill="#FEFEFE"/>
<path d="M5.25 8.75H6V9.5H5.25V8.75Z" fill="#FEFEFE"/>
<path d="M4.5 8.75H5.25V9.5H4.5V8.75Z" fill="#FEFEFE"/>
<path d="M3.75 8.75H4.5V9.5H3.75V8.75Z" fill="#FEFEFE"/>
<path d="M3 8.75H3.75V9.5H3V8.75Z" fill="#FEFEFE"/>
<path d="M2.25 8.75H3V9.5H2.25V8.75Z" fill="#FEFEFE"/>
<path d="M1.5 8.75H2.25V9.5H1.5V8.75Z" fill="#FEFEFE"/>
<path d="M0.75 8.75H1.5V9.5H0.75V8.75Z" fill="#FEFEFE"/>
<path d="M0 8.75H0.75V9.5H0V8.75Z" fill="#FEFEFE"/>
<path d="M5.25 9.5H6V10.25H5.25V9.5Z" fill="#FEFEFE"/>
<path d="M4.5 9.5H5.25V10.25H4.5V9.5Z" fill="#FEFEFE"/>
<path d="M3.75 9.5H4.5V10.25H3.75V9.5Z" fill="#FEFEFE"/>
<path d="M3 9.5H3.75V10.25H3V9.5Z" fill="#FEFEFE"/>
<path d="M5.25 10.25H6V11H5.25V10.25Z" fill="#FEFEFE"/>
<path d="M4.5 10.25H5.25V11H4.5V10.25Z" fill="#FEFEFE"/>
<path d="M3.75 10.25H4.5V11H3.75V10.25Z" fill="#FEFEFE"/>
<path d="M3 10.25H3.75V11H3V10.25Z" fill="#FEFEFE"/>
<path d="M5.25 11H6V11.75H5.25V11Z" fill="#FEFEFE"/>
<path d="M4.5 11H5.25V11.75H4.5V11Z" fill="#FEFEFE"/>
<path d="M3.75 11H4.5V11.75H3.75V11Z" fill="#FEFEFE"/>
<path d="M3 11H3.75V11.75H3V11Z" fill="#FEFEFE"/>
<path d="M5.25 11.75H6V12.5H5.25V11.75Z" fill="#FEFEFE"/>
<path d="M4.5 11.75H5.25V12.5H4.5V11.75Z" fill="#FEFEFE"/>
<path d="M3.75 11.75H4.5V12.5H3.75V11.75Z" fill="#FEFEFE"/>
<path d="M3 11.75H3.75V12.5H3V11.75Z" fill="#FEFEFE"/>
<path d="M8.25 12.5H9V13.25H8.25V12.5Z" fill="#FEFEFE"/>
<path d="M7.5 12.5H8.25V13.25H7.5V12.5Z" fill="#FEFEFE"/>
<path d="M6.75 12.5H7.5V13.25H6.75V12.5Z" fill="#FEFEFE"/>
<path d="M6 12.5H6.75V13.25H6V12.5Z" fill="#FEFEFE"/>
<path d="M8.25 13.25H9V14H8.25V13.25Z" fill="#FEFEFE"/>
<path d="M7.5 13.25H8.25V14H7.5V13.25Z" fill="#FEFEFE"/>
<path d="M6.75 13.25H7.5V14H6.75V13.25Z" fill="#FEFEFE"/>
<path d="M6 13.25H6.75V14H6V13.25Z" fill="#FEFEFE"/>
<path d="M8.25 14H9V14.75H8.25V14Z" fill="#FEFEFE"/>
<path d="M7.5 14H8.25V14.75H7.5V14Z" fill="#FEFEFE"/>
<path d="M6.75 14H7.5V14.75H6.75V14Z" fill="#FEFEFE"/>
<path d="M6 14H6.75V14.75H6V14Z" fill="#FEFEFE"/>
<path d="M8.25 14.75H9V15.5H8.25V14.75Z" fill="#FEFEFE"/>
<path d="M7.5 14.75H8.25V15.5H7.5V14.75Z" fill="#FEFEFE"/>
<path d="M6.75 14.75H7.5V15.5H6.75V14.75Z" fill="#FEFEFE"/>
<path d="M6 14.75H6.75V15.5H6V14.75Z" fill="#FEFEFE"/>
</g>
<defs>
<clipPath id="clip0_5_17214">
<rect width="24" height="16" fill="white" transform="matrix(-1 0 0 1 24 0)"/>
</clipPath>
</defs>
</svg>
