<svg width="24" height="16" viewBox="0 0 24 16" fill="none" xmlns="http://www.w3.org/2000/svg">
<g clip-path="url(#clip0_5_17021)">
<path d="M15.75 0.5H15V1.25H15.75V0.5Z" fill="#121212"/>
<path d="M16.5 0.5H15.75V1.25H16.5V0.5Z" fill="#121212"/>
<path d="M17.25 0.5H16.5V1.25H17.25V0.5Z" fill="#121212"/>
<path d="M18 0.5H17.25V1.25H18V0.5Z" fill="#121212"/>
<path d="M15.75 1.25H15V2H15.75V1.25Z" fill="#121212"/>
<path d="M16.5 1.25H15.75V2H16.5V1.25Z" fill="#121212"/>
<path d="M17.25 1.25H16.5V2H17.25V1.25Z" fill="#121212"/>
<path d="M18 1.25H17.25V2H18V1.25Z" fill="#121212"/>
<path d="M15.75 2H15V2.75H15.75V2Z" fill="#121212"/>
<path d="M16.5 2H15.75V2.75H16.5V2Z" fill="#121212"/>
<path d="M17.25 2H16.5V2.75H17.25V2Z" fill="#121212"/>
<path d="M18 2H17.25V2.75H18V2Z" fill="#121212"/>
<path d="M15.75 2.75H15V3.5H15.75V2.75Z" fill="#121212"/>
<path d="M16.5 2.75H15.75V3.5H16.5V2.75Z" fill="#121212"/>
<path d="M17.25 2.75H16.5V3.5H17.25V2.75Z" fill="#121212"/>
<path d="M18 2.75H17.25V3.5H18V2.75Z" fill="#121212"/>
<path d="M18.75 3.5H18V4.25H18.75V3.5Z" fill="#121212"/>
<path d="M19.5 3.5H18.75V4.25H19.5V3.5Z" fill="#121212"/>
<path d="M20.25 3.5H19.5V4.25H20.25V3.5Z" fill="#121212"/>
<path d="M21 3.5H20.25V4.25H21V3.5Z" fill="#121212"/>
<path d="M18.75 4.25H18V5H18.75V4.25Z" fill="#121212"/>
<path d="M19.5 4.25H18.75V5H19.5V4.25Z" fill="#121212"/>
<path d="M20.25 4.25H19.5V5H20.25V4.25Z" fill="#121212"/>
<path d="M21 4.25H20.25V5H21V4.25Z" fill="#121212"/>
<path d="M18.75 5H18V5.75H18.75V5Z" fill="#121212"/>
<path d="M19.5 5H18.75V5.75H19.5V5Z" fill="#121212"/>
<path d="M20.25 5H19.5V5.75H20.25V5Z" fill="#121212"/>
<path d="M21 5H20.25V5.75H21V5Z" fill="#121212"/>
<path d="M18.75 5.75H18V6.5H18.75V5.75Z" fill="#121212"/>
<path d="M19.5 5.75H18.75V6.5H19.5V5.75Z" fill="#121212"/>
<path d="M20.25 5.75H19.5V6.5H20.25V5.75Z" fill="#121212"/>
<path d="M21 5.75H20.25V6.5H21V5.75Z" fill="#121212"/>
<path d="M0.75 6.5H0V7.25H0.75V6.5Z" fill="#121212"/>
<path d="M1.5 6.5H0.75V7.25H1.5V6.5Z" fill="#121212"/>
<path d="M2.25 6.5H1.5V7.25H2.25V6.5Z" fill="#121212"/>
<path d="M3 6.5H2.25V7.25H3V6.5Z" fill="#121212"/>
<path d="M3.75 6.5H3V7.25H3.75V6.5Z" fill="#121212"/>
<path d="M4.5 6.5H3.75V7.25H4.5V6.5Z" fill="#121212"/>
<path d="M5.25 6.5H4.5V7.25H5.25V6.5Z" fill="#121212"/>
<path d="M6 6.5H5.25V7.25H6V6.5Z" fill="#121212"/>
<path d="M6.75 6.5H6V7.25H6.75V6.5Z" fill="#121212"/>
<path d="M7.5 6.5H6.75V7.25H7.5V6.5Z" fill="#121212"/>
<path d="M8.25 6.5H7.5V7.25H8.25V6.5Z" fill="#121212"/>
<path d="M9 6.5H8.25V7.25H9V6.5Z" fill="#121212"/>
<path d="M9.75 6.5H9V7.25H9.75V6.5Z" fill="#121212"/>
<path d="M10.5 6.5H9.75V7.25H10.5V6.5Z" fill="#121212"/>
<path d="M11.25 6.5H10.5V7.25H11.25V6.5Z" fill="#121212"/>
<path d="M12 6.5H11.25V7.25H12V6.5Z" fill="#121212"/>
<path d="M12.75 6.5H12V7.25H12.75V6.5Z" fill="#121212"/>
<path d="M13.5 6.5H12.75V7.25H13.5V6.5Z" fill="#121212"/>
<path d="M14.25 6.5H13.5V7.25H14.25V6.5Z" fill="#121212"/>
<path d="M15 6.5H14.25V7.25H15V6.5Z" fill="#121212"/>
<path d="M15.75 6.5H15V7.25H15.75V6.5Z" fill="#121212"/>
<path d="M16.5 6.5H15.75V7.25H16.5V6.5Z" fill="#121212"/>
<path d="M17.25 6.5H16.5V7.25H17.25V6.5Z" fill="#121212"/>
<path d="M18 6.5H17.25V7.25H18V6.5Z" fill="#121212"/>
<path d="M18.75 6.5H18V7.25H18.75V6.5Z" fill="#121212"/>
<path d="M19.5 6.5H18.75V7.25H19.5V6.5Z" fill="#121212"/>
<path d="M20.25 6.5H19.5V7.25H20.25V6.5Z" fill="#121212"/>
<path d="M21 6.5H20.25V7.25H21V6.5Z" fill="#121212"/>
<path d="M21.75 6.5H21V7.25H21.75V6.5Z" fill="#121212"/>
<path d="M22.5 6.5H21.75V7.25H22.5V6.5Z" fill="#121212"/>
<path d="M23.25 6.5H22.5V7.25H23.25V6.5Z" fill="#121212"/>
<path d="M24 6.5H23.25V7.25H24V6.5Z" fill="#121212"/>
<path d="M0.75 7.25H0V8H0.75V7.25Z" fill="#121212"/>
<path d="M1.5 7.25H0.75V8H1.5V7.25Z" fill="#121212"/>
<path d="M2.25 7.25H1.5V8H2.25V7.25Z" fill="#121212"/>
<path d="M3 7.25H2.25V8H3V7.25Z" fill="#121212"/>
<path d="M3.75 7.25H3V8H3.75V7.25Z" fill="#121212"/>
<path d="M4.5 7.25H3.75V8H4.5V7.25Z" fill="#121212"/>
<path d="M5.25 7.25H4.5V8H5.25V7.25Z" fill="#121212"/>
<path d="M6 7.25H5.25V8H6V7.25Z" fill="#121212"/>
<path d="M6.75 7.25H6V8H6.75V7.25Z" fill="#121212"/>
<path d="M7.5 7.25H6.75V8H7.5V7.25Z" fill="#121212"/>
<path d="M8.25 7.25H7.5V8H8.25V7.25Z" fill="#121212"/>
<path d="M9 7.25H8.25V8H9V7.25Z" fill="#121212"/>
<path d="M9.75 7.25H9V8H9.75V7.25Z" fill="#121212"/>
<path d="M10.5 7.25H9.75V8H10.5V7.25Z" fill="#121212"/>
<path d="M11.25 7.25H10.5V8H11.25V7.25Z" fill="#121212"/>
<path d="M12 7.25H11.25V8H12V7.25Z" fill="#121212"/>
<path d="M12.75 7.25H12V8H12.75V7.25Z" fill="#121212"/>
<path d="M13.5 7.25H12.75V8H13.5V7.25Z" fill="#121212"/>
<path d="M14.25 7.25H13.5V8H14.25V7.25Z" fill="#121212"/>
<path d="M15 7.25H14.25V8H15V7.25Z" fill="#121212"/>
<path d="M15.75 7.25H15V8H15.75V7.25Z" fill="#121212"/>
<path d="M16.5 7.25H15.75V8H16.5V7.25Z" fill="#121212"/>
<path d="M17.25 7.25H16.5V8H17.25V7.25Z" fill="#121212"/>
<path d="M18 7.25H17.25V8H18V7.25Z" fill="#121212"/>
<path d="M18.75 7.25H18V8H18.75V7.25Z" fill="#121212"/>
<path d="M19.5 7.25H18.75V8H19.5V7.25Z" fill="#121212"/>
<path d="M20.25 7.25H19.5V8H20.25V7.25Z" fill="#121212"/>
<path d="M21 7.25H20.25V8H21V7.25Z" fill="#121212"/>
<path d="M21.75 7.25H21V8H21.75V7.25Z" fill="#121212"/>
<path d="M22.5 7.25H21.75V8H22.5V7.25Z" fill="#121212"/>
<path d="M23.25 7.25H22.5V8H23.25V7.25Z" fill="#121212"/>
<path d="M24 7.25H23.25V8H24V7.25Z" fill="#121212"/>
<path d="M0.75 8H0V8.75H0.75V8Z" fill="#121212"/>
<path d="M1.5 8H0.75V8.75H1.5V8Z" fill="#121212"/>
<path d="M2.25 8H1.5V8.75H2.25V8Z" fill="#121212"/>
<path d="M3 8H2.25V8.75H3V8Z" fill="#121212"/>
<path d="M3.75 8H3V8.75H3.75V8Z" fill="#121212"/>
<path d="M4.5 8H3.75V8.75H4.5V8Z" fill="#121212"/>
<path d="M5.25 8H4.5V8.75H5.25V8Z" fill="#121212"/>
<path d="M6 8H5.25V8.75H6V8Z" fill="#121212"/>
<path d="M6.75 8H6V8.75H6.75V8Z" fill="#121212"/>
<path d="M7.5 8H6.75V8.75H7.5V8Z" fill="#121212"/>
<path d="M8.25 8H7.5V8.75H8.25V8Z" fill="#121212"/>
<path d="M9 8H8.25V8.75H9V8Z" fill="#121212"/>
<path d="M9.75 8H9V8.75H9.75V8Z" fill="#121212"/>
<path d="M10.5 8H9.75V8.75H10.5V8Z" fill="#121212"/>
<path d="M11.25 8H10.5V8.75H11.25V8Z" fill="#121212"/>
<path d="M12 8H11.25V8.75H12V8Z" fill="#121212"/>
<path d="M12.75 8H12V8.75H12.75V8Z" fill="#121212"/>
<path d="M13.5 8H12.75V8.75H13.5V8Z" fill="#121212"/>
<path d="M14.25 8H13.5V8.75H14.25V8Z" fill="#121212"/>
<path d="M15 8H14.25V8.75H15V8Z" fill="#121212"/>
<path d="M15.75 8H15V8.75H15.75V8Z" fill="#121212"/>
<path d="M16.5 8H15.75V8.75H16.5V8Z" fill="#121212"/>
<path d="M17.25 8H16.5V8.75H17.25V8Z" fill="#121212"/>
<path d="M18 8H17.25V8.75H18V8Z" fill="#121212"/>
<path d="M18.75 8H18V8.75H18.75V8Z" fill="#121212"/>
<path d="M19.5 8H18.75V8.75H19.5V8Z" fill="#121212"/>
<path d="M20.25 8H19.5V8.75H20.25V8Z" fill="#121212"/>
<path d="M21 8H20.25V8.75H21V8Z" fill="#121212"/>
<path d="M21.75 8H21V8.75H21.75V8Z" fill="#121212"/>
<path d="M22.5 8H21.75V8.75H22.5V8Z" fill="#121212"/>
<path d="M23.25 8H22.5V8.75H23.25V8Z" fill="#121212"/>
<path d="M24 8H23.25V8.75H24V8Z" fill="#121212"/>
<path d="M0.75 8.75H0V9.5H0.75V8.75Z" fill="#121212"/>
<path d="M1.5 8.75H0.75V9.5H1.5V8.75Z" fill="#121212"/>
<path d="M2.25 8.75H1.5V9.5H2.25V8.75Z" fill="#121212"/>
<path d="M3 8.75H2.25V9.5H3V8.75Z" fill="#121212"/>
<path d="M3.75 8.75H3V9.5H3.75V8.75Z" fill="#121212"/>
<path d="M4.5 8.75H3.75V9.5H4.5V8.75Z" fill="#121212"/>
<path d="M5.25 8.75H4.5V9.5H5.25V8.75Z" fill="#121212"/>
<path d="M6 8.75H5.25V9.5H6V8.75Z" fill="#121212"/>
<path d="M6.75 8.75H6V9.5H6.75V8.75Z" fill="#121212"/>
<path d="M7.5 8.75H6.75V9.5H7.5V8.75Z" fill="#121212"/>
<path d="M8.25 8.75H7.5V9.5H8.25V8.75Z" fill="#121212"/>
<path d="M9 8.75H8.25V9.5H9V8.75Z" fill="#121212"/>
<path d="M9.75 8.75H9V9.5H9.75V8.75Z" fill="#121212"/>
<path d="M10.5 8.75H9.75V9.5H10.5V8.75Z" fill="#121212"/>
<path d="M11.25 8.75H10.5V9.5H11.25V8.75Z" fill="#121212"/>
<path d="M12 8.75H11.25V9.5H12V8.75Z" fill="#121212"/>
<path d="M12.75 8.75H12V9.5H12.75V8.75Z" fill="#121212"/>
<path d="M13.5 8.75H12.75V9.5H13.5V8.75Z" fill="#121212"/>
<path d="M14.25 8.75H13.5V9.5H14.25V8.75Z" fill="#121212"/>
<path d="M15 8.75H14.25V9.5H15V8.75Z" fill="#121212"/>
<path d="M15.75 8.75H15V9.5H15.75V8.75Z" fill="#121212"/>
<path d="M16.5 8.75H15.75V9.5H16.5V8.75Z" fill="#121212"/>
<path d="M17.25 8.75H16.5V9.5H17.25V8.75Z" fill="#121212"/>
<path d="M18 8.75H17.25V9.5H18V8.75Z" fill="#121212"/>
<path d="M18.75 8.75H18V9.5H18.75V8.75Z" fill="#121212"/>
<path d="M19.5 8.75H18.75V9.5H19.5V8.75Z" fill="#121212"/>
<path d="M20.25 8.75H19.5V9.5H20.25V8.75Z" fill="#121212"/>
<path d="M21 8.75H20.25V9.5H21V8.75Z" fill="#121212"/>
<path d="M21.75 8.75H21V9.5H21.75V8.75Z" fill="#121212"/>
<path d="M22.5 8.75H21.75V9.5H22.5V8.75Z" fill="#121212"/>
<path d="M23.25 8.75H22.5V9.5H23.25V8.75Z" fill="#121212"/>
<path d="M24 8.75H23.25V9.5H24V8.75Z" fill="#121212"/>
<path d="M18.75 9.5H18V10.25H18.75V9.5Z" fill="#121212"/>
<path d="M19.5 9.5H18.75V10.25H19.5V9.5Z" fill="#121212"/>
<path d="M20.25 9.5H19.5V10.25H20.25V9.5Z" fill="#121212"/>
<path d="M21 9.5H20.25V10.25H21V9.5Z" fill="#121212"/>
<path d="M18.75 10.25H18V11H18.75V10.25Z" fill="#121212"/>
<path d="M19.5 10.25H18.75V11H19.5V10.25Z" fill="#121212"/>
<path d="M20.25 10.25H19.5V11H20.25V10.25Z" fill="#121212"/>
<path d="M21 10.25H20.25V11H21V10.25Z" fill="#121212"/>
<path d="M18.75 11H18V11.75H18.75V11Z" fill="#121212"/>
<path d="M19.5 11H18.75V11.75H19.5V11Z" fill="#121212"/>
<path d="M20.25 11H19.5V11.75H20.25V11Z" fill="#121212"/>
<path d="M21 11H20.25V11.75H21V11Z" fill="#121212"/>
<path d="M18.75 11.75H18V12.5H18.75V11.75Z" fill="#121212"/>
<path d="M19.5 11.75H18.75V12.5H19.5V11.75Z" fill="#121212"/>
<path d="M20.25 11.75H19.5V12.5H20.25V11.75Z" fill="#121212"/>
<path d="M21 11.75H20.25V12.5H21V11.75Z" fill="#121212"/>
<path d="M15.75 12.5H15V13.25H15.75V12.5Z" fill="#121212"/>
<path d="M16.5 12.5H15.75V13.25H16.5V12.5Z" fill="#121212"/>
<path d="M17.25 12.5H16.5V13.25H17.25V12.5Z" fill="#121212"/>
<path d="M18 12.5H17.25V13.25H18V12.5Z" fill="#121212"/>
<path d="M15.75 13.25H15V14H15.75V13.25Z" fill="#121212"/>
<path d="M16.5 13.25H15.75V14H16.5V13.25Z" fill="#121212"/>
<path d="M17.25 13.25H16.5V14H17.25V13.25Z" fill="#121212"/>
<path d="M18 13.25H17.25V14H18V13.25Z" fill="#121212"/>
<path d="M15.75 14H15V14.75H15.75V14Z" fill="#121212"/>
<path d="M16.5 14H15.75V14.75H16.5V14Z" fill="#121212"/>
<path d="M17.25 14H16.5V14.75H17.25V14Z" fill="#121212"/>
<path d="M18 14H17.25V14.75H18V14Z" fill="#121212"/>
<path d="M15.75 14.75H15V15.5H15.75V14.75Z" fill="#121212"/>
<path d="M16.5 14.75H15.75V15.5H16.5V14.75Z" fill="#121212"/>
<path d="M17.25 14.75H16.5V15.5H17.25V14.75Z" fill="#121212"/>
<path d="M18 14.75H17.25V15.5H18V14.75Z" fill="#121212"/>
</g>
<defs>
<clipPath id="clip0_5_17021">
<rect width="24" height="16" fill="white"/>
</clipPath>
</defs>
</svg>
