<svg width="670" height="600" viewBox="0 0 670 600" fill="none" xmlns="http://www.w3.org/2000/svg">
<mask id="path-1-inside-1_2293_1820" fill="white">
<path fill-rule="evenodd" clip-rule="evenodd" d="M0 8C0 3.58172 3.58173 0 8 0H622C626.418 0 630 3.58173 630 8.00001L630 216.686C630 218.808 630.843 220.843 632.343 222.343L667.657 257.657C669.157 259.157 670 261.192 670 263.314V544.496C670 547.008 668.82 549.374 666.815 550.885L603.775 598.389C602.387 599.435 600.697 600 598.96 600H263.314C261.192 600 259.157 599.157 257.657 597.657L222.343 562.343C220.843 560.843 218.808 560 216.686 560H8C3.58173 560 0 556.418 0 552V8ZM669.524 600C669.068 600 668.873 599.419 669.238 599.144C669.551 598.908 670 599.132 670 599.524C670 599.787 669.787 600 669.524 600Z"/>
</mask>
<path d="M222.343 562.343L221.636 563.05L222.343 562.343ZM257.657 597.657L258.364 596.95L257.657 597.657ZM603.775 598.389L604.376 599.188L603.775 598.389ZM666.815 550.885L667.416 551.684L666.815 550.885ZM630 216.686H631H630ZM632.343 222.343L633.05 221.636L632.343 222.343ZM622 1H8V-1H622V1ZM629 216.686L629 8.00001H631L631 216.686H629ZM666.95 258.364L631.636 223.05L633.05 221.636L668.364 256.95L666.95 258.364ZM669 544.496V263.314H671V544.496H669ZM667.416 551.684L604.376 599.188L603.173 597.59L666.213 550.086L667.416 551.684ZM263.314 599H598.96V601H263.314V599ZM223.05 561.636L258.364 596.95L256.95 598.364L221.636 563.05L223.05 561.636ZM8 559H216.686V561H8V559ZM1 8V552H-1V8H1ZM671 599.524C671 600.339 670.339 601 669.524 601V599C669.235 599 669 599.235 669 599.524H671ZM668.636 598.346C669.609 597.613 671 598.307 671 599.524H669C669 599.957 669.494 600.203 669.84 599.943L668.636 598.346ZM669.84 599.943C670.242 599.64 670.028 599 669.524 599V601C668.108 601 667.505 599.198 668.636 598.346L669.84 599.943ZM8 561C3.02942 561 -1 556.971 -1 552H1C1 555.866 4.13403 559 8 559V561ZM221.636 563.05C220.323 561.737 218.543 561 216.686 561V559C219.073 559 221.362 559.948 223.05 561.636L221.636 563.05ZM263.314 601C260.927 601 258.638 600.052 256.95 598.364L258.364 596.95C259.677 598.263 261.457 599 263.314 599V601ZM604.376 599.188C602.816 600.364 600.914 601 598.96 601V599C600.48 599 601.959 598.505 603.173 597.59L604.376 599.188ZM671 544.496C671 547.322 669.673 549.983 667.416 551.684L666.213 550.086C667.968 548.764 669 546.694 669 544.496H671ZM668.364 256.95C670.052 258.638 671 260.927 671 263.314H669C669 261.457 668.263 259.677 666.95 258.364L668.364 256.95ZM631 216.686C631 218.543 631.737 220.323 633.05 221.636L631.636 223.05C629.948 221.362 629 219.073 629 216.686H631ZM8 1C4.13403 1 1 4.13401 1 8H-1C-1 3.02944 3.02942 -1 8 -1V1ZM622 -1C626.971 -1 631 3.02944 631 8.00001H629C629 4.13401 625.866 1 622 1V-1Z" fill="#707070" mask="url(#path-1-inside-1_2293_1820)"/>
</svg>
