<svg width="1350" height="50" viewBox="0 0 1350 50" fill="none" xmlns="http://www.w3.org/2000/svg">
<mask id="path-1-inside-1_195_2547" fill="white">
<path fill-rule="evenodd" clip-rule="evenodd" d="M6 50C2.68629 50 0 47.3137 0 44V27.67C0 25.7676 0.902175 23.9779 2.43152 22.8465L31.7227 1.17652C32.7555 0.412402 34.0064 0 35.2911 0H1344C1347.31 0 1350 2.68629 1350 6V24.4258C1350 26.3282 1349.1 28.1179 1347.57 29.2493L1321.11 48.8235C1320.08 49.5876 1318.83 50 1317.54 50H6Z"/>
</mask>
<path fill-rule="evenodd" clip-rule="evenodd" d="M6 50C2.68629 50 0 47.3137 0 44V27.67C0 25.7676 0.902175 23.9779 2.43152 22.8465L31.7227 1.17652C32.7555 0.412402 34.0064 0 35.2911 0H1344C1347.31 0 1350 2.68629 1350 6V24.4258C1350 26.3282 1349.1 28.1179 1347.57 29.2493L1321.11 48.8235C1320.08 49.5876 1318.83 50 1317.54 50H6Z" fill="#121212"/>
<path d="M1321.11 48.8235L1320.52 48.0196L1321.11 48.8235ZM1347.57 29.2493L1348.16 30.0532L1347.57 29.2493ZM31.7227 1.17652L32.3174 1.98043L31.7227 1.17652ZM2.43152 22.8465L1.83678 22.0426L2.43152 22.8465ZM-1 27.67V44H1V27.67H-1ZM31.1279 0.372605L1.83678 22.0426L3.02627 23.6504L32.3174 1.98043L31.1279 0.372605ZM1344 -1H35.2911V1H1344V-1ZM1351 24.4258V6H1349V24.4258H1351ZM1321.7 49.6274L1348.16 30.0532L1346.97 28.4454L1320.52 48.0196L1321.7 49.6274ZM6 51H1317.54V49H6V51ZM1320.52 48.0196C1319.65 48.6563 1318.61 49 1317.54 49V51C1319.04 51 1320.5 50.5189 1321.7 49.6274L1320.52 48.0196ZM1349 24.4258C1349 26.0112 1348.25 27.5025 1346.97 28.4454L1348.16 30.0532C1349.95 28.7332 1351 26.6453 1351 24.4258H1349ZM1344 1C1346.76 1 1349 3.23858 1349 6H1351C1351 2.13401 1347.87 -1 1344 -1V1ZM32.3174 1.98043C33.1781 1.34367 34.2205 1 35.2911 1V-1C33.7922 -1 32.3329 -0.518864 31.1279 0.372605L32.3174 1.98043ZM-1 44C-1 47.866 2.13401 51 6 51V49C3.23858 49 1 46.7614 1 44H-1ZM1 27.67C1 26.0847 1.75181 24.5933 3.02627 23.6504L1.83678 22.0426C0.0525371 23.3626 -1 25.4505 -1 27.67H1Z" fill="#FEFEFE" mask="url(#path-1-inside-1_195_2547)"/>
</svg>
