<svg width="345" height="105" viewBox="0 0 345 105" fill="none" xmlns="http://www.w3.org/2000/svg">
<path d="M0 105V0H60V15H75V45H60V60H15V105H0ZM60 45V15H15V45H60Z" fill="#FEFEFE"/>
<path d="M90 90V0H105V90H150V0H165V90H150V105H105V90H90Z" fill="#FEFEFE"/>
<path d="M180 105V0H195V30H210V45H225V60H240V0H255V105H240V75H225V60H210V45H195V105H180Z" fill="#FEFEFE"/>
<path d="M270 105V0H285V45H300V30H315V15H330V0H345V15H330V30H315V45H300V60H315V75H330V90H345V105H330V90H315V75H300V60H285V105H270Z" fill="#FEFEFE"/>
</svg>
