<svg width="420" height="105" viewBox="0 0 420 105" fill="none" xmlns="http://www.w3.org/2000/svg">
<path d="M0 105V0H60V15H75V45H60V60H15V105H0ZM60 45V15H15V45H60Z" fill="#FEFEFE"/>
<path d="M90 105V0H165V15H105V45H135V60H105V90H165V105H90Z" fill="#FEFEFE"/>
<path d="M180 105V0H255V15H195V45H225V60H195V90H255V105H180Z" fill="#FEFEFE"/>
<path d="M270 30V0H285V30H300V45H315V30H330V0H345V30H330V45H315V60H330V75H345V105H330V75H315V60H300V75H285V105H270V75H285V60H300V45H285V30H270Z" fill="#FEFEFE"/>
<path d="M375 15V0H420V15H405V90H420V105H375V90H390V15H375Z" fill="#FEFEFE"/>
</svg>
