<svg width="40" height="23" viewBox="0 0 40 23" fill="none" xmlns="http://www.w3.org/2000/svg">
<g clip-path="url(#clip0_5_18769)">
<path d="M38.5714 0H40V1.4375H38.5714V0Z" fill="#707070"/>
<path d="M37.1417 0H38.5703V1.4375H37.1417V0Z" fill="#707070"/>
<path d="M35.7121 0H37.1406V1.4375H35.7121V0Z" fill="#707070"/>
<path d="M34.2824 0H35.7109V1.4375H34.2824V0Z" fill="#707070"/>
<path d="M4.28237 0H5.71094V1.4375H4.28237V0Z" fill="#707070"/>
<path d="M2.86049 0H4.28906V1.4375H2.86049V0Z" fill="#707070"/>
<path d="M1.4308 0H2.85938V1.4375H1.4308V0Z" fill="#707070"/>
<path d="M0.00111604 0H1.42969V1.4375H0.00111604V0Z" fill="#707070"/>
<path d="M38.5714 1.4375H40V2.875H38.5714V1.4375Z" fill="#707070"/>
<path d="M37.1417 1.4375H38.5703V2.875H37.1417V1.4375Z" fill="#707070"/>
<path d="M35.7121 1.4375H37.1406V2.875H35.7121V1.4375Z" fill="#707070"/>
<path d="M34.2824 1.4375H35.7109V2.875H34.2824V1.4375Z" fill="#707070"/>
<path d="M4.28237 1.4375H5.71094V2.875H4.28237V1.4375Z" fill="#707070"/>
<path d="M2.86049 1.4375H4.28906V2.875H2.86049V1.4375Z" fill="#707070"/>
<path d="M1.4308 1.4375H2.85938V2.875H1.4308V1.4375Z" fill="#707070"/>
<path d="M0.00111604 1.4375H1.42969V2.875H0.00111604V1.4375Z" fill="#707070"/>
<path d="M38.5714 2.875H40V4.3125H38.5714V2.875Z" fill="#707070"/>
<path d="M37.1417 2.875H38.5703V4.3125H37.1417V2.875Z" fill="#707070"/>
<path d="M35.7121 2.875H37.1406V4.3125H35.7121V2.875Z" fill="#707070"/>
<path d="M34.2824 2.875H35.7109V4.3125H34.2824V2.875Z" fill="#707070"/>
<path d="M4.28237 2.875H5.71094V4.3125H4.28237V2.875Z" fill="#707070"/>
<path d="M2.86049 2.875H4.28906V4.3125H2.86049V2.875Z" fill="#707070"/>
<path d="M1.4308 2.875H2.85938V4.3125H1.4308V2.875Z" fill="#707070"/>
<path d="M0.00111604 2.875H1.42969V4.3125H0.00111604V2.875Z" fill="#707070"/>
<path d="M38.5714 4.3125H40V5.75H38.5714V4.3125Z" fill="#707070"/>
<path d="M37.1417 4.3125H38.5703V5.75H37.1417V4.3125Z" fill="#707070"/>
<path d="M35.7121 4.3125H37.1406V5.75H35.7121V4.3125Z" fill="#707070"/>
<path d="M34.2824 4.3125H35.7109V5.75H34.2824V4.3125Z" fill="#707070"/>
<path d="M4.28237 4.3125H5.71094V5.75H4.28237V4.3125Z" fill="#707070"/>
<path d="M2.86049 4.3125H4.28906V5.75H2.86049V4.3125Z" fill="#707070"/>
<path d="M1.4308 4.3125H2.85938V5.75H1.4308V4.3125Z" fill="#707070"/>
<path d="M0.00111604 4.3125H1.42969V5.75H0.00111604V4.3125Z" fill="#707070"/>
<path d="M32.8605 5.75H34.2891V7.1875H32.8605V5.75Z" fill="#707070"/>
<path d="M31.4308 5.75H32.8594V7.1875H31.4308V5.75Z" fill="#707070"/>
<path d="M30.0011 5.75H31.4297V7.1875H30.0011V5.75Z" fill="#707070"/>
<path d="M28.5714 5.75H30V7.1875H28.5714V5.75Z" fill="#707070"/>
<path d="M10.0011 5.75H11.4297V7.1875H10.0011V5.75Z" fill="#707070"/>
<path d="M8.57143 5.75H10V7.1875H8.57143V5.75Z" fill="#707070"/>
<path d="M7.14174 5.75H8.57031V7.1875H7.14174V5.75Z" fill="#707070"/>
<path d="M5.71205 5.75H7.14062V7.1875H5.71205V5.75Z" fill="#707070"/>
<path d="M32.8605 7.1875H34.2891V8.625H32.8605V7.1875Z" fill="#707070"/>
<path d="M31.4308 7.1875H32.8594V8.625H31.4308V7.1875Z" fill="#707070"/>
<path d="M30.0011 7.1875H31.4297V8.625H30.0011V7.1875Z" fill="#707070"/>
<path d="M28.5714 7.1875H30V8.625H28.5714V7.1875Z" fill="#707070"/>
<path d="M10.0011 7.1875H11.4297V8.625H10.0011V7.1875Z" fill="#707070"/>
<path d="M8.57143 7.1875H10V8.625H8.57143V7.1875Z" fill="#707070"/>
<path d="M7.14174 7.1875H8.57031V8.625H7.14174V7.1875Z" fill="#707070"/>
<path d="M5.71205 7.1875H7.14062V8.625H5.71205V7.1875Z" fill="#707070"/>
<path d="M32.8605 8.625H34.2891V10.0625H32.8605V8.625Z" fill="#707070"/>
<path d="M31.4308 8.625H32.8594V10.0625H31.4308V8.625Z" fill="#707070"/>
<path d="M30.0011 8.625H31.4297V10.0625H30.0011V8.625Z" fill="#707070"/>
<path d="M28.5714 8.625H30V10.0625H28.5714V8.625Z" fill="#707070"/>
<path d="M10.0011 8.625H11.4297V10.0625H10.0011V8.625Z" fill="#707070"/>
<path d="M8.57143 8.625H10V10.0625H8.57143V8.625Z" fill="#707070"/>
<path d="M7.14174 8.625H8.57031V10.0625H7.14174V8.625Z" fill="#707070"/>
<path d="M5.71205 8.625H7.14062V10.0625H5.71205V8.625Z" fill="#707070"/>
<path d="M32.8605 10.0625H34.2891V11.5H32.8605V10.0625Z" fill="#707070"/>
<path d="M31.4308 10.0625H32.8594V11.5H31.4308V10.0625Z" fill="#707070"/>
<path d="M30.0011 10.0625H31.4297V11.5H30.0011V10.0625Z" fill="#707070"/>
<path d="M28.5714 10.0625H30V11.5H28.5714V10.0625Z" fill="#707070"/>
<path d="M10.0011 10.0625H11.4297V11.5H10.0011V10.0625Z" fill="#707070"/>
<path d="M8.57143 10.0625H10V11.5H8.57143V10.0625Z" fill="#707070"/>
<path d="M7.14174 10.0625H8.57031V11.5H7.14174V10.0625Z" fill="#707070"/>
<path d="M5.71205 10.0625H7.14062V11.5H5.71205V10.0625Z" fill="#707070"/>
<path d="M27.1417 11.5H28.5703V12.9375H27.1417V11.5Z" fill="#707070"/>
<path d="M25.7121 11.5H27.1406V12.9375H25.7121V11.5Z" fill="#707070"/>
<path d="M24.2824 11.5H25.7109V12.9375H24.2824V11.5Z" fill="#707070"/>
<path d="M22.8605 11.5H24.2891V12.9375H22.8605V11.5Z" fill="#707070"/>
<path d="M15.7121 11.5H17.1406V12.9375H15.7121V11.5Z" fill="#707070"/>
<path d="M14.2824 11.5H15.7109V12.9375H14.2824V11.5Z" fill="#707070"/>
<path d="M12.8605 11.5H14.2891V12.9375H12.8605V11.5Z" fill="#707070"/>
<path d="M11.4308 11.5H12.8594V12.9375H11.4308V11.5Z" fill="#707070"/>
<path d="M27.1417 12.9375H28.5703V14.375H27.1417V12.9375Z" fill="#707070"/>
<path d="M25.7121 12.9375H27.1406V14.375H25.7121V12.9375Z" fill="#707070"/>
<path d="M24.2824 12.9375H25.7109V14.375H24.2824V12.9375Z" fill="#707070"/>
<path d="M22.8605 12.9375H24.2891V14.375H22.8605V12.9375Z" fill="#707070"/>
<path d="M15.7121 12.9375H17.1406V14.375H15.7121V12.9375Z" fill="#707070"/>
<path d="M14.2824 12.9375H15.7109V14.375H14.2824V12.9375Z" fill="#707070"/>
<path d="M12.8605 12.9375H14.2891V14.375H12.8605V12.9375Z" fill="#707070"/>
<path d="M11.4308 12.9375H12.8594V14.375H11.4308V12.9375Z" fill="#707070"/>
<path d="M27.1417 14.375H28.5703V15.8125H27.1417V14.375Z" fill="#707070"/>
<path d="M25.7121 14.375H27.1406V15.8125H25.7121V14.375Z" fill="#707070"/>
<path d="M24.2824 14.375H25.7109V15.8125H24.2824V14.375Z" fill="#707070"/>
<path d="M22.8605 14.375H24.2891V15.8125H22.8605V14.375Z" fill="#707070"/>
<path d="M15.7121 14.375H17.1406V15.8125H15.7121V14.375Z" fill="#707070"/>
<path d="M14.2824 14.375H15.7109V15.8125H14.2824V14.375Z" fill="#707070"/>
<path d="M12.8605 14.375H14.2891V15.8125H12.8605V14.375Z" fill="#707070"/>
<path d="M11.4308 14.375H12.8594V15.8125H11.4308V14.375Z" fill="#707070"/>
<path d="M27.1417 15.8125H28.5703V17.25H27.1417V15.8125Z" fill="#707070"/>
<path d="M25.7121 15.8125H27.1406V17.25H25.7121V15.8125Z" fill="#707070"/>
<path d="M24.2824 15.8125H25.7109V17.25H24.2824V15.8125Z" fill="#707070"/>
<path d="M22.8605 15.8125H24.2891V17.25H22.8605V15.8125Z" fill="#707070"/>
<path d="M15.7121 15.8125H17.1406V17.25H15.7121V15.8125Z" fill="#707070"/>
<path d="M14.2824 15.8125H15.7109V17.25H14.2824V15.8125Z" fill="#707070"/>
<path d="M12.8605 15.8125H14.2891V17.25H12.8605V15.8125Z" fill="#707070"/>
<path d="M11.4308 15.8125H12.8594V17.25H11.4308V15.8125Z" fill="#707070"/>
<path d="M21.4308 17.25H22.8594V18.6875H21.4308V17.25Z" fill="#707070"/>
<path d="M20.0011 17.25H21.4297V18.6875H20.0011V17.25Z" fill="#707070"/>
<path d="M18.5714 17.25H20V18.6875H18.5714V17.25Z" fill="#707070"/>
<path d="M17.1417 17.25H18.5703V18.6875H17.1417V17.25Z" fill="#707070"/>
<path d="M21.4308 18.6875H22.8594V20.125H21.4308V18.6875Z" fill="#707070"/>
<path d="M20.0011 18.6875H21.4297V20.125H20.0011V18.6875Z" fill="#707070"/>
<path d="M18.5714 18.6875H20V20.125H18.5714V18.6875Z" fill="#707070"/>
<path d="M17.1417 18.6875H18.5703V20.125H17.1417V18.6875Z" fill="#707070"/>
<path d="M21.4308 20.125H22.8594V21.5625H21.4308V20.125Z" fill="#707070"/>
<path d="M20.0011 20.125H21.4297V21.5625H20.0011V20.125Z" fill="#707070"/>
<path d="M18.5714 20.125H20V21.5625H18.5714V20.125Z" fill="#707070"/>
<path d="M17.1417 20.125H18.5703V21.5625H17.1417V20.125Z" fill="#707070"/>
<path d="M21.4308 21.5625H22.8594V23H21.4308V21.5625Z" fill="#707070"/>
<path d="M20.0011 21.5625H21.4297V23H20.0011V21.5625Z" fill="#707070"/>
<path d="M18.5714 21.5625H20V23H18.5714V21.5625Z" fill="#707070"/>
<path d="M17.1417 21.5625H18.5703V23H17.1417V21.5625Z" fill="#707070"/>
</g>
<defs>
<clipPath id="clip0_5_18769">
<rect width="40" height="23" fill="white" transform="matrix(-1 0 0 1 40 0)"/>
</clipPath>
</defs>
</svg>
