<svg width="10" height="10" viewBox="0 0 10 10" fill="none" xmlns="http://www.w3.org/2000/svg">
<path d="M3.66822 0.889807C2 1.38212 0.565421 1.82186 0.481308 1.86487C0.308411 1.96047 0.126168 2.1899 0.0514019 2.41933C0.0140187 2.53404 0 3.54735 0 5.91332V9.24002L0.116822 9.48379C0.191589 9.63674 0.308411 9.77535 0.429907 9.86139L0.621495 10H5H9.3785L9.57009 9.86139C9.69159 9.77535 9.80841 9.63674 9.88318 9.48379L10 9.24002V5.942C10 2.83038 9.99065 2.62963 9.91121 2.448C9.86449 2.34285 9.76635 2.19946 9.69159 2.12776C9.4486 1.89833 9.26635 1.85054 8.59813 1.85054H7.99065V1.28653C7.99065 0.784653 7.97664 0.693838 7.88318 0.507428C7.82243 0.392714 7.68224 0.234982 7.57477 0.153726C7.40654 0.0342329 7.33178 0.0103341 7.04206 0.000774657C6.72897 -0.00878483 6.48131 0.0581316 3.66822 0.889807ZM6.92991 7.06524C6.89252 7.0987 1.15421 8.78117 1.07477 8.78117C1.04673 8.78117 1.02804 7.7105 1.02804 5.77949V2.78259L3.98598 1.92223L6.93925 1.0571L6.95327 4.04444C6.95794 5.68867 6.9486 7.04612 6.92991 7.06524ZM8.97196 3.40395V3.90583H8.48131H7.99065V3.40395V2.90208H8.48131H8.97196V3.40395ZM8.97196 6.96486V8.97235L6.64953 8.96758H4.32243L5.89252 8.50394C7.60748 7.99729 7.71495 7.94471 7.89252 7.57189C7.98598 7.3807 7.99065 7.28511 7.99065 6.16187V4.95737H8.48131H8.97196V6.96486Z" fill="#707070"/>
</svg>
