<svg width="16" height="16" fill="none" xmlns="http://www.w3.org/2000/svg">
    <path d="M10.5 0H10v.5h.5V0ZM11 0h-.5v.5h.5V0ZM11.5 0H11v.5h.5V0ZM12 0h-.5v.5h.5V0ZM10.5.5H10V1h.5V.5ZM11 .5h-.5V1h.5V.5ZM11.5.5H11V1h.5V.5ZM12 .5h-.5V1h.5V.5ZM10.5 1H10v.5h.5V1ZM11 1h-.5v.5h.5V1ZM11.5 1H11v.5h.5V1ZM12 1h-.5v.5h.5V1ZM10.5 1.5H10V2h.5v-.5ZM11 1.5h-.5V2h.5v-.5ZM11.5 1.5H11V2h.5v-.5ZM12 1.5h-.5V2h.5v-.5ZM12.5 2H12v.5h.5V2ZM13 2h-.5v.5h.5V2ZM13.5 2H13v.5h.5V2ZM14 2h-.5v.5h.5V2ZM12.5 2.5H12V3h.5v-.5ZM13 2.5h-.5V3h.5v-.5ZM13.5 2.5H13V3h.5v-.5ZM14 2.5h-.5V3h.5v-.5ZM12.5 3H12v.5h.5V3ZM13 3h-.5v.5h.5V3ZM13.5 3H13v.5h.5V3ZM14 3h-.5v.5h.5V3ZM12.5 3.5H12V4h.5v-.5ZM13 3.5h-.5V4h.5v-.5ZM13.5 3.5H13V4h.5v-.5ZM14 3.5h-.5V4h.5v-.5ZM.5 4H0v.5h.5V4ZM1 4H.5v.5H1V4ZM1.5 4H1v.5h.5V4ZM2 4h-.5v.5H2V4ZM2.5 4H2v.5h.5V4ZM3 4h-.5v.5H3V4ZM3.5 4H3v.5h.5V4ZM4 4h-.5v.5H4V4ZM4.5 4H4v.5h.5V4ZM5 4h-.5v.5H5V4ZM5.5 4H5v.5h.5V4ZM6 4h-.5v.5H6V4ZM6.5 4H6v.5h.5V4ZM7 4h-.5v.5H7V4ZM7.5 4H7v.5h.5V4ZM8 4h-.5v.5H8V4ZM8.5 4H8v.5h.5V4ZM9 4h-.5v.5H9V4ZM9.5 4H9v.5h.5V4ZM10 4h-.5v.5h.5V4ZM10.5 4H10v.5h.5V4ZM11 4h-.5v.5h.5V4ZM11.5 4H11v.5h.5V4ZM12 4h-.5v.5h.5V4ZM12.5 4H12v.5h.5V4ZM13 4h-.5v.5h.5V4ZM13.5 4H13v.5h.5V4ZM14 4h-.5v.5h.5V4ZM14.5 4H14v.5h.5V4ZM15 4h-.5v.5h.5V4ZM15.5 4H15v.5h.5V4ZM16 4h-.5v.5h.5V4ZM.5 4.5H0V5h.5v-.5ZM1 4.5H.5V5H1v-.5ZM1.5 4.5H1V5h.5v-.5ZM2 4.5h-.5V5H2v-.5ZM2.5 4.5H2V5h.5v-.5ZM3 4.5h-.5V5H3v-.5ZM3.5 4.5H3V5h.5v-.5ZM4 4.5h-.5V5H4v-.5ZM4.5 4.5H4V5h.5v-.5ZM5 4.5h-.5V5H5v-.5ZM5.5 4.5H5V5h.5v-.5ZM6 4.5h-.5V5H6v-.5ZM6.5 4.5H6V5h.5v-.5ZM7 4.5h-.5V5H7v-.5ZM7.5 4.5H7V5h.5v-.5ZM8 4.5h-.5V5H8v-.5ZM8.5 4.5H8V5h.5v-.5ZM9 4.5h-.5V5H9v-.5ZM9.5 4.5H9V5h.5v-.5ZM10 4.5h-.5V5h.5v-.5ZM10.5 4.5H10V5h.5v-.5ZM11 4.5h-.5V5h.5v-.5ZM11.5 4.5H11V5h.5v-.5ZM12 4.5h-.5V5h.5v-.5ZM12.5 4.5H12V5h.5v-.5ZM13 4.5h-.5V5h.5v-.5ZM13.5 4.5H13V5h.5v-.5ZM14 4.5h-.5V5h.5v-.5ZM14.5 4.5H14V5h.5v-.5ZM15 4.5h-.5V5h.5v-.5ZM15.5 4.5H15V5h.5v-.5ZM16 4.5h-.5V5h.5v-.5ZM.5 5H0v.5h.5V5ZM1 5H.5v.5H1V5ZM1.5 5H1v.5h.5V5ZM2 5h-.5v.5H2V5ZM2.5 5H2v.5h.5V5ZM3 5h-.5v.5H3V5ZM3.5 5H3v.5h.5V5ZM4 5h-.5v.5H4V5ZM4.5 5H4v.5h.5V5ZM5 5h-.5v.5H5V5ZM5.5 5H5v.5h.5V5ZM6 5h-.5v.5H6V5ZM6.5 5H6v.5h.5V5ZM7 5h-.5v.5H7V5ZM7.5 5H7v.5h.5V5ZM8 5h-.5v.5H8V5ZM8.5 5H8v.5h.5V5ZM9 5h-.5v.5H9V5ZM9.5 5H9v.5h.5V5ZM10 5h-.5v.5h.5V5ZM10.5 5H10v.5h.5V5ZM11 5h-.5v.5h.5V5ZM11.5 5H11v.5h.5V5ZM12 5h-.5v.5h.5V5ZM12.5 5H12v.5h.5V5ZM13 5h-.5v.5h.5V5ZM13.5 5H13v.5h.5V5ZM14 5h-.5v.5h.5V5ZM14.5 5H14v.5h.5V5ZM15 5h-.5v.5h.5V5ZM15.5 5H15v.5h.5V5ZM16 5h-.5v.5h.5V5ZM.5 5.5H0V6h.5v-.5ZM1 5.5H.5V6H1v-.5ZM1.5 5.5H1V6h.5v-.5ZM2 5.5h-.5V6H2v-.5ZM2.5 5.5H2V6h.5v-.5ZM3 5.5h-.5V6H3v-.5ZM3.5 5.5H3V6h.5v-.5ZM4 5.5h-.5V6H4v-.5ZM4.5 5.5H4V6h.5v-.5ZM5 5.5h-.5V6H5v-.5ZM5.5 5.5H5V6h.5v-.5ZM6 5.5h-.5V6H6v-.5ZM6.5 5.5H6V6h.5v-.5ZM7 5.5h-.5V6H7v-.5ZM7.5 5.5H7V6h.5v-.5ZM8 5.5h-.5V6H8v-.5ZM8.5 5.5H8V6h.5v-.5ZM9 5.5h-.5V6H9v-.5ZM9.5 5.5H9V6h.5v-.5ZM10 5.5h-.5V6h.5v-.5ZM10.5 5.5H10V6h.5v-.5ZM11 5.5h-.5V6h.5v-.5ZM11.5 5.5H11V6h.5v-.5ZM12 5.5h-.5V6h.5v-.5ZM12.5 5.5H12V6h.5v-.5ZM13 5.5h-.5V6h.5v-.5ZM13.5 5.5H13V6h.5v-.5ZM14 5.5h-.5V6h.5v-.5ZM14.5 5.5H14V6h.5v-.5ZM15 5.5h-.5V6h.5v-.5ZM15.5 5.5H15V6h.5v-.5ZM16 5.5h-.5V6h.5v-.5ZM.5 10H0v.5h.5V10ZM1 10H.5v.5H1V10ZM1.5 10H1v.5h.5V10ZM2 10h-.5v.5H2V10ZM2.5 10H2v.5h.5V10ZM3 10h-.5v.5H3V10ZM3.5 10H3v.5h.5V10ZM4 10h-.5v.5H4V10ZM4.5 10H4v.5h.5V10ZM5 10h-.5v.5H5V10ZM5.5 10H5v.5h.5V10ZM6 10h-.5v.5H6V10ZM6.5 10H6v.5h.5V10ZM7 10h-.5v.5H7V10ZM7.5 10H7v.5h.5V10ZM8 10h-.5v.5H8V10ZM8.5 10H8v.5h.5V10ZM9 10h-.5v.5H9V10ZM9.5 10H9v.5h.5V10ZM10 10h-.5v.5h.5V10ZM10.5 10H10v.5h.5V10ZM11 10h-.5v.5h.5V10ZM11.5 10H11v.5h.5V10ZM12 10h-.5v.5h.5V10ZM12.5 10H12v.5h.5V10ZM13 10h-.5v.5h.5V10ZM13.5 10H13v.5h.5V10ZM14 10h-.5v.5h.5V10ZM14.5 10H14v.5h.5V10ZM15 10h-.5v.5h.5V10ZM15.5 10H15v.5h.5V10ZM16 10h-.5v.5h.5V10ZM.5 10.5H0v.5h.5v-.5ZM1 10.5H.5v.5H1v-.5ZM1.5 10.5H1v.5h.5v-.5ZM2 10.5h-.5v.5H2v-.5ZM2.5 10.5H2v.5h.5v-.5ZM3 10.5h-.5v.5H3v-.5ZM3.5 10.5H3v.5h.5v-.5ZM4 10.5h-.5v.5H4v-.5ZM4.5 10.5H4v.5h.5v-.5ZM5 10.5h-.5v.5H5v-.5ZM5.5 10.5H5v.5h.5v-.5ZM6 10.5h-.5v.5H6v-.5ZM6.5 10.5H6v.5h.5v-.5ZM7 10.5h-.5v.5H7v-.5ZM7.5 10.5H7v.5h.5v-.5ZM8 10.5h-.5v.5H8v-.5ZM8.5 10.5H8v.5h.5v-.5ZM9 10.5h-.5v.5H9v-.5ZM9.5 10.5H9v.5h.5v-.5ZM10 10.5h-.5v.5h.5v-.5ZM10.5 10.5H10v.5h.5v-.5ZM11 10.5h-.5v.5h.5v-.5ZM11.5 10.5H11v.5h.5v-.5ZM12 10.5h-.5v.5h.5v-.5ZM12.5 10.5H12v.5h.5v-.5ZM13 10.5h-.5v.5h.5v-.5ZM13.5 10.5H13v.5h.5v-.5ZM14 10.5h-.5v.5h.5v-.5ZM14.5 10.5H14v.5h.5v-.5ZM15 10.5h-.5v.5h.5v-.5ZM15.5 10.5H15v.5h.5v-.5ZM16 10.5h-.5v.5h.5v-.5ZM.5 11H0v.5h.5V11ZM1 11H.5v.5H1V11ZM1.5 11H1v.5h.5V11ZM2 11h-.5v.5H2V11ZM2.5 11H2v.5h.5V11ZM3 11h-.5v.5H3V11ZM3.5 11H3v.5h.5V11ZM4 11h-.5v.5H4V11ZM4.5 11H4v.5h.5V11ZM5 11h-.5v.5H5V11ZM5.5 11H5v.5h.5V11ZM6 11h-.5v.5H6V11ZM6.5 11H6v.5h.5V11ZM7 11h-.5v.5H7V11ZM7.5 11H7v.5h.5V11ZM8 11h-.5v.5H8V11ZM8.5 11H8v.5h.5V11ZM9 11h-.5v.5H9V11ZM9.5 11H9v.5h.5V11ZM10 11h-.5v.5h.5V11ZM10.5 11H10v.5h.5V11ZM11 11h-.5v.5h.5V11ZM11.5 11H11v.5h.5V11ZM12 11h-.5v.5h.5V11ZM12.5 11H12v.5h.5V11ZM13 11h-.5v.5h.5V11ZM13.5 11H13v.5h.5V11ZM14 11h-.5v.5h.5V11ZM14.5 11H14v.5h.5V11ZM15 11h-.5v.5h.5V11ZM15.5 11H15v.5h.5V11ZM16 11h-.5v.5h.5V11ZM.5 11.5H0v.5h.5v-.5ZM1 11.5H.5v.5H1v-.5ZM1.5 11.5H1v.5h.5v-.5ZM2 11.5h-.5v.5H2v-.5ZM2.5 11.5H2v.5h.5v-.5ZM3 11.5h-.5v.5H3v-.5ZM3.5 11.5H3v.5h.5v-.5ZM4 11.5h-.5v.5H4v-.5ZM4.5 11.5H4v.5h.5v-.5ZM5 11.5h-.5v.5H5v-.5ZM5.5 11.5H5v.5h.5v-.5ZM6 11.5h-.5v.5H6v-.5ZM6.5 11.5H6v.5h.5v-.5ZM7 11.5h-.5v.5H7v-.5ZM7.5 11.5H7v.5h.5v-.5ZM8 11.5h-.5v.5H8v-.5ZM8.5 11.5H8v.5h.5v-.5ZM9 11.5h-.5v.5H9v-.5ZM9.5 11.5H9v.5h.5v-.5ZM10 11.5h-.5v.5h.5v-.5ZM10.5 11.5H10v.5h.5v-.5ZM11 11.5h-.5v.5h.5v-.5ZM11.5 11.5H11v.5h.5v-.5ZM12 11.5h-.5v.5h.5v-.5ZM12.5 11.5H12v.5h.5v-.5ZM13 11.5h-.5v.5h.5v-.5ZM13.5 11.5H13v.5h.5v-.5ZM14 11.5h-.5v.5h.5v-.5ZM14.5 11.5H14v.5h.5v-.5ZM15 11.5h-.5v.5h.5v-.5ZM15.5 11.5H15v.5h.5v-.5ZM16 11.5h-.5v.5h.5v-.5ZM2.5 12H2v.5h.5V12ZM3 12h-.5v.5H3V12ZM3.5 12H3v.5h.5V12ZM4 12h-.5v.5H4V12ZM2.5 12.5H2v.5h.5v-.5ZM3 12.5h-.5v.5H3v-.5ZM3.5 12.5H3v.5h.5v-.5ZM4 12.5h-.5v.5H4v-.5ZM2.5 13H2v.5h.5V13ZM3 13h-.5v.5H3V13ZM3.5 13H3v.5h.5V13ZM4 13h-.5v.5H4V13ZM2.5 13.5H2v.5h.5v-.5ZM3 13.5h-.5v.5H3v-.5ZM3.5 13.5H3v.5h.5v-.5ZM4 13.5h-.5v.5H4v-.5ZM4.5 14H4v.5h.5V14ZM5 14h-.5v.5H5V14ZM5.5 14H5v.5h.5V14ZM6 14h-.5v.5H6V14ZM4.5 14.5H4v.5h.5v-.5ZM5 14.5h-.5v.5H5v-.5ZM5.5 14.5H5v.5h.5v-.5ZM6 14.5h-.5v.5H6v-.5ZM4.5 15H4v.5h.5V15ZM5 15h-.5v.5H5V15ZM5.5 15H5v.5h.5V15ZM6 15h-.5v.5H6V15ZM4.5 15.5H4v.5h.5v-.5ZM5 15.5h-.5v.5H5v-.5ZM5.5 15.5H5v.5h.5v-.5ZM6 15.5h-.5v.5H6v-.5Z" fill="#FEFEFE"/>
</svg>
