<svg width="16" height="16" fill="none" xmlns="http://www.w3.org/2000/svg">
    <path d="M6 0h-.667v.667H6V0ZM6.667 0H6v.667h.667V0ZM7.333 0h-.666v.667h.666V0ZM8 0h-.667v.667H8V0ZM8.667 0H8v.667h.667V0ZM9.333 0h-.666v.667h.666V0ZM10 0h-.667v.667H10V0ZM10.667 0H10v.667h.667V0ZM6 .667h-.667v.666H6V.667ZM6.667.667H6v.666h.667V.667ZM7.333.667h-.666v.666h.666V.667ZM8 .667h-.667v.666H8V.667ZM8.667.667H8v.666h.667V.667ZM9.333.667h-.666v.666h.666V.667ZM10 .667h-.667v.666H10V.667ZM10.667.667H10v.666h.667V.667ZM3.333 1.333h-.666V2h.666v-.667ZM4 1.333h-.667V2H4v-.667ZM4.667 1.333H4V2h.667v-.667ZM5.333 1.333h-.666V2h.666v-.667Z" fill="#FEFEFE"/>
    <path d="M6 1.333h-.667V2H6v-.667ZM6.667 1.333H6V2h.667v-.667ZM7.333 1.333h-.666V2h.666v-.667ZM8 1.333h-.667V2H8v-.667ZM8.667 1.333H8V2h.667v-.667ZM9.333 1.333h-.666V2h.666v-.667ZM10 1.333h-.667V2H10v-.667ZM10.667 1.333H10V2h.667v-.667ZM11.333 1.333h-.666V2h.666v-.667ZM12 1.333h-.667V2H12v-.667ZM12.667 1.333H12V2h.667v-.667ZM13.333 1.333h-.666V2h.666v-.667ZM3.333 2h-.666v.667h.666V2ZM4 2h-.667v.667H4V2ZM4.667 2H4v.667h.667V2ZM5.333 2h-.666v.667h.666V2ZM6 2h-.667v.667H6V2ZM6.667 2H6v.667h.667V2ZM7.333 2h-.666v.667h.666V2ZM8 2h-.667v.667H8V2ZM8.667 2H8v.667h.667V2ZM9.333 2h-.666v.667h.666V2ZM10 2h-.667v.667H10V2ZM10.667 2H10v.667h.667V2ZM11.333 2h-.666v.667h.666V2ZM12 2h-.667v.667H12V2ZM12.667 2H12v.667h.667V2ZM13.333 2h-.666v.667h.666V2ZM2 2.667h-.667v.666H2v-.666ZM2.667 2.667H2v.666h.667v-.666ZM3.333 2.667h-.666v.666h.666v-.666ZM4 2.667h-.667v.666H4v-.666ZM4.667 2.667H4v.666h.667v-.666ZM5.333 2.667h-.666v.666h.666v-.666ZM6 2.667h-.667v.666H6v-.666ZM6.667 2.667H6v.666h.667v-.666ZM7.333 2.667h-.666v.666h.666v-.666ZM8 2.667h-.667v.666H8v-.666ZM8.667 2.667H8v.666h.667v-.666ZM9.333 2.667h-.666v.666h.666v-.666ZM10 2.667h-.667v.666H10v-.666ZM10.667 2.667H10v.666h.667v-.666ZM11.333 2.667h-.666v.666h.666v-.666ZM12 2.667h-.667v.666H12v-.666ZM12.667 2.667H12v.666h.667v-.666ZM13.333 2.667h-.666v.666h.666v-.666ZM14 2.667h-.667v.666H14v-.666ZM14.667 2.667H14v.666h.667v-.666ZM2 3.333h-.667V4H2v-.667ZM2.667 3.333H2V4h.667v-.667ZM3.333 3.333h-.666V4h.666v-.667ZM4 3.333h-.667V4H4v-.667ZM4.667 3.333H4V4h.667v-.667ZM5.333 3.333h-.666V4h.666v-.667ZM6 3.333h-.667V4H6v-.667ZM6.667 3.333H6V4h.667v-.667ZM7.333 3.333h-.666V4h.666v-.667ZM8 3.333h-.667V4H8v-.667ZM8.667 3.333H8V4h.667v-.667ZM9.333 3.333h-.666V4h.666v-.667ZM10 3.333h-.667V4H10v-.667ZM10.667 3.333H10V4h.667v-.667ZM11.333 3.333h-.666V4h.666v-.667ZM12 3.333h-.667V4H12v-.667ZM12.667 3.333H12V4h.667v-.667ZM13.333 3.333h-.666V4h.666v-.667ZM14 3.333h-.667V4H14v-.667ZM14.667 3.333H14V4h.667v-.667ZM2 4h-.667v.667H2V4ZM2.667 4H2v.667h.667V4ZM3.333 4h-.666v.667h.666V4ZM4 4h-.667v.667H4V4ZM4.667 4H4v.667h.667V4ZM5.333 4h-.666v.667h.666V4ZM6 4h-.667v.667H6V4ZM10.667 4H10v.667h.667V4ZM11.333 4h-.666v.667h.666V4ZM12 4h-.667v.667H12V4ZM12.667 4H12v.667h.667V4ZM13.333 4h-.666v.667h.666V4ZM14 4h-.667v.667H14V4ZM14.667 4H14v.667h.667V4ZM2 4.667h-.667v.666H2v-.666ZM2.667 4.667H2v.666h.667v-.666ZM3.333 4.667h-.666v.666h.666v-.666ZM4 4.667h-.667v.666H4v-.666ZM4.667 4.667H4v.666h.667v-.666ZM5.333 4.667h-.666v.666h.666v-.666ZM6 4.667h-.667v.666H6v-.666ZM10.667 4.667H10v.666h.667v-.666ZM11.333 4.667h-.666v.666h.666v-.666ZM12 4.667h-.667v.666H12v-.666ZM12.667 4.667H12v.666h.667v-.666ZM13.333 4.667h-.666v.666h.666v-.666ZM14 4.667h-.667v.666H14v-.666ZM14.667 4.667H14v.666h.667v-.666ZM.667 5.333H0V6h.667v-.667ZM1.333 5.333H.667V6h.666v-.667Z" fill="#FEFEFE"/>
    <path d="M2 5.333h-.667V6H2v-.667ZM2.667 5.333H2V6h.667v-.667ZM3.333 5.333h-.666V6h.666v-.667ZM4 5.333h-.667V6H4v-.667ZM4.667 5.333H4V6h.667v-.667ZM5.333 5.333h-.666V6h.666v-.667ZM6 5.333h-.667V6H6v-.667ZM8 5.333h-.667V6H8v-.667ZM8.667 5.333H8V6h.667v-.667ZM9.333 5.333h-.666V6h.666v-.667ZM10 5.333h-.667V6H10v-.667ZM12 5.333h-.667V6H12v-.667ZM12.667 5.333H12V6h.667v-.667ZM13.333 5.333h-.666V6h.666v-.667ZM14 5.333h-.667V6H14v-.667ZM14.667 5.333H14V6h.667v-.667ZM15.333 5.333h-.666V6h.666v-.667ZM16 5.333h-.667V6H16v-.667ZM.667 6H0v.667h.667V6ZM1.333 6H.667v.667h.666V6Z" fill="#FEFEFE"/>
    <path d="M2 6h-.667v.667H2V6ZM2.667 6H2v.667h.667V6ZM3.333 6h-.666v.667h.666V6ZM4 6h-.667v.667H4V6ZM4.667 6H4v.667h.667V6ZM5.333 6h-.666v.667h.666V6ZM6 6h-.667v.667H6V6ZM8 6h-.667v.667H8V6ZM8.667 6H8v.667h.667V6ZM9.333 6h-.666v.667h.666V6ZM10 6h-.667v.667H10V6ZM12 6h-.667v.667H12V6ZM12.667 6H12v.667h.667V6ZM13.333 6h-.666v.667h.666V6ZM14 6h-.667v.667H14V6ZM14.667 6H14v.667h.667V6ZM15.333 6h-.666v.667h.666V6ZM16 6h-.667v.667H16V6ZM.667 6.667H0v.666h.667v-.666ZM1.333 6.667H.667v.666h.666v-.666Z" fill="#FEFEFE"/>
    <path d="M2 6.667h-.667v.666H2v-.666ZM2.667 6.667H2v.666h.667v-.666ZM3.333 6.667h-.666v.666h.666v-.666ZM4 6.667h-.667v.666H4v-.666ZM4.667 6.667H4v.666h.667v-.666ZM5.333 6.667h-.666v.666h.666v-.666ZM6 6.667h-.667v.666H6v-.666ZM8 6.667h-.667v.666H8v-.666ZM8.667 6.667H8v.666h.667v-.666ZM9.333 6.667h-.666v.666h.666v-.666ZM10 6.667h-.667v.666H10v-.666ZM12 6.667h-.667v.666H12v-.666ZM12.667 6.667H12v.666h.667v-.666ZM13.333 6.667h-.666v.666h.666v-.666ZM14 6.667h-.667v.666H14v-.666ZM14.667 6.667H14v.666h.667v-.666ZM15.333 6.667h-.666v.666h.666v-.666ZM16 6.667h-.667v.666H16v-.666ZM.667 7.333H0V8h.667v-.667ZM1.333 7.333H.667V8h.666v-.667Z" fill="#FEFEFE"/>
    <path d="M2 7.333h-.667V8H2v-.667ZM2.667 7.333H2V8h.667v-.667ZM3.333 7.333h-.666V8h.666v-.667ZM4 7.333h-.667V8H4v-.667ZM4.667 7.333H4V8h.667v-.667ZM5.333 7.333h-.666V8h.666v-.667ZM6 7.333h-.667V8H6v-.667ZM8 7.333h-.667V8H8v-.667ZM8.667 7.333H8V8h.667v-.667ZM9.333 7.333h-.666V8h.666v-.667ZM10 7.333h-.667V8H10v-.667ZM12 7.333h-.667V8H12v-.667ZM12.667 7.333H12V8h.667v-.667ZM13.333 7.333h-.666V8h.666v-.667ZM14 7.333h-.667V8H14v-.667ZM14.667 7.333H14V8h.667v-.667ZM15.333 7.333h-.666V8h.666v-.667ZM16 7.333h-.667V8H16v-.667ZM.667 8H0v.667h.667V8ZM1.333 8H.667v.667h.666V8Z" fill="#FEFEFE"/>
    <path d="M2 8h-.667v.667H2V8ZM2.667 8H2v.667h.667V8ZM3.333 8h-.666v.667h.666V8ZM4 8h-.667v.667H4V8ZM4.667 8H4v.667h.667V8ZM5.333 8h-.666v.667h.666V8ZM6 8h-.667v.667H6V8ZM10.667 8H10v.667h.667V8ZM11.333 8h-.666v.667h.666V8ZM12 8h-.667v.667H12V8ZM12.667 8H12v.667h.667V8ZM13.333 8h-.666v.667h.666V8ZM14 8h-.667v.667H14V8ZM14.667 8H14v.667h.667V8ZM15.333 8h-.666v.667h.666V8ZM16 8h-.667v.667H16V8ZM.667 8.667H0v.666h.667v-.666ZM1.333 8.667H.667v.666h.666v-.666Z" fill="#FEFEFE"/>
    <path d="M2 8.667h-.667v.666H2v-.666ZM2.667 8.667H2v.666h.667v-.666ZM3.333 8.667h-.666v.666h.666v-.666ZM4 8.667h-.667v.666H4v-.666ZM4.667 8.667H4v.666h.667v-.666ZM5.333 8.667h-.666v.666h.666v-.666ZM6 8.667h-.667v.666H6v-.666ZM10.667 8.667H10v.666h.667v-.666ZM11.333 8.667h-.666v.666h.666v-.666ZM12 8.667h-.667v.666H12v-.666ZM12.667 8.667H12v.666h.667v-.666ZM13.333 8.667h-.666v.666h.666v-.666ZM14 8.667h-.667v.666H14v-.666ZM14.667 8.667H14v.666h.667v-.666ZM15.333 8.667h-.666v.666h.666v-.666ZM16 8.667h-.667v.666H16v-.666ZM.667 9.333H0V10h.667v-.667ZM1.333 9.333H.667V10h.666v-.667Z" fill="#FEFEFE"/>
    <path d="M2 9.333h-.667V10H2v-.667ZM2.667 9.333H2V10h.667v-.667ZM3.333 9.333h-.666V10h.666v-.667ZM4 9.333h-.667V10H4v-.667ZM4.667 9.333H4V10h.667v-.667ZM5.333 9.333h-.666V10h.666v-.667ZM6 9.333h-.667V10H6v-.667ZM8 9.333h-.667V10H8v-.667ZM8.667 9.333H8V10h.667v-.667ZM9.333 9.333h-.666V10h.666v-.667ZM10 9.333h-.667V10H10v-.667ZM10.667 9.333H10V10h.667v-.667ZM11.333 9.333h-.666V10h.666v-.667ZM12 9.333h-.667V10H12v-.667ZM12.667 9.333H12V10h.667v-.667ZM13.333 9.333h-.666V10h.666v-.667ZM14 9.333h-.667V10H14v-.667ZM14.667 9.333H14V10h.667v-.667ZM15.333 9.333h-.666V10h.666v-.667ZM16 9.333h-.667V10H16v-.667ZM.667 10H0v.667h.667V10ZM1.333 10H.667v.667h.666V10Z" fill="#FEFEFE"/>
    <path d="M2 10h-.667v.667H2V10ZM2.667 10H2v.667h.667V10ZM3.333 10h-.666v.667h.666V10ZM4 10h-.667v.667H4V10ZM4.667 10H4v.667h.667V10ZM5.333 10h-.666v.667h.666V10ZM6 10h-.667v.667H6V10ZM8 10h-.667v.667H8V10ZM8.667 10H8v.667h.667V10ZM9.333 10h-.666v.667h.666V10ZM10 10h-.667v.667H10V10ZM10.667 10H10v.667h.667V10ZM11.333 10h-.666v.667h.666V10ZM12 10h-.667v.667H12V10ZM12.667 10H12v.667h.667V10ZM13.333 10h-.666v.667h.666V10ZM14 10h-.667v.667H14V10ZM14.667 10H14v.667h.667V10ZM15.333 10h-.666v.667h.666V10ZM16 10h-.667v.667H16V10ZM2 10.667h-.667v.666H2v-.666ZM2.667 10.667H2v.666h.667v-.666ZM3.333 10.667h-.666v.666h.666v-.666ZM4 10.667h-.667v.666H4v-.666ZM4.667 10.667H4v.666h.667v-.666ZM5.333 10.667h-.666v.666h.666v-.666ZM6 10.667h-.667v.666H6v-.666ZM8 10.667h-.667v.666H8v-.666ZM8.667 10.667H8v.666h.667v-.666ZM9.333 10.667h-.666v.666h.666v-.666ZM10 10.667h-.667v.666H10v-.666ZM10.667 10.667H10v.666h.667v-.666ZM11.333 10.667h-.666v.666h.666v-.666ZM12 10.667h-.667v.666H12v-.666ZM12.667 10.667H12v.666h.667v-.666ZM13.333 10.667h-.666v.666h.666v-.666ZM14 10.667h-.667v.666H14v-.666ZM14.667 10.667H14v.666h.667v-.666ZM2 11.333h-.667V12H2v-.667ZM2.667 11.333H2V12h.667v-.667ZM3.333 11.333h-.666V12h.666v-.667ZM4 11.333h-.667V12H4v-.667ZM4.667 11.333H4V12h.667v-.667ZM5.333 11.333h-.666V12h.666v-.667ZM6 11.333h-.667V12H6v-.667ZM8 11.333h-.667V12H8v-.667ZM8.667 11.333H8V12h.667v-.667ZM9.333 11.333h-.666V12h.666v-.667ZM10 11.333h-.667V12H10v-.667ZM10.667 11.333H10V12h.667v-.667ZM11.333 11.333h-.666V12h.666v-.667ZM12 11.333h-.667V12H12v-.667ZM12.667 11.333H12V12h.667v-.667ZM13.333 11.333h-.666V12h.666v-.667ZM14 11.333h-.667V12H14v-.667ZM14.667 11.333H14V12h.667v-.667ZM2 12h-.667v.667H2V12ZM2.667 12H2v.667h.667V12ZM3.333 12h-.666v.667h.666V12ZM4 12h-.667v.667H4V12ZM4.667 12H4v.667h.667V12ZM5.333 12h-.666v.667h.666V12ZM6 12h-.667v.667H6V12ZM6.667 12H6v.667h.667V12ZM7.333 12h-.666v.667h.666V12ZM8 12h-.667v.667H8V12ZM8.667 12H8v.667h.667V12ZM9.333 12h-.666v.667h.666V12ZM10 12h-.667v.667H10V12ZM10.667 12H10v.667h.667V12ZM11.333 12h-.666v.667h.666V12ZM12 12h-.667v.667H12V12ZM12.667 12H12v.667h.667V12ZM13.333 12h-.666v.667h.666V12ZM14 12h-.667v.667H14V12ZM14.667 12H14v.667h.667V12ZM2 12.667h-.667v.666H2v-.666ZM2.667 12.667H2v.666h.667v-.666ZM3.333 12.667h-.666v.666h.666v-.666ZM4 12.667h-.667v.666H4v-.666ZM4.667 12.667H4v.666h.667v-.666ZM5.333 12.667h-.666v.666h.666v-.666ZM6 12.667h-.667v.666H6v-.666ZM6.667 12.667H6v.666h.667v-.666ZM7.333 12.667h-.666v.666h.666v-.666ZM8 12.667h-.667v.666H8v-.666ZM8.667 12.667H8v.666h.667v-.666ZM9.333 12.667h-.666v.666h.666v-.666ZM10 12.667h-.667v.666H10v-.666ZM10.667 12.667H10v.666h.667v-.666ZM11.333 12.667h-.666v.666h.666v-.666ZM12 12.667h-.667v.666H12v-.666ZM12.667 12.667H12v.666h.667v-.666ZM13.333 12.667h-.666v.666h.666v-.666ZM14 12.667h-.667v.666H14v-.666ZM14.667 12.667H14v.666h.667v-.666ZM3.333 13.333h-.666V14h.666v-.667ZM4 13.333h-.667V14H4v-.667ZM4.667 13.333H4V14h.667v-.667ZM5.333 13.333h-.666V14h.666v-.667ZM6 13.333h-.667V14H6v-.667ZM6.667 13.333H6V14h.667v-.667ZM7.333 13.333h-.666V14h.666v-.667ZM8 13.333h-.667V14H8v-.667ZM8.667 13.333H8V14h.667v-.667ZM9.333 13.333h-.666V14h.666v-.667ZM10 13.333h-.667V14H10v-.667ZM10.667 13.333H10V14h.667v-.667ZM11.333 13.333h-.666V14h.666v-.667ZM12 13.333h-.667V14H12v-.667ZM12.667 13.333H12V14h.667v-.667ZM13.333 13.333h-.666V14h.666v-.667ZM3.333 14h-.666v.667h.666V14ZM4 14h-.667v.667H4V14ZM4.667 14H4v.667h.667V14ZM5.333 14h-.666v.667h.666V14ZM6 14h-.667v.667H6V14ZM6.667 14H6v.667h.667V14ZM7.333 14h-.666v.667h.666V14ZM8 14h-.667v.667H8V14ZM8.667 14H8v.667h.667V14ZM9.333 14h-.666v.667h.666V14ZM10 14h-.667v.667H10V14ZM10.667 14H10v.667h.667V14ZM11.333 14h-.666v.667h.666V14ZM12 14h-.667v.667H12V14ZM12.667 14H12v.667h.667V14ZM13.333 14h-.666v.667h.666V14ZM6 14.667h-.667v.666H6v-.666ZM6.667 14.667H6v.666h.667v-.666ZM7.333 14.667h-.666v.666h.666v-.666ZM8 14.667h-.667v.666H8v-.666ZM8.667 14.667H8v.666h.667v-.666ZM9.333 14.667h-.666v.666h.666v-.666ZM10 14.667h-.667v.666H10v-.666ZM10.667 14.667H10v.666h.667v-.666ZM6 15.333h-.667V16H6v-.667ZM6.667 15.333H6V16h.667v-.667ZM7.333 15.333h-.666V16h.666v-.667ZM8 15.333h-.667V16H8v-.667ZM8.667 15.333H8V16h.667v-.667ZM9.333 15.333h-.666V16h.666v-.667ZM10 15.333h-.667V16H10v-.667ZM10.667 15.333H10V16h.667v-.667Z" fill="#FEFEFE"/>
</svg>
