<svg width="545" height="50" viewBox="0 0 545 50" fill="none" xmlns="http://www.w3.org/2000/svg">
<mask id="path-1-inside-1_596_4710" fill="white">
<path fill-rule="evenodd" clip-rule="evenodd" d="M4.03027 50C1.82113 50 0.0302734 48.2091 0.0302734 46V26.5248C0.0302734 25.0493 0.842597 23.6936 2.14371 22.9977L44.2566 0.472838C44.837 0.162413 45.485 0 46.1432 0H541C543.209 0 545 1.79086 545 4V22.7964C545 24.2719 544.187 25.6276 542.886 26.3235L499.504 49.5272C498.924 49.8376 498.276 50 497.618 50H4.03027Z"/>
</mask>
<path d="M499.504 49.5272L499.033 48.6454L499.504 49.5272ZM542.886 26.3235L543.358 27.2053L542.886 26.3235ZM44.2566 0.472838L43.785 -0.408953L44.2566 0.472838ZM2.14371 22.9977L1.67207 22.1159L2.14371 22.9977ZM-0.969727 26.5248V46H1.03027V26.5248H-0.969727ZM43.785 -0.408953L1.67207 22.1159L2.61535 23.8795L44.7283 1.35463L43.785 -0.408953ZM541 -1H46.1432V1H541V-1ZM546 22.7964V4H544V22.7964H546ZM499.976 50.409L543.358 27.2053L542.415 25.4417L499.033 48.6454L499.976 50.409ZM4.03027 51H497.618V49H4.03027V51ZM499.033 48.6454C498.597 48.8782 498.111 49 497.618 49V51C498.44 51 499.25 50.797 499.976 50.409L499.033 48.6454ZM544 22.7964C544 23.903 543.391 24.9198 542.415 25.4417L543.358 27.2053C544.984 26.3354 546 24.6408 546 22.7964H544ZM541 1C542.657 1 544 2.34315 544 4H546C546 1.23858 543.761 -1 541 -1V1ZM44.7283 1.35463C45.1636 1.12181 45.6496 1 46.1432 1V-1C45.3205 -1 44.5105 -0.796983 43.785 -0.408953L44.7283 1.35463ZM-0.969727 46C-0.969727 48.7614 1.26885 51 4.03027 51V49C2.37342 49 1.03027 47.6569 1.03027 46H-0.969727ZM1.03027 26.5248C1.03027 25.4182 1.63952 24.4014 2.61535 23.8795L1.67207 22.1159C0.0456786 22.9858 -0.969727 24.6804 -0.969727 26.5248H1.03027Z" fill="#FEFEFE" mask="url(#path-1-inside-1_596_4710)"/>
</svg>
