<svg width="761" height="50" viewBox="0 0 761 50" fill="none" xmlns="http://www.w3.org/2000/svg">
<mask id="path-1-inside-1_598_4" fill="white">
<path fill-rule="evenodd" clip-rule="evenodd" d="M2.49981 22.306C1.27455 23.4415 0.578125 25.0364 0.578125 26.7068V44C0.578125 47.3137 3.26442 50 6.57813 50H731.974C733.487 50 734.943 49.4288 736.052 48.4008L758.656 27.4534C759.882 26.318 760.578 24.7231 760.578 23.0526V5.99999C760.578 2.68629 757.892 0 754.578 0H28.9225C27.4101 0 25.9535 0.571158 24.8442 1.59916L2.49981 22.306Z"/>
</mask>
<path d="M758.656 27.4534L757.977 26.72L758.656 27.4534ZM736.052 48.4008L736.732 49.1343L736.052 48.4008ZM-0.421875 26.7068V44H1.57812V26.7068H-0.421875ZM6.57813 51H731.974V49H6.57813V51ZM736.732 49.1343L759.336 28.1869L757.977 26.72L735.373 47.6674L736.732 49.1343ZM761.578 23.0526V5.99999H759.578V23.0526H761.578ZM754.578 -1H28.9225V1H754.578V-1ZM24.1645 0.865692L1.82009 21.5725L3.17953 23.0395L25.5239 2.33264L24.1645 0.865692ZM28.9225 -1C27.158 -1 25.4587 -0.333648 24.1645 0.865692L25.5239 2.33264C26.4483 1.47596 27.6622 1 28.9225 1V-1ZM761.578 5.99999C761.578 2.134 758.444 -1 754.578 -1V1C757.34 1 759.578 3.23857 759.578 5.99999H761.578ZM759.336 28.1869C760.766 26.8622 761.578 25.0015 761.578 23.0526H759.578C759.578 24.4447 758.998 25.7737 757.977 26.72L759.336 28.1869ZM731.974 51C733.739 51 735.438 50.3336 736.732 49.1343L735.373 47.6674C734.448 48.524 733.235 49 731.974 49V51ZM-0.421875 44C-0.421875 47.866 2.71213 51 6.57813 51V49C3.8167 49 1.57812 46.7614 1.57812 44H-0.421875ZM1.57812 26.7068C1.57812 25.3148 2.15848 23.9857 3.17953 23.0395L1.82009 21.5725C0.390617 22.8973 -0.421875 24.7579 -0.421875 26.7068H1.57812Z" fill="#FEFEFE" mask="url(#path-1-inside-1_598_4)"/>
</svg>
