<svg width="14" height="14" viewBox="0 0 14 14" fill="none" xmlns="http://www.w3.org/2000/svg">
<g clip-path="url(#clip0_3291_1065)">
<path d="M0.875 0H0V0.875H0.875V0Z" fill="#707070"/>
<path d="M1.75 0H0.875V0.875H1.75V0Z" fill="#707070"/>
<path d="M2.625 0H1.75V0.875H2.625V0Z" fill="#707070"/>
<path d="M3.5 0H2.625V0.875H3.5V0Z" fill="#707070"/>
<path d="M4.375 0H3.5V0.875H4.375V0Z" fill="#707070"/>
<path d="M5.25 0H4.375V0.875H5.25V0Z" fill="#707070"/>
<path d="M6.125 0H5.25V0.875H6.125V0Z" fill="#707070"/>
<path d="M7 0H6.125V0.875H7V0Z" fill="#707070"/>
<path d="M7.875 0H7V0.875H7.875V0Z" fill="#707070"/>
<path d="M8.75 0H7.875V0.875H8.75V0Z" fill="#707070"/>
<path d="M9.625 0H8.75V0.875H9.625V0Z" fill="#707070"/>
<path d="M10.5 0H9.625V0.875H10.5V0Z" fill="#707070"/>
<path d="M11.375 0H10.5V0.875H11.375V0Z" fill="#707070"/>
<path d="M0.875 0.875H0V1.75H0.875V0.875Z" fill="#707070"/>
<path d="M1.75 0.875H0.875V1.75H1.75V0.875Z" fill="#707070"/>
<path d="M2.625 0.875H1.75V1.75H2.625V0.875Z" fill="#707070"/>
<path d="M3.5 0.875H2.625V1.75H3.5V0.875Z" fill="#707070"/>
<path d="M4.375 0.875H3.5V1.75H4.375V0.875Z" fill="#707070"/>
<path d="M5.25 0.875H4.375V1.75H5.25V0.875Z" fill="#707070"/>
<path d="M6.125 0.875H5.25V1.75H6.125V0.875Z" fill="#707070"/>
<path d="M7 0.875H6.125V1.75H7V0.875Z" fill="#707070"/>
<path d="M7.875 0.875H7V1.75H7.875V0.875Z" fill="#707070"/>
<path d="M8.75 0.875H7.875V1.75H8.75V0.875Z" fill="#707070"/>
<path d="M9.625 0.875H8.75V1.75H9.625V0.875Z" fill="#707070"/>
<path d="M10.5 0.875H9.625V1.75H10.5V0.875Z" fill="#707070"/>
<path d="M11.375 0.875H10.5V1.75H11.375V0.875Z" fill="#707070"/>
<path d="M0.875 1.75H0V2.625H0.875V1.75Z" fill="#707070"/>
<path d="M1.75 1.75H0.875V2.625H1.75V1.75Z" fill="#707070"/>
<path d="M12.25 1.75H11.375V2.625H12.25V1.75Z" fill="#707070"/>
<path d="M13.125 1.75H12.25V2.625H13.125V1.75Z" fill="#707070"/>
<path d="M0.875 2.625H0V3.5H0.875V2.625Z" fill="#707070"/>
<path d="M1.75 2.625H0.875V3.5H1.75V2.625Z" fill="#707070"/>
<path d="M12.25 2.625H11.375V3.5H12.25V2.625Z" fill="#707070"/>
<path d="M13.125 2.625H12.25V3.5H13.125V2.625Z" fill="#707070"/>
<path d="M0.875 3.5H0V4.375H0.875V3.5Z" fill="#707070"/>
<path d="M1.75 3.5H0.875V4.375H1.75V3.5Z" fill="#707070"/>
<path d="M2.625 3.5H1.75V4.375H2.625V3.5Z" fill="#707070"/>
<path d="M3.5 3.5H2.625V4.375H3.5V3.5Z" fill="#707070"/>
<path d="M4.375 3.5H3.5V4.375H4.375V3.5Z" fill="#707070"/>
<path d="M5.25 3.5H4.375V4.375H5.25V3.5Z" fill="#707070"/>
<path d="M6.125 3.5H5.25V4.375H6.125V3.5Z" fill="#707070"/>
<path d="M7 3.5H6.125V4.375H7V3.5Z" fill="#707070"/>
<path d="M7.875 3.5H7V4.375H7.875V3.5Z" fill="#707070"/>
<path d="M8.75 3.5H7.875V4.375H8.75V3.5Z" fill="#707070"/>
<path d="M9.625 3.5H8.75V4.375H9.625V3.5Z" fill="#707070"/>
<path d="M10.5 3.5H9.625V4.375H10.5V3.5Z" fill="#707070"/>
<path d="M11.375 3.5H10.5V4.375H11.375V3.5Z" fill="#707070"/>
<path d="M12.25 3.5H11.375V4.375H12.25V3.5Z" fill="#707070"/>
<path d="M13.125 3.5H12.25V4.375H13.125V3.5Z" fill="#707070"/>
<path d="M14 3.5H13.125V4.375H14V3.5Z" fill="#707070"/>
<path d="M0.875 4.375H0V5.25H0.875V4.375Z" fill="#707070"/>
<path d="M1.75 4.375H0.875V5.25H1.75V4.375Z" fill="#707070"/>
<path d="M2.625 4.375H1.75V5.25H2.625V4.375Z" fill="#707070"/>
<path d="M3.5 4.375H2.625V5.25H3.5V4.375Z" fill="#707070"/>
<path d="M4.375 4.375H3.5V5.25H4.375V4.375Z" fill="#707070"/>
<path d="M5.25 4.375H4.375V5.25H5.25V4.375Z" fill="#707070"/>
<path d="M6.125 4.375H5.25V5.25H6.125V4.375Z" fill="#707070"/>
<path d="M7 4.375H6.125V5.25H7V4.375Z" fill="#707070"/>
<path d="M7.875 4.375H7V5.25H7.875V4.375Z" fill="#707070"/>
<path d="M8.75 4.375H7.875V5.25H8.75V4.375Z" fill="#707070"/>
<path d="M9.625 4.375H8.75V5.25H9.625V4.375Z" fill="#707070"/>
<path d="M10.5 4.375H9.625V5.25H10.5V4.375Z" fill="#707070"/>
<path d="M11.375 4.375H10.5V5.25H11.375V4.375Z" fill="#707070"/>
<path d="M12.25 4.375H11.375V5.25H12.25V4.375Z" fill="#707070"/>
<path d="M13.125 4.375H12.25V5.25H13.125V4.375Z" fill="#707070"/>
<path d="M14 4.375H13.125V5.25H14V4.375Z" fill="#707070"/>
<path d="M0.875 5.25H0V6.125H0.875V5.25Z" fill="#707070"/>
<path d="M1.75 5.25H0.875V6.125H1.75V5.25Z" fill="#707070"/>
<path d="M13.125 5.25H12.25V6.125H13.125V5.25Z" fill="#707070"/>
<path d="M14 5.25H13.125V6.125H14V5.25Z" fill="#707070"/>
<path d="M0.875 6.125H0V7H0.875V6.125Z" fill="#707070"/>
<path d="M1.75 6.125H0.875V7H1.75V6.125Z" fill="#707070"/>
<path d="M13.125 6.125H12.25V7H13.125V6.125Z" fill="#707070"/>
<path d="M14 6.125H13.125V7H14V6.125Z" fill="#707070"/>
<path d="M0.875 7H0V7.875H0.875V7Z" fill="#707070"/>
<path d="M1.75 7H0.875V7.875H1.75V7Z" fill="#707070"/>
<path d="M11.375 7H10.5V7.875H11.375V7Z" fill="#707070"/>
<path d="M12.25 7H11.375V7.875H12.25V7Z" fill="#707070"/>
<path d="M13.125 7H12.25V7.875H13.125V7Z" fill="#707070"/>
<path d="M14 7H13.125V7.875H14V7Z" fill="#707070"/>
<path d="M0.875 7.875H0V8.75H0.875V7.875Z" fill="#707070"/>
<path d="M1.75 7.875H0.875V8.75H1.75V7.875Z" fill="#707070"/>
<path d="M11.375 7.875H10.5V8.75H11.375V7.875Z" fill="#707070"/>
<path d="M12.25 7.875H11.375V8.75H12.25V7.875Z" fill="#707070"/>
<path d="M13.125 7.875H12.25V8.75H13.125V7.875Z" fill="#707070"/>
<path d="M14 7.875H13.125V8.75H14V7.875Z" fill="#707070"/>
<path d="M0.875 8.75H0V9.625H0.875V8.75Z" fill="#707070"/>
<path d="M1.75 8.75H0.875V9.625H1.75V8.75Z" fill="#707070"/>
<path d="M11.375 8.75H10.5V9.625H11.375V8.75Z" fill="#707070"/>
<path d="M12.25 8.75H11.375V9.625H12.25V8.75Z" fill="#707070"/>
<path d="M13.125 8.75H12.25V9.625H13.125V8.75Z" fill="#707070"/>
<path d="M14 8.75H13.125V9.625H14V8.75Z" fill="#707070"/>
<path d="M0.875 9.625H0V10.5H0.875V9.625Z" fill="#707070"/>
<path d="M1.75 9.625H0.875V10.5H1.75V9.625Z" fill="#707070"/>
<path d="M13.125 9.625H12.25V10.5H13.125V9.625Z" fill="#707070"/>
<path d="M14 9.625H13.125V10.5H14V9.625Z" fill="#707070"/>
<path d="M0.875 10.5H0V11.375H0.875V10.5Z" fill="#707070"/>
<path d="M1.75 10.5H0.875V11.375H1.75V10.5Z" fill="#707070"/>
<path d="M13.125 10.5H12.25V11.375H13.125V10.5Z" fill="#707070"/>
<path d="M14 10.5H13.125V11.375H14V10.5Z" fill="#707070"/>
<path d="M0.875 11.375H0V12.25H0.875V11.375Z" fill="#707070"/>
<path d="M1.75 11.375H0.875V12.25H1.75V11.375Z" fill="#707070"/>
<path d="M13.125 11.375H12.25V12.25H13.125V11.375Z" fill="#707070"/>
<path d="M14 11.375H13.125V12.25H14V11.375Z" fill="#707070"/>
<path d="M0.875 12.25H0V13.125H0.875V12.25Z" fill="#707070"/>
<path d="M1.75 12.25H0.875V13.125H1.75V12.25Z" fill="#707070"/>
<path d="M2.625 12.25H1.75V13.125H2.625V12.25Z" fill="#707070"/>
<path d="M3.5 12.25H2.625V13.125H3.5V12.25Z" fill="#707070"/>
<path d="M4.375 12.25H3.5V13.125H4.375V12.25Z" fill="#707070"/>
<path d="M5.25 12.25H4.375V13.125H5.25V12.25Z" fill="#707070"/>
<path d="M6.125 12.25H5.25V13.125H6.125V12.25Z" fill="#707070"/>
<path d="M7 12.25H6.125V13.125H7V12.25Z" fill="#707070"/>
<path d="M7.875 12.25H7V13.125H7.875V12.25Z" fill="#707070"/>
<path d="M8.75 12.25H7.875V13.125H8.75V12.25Z" fill="#707070"/>
<path d="M9.625 12.25H8.75V13.125H9.625V12.25Z" fill="#707070"/>
<path d="M10.5 12.25H9.625V13.125H10.5V12.25Z" fill="#707070"/>
<path d="M11.375 12.25H10.5V13.125H11.375V12.25Z" fill="#707070"/>
<path d="M12.25 12.25H11.375V13.125H12.25V12.25Z" fill="#707070"/>
<path d="M13.125 12.25H12.25V13.125H13.125V12.25Z" fill="#707070"/>
<path d="M14 12.25H13.125V13.125H14V12.25Z" fill="#707070"/>
<path d="M0.875 13.125H0V14H0.875V13.125Z" fill="#707070"/>
<path d="M1.75 13.125H0.875V14H1.75V13.125Z" fill="#707070"/>
<path d="M2.625 13.125H1.75V14H2.625V13.125Z" fill="#707070"/>
<path d="M3.5 13.125H2.625V14H3.5V13.125Z" fill="#707070"/>
<path d="M4.375 13.125H3.5V14H4.375V13.125Z" fill="#707070"/>
<path d="M5.25 13.125H4.375V14H5.25V13.125Z" fill="#707070"/>
<path d="M6.125 13.125H5.25V14H6.125V13.125Z" fill="#707070"/>
<path d="M7 13.125H6.125V14H7V13.125Z" fill="#707070"/>
<path d="M7.875 13.125H7V14H7.875V13.125Z" fill="#707070"/>
<path d="M8.75 13.125H7.875V14H8.75V13.125Z" fill="#707070"/>
<path d="M9.625 13.125H8.75V14H9.625V13.125Z" fill="#707070"/>
<path d="M10.5 13.125H9.625V14H10.5V13.125Z" fill="#707070"/>
<path d="M11.375 13.125H10.5V14H11.375V13.125Z" fill="#707070"/>
<path d="M12.25 13.125H11.375V14H12.25V13.125Z" fill="#707070"/>
<path d="M13.125 13.125H12.25V14H13.125V13.125Z" fill="#707070"/>
<path d="M14 13.125H13.125V14H14V13.125Z" fill="#707070"/>
</g>
<defs>
<clipPath id="clip0_3291_1065">
<rect width="14" height="14" fill="white"/>
</clipPath>
</defs>
</svg>
